<svg width="21" height="21" viewBox="0 0 21 21" fill="none" xmlns="http://www.w3.org/2000/svg">
<g clip-path="url(#clip0_506_4826)">
<path fill-rule="evenodd" clip-rule="evenodd" d="M5.32272 1.99951C5.4134 1.99951 5.49417 2.06733 5.50813 2.16104L5.32272 1.99951Z" fill="#292929"/>
<path fill-rule="evenodd" clip-rule="evenodd" d="M2.18757 -0.000488281C0.976862 -0.000488281 0.000586052 0.984301 1.17021e-05 2.18957C-0.0112606 12.7818 8.12251 21.0148 18.8098 21.0004L18.8112 21.0004C19.5063 21.0003 20.1763 20.5746 20.5 20C21 18.5 21 17.1958 21 15.5C20.8239 14.5117 20.2643 14.2042 20 14C19.2922 13.4531 16.9068 12.6787 15.1102 12.268C14.721 12.0878 14.2811 12.0492 13.8665 12.1589C13.4876 12.2592 13.1516 12.4775 12.9064 12.7808C12.8832 12.8096 12.8608 12.8391 12.8392 12.8693C12.4272 13.4464 11.6348 13.6214 11.0466 13.2136L9 11.5C7.1705 10 8.07502 8.81698 8.13386 8.16014C8.48219 7.91078 8.73256 7.54769 8.84182 7.13348C8.95107 6.71927 8.91206 6.2793 8.73203 5.89059L8.61005 5.62768C8.05756 4.43436 7.67904 3.16715 7.4863 1.86633C7.32688 0.796233 6.40773 -0.000488281 5.32272 -0.000488281H2.18757ZM2.00001 2.19063C2.00001 2.08295 2.08757 1.99951 2.18757 1.99951H5.32272C5.4134 1.99951 5.49417 2.06733 5.50813 2.16104C5.72895 3.65084 6.16236 5.10126 6.79513 6.46797L6.86273 6.61367C6.46062 6.92661 6.13458 7.33117 5.90938 7.78676C5.41517 8.78654 5.40657 10.0321 6.14531 11.0947C7.16189 12.5577 8.44315 13.8401 9.90682 14.857C11.4543 15.9304 13.3891 15.4227 14.388 14.1374L14.5327 14.2042C15.8996 14.8381 17.3501 15.2717 18.8399 15.4924C18.9327 15.5064 19.0009 15.5866 19.0009 15.6789V18.8129C19.0009 18.8375 18.9961 18.8619 18.9867 18.8847C18.9772 18.9075 18.9634 18.9282 18.9459 18.9456C18.9285 18.963 18.9078 18.9768 18.885 18.9862C18.8623 18.9956 18.8369 19.0005 18.8122 19.0004L18.8098 19.0004L18.8084 19.0005C9.95799 19.0129 3.0984 12.7513 2.11994 4.30517C2.03993 3.61454 1.99925 2.9093 2.00001 2.1917L2.00001 2.19063Z" fill="#292929"/>
</g>
<defs>
<clipPath id="clip0_506_4826">
<rect width="21" height="21" fill="white"/>
</clipPath>
</defs>
</svg>
