<svg width="18" height="26" viewBox="0 0 18 26" fill="none" xmlns="http://www.w3.org/2000/svg">
<path d="M8.93136 25.3059C7.50336 25.3059 6.18869 25.1132 4.98736 24.7279C3.80869 24.3426 2.85669 23.7419 2.13136 22.9259C1.40603 22.1099 1.04336 21.0672 1.04336 19.7979C1.04336 18.9366 1.28136 18.0639 1.75736 17.1799C2.25603 16.2959 3.03803 15.4572 4.10336 14.6639L3.76336 15.5819H0.193359V14.1199H17.0574V15.5819H5.08936L6.65336 15.1739C5.65603 15.7406 4.91936 16.3866 4.44336 17.1119C3.99003 17.8146 3.76336 18.5286 3.76336 19.2539C3.76336 20.1606 4.01269 20.9086 4.51136 21.4979C5.01003 22.0646 5.67869 22.4952 6.51736 22.7899C7.37869 23.0619 8.31936 23.1979 9.33936 23.1979C10.178 23.1979 11.0167 23.1072 11.8554 22.9259C12.694 22.7446 13.4874 22.4726 14.2354 22.1099L13.4194 22.9259L13.9634 18.9139H15.6974L15.8334 23.9119C14.7227 24.3652 13.5667 24.7166 12.3654 24.9659C11.1867 25.1926 10.042 25.3059 8.93136 25.3059ZM0.193359 11.8419V10.3799H11.3114L9.20336 10.9919C10.2234 10.4479 11.0734 9.81325 11.7534 9.08791C12.456 8.33991 12.8074 7.51258 12.8074 6.60591C12.8074 5.78991 12.5694 5.13258 12.0934 4.63391C11.64 4.11258 11.028 3.72725 10.2574 3.47791C9.50936 3.22858 8.68203 3.10391 7.77536 3.10391C7.00469 3.10391 6.18869 3.18325 5.32736 3.34191C4.48869 3.47791 3.67269 3.71591 2.87936 4.05591L3.86536 3.30791L3.32136 7.25191H1.62136L1.34936 2.28791C2.48269 1.85725 3.63869 1.52858 4.81736 1.30191C5.99603 1.07525 7.12936 0.961914 8.21736 0.961914C9.55469 0.961914 10.7674 1.14325 11.8554 1.50591C12.9434 1.84591 13.8047 2.38991 14.4394 3.13791C15.0967 3.88591 15.4254 4.84925 15.4254 6.02791C15.4254 7.00258 15.1307 7.94325 14.5414 8.84991C13.952 9.73391 13.1814 10.5386 12.2294 11.2639L12.5354 10.3799H17.0574V11.8419H0.193359Z" fill="#292929"/>
</svg>
