<svg width="56" height="56" viewBox="0 0 56 56" fill="none" xmlns="http://www.w3.org/2000/svg">
<g opacity="0.8">
<path fill-rule="evenodd" clip-rule="evenodd" d="M16.039 0.559082L31.6227 16.6437L16.039 32.7283L0.614258 16.6437L16.039 0.559082ZM15.0427 4.48758L4.43974 15.5441L8.95599 15.3613L15.0427 9.35216V4.48758ZM16.0269 11.191L10.7688 16.3821L16.0579 22.1973L21.317 16.6511L16.0269 11.191ZM23.132 17.6437L17.0427 24.0654V28.8181L27.8691 17.6437H23.132ZM27.8691 15.6437H23.1257L17.0427 9.36515V4.46928L27.8691 15.6437ZM15.0427 28.7998V24.0534L8.95734 17.3629L4.2574 17.5531L15.0427 28.7998Z" fill="#292929"/>
<path fill-rule="evenodd" clip-rule="evenodd" d="M36.8592 23.0139C36.6077 24.3066 36.2005 25.5754 35.6375 26.7902C36.5049 26.9521 37.4001 27.0368 38.3158 27.0368C39.2315 27.0368 40.1266 26.9521 40.9941 26.7902C40.4555 25.6282 40.0595 24.4167 39.806 23.1822C39.0555 23.0623 38.2854 23 37.5 23C37.2852 23 37.0716 23.0047 36.8592 23.0139ZM41.9876 23.7075C42.2293 24.5863 42.5551 25.4466 42.965 26.2757C43.7696 26.0035 44.5426 25.6626 45.2772 25.2598C44.2596 24.6118 43.156 24.0874 41.9876 23.7075ZM47.016 26.5592C46.069 27.1479 45.0577 27.6436 43.995 28.0332C44.4938 28.761 45.0669 29.4539 45.7144 30.1014C46.3619 30.7489 47.0548 31.3219 47.7826 31.8208C48.1565 30.8008 48.6282 29.8282 49.1861 28.9143C48.5511 28.0515 47.8228 27.2615 47.016 26.5592ZM50.3895 30.8513C50.0585 31.4915 49.7739 32.1595 49.5401 32.8507C50.1708 33.1626 50.8196 33.4258 51.4809 33.6403C51.2125 32.6657 50.8449 31.7323 50.3895 30.8513ZM51.9065 35.8433C50.9234 35.5946 49.9586 35.2541 49.0256 34.8217C48.8637 35.6891 48.7789 36.5843 48.7789 37.5C48.7789 38.4157 48.8637 39.3108 49.0256 40.1783C49.9586 39.7459 50.9234 39.4053 51.9065 39.1567C51.9682 38.6133 52 38.0606 52 37.5C52 36.9394 51.9682 36.3867 51.9065 35.8433ZM51.4809 41.3597C50.8196 41.5742 50.1708 41.8374 49.5401 42.1492C49.7739 42.8405 50.0585 43.5084 50.3895 44.1487C50.8449 43.2677 51.2125 42.3342 51.4809 41.3597ZM49.1861 46.0857C48.6282 45.1718 48.1565 44.1992 47.7826 43.1792C47.0548 43.678 46.3619 44.2511 45.7143 44.8986C45.0669 45.5461 44.4938 46.239 43.9949 46.9668C45.0577 47.3564 46.069 47.8521 47.016 48.4408C47.8228 47.7385 48.5511 46.9485 49.1861 46.0857ZM45.2772 49.7402C44.5426 49.3374 43.7696 48.9964 42.965 48.7243C42.5551 49.5533 42.2293 50.4137 41.9876 51.2925C43.156 50.9126 44.2596 50.3882 45.2772 49.7402ZM39.8059 51.8178C40.0595 50.5833 40.4555 49.3718 40.9941 48.2098C40.1266 48.0479 39.2315 47.9632 38.3158 47.9632C37.4001 47.9632 36.5049 48.0479 35.6375 48.2098C36.2005 49.4246 36.6077 50.6934 36.8593 51.9861C37.0716 51.9953 37.2852 52 37.5 52C38.2854 52 39.0555 51.9377 39.8059 51.8178ZM34.7598 51.7416C34.5105 50.7067 34.146 49.6941 33.6665 48.7243C32.5579 49.0993 31.5092 49.6049 30.5386 50.223C31.8377 50.9354 33.2575 51.4544 34.7598 51.7416ZM28.7189 49.0397C29.915 48.1831 31.2308 47.4822 32.6366 46.9668C32.1377 46.239 31.5647 45.5461 30.9172 44.8986C30.2697 44.2511 29.5768 43.6781 28.849 43.1792C28.3206 44.6205 27.5971 45.9673 26.7108 47.1874C27.3202 47.8657 27.9927 48.4862 28.7189 49.0397ZM25.4263 45.5327C26.1205 44.4915 26.6833 43.3558 27.0915 42.1493C25.9131 41.5666 24.6715 41.1538 23.4033 40.9111C23.8063 42.583 24.4992 44.1422 25.4263 45.5327ZM23.0597 38.8255C24.6181 39.053 26.1508 39.5039 27.606 40.1783C27.7679 39.3109 27.8526 38.4157 27.8526 37.5C27.8526 36.5843 27.7679 35.6891 27.606 34.8217C26.1508 35.4962 24.6181 35.947 23.0597 36.1745C23.0202 36.6108 23 37.0529 23 37.5C23 37.9471 23.0202 38.3892 23.0597 38.8255ZM23.4033 34.0889C24.6715 33.8462 25.9131 33.4334 27.0915 32.8507C26.6833 31.6442 26.1205 30.5085 25.4263 29.4673C24.4992 30.8578 23.8063 32.417 23.4033 34.0889ZM26.7108 27.8126C27.5971 29.0327 28.3206 30.3795 28.849 31.8208C29.5768 31.322 30.2697 30.7489 30.9172 30.1015C31.5647 29.4539 32.1377 28.761 32.6366 28.0332C31.2308 27.5178 29.915 26.8169 28.7189 25.9603C27.9927 26.5138 27.3202 27.1343 26.7108 27.8126ZM30.5386 24.777C31.5092 25.3951 32.5579 25.9007 33.6665 26.2757C34.146 25.3059 34.5105 24.2933 34.7597 23.2584C33.2575 23.5456 31.8377 24.0646 30.5386 24.777ZM34.6399 28.6257C33.9938 29.6524 33.2241 30.6229 32.3314 31.5157C31.4386 32.4084 30.4682 33.1781 29.4414 33.8241C29.7106 35.007 29.8526 36.2375 29.8526 37.5C29.8526 38.7625 29.7106 39.993 29.4414 41.1759C30.4682 41.822 31.4387 42.5916 32.3314 43.4844C33.2242 44.3771 33.9938 45.3476 34.6399 46.3743C35.8228 46.1051 37.0533 45.9632 38.3158 45.9632C39.5783 45.9632 40.8088 46.1051 41.9917 46.3743C42.6377 45.3476 43.4074 44.3771 44.3001 43.4844C45.1929 42.5916 46.1633 41.8219 47.1901 41.1759C46.9209 39.993 46.7789 38.7625 46.7789 37.5C46.7789 36.2375 46.9209 35.007 47.1901 33.8241C46.1634 33.178 45.1929 32.4084 44.3001 31.5156C43.4074 30.6229 42.6377 29.6524 41.9917 28.6257C40.8088 28.8949 39.5783 29.0368 38.3158 29.0368C37.0532 29.0368 35.8228 28.8949 34.6399 28.6257ZM35.9096 21.0757C36.4332 21.0256 36.9638 21 37.5 21C38.6533 21 39.7801 21.1185 40.8683 21.3443C43.4112 21.8719 45.7391 22.9843 47.7049 24.5334C49.066 25.606 50.254 26.8883 51.2205 28.332C52.5115 30.2604 53.4072 32.4771 53.7906 34.8652C53.9285 35.7238 54 36.6039 54 37.5C54 38.3961 53.9285 39.2762 53.7906 40.1347C53.4072 42.5228 52.5115 44.7396 51.2205 46.668C50.254 48.1117 49.066 49.394 47.7049 50.4666C45.7391 52.0157 43.4112 53.1281 40.8683 53.6557C39.78 53.8815 38.6533 54 37.5 54C36.9638 54 36.4332 53.9744 35.9096 53.9243C33.0522 53.6508 30.407 52.6484 28.1634 51.1061C26.8389 50.1956 25.6542 49.0968 24.6478 47.8483C22.8347 45.5992 21.599 42.8627 21.1684 39.8656C21.0574 39.0925 21 38.3027 21 37.5C21 36.6973 21.0574 35.9075 21.1684 35.1345C21.5989 32.1374 22.8347 29.4008 24.6478 27.1517C25.6542 25.9032 26.8389 24.8044 28.1634 23.8939C30.407 22.3516 33.0522 21.3492 35.9096 21.0757Z" fill="#292929"/>
<path d="M42.2828 8.29927C42.8834 6.34285 43.2874 3.67002 43.5 2C43.7107 3.65478 44.1667 6.4378 44.7149 8.2808C47.1764 9.02158 49.3035 9.28402 51 9.5C49.3156 9.71445 46.9087 9.9747 44.7087 10.7035C44.1633 12.4405 43.7099 15.3514 43.5 17C43.2916 15.363 42.8993 12.4813 42.3182 10.7402C40.1109 10.1269 37.6913 9.71532 36 9.5C37.6823 9.28583 40.0851 9.02597 42.2828 8.29927Z" fill="#B4924F"/>
</g>
</svg>
