<svg width="56" height="56" viewBox="0 0 56 56" fill="none" xmlns="http://www.w3.org/2000/svg">
<g opacity="0.8" clip-path="url(#clip0_419_4051)">
<path fill-rule="evenodd" clip-rule="evenodd" d="M28.2193 14.3936C17.4128 14.3936 8.65234 23.154 8.65234 33.9605C8.65234 44.767 17.4128 53.5274 28.2193 53.5274C39.0258 53.5274 47.7862 44.767 47.7862 33.9605C47.7862 23.154 39.0258 14.3936 28.2193 14.3936ZM6.65234 33.9605C6.65234 22.0494 16.3082 12.3936 28.2193 12.3936C40.1304 12.3936 49.7862 22.0494 49.7862 33.9605C49.7862 45.8716 40.1304 55.5274 28.2193 55.5274C16.3082 55.5274 6.65234 45.8716 6.65234 33.9605ZM17.589 23.3302C15.014 25.9053 13.4787 29.5781 13.4787 33.9605C13.4787 38.3428 15.014 42.0156 17.589 44.5907C20.1641 47.1658 23.8369 48.701 28.2193 48.701C32.6016 48.701 36.2744 47.1658 38.8495 44.5907C41.4246 42.0156 42.9598 38.3428 42.9598 33.9605C42.9598 29.5781 41.4246 25.9053 38.8495 23.3302C36.2744 20.7552 32.6016 19.2199 28.2193 19.2199C23.8369 19.2199 20.1641 20.7552 17.589 23.3302ZM16.1748 21.916C19.1586 18.9322 23.3561 17.2199 28.2193 17.2199C33.0825 17.2199 37.2799 18.9322 40.2637 21.916C43.2475 24.8998 44.9598 29.0973 44.9598 33.9605C44.9598 38.8237 43.2475 43.0211 40.2637 46.0049C37.2799 48.9887 33.0825 50.701 28.2193 50.701C23.3561 50.701 19.1586 48.9887 16.1748 46.0049C13.191 43.0211 11.4787 38.8237 11.4787 33.9605C11.4787 29.0973 13.191 24.8998 16.1748 21.916Z" fill="#292929"/>
<path fill-rule="evenodd" clip-rule="evenodd" d="M20.8177 -0.0424805H34.4721L39.5788 6.93395L35.2801 11.1965C36.3193 11.9188 36.9995 13.1209 36.9995 14.4829H34.9995C34.9995 13.6413 34.479 12.9198 33.7422 12.625L31.4053 14.4334L27.6346 14.9965L24.5376 14.4295L21.862 12.6512C20.7755 13.0452 19.9995 14.0876 19.9995 15.3093V15.4829H17.9995V15.3093C17.9995 13.5866 18.9015 12.0758 20.2588 11.2218L15.9131 6.94918L20.8177 -0.0424805ZM22.6671 10.7849L23.3408 11.2327L21.4637 7.82999H19.6617L22.6671 10.7849ZM19.1412 5.82999L20.6605 3.6642L20.9247 5.82999H19.1412ZM23.7478 7.82999L25.6863 11.3439L27.665 12.7624L29.7476 11.3395L31.5928 7.82999H23.7478ZM33.8524 7.82999L31.9192 11.5068L32.8643 10.7754L35.8348 7.82999H33.8524ZM36.2922 5.82999H34.3778L34.6513 3.58834L36.2922 5.82999ZM32.8354 1.95752H29.9858L32.5121 4.60802L32.8354 1.95752ZM30.9138 5.82999L27.6513 2.40693L24.3887 5.82999H30.9138ZM22.7905 4.60802L25.3167 1.95752H22.4671L22.7905 4.60802Z" fill="#292929"/>
<path d="M44.4451 10.4594C44.9656 8.7638 45.3157 6.44735 45.5 5C45.6826 6.43414 46.0778 8.84609 46.5529 10.4434C48.6862 11.0854 50.5297 11.3128 52 11.5C50.5402 11.6859 48.4542 11.9114 46.5475 12.5431C46.0748 14.0484 45.6819 16.5713 45.5 18C45.3194 16.5813 44.9794 14.0838 44.4758 12.5749C42.5628 12.0433 40.4658 11.6866 39 11.5C40.458 11.3144 42.5404 11.0892 44.4451 10.4594Z" fill="#B4924F"/>
</g>
<defs>
<clipPath id="clip0_419_4051">
<rect width="56" height="56" fill="white"/>
</clipPath>
</defs>
</svg>
