<svg width="165" height="50" viewBox="0 0 165 50" fill="none" xmlns="http://www.w3.org/2000/svg">
<path opacity="0.3" fill-rule="evenodd" clip-rule="evenodd" d="M83.0554 15.0515C81.07 15.2861 79.0958 16.1111 77.5646 17.3461C75.5067 19.0059 74.2735 21.0672 73.8606 23.5373C73.7021 24.4856 73.7223 26.4309 73.8988 27.2054C74.2321 28.6686 74.8756 29.965 75.8944 31.2257C77.6977 33.4572 80.0658 34.6393 83.347 34.9458C86.0479 35.198 89.0888 34.5558 91.0676 33.3152C91.9455 32.7648 92.9325 31.7563 93.2512 31.0842L93.4116 30.7456L93.3915 28.7252C93.3722 26.7812 93.3766 26.6962 93.5082 26.4758C93.6851 26.1793 93.9837 26.0546 94.5308 26.049L94.9717 26.0445V25.7209V25.3974H92.0324H89.0931V25.7209V26.0445H89.549C90.0567 26.0445 90.496 26.2189 90.6012 26.4623C90.7464 26.7982 90.7929 27.5842 90.7503 28.9848L90.7064 30.4288L90.3505 30.9048C89.4708 32.0814 87.7081 32.957 85.6313 33.2491C83.5511 33.5416 81.2416 32.8529 79.4867 31.4167C78.5365 30.6391 77.5461 29.0667 77.1476 27.7029C76.3275 24.8965 76.7691 22.1422 78.396 19.9178C80.0487 17.6582 82.2286 16.4859 84.7822 16.4835C86.6702 16.4818 88.262 17.0234 89.5914 18.1202C90.2529 18.6659 91.5866 20.3347 91.9344 21.0518C92.0781 21.3481 92.231 21.5918 92.2743 21.5933C92.4005 21.598 92.6856 21.4157 92.6856 21.3303C92.6856 21.2529 92.0855 18.0428 91.9591 17.4441C91.8966 17.1481 91.8597 17.1135 91.1628 16.6996C89.8843 15.9402 88.4504 15.4315 86.8397 15.1659C85.8765 15.0072 83.929 14.9483 83.0554 15.0515ZM0 15.7699V16.0967H0.343962C0.786488 16.0967 1.0976 16.3028 1.27043 16.7107C1.40282 17.0232 1.40433 17.1173 1.40433 25.0775C1.40433 32.4715 1.39538 33.1451 1.29492 33.335C1.14658 33.6153 0.794 33.8086 0.43103 33.8086H0.130635V34.1321V34.4556H5.07955C9.99718 34.4556 11.4988 34.399 12.7912 34.1648C14.8135 33.7986 16.1191 33.0114 16.8245 31.7333C17.2688 30.9281 17.3894 30.4418 17.4244 29.3137C17.4952 27.038 16.8827 25.8092 15.2663 24.9839C14.8514 24.772 13.624 24.3625 12.9337 24.2057L12.6407 24.1392L13.195 23.8666C14.7715 23.0914 15.5885 21.8858 15.7166 20.1456C15.8725 18.0294 14.7134 16.4473 12.4729 15.7183L11.7898 15.496L5.89491 15.4696L0 15.4432V15.7699ZM24.1457 15.5036C24.1218 15.5332 24.1022 15.697 24.1022 15.8675V16.1775L24.4124 16.1793C24.8523 16.1818 25.2247 16.4162 25.4569 16.8365C25.5638 17.0301 25.8902 17.7708 26.1822 18.4825C26.4742 19.1942 28.1172 23.0702 29.8333 27.0958L32.9535 34.4152L34.0635 34.435L35.1735 34.4548L37.5249 28.6603C40.835 20.5037 42.4422 16.6397 42.6282 16.3914C42.7717 16.1996 42.8353 16.1775 43.2428 16.1775H43.6974V15.8136V15.4497H42.9895C42.6002 15.4497 41.5699 15.4738 40.7001 15.5031L39.1186 15.5567L39.1382 15.8468L39.1579 16.1371L39.6097 16.1851C39.9944 16.226 40.0841 16.2657 40.2138 16.4524C40.2977 16.5731 40.3662 16.7528 40.3662 16.8519C40.3662 17.1329 39.5889 19.1049 37.2527 24.7504C36.0655 27.6195 34.971 30.2941 34.8204 30.694L34.5468 31.421L34.4278 31.1792C34.1507 30.6164 28.8303 18.1197 28.6952 17.7142C28.3821 16.7751 28.5753 16.317 29.3289 16.2113L29.7195 16.1567V15.8032V15.4497H26.9544C25.4335 15.4497 24.1696 15.4739 24.1457 15.5036ZM159.571 15.7327C159.571 15.8884 159.593 16.0165 159.62 16.0174C159.893 16.0265 160.516 16.1895 160.598 16.2733C160.655 16.3319 160.755 16.5253 160.821 16.7032C160.933 17.0089 160.94 17.4654 160.941 25.0159C160.943 33.8836 160.963 33.4622 160.522 33.6902C160.396 33.7553 160.16 33.8086 159.997 33.8086H159.701V34.1321V34.4556H162.351H165L164.98 34.1523L164.959 33.849L164.566 33.8024C164.098 33.7468 163.87 33.5807 163.708 33.177C163.594 32.8935 163.588 32.4816 163.588 24.9931C163.588 18.7951 163.606 17.0453 163.671 16.8162C163.801 16.3623 164.004 16.1813 164.493 16.0808L164.927 15.9918V15.7208V15.4497H162.249H159.571V15.7327ZM52.5806 15.8039V16.0773L52.9734 16.1124C53.4367 16.1539 53.6657 16.33 53.8543 16.7894C53.9823 17.1012 53.9849 17.2676 53.9849 25.0335C53.9849 33.6802 54.0042 33.2329 53.6158 33.5888C53.5154 33.6806 53.2819 33.7688 53.0606 33.7982L52.6786 33.849L52.6583 34.1523L52.638 34.4556H59.4847H66.3313L67.0981 32.5545C67.5198 31.5089 67.8649 30.6201 67.8649 30.5794C67.8649 30.5386 67.762 30.4631 67.6364 30.4118C67.4188 30.3229 67.3991 30.3311 67.2281 30.5827C66.6366 31.4531 65.9057 31.9713 64.912 32.2245C64.4854 32.3332 63.8154 32.3528 60.5194 32.3528H56.6303L56.634 24.6898C56.6368 18.9734 56.6575 16.9556 56.7156 16.7465C56.8325 16.3264 57.1521 16.0967 57.6197 16.0967H58.002V15.8136V15.5305H55.2913H52.5806V15.8039ZM110.169 16.034C110.046 16.3131 108.504 19.9444 106.743 24.1034C103.052 32.8251 102.918 33.1348 102.725 33.3904C102.517 33.666 102.241 33.8234 101.865 33.8802C101.551 33.9276 101.535 33.9421 101.516 34.1927L101.495 34.4556H103.843H106.19L106.231 34.2046C106.278 33.9098 106.236 33.7958 106.086 33.814C105.387 33.899 105.031 33.6116 105.031 32.9624C105.031 32.5359 105.084 32.3905 105.866 30.6746L106.428 29.4413L111.003 29.4429L115.579 29.4444L116.18 30.7167C116.51 31.4163 116.84 32.1526 116.913 32.3528C117.223 33.1997 117.01 33.6119 116.184 33.7621C115.874 33.8184 115.873 33.8189 115.873 34.137V34.4556H118.682H121.491V34.0916C121.491 33.7351 121.486 33.7277 121.278 33.7272C120.533 33.7257 120.228 33.3531 119.421 31.4574C119.09 30.6821 117.379 26.7905 115.619 22.8094L112.417 15.571L111.406 15.5487L110.395 15.5265L110.169 16.034ZM130.374 15.7986C130.374 16.0691 130.38 16.075 130.702 16.1222C131.102 16.1809 131.362 16.3612 131.524 16.694C131.642 16.9357 131.648 17.273 131.665 25.0041C131.676 30.0926 131.659 33.1385 131.619 33.2694C131.519 33.594 131.287 33.7318 130.806 33.7509L130.374 33.7681L130.374 34.1119L130.374 34.4556H133.088H135.803L135.783 34.1119L135.762 33.7681L135.328 33.7219C135.081 33.6956 134.817 33.6142 134.718 33.5336C134.372 33.253 134.358 33.1067 134.358 29.8051V26.767L136.955 26.7899L139.551 26.8128L139.929 27.0319C140.368 27.2867 140.982 27.9814 141.381 28.6729C141.624 29.0966 142.442 30.7585 143.289 32.555C143.609 33.2329 143.813 33.4835 144.276 33.7703C144.924 34.1716 146.599 34.4556 148.317 34.4556H149.055V34.1425V33.8294L148.581 33.7722C147.713 33.6671 147.101 33.325 146.599 32.6644C146.177 32.1103 146.047 31.8568 145.229 30.0074C144.807 29.051 144.352 28.0684 144.219 27.8237C143.891 27.2227 143.375 26.6401 142.962 26.4065C142.588 26.1954 141.926 25.9636 141.697 25.9636C141.444 25.9636 141.469 25.8243 141.73 25.7725C142.235 25.6726 143.159 25.2973 143.731 24.9599C145.145 24.1261 145.851 23.0395 146.09 21.3296C146.408 19.0516 145.513 17.2213 143.605 16.2429C143.351 16.1128 142.864 15.9093 142.523 15.7905L141.902 15.5747L136.138 15.549L130.374 15.5232V15.7986ZM140.367 17.1306C141.78 17.5039 142.655 18.1722 143.038 19.17C143.184 19.5513 143.212 19.7451 143.231 20.5275C143.275 22.372 142.799 23.393 141.549 24.1349C140.6 24.6978 139.646 24.8313 136.572 24.8313H134.358V20.8608V16.8903L137.053 16.9285C139.437 16.9622 139.818 16.9855 140.367 17.1306ZM10.0262 17.1041C11.2153 17.1665 11.8672 17.4348 12.4947 18.12C12.9359 18.6018 13.0804 18.9893 13.1123 19.7765C13.1672 21.1294 12.586 22.3273 11.5969 22.9003C10.5939 23.4816 9.59998 23.6175 6.35213 23.6179L3.98437 23.6182V20.3437V17.0693L6.28681 17.048C7.55312 17.0363 8.73622 17.0349 8.91584 17.0449C9.09547 17.0548 9.59515 17.0815 10.0262 17.1041ZM112.824 22.8003C113.854 25.1972 114.698 27.1807 114.698 27.208C114.698 27.2353 113.037 27.2576 111.007 27.2576C108.977 27.2576 107.317 27.2339 107.317 27.2049C107.317 27.1127 110.875 18.4438 110.913 18.4429C110.933 18.4425 111.793 20.4032 112.824 22.8003ZM10.7677 25.4031C12.1792 25.5669 13.0823 25.9881 13.7246 26.7826C14.4235 27.6472 14.6912 28.7098 14.4742 29.7585C14.2249 30.9639 13.5051 31.6303 12.0184 32.0321C11.0866 32.2841 10.0219 32.3511 6.93999 32.352L3.98437 32.3528V28.8347V25.3166L7.00531 25.3168C8.66685 25.317 10.3599 25.3558 10.7677 25.4031Z" fill="#292929"/>
</svg>
