<svg width="192" height="18" viewBox="0 0 192 18" fill="none" xmlns="http://www.w3.org/2000/svg">
<path opacity="0.3" fill-rule="evenodd" clip-rule="evenodd" d="M22.2311 0.601812C22.0819 1.0052 20.8467 4.71332 19.4854 8.84215C18.1241 12.971 16.6989 16.55 16.3178 16.7953C15.8965 17.0668 16.3795 17.2439 17.553 17.2484C19.3482 17.2546 19.4848 17.1305 19.5454 15.441C19.5812 14.4432 19.8852 12.9352 20.2205 12.0905C20.741 10.7786 21.1474 10.554 23.0021 10.554C25.1184 10.554 25.1977 10.6255 26.0849 13.3352C26.5855 14.8644 26.8382 16.3729 26.6471 16.6875C26.4335 17.0378 27.0976 17.2585 28.3642 17.2585C30.1116 17.2585 30.296 17.1512 29.5625 16.5601C29.0862 16.1763 27.515 12.3966 26.0711 8.16108C23.4856 0.574436 22.7642 -0.845233 22.2311 0.601812ZM140.082 0.340337C138.233 0.797357 137.053 2.2567 137.062 4.07584C137.073 6.45201 137.512 6.98557 140.896 8.74437C144.474 10.6037 145.191 11.6083 144.456 13.737C144.063 14.8778 143.49 15.3527 142.346 15.4863C139.932 15.7679 138.157 15.1164 137.615 13.7498C137.139 12.5497 137.122 12.557 137.088 13.9777C137.04 16.0343 138.437 16.9791 141.528 16.9791C144.936 16.9791 146.529 15.5304 146.611 12.3564C146.682 9.59417 145.915 8.63599 142.655 7.4141C139.198 6.11903 138.706 5.6648 138.706 3.76911C138.706 0.953243 142.814 0.0621068 143.502 2.7288C143.842 4.05014 144.763 3.66016 144.763 2.19524C144.763 1.54267 144.128 0.940953 143.029 0.552095C142.075 0.214637 141.27 -0.0323149 141.239 0.00344217C141.208 0.0391993 140.688 0.190604 140.082 0.340337ZM0.756836 8.8779V17.2585L2.13357 17.2596C3.48828 17.2607 3.50755 17.1993 3.32747 13.3487L3.14464 9.43661H7.08981H11.035L10.8521 13.3487L10.6693 17.2613L12.2939 17.2596C13.5572 17.259 13.7714 17.1093 13.2576 16.588C12.3418 15.6589 12.3418 2.0969 13.2576 1.16778C13.7714 0.646508 13.5572 0.497338 12.2939 0.496221L10.6693 0.495103V4.26748V8.03985H7.08981H3.5103V4.26748C3.5103 0.615784 3.46625 0.495104 2.13357 0.496221L0.756836 0.497335V8.8779ZM32.865 0.93704C33.4124 1.31975 33.5435 3.31991 33.4157 9.34945L33.2478 17.2601L34.6245 17.2607C35.988 17.2613 35.9996 17.2194 35.847 12.9296L35.6934 8.59855L37.699 10.8334C38.8026 12.0625 40.5477 14.0113 41.577 15.1633C43.6102 17.4389 45.5497 17.8753 46.8058 16.34C47.4755 15.5215 47.4182 15.4662 46.2827 15.8315C44.8195 16.3025 43.5942 15.393 41.1733 12.0363L39.6231 9.88692L41.2537 8.49463C43.2015 6.83193 43.4515 4.12445 41.8435 2.10976C40.9409 0.97894 40.2239 0.780041 36.4743 0.620252C33.8045 0.506276 32.4217 0.627517 32.865 0.93704ZM49.3858 0.93704C49.9332 1.31975 50.0643 3.31991 49.9365 9.34945L49.7686 17.2601L51.1453 17.2607C52.5088 17.2613 52.5204 17.2194 52.3667 12.9296L52.2114 8.59855L54.4974 11.1127C55.7551 12.4955 57.5322 14.4437 58.4475 15.4427C60.2472 17.4071 62.1504 17.7775 63.2892 16.3852C63.9126 15.6237 63.8278 15.5567 62.6267 15.8628C61.5016 16.1489 60.8887 15.807 59.2719 13.9917C57.0719 11.5211 55.8168 9.43661 56.5289 9.43661C56.7855 9.43661 57.5377 8.92371 58.2002 8.29741C59.7152 6.86601 59.7934 3.90041 58.3643 2.10976C57.4617 0.97894 56.7447 0.780041 52.9951 0.620252C50.3253 0.506276 48.9425 0.627517 49.3858 0.93704ZM63.0783 0.929777C63.4324 1.15829 64.9809 3.09755 66.5201 5.23906C69.2224 8.9997 69.3182 9.26117 69.3182 12.8698C69.3182 15.3365 69.0841 16.7026 68.6298 16.8886C68.2515 17.0434 68.6849 17.1909 69.5935 17.2155L71.2456 17.2613L71.0617 13.3185C70.8844 9.52712 70.9587 9.25614 72.9891 6.26484C74.1505 4.55353 75.6462 2.55616 76.3131 1.82538L77.5263 0.497335H75.9177C74.8664 0.497335 74.3945 0.739257 74.5558 1.19572C74.8119 1.92148 71.2687 7.218 70.5517 7.18056C70.3276 7.16883 69.2185 5.80615 68.0863 4.15182C66.6919 2.11367 66.2481 1.05437 66.7095 0.864965C67.0846 0.711321 66.2756 0.569406 64.9126 0.549852C63.5497 0.530297 62.7242 0.701266 63.0783 0.929777ZM90.7539 8.84158C93.0371 13.4313 95.0312 17.0579 95.1859 16.9009C95.3407 16.7445 96.1259 14.9376 96.9316 12.8866L98.397 9.15725L100.272 13.333L102.147 17.5088L105.336 9.42208C107.09 4.97424 108.811 1.15046 109.16 0.924745C109.517 0.694 109.117 0.510744 108.247 0.505716C107.396 0.501246 106.844 0.732549 107.019 1.01972C107.194 1.3069 106.296 4.10043 105.022 7.22638C102.466 13.5068 102.271 13.5604 100.371 8.51251C99.4819 6.15142 99.4923 6.03018 100.826 3.29644L102.191 0.497335H100.866C100.073 0.497335 99.6862 0.734785 99.902 1.08956C100.101 1.41585 99.9505 2.44833 99.5683 3.38472L98.8728 5.08709L98.0969 3.58418C97.6701 2.75729 97.4553 1.72482 97.62 1.28903C97.8414 0.704621 97.4443 0.497335 96.1023 0.497335H94.2844L96.089 4.1345C97.8469 7.67836 97.8716 7.82586 97.0467 9.86122C96.5808 11.0105 95.9932 12.1715 95.7404 12.4408C95.1876 13.0308 89.5193 1.79465 89.9846 1.0309C90.1663 0.731993 89.4939 0.497335 88.4564 0.497335H86.6033L90.7539 8.84158ZM112.548 8.8779V17.2585H114.172C115.435 17.2585 115.65 17.1093 115.136 16.588C114.692 16.1377 114.475 13.6085 114.475 8.8779C114.475 4.14735 114.692 1.6181 115.136 1.16778C115.65 0.646508 115.435 0.497335 114.172 0.497335H112.548V8.8779ZM119.945 1.29014C120.392 1.83656 120.541 4.44179 120.425 9.67183C120.264 16.9445 120.303 17.2601 121.359 17.2607C122.407 17.2607 122.452 16.9462 122.289 10.6948C122.183 6.60566 122.313 4.33955 122.634 4.68762C122.917 4.99491 124.952 7.76049 127.157 10.8334C129.361 13.9062 131.362 16.6461 131.603 16.9221C131.843 17.1981 132.115 13.6152 132.206 8.96003L132.373 0.495656L131.023 0.496774C129.974 0.497333 129.821 0.646508 130.335 1.16778C131.06 1.90359 131.292 11.6832 130.583 11.6547C130.355 11.6457 128.376 9.13156 126.184 6.06762C122.877 1.44602 121.951 0.497335 120.747 0.497335C119.557 0.497335 119.413 0.639811 119.945 1.29014ZM148.618 2.29804C148.618 4.08646 148.624 4.09037 149.475 2.85675C149.963 2.14943 150.912 1.61474 151.678 1.61474H153.024V9.11089C153.024 14.5845 152.838 16.6825 152.335 16.8886C151.957 17.0434 152.638 17.1702 153.85 17.1702C155.061 17.1702 155.743 17.0434 155.364 16.8886C154.861 16.6825 154.676 14.5845 154.676 9.11089V1.61474H156.069C156.837 1.61474 157.606 1.99187 157.78 2.4528C158.281 3.7747 159.081 3.43053 159.081 1.8941C159.081 0.502365 159.063 0.497335 153.85 0.497335H148.618V2.29804ZM165.13 1.51642C163.027 2.63327 160.733 6.4738 160.733 8.8779C160.733 11.3323 163.031 15.2086 165.139 16.3115C168.287 17.958 171.514 17.3188 174.067 14.5421C175.997 12.4419 176.153 12.0256 176.153 8.94216C176.153 6.16428 175.913 5.32287 174.71 3.87247C171.9 0.48393 168.602 -0.327309 165.13 1.51642ZM179.347 1.16778C180.295 2.12987 180.27 16.4992 179.319 16.8886C178.941 17.0434 179.25 17.1903 180.008 17.2155L181.384 17.2607L181.219 10.4155L181.053 3.57021L186.175 10.554L191.297 17.5378L191.427 14.7443C191.498 13.2079 191.622 9.37347 191.702 6.22294C191.839 0.818033 191.785 0.495103 190.746 0.495103C189.734 0.495103 189.66 0.806853 189.824 4.31496C189.923 6.41625 189.923 8.97847 189.824 10.0087C189.647 11.8608 189.598 11.8172 185.556 6.18997C182.238 1.56893 181.206 0.497335 180.077 0.497335C178.995 0.497335 178.833 0.646508 179.347 1.16778ZM40.1314 2.73216C42.1993 4.83009 41.0395 8.3192 38.275 8.3192C36.4071 8.3192 35.7259 7.2437 35.7259 4.29653C35.7259 1.68906 35.7716 1.61474 37.378 1.61474C38.296 1.61474 39.5196 2.11144 40.1314 2.73216ZM56.5294 2.48465C58.8842 4.15741 57.6473 8.3192 54.7958 8.3192C52.9279 8.3192 52.2467 7.2437 52.2467 4.29653C52.2467 1.7371 52.3166 1.61474 53.776 1.61474C54.6174 1.61474 55.8565 2.0064 56.5294 2.48465ZM171.901 2.94558C173.985 4.90607 174.848 8.2935 173.996 11.1787C172.279 16.9931 166.376 17.9177 163.759 12.7827C162.139 9.60367 163.222 4.32446 165.884 2.43324C167.631 1.19236 170.275 1.41752 171.901 2.94558ZM24.1365 7.90017C24.1536 8.57732 23.7378 8.8779 22.7846 8.8779C21.1931 8.8779 21.1953 8.88852 22.0736 5.9151L22.7394 3.66016L23.4256 5.29157C23.8028 6.18829 24.1228 7.36214 24.1365 7.90017Z" fill="#292929"/>
</svg>
