<svg width="130" height="19" viewBox="0 0 130 19" fill="none" xmlns="http://www.w3.org/2000/svg">
<path opacity="0.3" fill-rule="evenodd" clip-rule="evenodd" d="M85.5673 0.151084C83.6137 0.546692 82.0992 1.40251 80.8187 2.83444C78.5973 5.31842 77.9114 9.51617 79.1483 13.0563C80.4294 16.7223 83.6011 18.9992 87.4268 18.9992C91.5712 18.9992 94.7973 16.4407 95.8907 12.2868C96.2311 10.9931 96.2296 7.99548 95.8878 6.71533C94.7785 2.56174 91.4455 -0.0357139 87.2884 0.013737C86.6792 0.021026 85.9047 0.0827679 85.5673 0.151084ZM118.885 0.2154C116.387 0.728203 114.276 2.40482 113.133 4.78346C112.537 6.02288 112.275 7.15181 112.184 8.8633C111.832 15.4836 116.866 20.0778 123.049 18.7802C126.197 18.1195 128.603 15.6995 129.461 12.3297C129.823 10.9092 129.858 8.3645 129.535 6.96587C128.385 1.98277 123.954 -0.825355 118.885 0.2154ZM1.87136 0.400769C1.94377 0.46637 2.28948 0.628729 2.63962 0.761646C2.9899 0.894563 3.40595 1.14639 3.5642 1.32118L3.8519 1.63918L3.51518 8.89932C3.21738 15.3231 3.14829 16.2203 2.91569 16.6885C2.57358 17.3773 2.14729 17.7766 1.37986 18.1275L0.756836 18.4123L3.52584 18.4125C6.21331 18.4126 6.2745 18.4062 5.6026 18.1957C5.22186 18.0763 4.76221 17.8396 4.58098 17.6696C3.86851 17.001 3.86989 17.0333 4.22779 9.8709C4.40999 6.22411 4.5897 3.20889 4.62694 3.1703C4.66432 3.13171 4.75307 3.25391 4.82423 3.44157C4.8954 3.62937 6.17814 7.0309 7.67479 11.0006C9.17158 14.9702 10.4448 18.2691 10.5043 18.3313C10.5637 18.3936 10.6775 18.3614 10.757 18.2598C10.8366 18.1584 12.193 14.8594 13.7713 10.9291C15.3497 6.99875 16.721 3.62337 16.8189 3.42842C16.9881 3.09113 17.0008 3.11213 17.0768 3.85719C17.1208 4.28795 17.2806 7.28345 17.4318 10.5136C17.7536 17.3861 17.7425 17.4978 16.6786 18.1692C16.2677 18.4286 16.2943 18.4313 19.1707 18.4206C21.3854 18.4125 21.9792 18.3742 21.6629 18.2597C21.1025 18.0569 20.7849 17.7506 20.4658 17.1052C20.2303 16.6287 20.1497 15.6798 19.7922 9.17301C19.3277 0.718054 19.2704 1.31418 20.6 0.781655C20.9925 0.624441 21.3144 0.447504 21.3152 0.388621C21.316 0.329737 20.4198 0.281429 19.3236 0.281429H17.3306L16.0555 3.38997C12.1696 12.8631 11.4506 14.5674 11.3638 14.512C11.3113 14.4785 10.0909 11.263 8.65156 7.36634L6.03471 0.281429H3.88734C2.70622 0.281429 1.79895 0.335168 1.87136 0.400769ZM24.0165 0.424351C24.0636 0.502958 24.1835 0.567273 24.2829 0.567273C24.613 0.567273 25.2245 1.17983 25.4846 1.77082C25.7222 2.31092 25.7413 2.83787 25.7441 8.94448C25.7459 12.8055 25.6891 15.8507 25.607 16.2974C25.4398 17.2081 25.0871 17.6424 24.155 18.0863L23.4627 18.416L26.8547 18.4219L30.2468 18.4276L29.499 18.037C28.5811 17.5575 28.2827 17.1569 28.102 16.162C27.8769 14.9215 27.9295 2.62692 28.163 1.95133C28.4014 1.26116 28.7413 0.86655 29.3122 0.617152C29.5598 0.50896 29.7622 0.389192 29.7622 0.351032C29.7622 0.312729 28.4501 0.281429 26.8466 0.281429C24.938 0.281429 23.9604 0.330737 24.0165 0.424351ZM33.1542 0.558412C33.8322 0.87284 34.161 1.23829 34.4073 1.95133C34.6408 2.62692 34.6934 14.9215 34.4683 16.162C34.285 17.1713 33.9934 17.5642 33.0786 18.0349L32.3235 18.4233L35.7156 18.4196L39.1076 18.416L38.4154 18.0863C36.9608 17.3937 36.792 16.7902 36.8535 12.5012L36.8924 9.78572L40.3912 14.1091L43.8901 18.4325L46.2061 18.4198C48.3081 18.408 48.4645 18.3905 47.8984 18.2291C47.0361 17.9831 46.8162 17.8404 46.0818 17.0497C45.1133 16.007 38.7247 8.11325 38.7073 7.93788C38.699 7.8537 40.0643 6.39047 41.7411 4.68642C44.4645 1.91874 44.9001 1.53342 45.8215 1.07765C46.3889 0.796948 46.9327 0.567273 47.03 0.567273C47.1273 0.567273 47.207 0.502958 47.207 0.424351C47.207 0.334167 46.2609 0.281429 44.6456 0.281429C43.2369 0.281429 42.0843 0.307298 42.0843 0.338741C42.0843 0.370327 42.3023 0.528969 42.5689 0.691185C42.9853 0.944871 43.0534 1.0615 43.0534 1.5207C43.0534 2.02665 42.8873 2.22688 39.9391 5.27726L36.8248 8.49942L36.8271 5.42661C36.829 2.74354 36.8618 2.2799 37.0857 1.77082C37.3458 1.17983 37.9574 0.567273 38.2874 0.567273C38.3868 0.567273 38.5067 0.502958 38.5538 0.424351C38.6099 0.330594 37.6 0.284859 35.6199 0.291577L32.6004 0.301581L33.1542 0.558412ZM49.4914 0.518965C49.7198 0.643164 50.0549 0.881843 50.2361 1.0492C50.9385 1.69793 50.9451 1.77382 50.9451 9.17458C50.9451 13.2356 50.8895 16.2764 50.81 16.5626C50.6261 17.2245 50.1773 17.6939 49.3529 18.0863L48.6607 18.416L52.1219 18.4232L55.5832 18.4303L54.6851 17.9667C54.0738 17.6511 53.7199 17.3661 53.5775 17.0746C53.4003 16.7121 53.3619 15.5242 53.3285 9.3781L53.2891 2.11011L53.6353 1.50027C53.843 1.13439 54.1774 0.794375 54.4709 0.650596C54.74 0.518822 54.9602 0.381761 54.9602 0.346173C54.9602 0.310586 53.6363 0.284002 52.0181 0.287146C49.2509 0.292577 49.1007 0.306298 49.4914 0.518965ZM57.6669 0.400769C57.7392 0.46637 58.085 0.628729 58.4351 0.761646C58.7854 0.894563 59.2004 1.14639 59.3572 1.32118L59.6424 1.63918L59.3081 8.83801C59.018 15.0801 58.9391 16.1173 58.714 16.6427C58.4248 17.3178 57.7717 17.8988 56.9551 18.2077C56.4549 18.3967 56.6292 18.4123 59.2521 18.4125C62.0016 18.4126 62.0688 18.4058 61.3981 18.1957C61.0174 18.0763 60.5577 17.8396 60.3765 17.6696C59.6579 16.9953 59.6593 17.0283 60.0176 9.86704C60.1997 6.22568 60.3807 3.21361 60.4196 3.17331C60.4586 3.13314 60.5479 3.25391 60.6181 3.44157C61.6825 6.28843 65.9228 17.5063 66.0921 17.9232C66.2885 18.4069 66.3473 18.4571 66.5103 18.2806C66.6519 18.1273 71.7213 5.69759 72.5624 3.44157C72.6323 3.25391 72.727 3.13886 72.7728 3.18617C72.8185 3.23333 72.9978 6.19753 73.1711 9.77328C73.5411 17.4092 73.5336 17.5006 72.4742 18.1692C72.0632 18.4286 72.0898 18.4313 74.9663 18.4206C77.1809 18.4125 77.7747 18.3742 77.4584 18.2597C76.8961 18.0562 76.5805 17.7505 76.2569 17.096C76.0154 16.6077 75.9393 15.7144 75.5808 9.16387C75.1186 0.717054 75.0604 1.31647 76.3955 0.781655C76.788 0.624441 77.1099 0.447504 77.1107 0.388621C77.1116 0.329737 76.2148 0.281429 75.118 0.281429H73.1236L71.6417 3.8902C70.8266 5.8751 69.5055 9.09026 68.7061 11.0353C67.9065 12.9802 67.2096 14.544 67.1571 14.5106C67.1046 14.4771 65.8838 11.262 64.444 7.36563L61.8264 0.281429H59.6809C58.5009 0.281429 57.5946 0.335168 57.6669 0.400769ZM97.2611 0.460081C97.1743 0.736206 96.7913 4.49119 96.8443 4.54721C96.8702 4.57451 97.0274 4.31725 97.1936 3.97552C97.7256 2.8826 98.5373 1.91845 99.2743 1.50441C99.9071 1.14896 100.124 1.10752 101.455 1.08851L102.933 1.0675L102.974 8.21358C102.997 12.1439 102.977 15.698 102.93 16.1114C102.822 17.0493 102.37 17.6401 101.415 18.0887L100.718 18.416L104.179 18.4206L107.641 18.4252L106.772 17.9906C106.295 17.7515 105.809 17.4056 105.692 17.2219C105.327 16.6468 105.223 14.569 105.22 7.83798C105.218 2.15299 105.245 1.2936 105.43 1.1351C105.758 0.854259 108.239 1.04706 108.921 1.40637C109.633 1.78125 110.533 2.81243 110.992 3.77972C111.198 4.21392 111.403 4.56908 111.447 4.56908C111.56 4.56908 111.127 0.678323 110.99 0.460081C110.903 0.321162 109.37 0.281429 104.098 0.281429C98.7957 0.281429 97.3051 0.320447 97.2611 0.460081ZM88.9649 1.34705C90.9052 2.33707 92.4793 4.70057 93.2525 7.78481C94.3155 12.0252 93.088 16.4747 90.4939 17.7849C87.5034 19.2953 84.333 17.8845 82.6116 14.2775C80.9435 10.782 80.563 6.95473 81.6142 4.24493C82.8059 1.17297 86.0877 -0.120752 88.9649 1.34705ZM122.499 1.29374C123.878 1.99463 125.003 3.25677 125.845 5.04744C126.794 7.06706 127.102 8.28647 127.187 10.3574C127.303 13.1757 126.624 15.4643 125.249 16.8828C124.465 17.6929 123.712 18.0802 122.509 18.2928C119.44 18.8357 116.825 16.6294 115.395 12.292C114.074 8.28018 114.49 4.32039 116.447 2.30048C118.005 0.692043 120.499 0.277285 122.499 1.29374Z" fill="#292929"/>
</svg>
