<svg width="129" height="50" viewBox="0 0 129 50" fill="none" xmlns="http://www.w3.org/2000/svg">
<path opacity="0.3" fill-rule="evenodd" clip-rule="evenodd" d="M84.8104 15.1511C82.8569 15.5467 81.3424 16.4025 80.0619 17.8344C77.8404 20.3184 77.1545 24.5162 78.3915 28.0563C79.6725 31.7223 82.8443 33.9992 86.67 33.9992C90.8143 33.9992 94.0405 31.4407 95.1339 27.2868C95.4743 25.9931 95.4728 22.9955 95.131 21.7153C94.0217 17.5617 90.6886 14.9643 86.5315 15.0137C85.9223 15.021 85.1478 15.0828 84.8104 15.1511ZM118.128 15.2154C115.63 15.7282 113.519 17.4048 112.376 19.7835C111.78 21.0229 111.518 22.1518 111.427 23.8633C111.075 30.4836 116.109 35.0778 122.292 33.7802C125.44 33.1195 127.846 30.6995 128.704 27.3297C129.066 25.9092 129.102 23.3645 128.779 21.9659C127.628 16.9828 123.197 14.1746 118.128 15.2154ZM1.11453 15.4008C1.18694 15.4664 1.53265 15.6287 1.88279 15.7616C2.23307 15.8946 2.64911 16.1464 2.80736 16.3212L3.09506 16.6392L2.75835 23.8993C2.46054 30.3231 2.39145 31.2203 2.15886 31.6885C1.81675 32.3773 1.39046 32.7766 0.623027 33.1275L0 33.4123L2.76901 33.4125C5.45647 33.4126 5.51766 33.4062 4.84577 33.1957C4.46503 33.0763 4.00537 32.8396 3.82414 32.6696C3.11167 32.001 3.11306 32.0333 3.47095 24.8709C3.65315 21.2241 3.83286 18.2089 3.87011 18.1703C3.90749 18.1317 3.99623 18.2539 4.0674 18.4416C4.13856 18.6294 5.4213 22.0309 6.91795 26.0006C8.41474 29.9702 9.68793 33.2691 9.74746 33.3313C9.80686 33.3936 9.92067 33.3614 10.0001 33.2598C10.0797 33.1584 11.4361 29.8594 13.0145 25.9291C14.5928 21.9987 15.9642 18.6234 16.062 18.4284C16.2312 18.0911 16.244 18.1121 16.32 18.8572C16.364 19.288 16.5238 22.2834 16.675 25.5136C16.9967 32.3861 16.9857 32.4978 15.9218 33.1692C15.5109 33.4286 15.5375 33.4313 18.4139 33.4206C20.6286 33.4125 21.2224 33.3742 20.906 33.2597C20.3457 33.0569 20.0281 32.7506 19.709 32.1052C19.4735 31.6287 19.3929 30.6798 19.0354 24.173C18.5709 15.7181 18.5136 16.3142 19.8431 15.7817C20.2356 15.6244 20.5575 15.4475 20.5584 15.3886C20.5592 15.3297 19.663 15.2814 18.5668 15.2814H16.5738L15.2986 18.39C11.4127 27.8631 10.6938 29.5674 10.607 29.512C10.5545 29.4785 9.33405 26.263 7.89472 22.3663L5.27787 15.2814H3.1305C1.94938 15.2814 1.04212 15.3352 1.11453 15.4008ZM23.2597 15.4244C23.3067 15.503 23.4266 15.5673 23.5261 15.5673C23.8561 15.5673 24.4677 16.1798 24.7278 16.7708C24.9654 17.3109 24.9845 17.8379 24.9873 23.9445C24.9891 27.8055 24.9323 30.8507 24.8502 31.2974C24.6829 32.2081 24.3303 32.6424 23.3981 33.0863L22.7059 33.416L26.0979 33.4219L29.4899 33.4276L28.7422 33.037C27.8242 32.5575 27.5259 32.1569 27.3452 31.162C27.1201 29.9215 27.1727 17.6269 27.4061 16.9513C27.6445 16.2612 27.9844 15.8666 28.5554 15.6172C28.803 15.509 29.0054 15.3892 29.0054 15.351C29.0054 15.3127 27.6933 15.2814 26.0897 15.2814C24.1812 15.2814 23.2036 15.3307 23.2597 15.4244ZM32.3974 15.5584C33.0754 15.8728 33.4042 16.2383 33.6505 16.9513C33.8839 17.6269 33.9366 29.9215 33.7114 31.162C33.5281 32.1713 33.2365 32.5642 32.3218 33.0349L31.5667 33.4233L34.9587 33.4196L38.3508 33.416L37.6585 33.0863C36.204 32.3937 36.0352 31.7902 36.0967 27.5012L36.1356 24.7857L39.6343 29.1091L43.1333 33.4325L45.4493 33.4198C47.5512 33.408 47.7077 33.3905 47.1415 33.2291C46.2793 32.9831 46.0594 32.8404 45.3249 32.0497C44.3565 31.007 37.9678 23.1132 37.9505 22.9379C37.9422 22.8537 39.3075 21.3905 40.9842 19.6864C43.7077 16.9187 44.1433 16.5334 45.0646 16.0776C45.632 15.7969 46.1758 15.5673 46.2732 15.5673C46.3705 15.5673 46.4501 15.503 46.4501 15.4244C46.4501 15.3342 45.5041 15.2814 43.8888 15.2814C42.4801 15.2814 41.3275 15.3073 41.3275 15.3387C41.3275 15.3703 41.5455 15.529 41.812 15.6912C42.2285 15.9449 42.2966 16.0615 42.2966 16.5207C42.2966 17.0266 42.1305 17.2269 39.1823 20.2773L36.068 23.4994L36.0702 20.4266C36.0722 17.7435 36.105 17.2799 36.3288 16.7708C36.589 16.1798 37.2005 15.5673 37.5306 15.5673C37.63 15.5673 37.7499 15.503 37.797 15.4244C37.853 15.3306 36.8432 15.2849 34.8631 15.2916L31.8436 15.3016L32.3974 15.5584ZM48.7346 15.519C48.963 15.6432 49.298 15.8818 49.4793 16.0492C50.1816 16.6979 50.1883 16.7738 50.1883 24.1746C50.1883 28.2356 50.1326 31.2764 50.0532 31.5626C49.8693 32.2245 49.4204 32.6939 48.5961 33.0863L47.9038 33.416L51.3651 33.4232L54.8264 33.4303L53.9282 32.9667C53.317 32.6511 52.9631 32.3661 52.8206 32.0746C52.6434 31.7121 52.6051 30.5242 52.5717 24.3781L52.5322 17.1101L52.8785 16.5003C53.0862 16.1344 53.4205 15.7944 53.7141 15.6506C53.9832 15.5188 54.2033 15.3818 54.2033 15.3462C54.2033 15.3106 52.8795 15.284 51.2613 15.2871C48.4941 15.2926 48.3438 15.3063 48.7346 15.519ZM56.91 15.4008C56.9823 15.4664 57.3282 15.6287 57.6783 15.7616C58.0286 15.8946 58.4435 16.1464 58.6004 16.3212L58.8856 16.6392L58.5512 23.838C58.2612 30.0801 58.1823 31.1173 57.9572 31.6427C57.6679 32.3178 57.0149 32.8988 56.1983 33.2077C55.6981 33.3967 55.8724 33.4123 58.4953 33.4125C61.2448 33.4126 61.3119 33.4057 60.6413 33.1957C60.2605 33.0763 59.8009 32.8396 59.6197 32.6696C58.9011 31.9953 58.9025 32.0283 59.2608 24.867C59.4429 21.2257 59.6238 18.2136 59.6627 18.1733C59.7018 18.1331 59.7911 18.2539 59.8613 18.4416C60.9257 21.2884 65.166 32.5063 65.3353 32.9232C65.5316 33.4069 65.5905 33.4571 65.7534 33.2805C65.8951 33.1273 70.9644 20.6976 71.8055 18.4416C71.8754 18.2539 71.9701 18.1389 72.016 18.1862C72.0616 18.2333 72.2409 21.1975 72.4143 24.7733C72.7842 32.4092 72.7767 32.5006 71.7173 33.1692C71.3064 33.4286 71.333 33.4313 74.2094 33.4206C76.4241 33.4125 77.0179 33.3742 76.7015 33.2597C76.1393 33.0562 75.8236 32.7505 75.5001 32.096C75.2586 31.6077 75.1825 30.7144 74.824 24.1639C74.3617 15.7171 74.3036 16.3165 75.6387 15.7817C76.0312 15.6244 76.3531 15.4475 76.3539 15.3886C76.3547 15.3297 75.458 15.2814 74.3612 15.2814H72.3668L70.8848 18.8902C70.0698 20.8751 68.7487 24.0903 67.9493 26.0353C67.1497 27.9802 66.4527 29.544 66.4003 29.5106C66.3478 29.4771 65.1269 26.262 63.6872 22.3656L61.0695 15.2814H58.9241C57.7441 15.2814 56.8378 15.3352 56.91 15.4008ZM96.5042 15.4601C96.4174 15.7362 96.0345 19.4912 96.0875 19.5472C96.1134 19.5745 96.2705 19.3173 96.4368 18.9755C96.9687 17.8826 97.7805 16.9185 98.5175 16.5044C99.1503 16.149 99.3673 16.1075 100.698 16.0885L102.176 16.0675L102.217 23.2136C102.24 27.1439 102.22 30.698 102.173 31.1114C102.066 32.0493 101.613 32.6401 100.658 33.0887L99.9612 33.416L103.422 33.4206L106.884 33.4252L106.016 32.9906C105.538 32.7515 105.052 32.4056 104.935 32.2219C104.57 31.6468 104.466 29.569 104.463 22.838C104.461 17.153 104.488 16.2936 104.673 16.1351C105.001 15.8543 107.482 16.0471 108.164 16.4064C108.876 16.7812 109.776 17.8124 110.235 18.7797C110.442 19.2139 110.646 19.5691 110.691 19.5691C110.803 19.5691 110.37 15.6783 110.233 15.4601C110.146 15.3212 108.613 15.2814 103.341 15.2814C98.0388 15.2814 96.5483 15.3204 96.5042 15.4601ZM88.208 16.3471C90.1484 17.3371 91.7224 19.7006 92.4957 22.7848C93.5587 27.0252 92.3312 31.4747 89.7371 32.7849C86.7465 34.2953 83.5762 32.8845 81.8548 29.2775C80.1866 25.782 79.8062 21.9547 80.8574 19.2449C82.0491 16.173 85.3309 14.8792 88.208 16.3471ZM121.742 16.2937C123.121 16.9946 124.246 18.2568 125.088 20.0474C126.037 22.0671 126.346 23.2865 126.431 25.3574C126.546 28.1757 125.867 30.4643 124.493 31.8828C123.708 32.6929 122.955 33.0802 121.753 33.2928C118.683 33.8357 116.068 31.6294 114.639 27.292C113.317 23.2802 113.734 19.3204 115.69 17.3005C117.248 15.692 119.742 15.2773 121.742 16.2937Z" fill="#292929"/>
</svg>
