<svg width="152" height="20" viewBox="0 0 152 20" fill="none" xmlns="http://www.w3.org/2000/svg">
<path opacity="0.3" fill-rule="evenodd" clip-rule="evenodd" d="M7.20164 0.239927V0.477675L7.40845 0.510298C7.72566 0.560248 8.01353 0.716295 8.12778 0.900173C8.27016 1.12931 8.30067 1.51047 8.20613 1.87769C8.08852 2.33431 2.84878 15.4813 2.38817 16.4756C1.87165 17.5904 1.24228 18.3987 0.668536 18.6838C0.506402 18.7645 0.324268 18.8304 0.263833 18.8304C0.041312 18.8304 0 18.8767 0 19.126V19.3628H2.06804H4.13608V19.1227C4.13608 18.8839 4.13496 18.8822 3.94363 18.831C3.67196 18.7582 3.46019 18.5625 3.3166 18.2513C3.20838 18.0168 3.19276 17.9169 3.19159 17.451C3.19057 17.057 3.21373 16.8493 3.28064 16.6523C3.35718 16.427 4.00815 14.824 4.53373 13.5667L4.68043 13.2158H6.84122H9.00205L9.00035 15.2124C8.99855 17.3447 8.96527 17.7527 8.75836 18.1778C8.70036 18.297 8.56592 18.4685 8.45969 18.559C8.2506 18.737 8.04078 18.8042 7.5301 18.8564L7.20164 18.8901V19.1264V19.3628H10.2915H13.3814V19.1296V18.8964L12.971 18.8418C12.7453 18.8118 12.4749 18.7437 12.3703 18.6906C11.9674 18.4862 11.7314 18.0597 11.6334 17.3587C11.5976 17.1029 11.581 14.2913 11.581 8.49317V0.00217798H9.39133H7.20164V0.239927ZM95.7137 0.237942C95.7137 0.49539 95.7526 0.534596 96.0078 0.534596C96.2419 0.534596 96.664 0.720168 96.9 0.926746C97.1506 1.1462 97.3746 1.56753 97.4635 1.98664C97.5053 2.18388 97.516 4.22773 97.5049 9.8761L97.4898 17.4994L97.3809 17.8181C97.154 18.4816 96.8273 18.7487 96.1336 18.8378L95.7137 18.8917V19.1272V19.3628H98.8279H101.942V19.1208C101.942 18.9877 101.922 18.8788 101.897 18.8788C101.699 18.8788 101.066 18.7596 100.947 18.6999C100.597 18.5246 100.396 18.2369 100.255 17.7066C100.184 17.4405 100.171 16.9912 100.155 14.1022L100.136 10.8019L102.024 10.7867L103.913 10.7715L104.186 10.644C104.694 10.4071 105.01 10.0153 105.233 9.34369C105.315 9.09805 105.323 8.80662 105.337 5.57349C105.354 1.74236 105.349 1.66114 105.073 1.07781C104.89 0.69253 104.474 0.290168 104.107 0.143172L103.816 0.0263788L99.7646 0.0132134L95.7137 0V0.237942ZM102.514 0.776168C102.574 0.815857 102.662 0.924761 102.709 1.01818C102.788 1.17601 102.794 1.48578 102.794 5.39896C102.794 9.37665 102.789 9.6188 102.705 9.77102C102.554 10.0465 102.416 10.0732 101.224 10.0585L100.166 10.0455L100.154 5.42316C100.147 2.88086 100.152 0.771812 100.166 0.736333C100.203 0.637836 102.36 0.674428 102.514 0.776168ZM9.00205 7.64963V12.5382H7.0018C5.11774 12.5382 5.00329 12.5333 5.03176 12.4535C5.1191 12.2086 8.97456 2.76107 8.98716 2.76107C8.99534 2.76107 9.00205 4.96092 9.00205 7.64963ZM84.23 3.07544C83.0958 3.33216 82.223 4.29695 81.8698 5.68448C81.4539 7.31861 81.6875 9.14824 82.4795 10.459C82.9826 11.2917 83.3568 11.6551 84.5706 12.4902C86.3897 13.7417 87.0441 14.3638 87.3051 15.0898C87.4575 15.5134 87.4753 16.1724 87.3506 16.7733C87.0926 18.0173 86.4088 18.7317 85.3954 18.8162C84.5083 18.8902 83.7131 18.2263 83.064 16.8701C82.7696 16.255 82.6368 15.8353 82.4544 14.9442C82.3607 14.4861 82.2725 14.0623 82.2585 14.0023C82.2364 13.9073 82.2021 13.8934 81.9904 13.8934H81.7476L81.7601 16.6644L81.7727 19.4354H82.0146H82.2566L82.293 19.2234C82.313 19.1068 82.3634 18.9598 82.4049 18.8967C82.5201 18.722 82.8402 18.7419 83.3541 18.9558C84.6783 19.5069 85.1404 19.6052 85.9793 19.5147C87.8209 19.3161 88.924 18.3454 89.3975 16.5071C89.7441 15.1613 89.6048 13.6222 89.0271 12.4172C88.4762 11.2677 87.6288 10.4325 86.1816 9.6128C85.433 9.1887 85.3471 9.13246 84.8948 8.76974C84.307 8.29841 83.8393 7.60041 83.6941 6.97801C83.4681 6.00882 83.8775 4.52226 84.5009 4.04879C84.8108 3.81337 85.0897 3.74895 85.5272 3.81163C86.0285 3.88345 86.379 4.06815 86.7871 4.4756C87.4531 5.14059 87.8941 6.13301 88.246 7.75853L88.3272 8.13365H88.5413H88.7554V5.66516V3.19668H88.5121C88.3021 3.19668 88.2688 3.2098 88.2688 3.29252C88.2688 3.47359 88.1186 3.76385 87.9962 3.81932C87.7862 3.91453 87.6043 3.88045 87.2131 3.67247C86.1823 3.12471 85.9711 3.05917 85.1302 3.02655C84.717 3.01048 84.4538 3.02481 84.23 3.07544ZM116.564 3.19576C115.758 3.30951 115.064 3.55795 114.597 3.89957C114.011 4.32889 113.534 5.08643 113.318 5.93137L113.207 6.36699V11.3524V16.3377L113.319 16.7491C113.65 17.9588 114.339 18.7511 115.419 19.1655C116.616 19.6248 117.677 19.6594 118.769 19.2749C119.718 18.9409 120.56 18.0894 120.983 17.0354C121.218 16.4506 121.26 16.0226 121.26 14.238C121.261 13.2125 121.28 12.5392 121.314 12.4172C121.381 12.1723 121.567 11.9254 121.778 11.8018C121.919 11.7189 121.941 11.68 121.941 11.517V11.3282H120.214H118.486V11.5195C118.486 11.6908 118.504 11.7193 118.658 11.7916C118.865 11.8895 119.011 12.083 119.101 12.38C119.2 12.7081 119.198 17.0209 119.098 17.5393C118.989 18.1056 118.788 18.4141 118.403 18.6073C118.178 18.7204 117.551 18.7968 117.098 18.7662C116.191 18.7049 115.803 18.4048 115.639 17.638C115.538 17.1626 115.533 5.62833 115.633 5.25167C115.847 4.45324 116.383 3.99734 117.178 3.93771C118.45 3.84222 119.619 4.7982 120.09 6.31859C120.213 6.71504 120.335 7.46866 120.335 7.83114L120.336 8.08525H120.725H121.114V5.64096V3.19668H120.829H120.544L120.517 3.49164C120.488 3.81308 120.353 4.01951 120.172 4.01951C120.118 4.01951 119.775 3.87978 119.409 3.70897C118.444 3.25883 118.192 3.18899 117.465 3.17021C117.13 3.16159 116.725 3.17311 116.564 3.19576ZM63.2577 3.62712C63.2577 3.86588 63.3015 3.92271 63.4854 3.92271C63.6451 3.92271 63.8858 4.0819 63.9595 4.23625C64.059 4.44491 64.0589 4.95502 63.9591 5.47833C63.8778 5.90475 61.4084 16.9035 61.2819 17.4026C61.0636 18.264 60.7201 18.7864 60.3381 18.8381C60.2282 18.853 60.215 18.8791 60.2017 19.1087L60.187 19.3628H61.5277H62.8684V19.1214V18.88L62.6774 18.8496C62.0897 18.7561 61.8761 18.234 62.0444 17.3026C62.0911 17.0443 62.52 15.3728 62.7052 14.7277L62.7784 14.473L64.4138 14.4857L66.0493 14.4985L66.4028 16.0957C66.7862 17.8278 66.8277 18.1985 66.6715 18.4924C66.573 18.6777 66.3494 18.8121 66.0678 18.8552L65.8853 18.8832V19.123V19.3628H67.9315H69.9778L69.9631 19.1116C69.9492 18.8743 69.9398 18.8581 69.7936 18.8206C69.5935 18.7694 69.3192 18.4498 69.1975 18.1263C69.1246 17.9326 66.1286 3.58036 66.1286 3.42504C66.1286 3.40592 65.4826 3.39029 64.6931 3.39029H63.2577V3.62712ZM13.0408 3.67978C13.0408 3.90335 13.0505 3.923 13.1746 3.95034C13.4898 4.01975 13.6223 4.08079 13.8162 4.24584C14.0694 4.46142 14.2202 4.69408 14.365 5.09262L14.4763 5.39896L14.5015 11.1829C14.5268 16.9605 14.5269 16.9674 14.634 17.3445C14.9547 18.4743 15.726 19.2142 16.8849 19.5041C17.9253 19.7643 19.9489 19.6573 20.6531 19.3049C21.3774 18.9425 21.7538 18.379 22.0046 17.2815C22.1081 16.829 22.1102 16.7319 22.1403 11.1345C22.1734 4.97099 22.1593 5.27515 22.4366 4.72288C22.5906 4.41607 22.9519 4.0895 23.2167 4.01777C23.3339 3.98602 23.4571 3.95233 23.4905 3.94289C23.5288 3.9321 23.5513 3.83563 23.5513 3.6822V3.43869H21.7996H20.0478V3.67978C20.0478 3.90349 20.0574 3.92295 20.1816 3.94991C20.6291 4.0471 20.9418 4.28427 21.1604 4.6921C21.4637 5.25816 21.4572 5.12404 21.4581 10.8212C21.4587 14.1005 21.4405 16.152 21.4086 16.4116C21.3069 17.2393 21.1166 17.7573 20.781 18.1195C20.409 18.5208 19.868 18.658 18.7684 18.6296C18.1278 18.6131 18.0565 18.6018 17.7965 18.4751C17.3148 18.2406 17.0645 17.81 16.8965 16.9272C16.8193 16.5217 16.8119 16.0052 16.8119 11.0135C16.8119 6.75962 16.8257 5.48613 16.8738 5.28299C17.0377 4.5908 17.4978 4.05799 18.0041 3.97396C18.171 3.94623 18.1747 3.94062 18.1891 3.69217L18.2039 3.43869H15.6223H13.0408V3.67978ZM24.2812 3.67978C24.2812 3.90335 24.2909 3.923 24.415 3.95034C25.0726 4.09516 25.4532 4.52647 25.6218 5.31793C25.7241 5.79779 25.7241 17.0037 25.6218 17.4836C25.4529 18.2763 25.0732 18.706 24.4124 18.8518C24.2837 18.8803 24.2768 18.8948 24.2908 19.1103L24.3055 19.3386H27.7604C30.9744 19.3386 31.2356 19.3324 31.5072 19.2497C32.7677 18.8659 33.5602 17.7159 34.1144 15.4665C34.816 12.6181 34.6111 7.51609 33.7099 5.3975C33.2121 4.22725 32.3937 3.67131 30.9002 3.48903C30.6542 3.45902 29.2358 3.43869 27.3845 3.43869H24.2812V3.67978ZM35.1323 3.67746C35.1323 3.88413 35.147 3.92009 35.2418 3.94536C35.6328 4.04947 35.7542 4.11104 35.9563 4.30794C36.212 4.55682 36.3666 4.85265 36.4706 5.29136C36.5775 5.74232 36.5775 17.0592 36.4706 17.5101C36.3695 17.9368 36.2132 18.2415 35.973 18.4806C35.7549 18.6977 35.6093 18.7754 35.327 18.8256C35.1604 18.8552 35.1563 18.8614 35.142 19.1093L35.1272 19.3628H39.4033H43.6793L43.9089 18.3101C44.0352 17.7311 44.179 17.0776 44.2285 16.858L44.3185 16.4587H43.9908H43.6632L43.6024 16.6644C43.3965 17.361 42.8123 18.0742 42.2229 18.3486C41.7058 18.5893 41.3049 18.6492 40.3876 18.6229C39.5592 18.5991 39.3285 18.5542 39.1337 18.3788C38.888 18.1577 38.8791 18.0316 38.8791 14.7801V11.7638L39.1103 11.7655C39.4301 11.7678 40.0502 11.883 40.2213 11.9718C40.6372 12.1878 40.7923 12.5352 41.0956 13.9297C41.1159 14.023 41.1507 14.0386 41.3374 14.0386H41.5554V11.3282V8.61766H41.3374C41.1502 8.61766 41.1162 8.63305 41.0974 8.72657C40.7365 10.5181 40.5352 10.754 39.2562 10.8841L38.8791 10.9225L38.8794 7.84614C38.8796 5.82959 38.8974 4.70614 38.9313 4.58508C39.0255 4.24758 39.0986 4.21307 39.7185 4.2135C41.8034 4.215 42.6449 4.7177 42.9316 6.13306L42.9986 6.46379L43.2746 6.47831L43.5505 6.49283V4.96576V3.43869H39.3414H35.1323V3.67746ZM44.9616 3.67407V3.90945L45.324 3.96758C46.0328 4.08132 46.2649 4.38141 46.3759 5.32785C46.4512 5.96864 46.4098 17.3399 46.3313 17.6183C46.137 18.3069 45.7329 18.7409 45.2049 18.8278C45.038 18.8553 45.0343 18.8608 45.0199 19.1093L45.0052 19.3628H46.7863H48.5675L48.5528 19.1093C48.5384 18.8608 48.5347 18.8553 48.3678 18.8278C47.8398 18.7409 47.4352 18.3064 47.2416 17.6183C47.1668 17.3526 47.1267 5.4325 47.2011 5.59256C47.2258 5.6458 48.0798 8.65154 49.0988 12.272C50.1178 15.8924 50.9849 18.969 51.0256 19.1087C51.0987 19.3596 51.102 19.3628 51.2908 19.3628C51.396 19.3628 51.482 19.3516 51.482 19.3378C51.482 19.3035 55.4163 5.86448 55.4706 5.71357C55.4965 5.64154 55.5105 8.01269 55.5052 11.5702L55.4964 17.5478L55.3913 17.8243C55.1755 18.3916 54.8066 18.7433 54.3458 18.8211L54.134 18.8569L54.1193 19.1098L54.1045 19.3628H56.7129H59.3213L59.3066 19.1093C59.2922 18.8614 59.2882 18.8552 59.1216 18.8256C58.5607 18.7259 58.1633 18.2956 57.9777 17.5868C57.8686 17.17 57.8686 5.63148 57.9777 5.21469C58.0811 4.81983 58.2566 4.50028 58.4809 4.29874C58.7263 4.07822 58.8327 4.02217 59.0874 3.97919L59.2919 3.94463L59.3066 3.69111L59.3213 3.43758L57.3641 3.45026L55.4068 3.46289L53.7729 8.9905C52.7438 12.472 52.126 14.4876 52.104 14.4357C52.0848 14.3904 51.3994 11.9356 50.5809 8.98067C49.7625 6.02576 49.0815 3.57001 49.0676 3.52339C49.0442 3.44445 48.9033 3.43869 47.0021 3.43869H44.9616V3.67407ZM70.6148 3.68806C70.6294 3.94115 70.6326 3.94618 70.7999 3.97396C71.3182 4.05993 71.7568 4.58915 71.9128 5.31662C71.9519 5.49924 71.9678 7.2492 71.9678 11.3921C71.9678 16.8828 71.9628 17.2291 71.8787 17.5305C71.6898 18.2083 71.2315 18.7245 70.7269 18.8282C70.5898 18.8563 70.5801 18.8735 70.5663 19.1105L70.5515 19.3628H73.1356H75.7197L75.7049 19.1098L75.6902 18.8569L75.4802 18.8214C75.084 18.7545 74.7542 18.4685 74.5339 18.0005C74.3139 17.5331 74.3034 17.3788 74.3034 14.5929V11.9574H74.6818H75.06L76.4213 15.329C77.2547 17.3933 77.8435 18.7863 77.9397 18.9213C78.2219 19.3173 78.2954 19.3363 79.6195 19.3545L80.7752 19.3705V19.1246C80.7752 18.9228 80.7599 18.8788 80.69 18.8786C80.518 18.8783 80.307 18.6943 80.1572 18.414C80.0302 18.1765 77.3203 11.8512 77.3203 11.7922C77.3203 11.7818 77.4785 11.7254 77.6719 11.667C78.5561 11.3998 78.9895 11.0051 79.1519 10.3188C79.225 10.0098 79.2343 8.19604 79.1737 6.07658C79.1393 4.87438 79.1323 4.80623 79.0154 4.55125C78.8595 4.21137 78.4804 3.86661 78.1087 3.72663C77.471 3.48656 77.314 3.47644 73.8506 3.45273L70.5999 3.43046L70.6148 3.68806ZM106.759 3.67978C106.759 3.90388 106.769 3.9228 106.893 3.94817C107.411 4.05383 107.633 4.2046 107.846 4.59375C108.126 5.10501 108.12 4.96823 108.12 11.4008C108.12 16.2941 108.109 17.3608 108.052 17.6273C107.898 18.3486 107.539 18.75 106.978 18.8276L106.784 18.8546L106.769 19.1087L106.754 19.3628H109.29H111.825L111.81 19.1091L111.796 18.8554L111.562 18.8223C111.207 18.7722 110.87 18.5257 110.696 18.1906C110.456 17.7255 110.459 17.8203 110.459 11.4008C110.459 6.26927 110.469 5.35486 110.531 5.09495C110.699 4.38533 110.998 4.08873 111.686 3.94817C111.811 3.9228 111.82 3.90388 111.82 3.67978V3.43869H109.29H106.759V3.67978ZM122.379 3.67978C122.379 3.90335 122.389 3.923 122.513 3.95034C122.827 4.01951 122.96 4.08045 123.149 4.24138C123.403 4.45696 123.674 4.99959 123.74 5.42316C123.771 5.62175 123.79 7.73922 123.79 11.1645C123.79 17.1281 123.788 17.0818 124.084 17.7845C124.454 18.6646 125.144 19.227 126.207 19.5171C126.545 19.6092 126.712 19.6209 127.683 19.62C128.975 19.6189 129.418 19.5544 129.957 19.2893C130.776 18.8868 131.211 18.116 131.376 16.7733C131.412 16.4814 131.43 14.6452 131.431 11.2071C131.431 8.25325 131.452 5.8883 131.479 5.63283C131.576 4.71277 131.947 4.14327 132.546 3.99245L132.768 3.93665L132.783 3.68767L132.798 3.43869H131.092H129.386V3.67746C129.386 3.88413 129.401 3.92009 129.496 3.94536C129.878 4.04705 129.997 4.10625 130.172 4.28015C130.28 4.38727 130.421 4.57894 130.486 4.70609C130.752 5.22941 130.747 5.11271 130.748 10.797C130.748 14.0793 130.73 16.2037 130.699 16.46C130.605 17.2329 130.367 17.8442 130.035 18.1625C129.65 18.5324 129.117 18.6579 128.058 18.6278C127.491 18.6117 127.327 18.59 127.144 18.5076C126.689 18.303 126.392 17.8705 126.245 17.201C126.099 16.5339 126.073 15.4037 126.089 10.4074C126.107 4.90086 126.091 5.17428 126.432 4.60764C126.664 4.22406 126.913 4.04608 127.355 3.95001C127.479 3.92295 127.489 3.90344 127.489 3.67978V3.43869H124.934H122.379V3.67978ZM133.522 3.67978C133.522 3.90335 133.532 3.923 133.656 3.95034C134.141 4.05712 134.4 4.25431 134.637 4.69679C134.934 5.24998 134.93 5.16416 134.93 11.4008C134.93 17.513 134.929 17.5393 134.674 18.0394C134.436 18.5079 134.145 18.7559 133.757 18.8214L133.547 18.8569L133.532 19.1101L133.517 19.3633L137.787 19.351L142.056 19.3386L142.362 17.9592C142.53 17.2005 142.669 16.5525 142.669 16.5192C142.67 16.477 142.576 16.4587 142.358 16.4587H142.046L141.942 16.7673C141.713 17.4545 141.224 18.044 140.651 18.3256C140.117 18.5879 139.722 18.6501 138.753 18.6242C137.87 18.6006 137.678 18.5579 137.481 18.3405C137.261 18.0991 137.254 18.0033 137.233 14.7935L137.213 11.7487L137.642 11.7803C138.792 11.8648 139.057 12.1177 139.354 13.4123L139.492 14.0144L139.719 14.0292L139.945 14.044V11.3282V8.61234L139.719 8.6271L139.493 8.64186L139.4 9.09829C139.215 10.0158 139.019 10.4175 138.653 10.6306C138.443 10.7531 137.918 10.874 137.488 10.8993L137.245 10.9135L137.232 8.20465C137.218 5.29325 137.25 4.56756 137.406 4.36205L137.5 4.23732L138.297 4.24071C138.735 4.24255 139.244 4.27086 139.428 4.30353C140.495 4.49365 141.081 5.0538 141.296 6.08999L141.379 6.48799H141.66H141.94V4.96334V3.43869H137.731H133.522V3.67978ZM143.011 4.9631V6.48799H143.268H143.525L143.585 6.10489C143.698 5.39484 143.914 4.92602 144.245 4.67497C144.563 4.43349 144.918 4.34385 145.651 4.32037L146.32 4.29893V10.7928C146.32 17.9665 146.332 17.6798 146.013 18.2037C145.817 18.5261 145.562 18.7311 145.263 18.8062L145.03 18.8649L145.016 19.1138L145.001 19.3628H147.512H150.023L150.008 19.1138L149.994 18.8649L149.761 18.8062C149.344 18.7013 148.996 18.3374 148.789 17.7898L148.68 17.4994L148.667 10.9046L148.654 4.30992L149.202 4.31065C150.266 4.312 150.82 4.55536 151.132 5.15811C151.24 5.3672 151.429 6.04594 151.429 6.22556C151.429 6.45029 151.474 6.48799 151.744 6.48799H152L151.994 4.97544L151.989 3.46289L147.5 3.45055L143.011 3.43821V4.9631ZM30.512 4.30421C30.6605 4.3604 30.8729 4.47289 30.984 4.5542C31.6947 5.07404 32.1878 6.67681 32.3562 9.01393C32.4693 10.5841 32.3691 14.5087 32.1884 15.5875C31.9557 16.9768 31.3669 18.0876 30.6892 18.4161C30.2348 18.6364 28.6671 18.7127 28.2899 18.533C27.9876 18.3888 28.0051 18.7667 27.9888 12.0333C27.9733 5.65302 27.9879 5.05913 28.1684 4.70889C28.4011 4.2576 28.6715 4.15731 29.5851 4.1833C30.1029 4.19806 30.2992 4.22367 30.512 4.30421ZM76.2674 4.31258C76.6011 4.39714 76.8505 4.64563 76.9527 4.99519C77.0231 5.23618 77.031 5.55655 77.0183 7.66081L77.0041 10.0526L76.8576 10.3374C76.6875 10.6681 76.4317 10.8829 76.0202 11.0407C75.7898 11.1292 75.6091 11.1529 75.0212 11.1718L74.3034 11.195L74.3036 7.90974C74.3038 4.72927 74.3068 4.61954 74.3994 4.46853C74.452 4.38272 74.545 4.30189 74.606 4.28891C74.6671 4.27589 74.7608 4.2546 74.8144 4.24148C74.9853 4.19966 76.0222 4.25043 76.2674 4.31258ZM65.178 10.2125C65.5384 12.1412 65.8265 13.7261 65.818 13.7345C65.8096 13.7429 65.1572 13.7439 64.3681 13.7369L62.9334 13.724L63.7141 10.173C64.1434 8.21985 64.501 6.64075 64.5087 6.66384C64.5164 6.68692 64.8176 8.28384 65.178 10.2125Z" fill="#292929"/>
</svg>
