<svg width="107" height="21" viewBox="0 0 107 21" fill="none" xmlns="http://www.w3.org/2000/svg">
<path opacity="0.3" fill-rule="evenodd" clip-rule="evenodd" d="M71.0098 0.71776C69.2501 6.5239 66.613 16.6996 66.8172 16.8971C66.9613 17.0373 67.2352 16.3467 67.4258 15.3625L67.7721 13.5735L70.3213 13.7196L72.8705 13.8656L73.7672 16.9564C74.4289 19.2385 74.5068 20.0938 74.0635 20.2256C73.7334 20.3241 73.1222 20.5153 72.7052 20.6501C72.2882 20.7849 73.8805 20.8986 76.2437 20.903C79.2109 20.9079 80.1987 20.777 79.4359 20.479C77.9158 19.885 77.7359 19.4737 74.5255 9.24856C72.9665 4.283 71.5987 0.131066 71.4859 0.021766C71.3732 -0.0875341 71.1589 0.225665 71.0098 0.71776ZM0.215652 0.864309C1.21401 1.25593 1.29539 1.77057 1.6275 9.80486C1.97124 18.1166 1.82313 19.858 0.709016 20.5976C-0.357579 21.3059 10.5207 21.002 11.9447 20.2839C15.3396 18.5714 17.1007 15.2057 17.1007 10.4308C17.1007 5.50098 15.1879 2.47783 11.1945 1.09712C9.07092 0.36241 -1.64356 0.135478 0.215652 0.864309ZM24.4905 0.877053C24.3131 1.28141 23.0479 5.57941 21.6795 10.4278C19.8223 17.0069 18.9114 19.463 18.09 20.108C17.0042 20.9608 17.0229 20.9716 19.4457 20.9059C20.7974 20.8692 21.3909 20.7437 20.7656 20.6265C19.4103 20.3736 19.4361 20.6893 20.4481 16.7849L21.2675 13.6206H23.7141H26.1607L26.9382 16.1604C27.9916 19.6002 27.9294 20.3746 26.5787 20.6265C25.9535 20.7437 28.626 20.8471 32.5183 20.8569C36.4106 20.8667 39.0266 20.7216 38.3315 20.5344L37.0678 20.1942L36.949 11.8835L36.8297 3.57279L39.7065 12.0276C41.2887 16.6775 42.7071 20.482 42.8587 20.4815C43.0099 20.4815 44.1346 17.0074 45.3579 12.7618C46.5812 8.51678 47.7716 4.71236 48.0037 4.308C48.2387 3.89824 48.3727 7.25175 48.307 11.8835L48.1887 20.1942L46.9249 20.5344C46.2086 20.7275 47.5234 20.8643 49.9579 20.85C52.3211 20.8368 53.6571 20.7363 52.9267 20.6275L51.5987 20.429L51.3607 11.5105C51.2297 6.60575 51.3147 2.22198 51.5502 1.7691C51.7853 1.31621 52.4899 0.843724 53.1162 0.71874C53.7425 0.594246 52.9085 0.523666 51.2626 0.561897L48.2706 0.631985L46.243 7.61641C45.1274 11.4581 44.0704 14.6008 43.894 14.6008C43.7176 14.6008 42.559 11.4581 41.319 7.61641L39.065 0.631985L36.2974 0.50014C33.7553 0.379077 33.6324 0.420248 34.793 1.004C36.0563 1.6397 36.0568 1.64313 36.2009 9.95827C36.3849 20.5574 36.3788 20.58 33.639 20.3874L31.5073 20.2374L30.3907 17.0515C29.777 15.2993 28.2706 10.7778 27.0438 7.00374C25.7477 3.01649 24.6781 0.449655 24.4905 0.877053ZM56.403 0.892246C57.5267 1.33043 57.5403 1.44757 57.5403 10.6797C57.5403 19.9119 57.5267 20.0291 56.403 20.4672C55.5841 20.7863 56.3974 20.9103 59.3096 20.9103C62.015 20.9103 63.0032 20.7731 62.2945 20.4952C61.3806 20.1369 61.1905 19.5213 60.9074 15.9928C60.5 10.9189 60.4879 3.44144 60.8847 2.0073C61.048 1.4162 61.6707 0.839313 62.2677 0.726092C62.8647 0.612871 61.5337 0.504549 59.3096 0.484943C56.4267 0.459456 55.5922 0.576109 56.403 0.892246ZM81.8041 0.825587L83.0679 1.16623V10.6797V20.1933L81.8041 20.5339C80.9665 20.7599 81.5625 20.875 83.5733 20.875C85.5822 20.875 86.1797 20.7599 85.3426 20.5344L84.0788 20.1942L83.9398 11.6507C83.8564 6.51556 83.9843 3.29832 84.2603 3.58505C84.5126 3.84776 86.9637 7.51887 89.7065 11.7429C92.4498 15.9668 94.9652 19.8266 95.2963 20.3202C95.774 21.0324 95.9049 19.2865 95.9282 11.8762C95.9585 2.37344 96.1445 1.36327 97.98 0.727071C98.397 0.582482 97.3734 0.477101 95.7052 0.492295C94.0371 0.507979 93.198 0.61777 93.8405 0.736872C94.4829 0.855975 95.1158 1.22407 95.2467 1.55491C95.3782 1.88575 95.4211 4.90106 95.3423 8.25554L95.1997 14.3538L90.7266 7.37036L86.2535 0.386918L83.3969 0.43593C81.3866 0.47024 80.9144 0.585421 81.8041 0.825587ZM100.887 0.892246C102.01 1.33043 102.024 1.44757 102.024 10.6797C102.024 19.9119 102.01 20.0291 100.887 20.4672C100.068 20.7863 100.881 20.9103 103.793 20.9103C106.497 20.9103 107.486 20.7731 106.779 20.4957C105.841 20.1276 105.684 19.534 105.392 15.2576C104.984 9.29365 104.974 3.43311 105.368 2.0073C105.532 1.4162 106.154 0.839313 106.751 0.726092C107.348 0.612871 106.017 0.504549 103.793 0.484943C100.91 0.459456 100.076 0.576109 100.887 0.892246ZM10.3412 2.18865C11.0327 2.62782 12.0528 3.85119 12.6084 4.90645C15.9846 11.3233 12.4668 20.4824 6.62533 20.4824H4.96882V10.617V0.75158L7.02619 1.07065C8.15799 1.24612 9.64971 1.74949 10.3412 2.18865ZM71.5901 9.33188L72.6071 12.6403H70.4168H68.227L69.2026 9.33335C69.739 7.51446 70.1777 5.93377 70.1777 5.82104C70.1777 5.13877 70.7024 6.44204 71.5901 9.33188ZM24.853 9.20199C25.3155 10.8155 25.6941 12.2492 25.6941 12.3879C25.6941 12.5266 24.76 12.6403 23.6181 12.6403C22.1688 12.6403 21.6128 12.4555 21.7771 12.0276C21.906 11.6909 22.3144 10.2573 22.6849 8.84174C23.0549 7.42623 23.5048 6.26854 23.6848 6.26854C23.8647 6.26854 24.3905 7.58847 24.853 9.20199ZM65.6394 18.9856C65.3002 19.7796 64.6471 20.5261 64.1881 20.6442C63.7291 20.7623 64.6046 20.8623 66.1338 20.8667C68.0829 20.8726 68.5364 20.7697 67.6502 20.5236C66.6489 20.2452 66.4168 19.8987 66.5321 18.8567C66.7216 17.1441 66.4067 17.1892 65.6394 18.9856Z" fill="#292929"/>
</svg>
