<svg width="67" height="50" viewBox="0 0 67 50" fill="none" xmlns="http://www.w3.org/2000/svg">
<path opacity="0.3" fill-rule="evenodd" clip-rule="evenodd" d="M0.87566 12.18C0.976017 12.279 1.81346 12.4369 2.7367 12.5313C3.65994 12.6254 4.59175 12.8469 4.80755 13.0236C5.14658 13.3013 5.19988 14.9008 5.19988 24.8122C5.19988 35.4887 5.1679 36.3082 4.73631 36.6936C4.43394 36.9633 3.52968 37.1682 2.13637 37.2828C0.961458 37.3795 0 37.5659 0 37.6969C0 37.8415 3.91915 37.8972 9.94477 37.8385C19.421 37.7462 19.9621 37.7151 21.4284 37.1774C24.6204 36.0074 26.6634 34.2505 28.1106 31.431C29.2303 29.2489 29.6326 27.6279 29.6362 25.2819C29.6469 18.4872 25.7927 13.7382 19.1855 12.4046C17.6084 12.0862 15.4257 12 8.93729 12C4.40326 12 0.775302 12.081 0.87566 12.18ZM18.0254 13.5046C21.1783 14.6139 23.1855 16.7888 24.4454 20.4616C26.4066 26.1776 24.0583 33.94 19.7055 36.13C18.4128 36.7805 15.3001 37.1746 12.2197 37.0779L9.74978 37.0003L9.68192 25.2053C9.64474 18.718 9.6762 13.2508 9.75211 13.0559C9.97389 12.4854 16.0681 12.8159 18.0254 13.5046ZM34.0592 18.4103C32.9914 19.4634 33.6848 21.2309 35.1657 21.2309C35.8654 21.2309 36.9191 20.2014 36.9191 19.518C36.9191 18.9747 35.7172 17.8975 35.1109 17.8975C34.8184 17.8975 34.3452 18.1283 34.0592 18.4103ZM45.4243 25.6822C41.6601 26.7286 39.7299 31.0928 41.4345 34.7031C42.5236 37.01 44.3235 38.0182 47.3189 37.9998C51.9255 37.9715 55.0862 34.3472 54.0871 30.2392C53.6209 28.323 52.5237 26.7878 51.1525 26.1332C49.6745 25.4273 47.0769 25.223 45.4243 25.6822ZM34.5732 26.5722C33.7836 26.9486 32.7891 27.3863 32.3633 27.5448C31.6088 27.8258 31.6189 27.8322 32.7592 27.8012L33.9292 27.7694L34.0005 32.2228C34.0496 35.29 33.9789 36.7867 33.7737 37.0305C33.6097 37.2254 33.0803 37.3849 32.5975 37.3849C32.1145 37.3849 31.7193 37.5003 31.7193 37.6413C31.7193 37.8 33.1058 37.8977 35.3592 37.8977C37.6126 37.8977 38.9991 37.8 38.9991 37.6413C38.9991 37.5003 38.6039 37.3849 38.1208 37.3849C37.638 37.3849 37.1139 37.2318 36.9563 37.0446C36.7733 36.8272 36.6446 34.7746 36.5996 31.3605C36.5562 28.0709 36.4293 25.9922 36.2692 25.9524C36.1262 25.9168 35.3631 26.1958 34.5732 26.5722ZM48.1384 26.1091C50.3759 26.7222 51.7144 29.5384 51.3909 32.9533C51.1567 35.4272 50.1357 36.8718 48.3477 37.2592C45.7332 37.8254 43.568 34.9482 43.5929 30.9402C43.6075 28.5932 44.3966 26.9917 45.8614 26.3358C47.1273 25.7686 46.957 25.7855 48.1384 26.1091ZM58.8886 26.7704C57.7447 27.2427 56.6917 27.683 56.5487 27.7491C56.4057 27.8153 56.8152 27.8468 57.4587 27.8194L58.6286 27.7694L58.6999 32.2228C58.749 35.29 58.6783 36.7867 58.4732 37.0305C58.3091 37.2254 57.7798 37.3849 57.297 37.3849C56.8139 37.3849 56.4187 37.5003 56.4187 37.6413C56.4187 37.8005 57.8487 37.8977 60.1886 37.8977C62.5286 37.8977 63.9585 37.8005 63.9585 37.6413C63.9585 37.5003 63.5782 37.3831 63.1135 37.381C61.6157 37.3741 61.507 37.1672 61.4015 34.1246C61.2829 30.711 61.6103 29.3615 62.8327 28.2243C63.8719 27.2578 64.464 27.1735 65.1285 27.8976C65.7668 28.5932 66.5083 28.543 66.8608 27.7799C67.3286 26.7676 66.5717 25.8463 65.2725 25.8463C64.0854 25.8463 63.0254 26.6063 62.2615 28.0053C61.986 28.5102 61.6615 28.9232 61.5406 28.9232C61.4197 28.9232 61.3518 28.2671 61.3893 27.4653C61.427 26.6632 61.3477 25.9858 61.2132 25.9596C61.0786 25.9335 60.0326 26.2983 58.8886 26.7704Z" fill="#292929"/>
</svg>
