<svg width="191" height="23" viewBox="0 0 191 23" fill="none" xmlns="http://www.w3.org/2000/svg">
<path opacity="0.3" fill-rule="evenodd" clip-rule="evenodd" d="M164.671 0.0418742C164.652 0.0752994 164.593 0.238135 164.54 0.403755C164.346 1.00857 164.041 1.2695 163.528 1.2695C163.379 1.2695 162.71 1.08604 162.042 0.861771C160.217 0.249276 159.807 0.178059 158.126 0.182125C156.948 0.185061 156.573 0.214044 155.968 0.348799C152.124 1.20528 149.041 3.69735 147.512 7.18396C146.826 8.74923 146.572 10.1308 146.631 11.9845C146.675 13.3988 146.771 13.96 147.18 15.1958C147.712 16.8031 148.615 18.253 149.872 19.5215C152.355 22.0254 155.735 23.2404 159.44 22.9605C160.695 22.8656 161.715 22.6817 162.633 22.3843C163.334 22.1571 164.644 21.5269 164.928 21.2798L165.128 21.1063L165.249 19.0361C165.316 17.8974 165.391 16.7421 165.415 16.4687C165.455 16.015 165.446 15.9681 165.308 15.9321C165.075 15.8708 165.02 15.9454 164.847 16.568C164.148 19.0745 162.549 21.0502 160.544 21.8841C159.754 22.2124 159.195 22.3008 158.217 22.252C156.391 22.161 154.866 21.5128 153.594 20.2862C151.977 18.7265 150.98 16.5723 150.619 13.8521C150.465 12.7009 150.466 10.4012 150.621 9.21176C151.198 4.75739 153.315 1.81063 156.497 1.02957C157.401 0.807643 158.791 0.806589 159.599 1.02724C161.56 1.56242 163.29 3.0914 164.242 5.12981C164.402 5.47197 164.597 5.98841 164.675 6.27734C164.812 6.77849 164.829 6.80386 165.059 6.82667L165.3 6.85054L165.25 5.28339C165.223 4.42141 165.179 2.88618 165.152 1.87176L165.104 0.0273447L164.905 0.00423313C164.795 -0.00848954 164.69 0.00844893 164.671 0.0418742ZM0.0333395 3.09509C0.00407673 4.55466 -0.00830367 5.90123 0.00587754 6.08755C0.0298881 6.40291 0.0473707 6.4279 0.259188 6.44868C0.462077 6.46863 0.497718 6.44017 0.588583 6.18519C0.794398 5.60785 1.48568 4.20844 1.8249 3.68229C2.94469 1.94561 4.30023 1.24345 6.73025 1.14159L7.80134 1.09665L7.78071 10.9133C7.76135 20.1395 7.75197 20.7502 7.62584 21.0676C7.34289 21.7796 6.93696 21.9889 5.5827 22.121C5.17077 22.1612 4.78945 22.1949 4.73527 22.196C4.66955 22.1972 4.64456 22.2794 4.66024 22.4426L4.68373 22.6873L9.31701 22.7067L13.9503 22.726V22.462C13.9503 22.302 13.9134 22.1972 13.8565 22.196C13.8049 22.1949 13.4257 22.1612 13.0138 22.121C11.9558 22.0178 11.5249 21.8781 11.2832 21.5601C10.8579 21.0007 10.8739 21.4214 10.8739 10.856V1.11893L11.568 1.11939C14.056 1.12097 15.6236 1.88741 16.7885 3.67175C17.1556 4.23403 17.8664 5.66402 18.0697 6.24933C18.1298 6.42211 18.189 6.46396 18.3733 6.46396H18.6023V3.45268V0.441396H9.34447H0.0866879L0.0333395 3.09509ZM128.256 1.98355C126.742 2.31404 125.386 3.35669 124.731 4.69483C124.304 5.56683 124.197 6.21139 124.319 7.16808C124.465 8.31169 124.816 9.14958 125.704 10.4797C125.977 10.8872 126.199 11.2431 126.199 11.2705C126.199 11.298 125.988 11.4004 125.73 11.4982C124.615 11.9213 123.518 12.6241 122.61 13.4977C121.235 14.8216 120.647 16.0645 120.647 17.6494C120.647 18.558 120.791 19.1792 121.194 20.0147C121.442 20.5276 121.631 20.7829 122.145 21.3009C122.678 21.8379 122.906 22.0065 123.499 22.2991C124.573 22.8298 125.198 22.9717 126.462 22.9721C127.358 22.9723 127.622 22.9434 128.258 22.7743C129.629 22.4095 130.99 21.6094 132.237 20.4344C132.566 20.1246 132.853 19.8973 132.875 19.9294C132.897 19.9615 133.366 20.6037 133.916 21.3563L134.918 22.7249H137.604C140.467 22.7249 140.427 22.7302 140.332 22.366C140.3 22.2439 140.204 22.2101 139.776 22.1701C138.319 22.0343 137.455 21.3813 135.605 19.019L134.664 17.8176L134.864 17.5422C134.974 17.3909 135.488 16.6402 136.008 15.8742C137.46 13.7312 137.711 13.4151 138.209 13.0921C138.657 12.8017 139.474 12.5371 140.193 12.4501C141.07 12.3438 141.067 12.3451 141.042 12.1246L141.018 11.9219L137.511 11.9023L134.003 11.8828V12.0985C134.003 12.3081 134.016 12.3154 134.472 12.3588C135.715 12.4768 136.331 13.0721 136.1 13.9326C135.951 14.4855 134.851 16.5286 134.372 17.1402L134.236 17.3147L133.714 16.6509C131.786 14.1996 129.201 10.8653 129.201 10.8301C129.201 10.807 129.462 10.659 129.782 10.5012C131.156 9.82335 132.512 8.73861 133.041 7.89432C133.624 6.96195 133.874 5.87955 133.705 5.01147C133.291 2.87865 130.714 1.44694 128.256 1.98355ZM130.308 2.73916C130.846 2.89936 131.442 3.45908 131.708 4.05411C132.018 4.74761 132.116 5.68803 131.955 6.43942C131.657 7.83636 130.744 9.08619 129.442 9.87936C128.766 10.2915 128.708 10.2808 128.281 9.66345C127.725 8.85914 127.358 8.15224 127.091 7.36622C126.871 6.72098 126.847 6.56507 126.844 5.74878C126.841 5.06183 126.873 4.74618 126.979 4.43135C127.379 3.23542 128.181 2.6364 129.393 2.62819C129.685 2.62616 130.097 2.67614 130.308 2.73916ZM70.7249 4.78894C70.706 4.81995 69.4518 8.19921 67.9376 12.2983C66.4233 16.3974 65.0543 20.0246 64.8954 20.3586C64.4213 21.3551 63.9226 21.7646 62.7967 22.0821C62.2585 22.2339 62.2339 22.2506 62.2339 22.464V22.6873H64.8976H67.5613V22.4625C67.5613 22.2475 67.5433 22.235 67.1495 22.1782C66.5829 22.0964 66.1359 21.8628 65.9414 21.5472C65.8023 21.3215 65.7843 21.2058 65.8158 20.7432C65.8455 20.3084 65.9829 19.8428 66.5198 18.3585L67.187 16.5141H70.074H72.9609L73.5824 18.1327C73.9243 19.0229 74.258 19.9623 74.3241 20.2203C74.6033 21.31 74.1816 21.9355 73.0231 22.15C72.5304 22.2413 72.5134 22.2518 72.5134 22.4658V22.6873L76.0963 22.7068L79.6791 22.7263V22.4622C79.6791 22.2646 79.6472 22.1979 79.5527 22.1979C79.1897 22.1979 78.5278 21.9306 78.2219 21.6606C77.6025 21.1135 77.838 21.6837 74.466 12.5662C73.0486 8.73379 71.816 5.40339 71.7269 5.16535L71.5647 4.73247H71.1619C70.9403 4.73247 70.7436 4.75792 70.7249 4.78894ZM175.622 5.07267C172.643 5.57488 170.062 7.729 168.937 10.6519C168.189 12.5969 168.141 14.8822 168.807 16.8561C169.844 19.9275 172.282 22.1076 175.425 22.7731C176.293 22.9571 177.929 22.955 178.798 22.769C182.267 22.0257 184.9 19.35 185.669 15.7867C185.85 14.9489 185.887 13.4938 185.75 12.5995C185.069 8.14336 181.399 4.92572 177.043 4.96607C176.584 4.97029 175.945 5.01832 175.622 5.07267ZM21.3785 5.43779V5.69142L22.1564 5.72612C23.148 5.77039 23.5727 5.95491 23.8546 6.46396L24.0422 6.80273L24.0625 13.7606C24.0847 21.4073 24.0908 21.2951 23.637 21.7503C23.3684 22.0197 23.008 22.1201 22.1101 22.175L21.3785 22.2198V22.4723V22.7249H25.5804H29.7822V22.4723V22.2198L29.0506 22.175C28.1565 22.1203 27.8354 22.0313 27.5429 21.7572C27.0674 21.3115 27.0758 21.4627 27.0983 13.7606L27.1186 6.80273L27.3061 6.46396C27.588 5.95491 28.0127 5.77039 29.0044 5.72612L29.7822 5.69142V5.43779V5.18417H25.5804H21.3785V5.43779ZM33.2625 5.29272C33.2397 5.35235 33.2327 5.46249 33.2469 5.53739C33.2691 5.6534 33.3799 5.6805 33.998 5.72108C35.1661 5.79764 35.5399 6.0816 35.702 7.01548C35.808 7.62617 35.8169 20.1521 35.7118 20.796C35.5472 21.804 35.1634 22.1046 33.9472 22.1774L33.2259 22.2205L33.2486 22.4539L33.2712 22.6873H37.4356H41.5999L41.6226 22.4541L41.6452 22.2209L40.8347 22.1746C40.3889 22.1491 39.8986 22.0918 39.7452 22.0473C39.3638 21.9366 39.0549 21.6584 38.8884 21.276C38.7607 20.9825 38.7471 20.6734 38.7258 17.5756L38.7026 14.1954L39.9261 14.2397C41.3587 14.2915 41.8841 14.4085 42.4569 14.8033C42.9246 15.1257 43.3274 15.7697 43.4092 16.3259C43.4639 16.6976 43.5325 16.7781 43.7467 16.722C43.8824 16.6864 43.8884 16.5673 43.8884 13.9132C43.8884 11.2119 43.8846 11.1404 43.739 11.094C43.5219 11.0249 43.4645 11.0886 43.4145 11.454C43.303 12.2704 42.7586 13.0112 42.0311 13.3365C41.4987 13.5747 40.6904 13.691 39.5686 13.691H38.7111V9.76794V5.84492L40.3056 5.88C41.7659 5.91214 41.9567 5.93217 42.5737 6.11887C43.6466 6.44349 44.3372 6.89254 44.9487 7.66298C45.268 8.06536 45.7732 9.08754 45.9118 9.61166C45.9835 9.88282 46.0247 9.93243 46.1623 9.91279L46.327 9.8893L46.3041 7.74376C46.2915 6.56371 46.2636 5.50509 46.2419 5.39119L46.2025 5.18417H39.7533C34.206 5.18417 33.2983 5.19937 33.2625 5.29272ZM49.0194 5.29272C48.9966 5.35235 48.9896 5.46249 49.0038 5.53739C49.0257 5.65265 49.1332 5.6802 49.7043 5.71716C50.7824 5.78688 51.0838 5.94271 51.3693 6.57794C51.4954 6.85837 51.5057 7.31954 51.5259 13.6158C51.5486 20.6305 51.5315 21.0994 51.2349 21.5887C51.0257 21.9338 50.5577 22.1175 49.7239 22.1819L49.0281 22.2356V22.4614V22.6873H53.1925H57.3568L57.3795 22.4541L57.4021 22.2209L56.5916 22.1746C56.1458 22.1491 55.6555 22.0918 55.5021 22.0473C55.1204 21.9365 54.8115 21.6581 54.6461 21.276C54.5194 20.9834 54.5053 20.664 54.4828 17.5756L54.4582 14.1954L55.6824 14.2396C57.1147 14.2914 57.6392 14.408 58.2169 14.8033C58.7109 15.1414 59.0135 15.6054 59.1372 16.215C59.2367 16.7053 59.2893 16.7781 59.5036 16.722C59.6393 16.6864 59.6453 16.5673 59.6453 13.9132C59.6453 11.2119 59.6415 11.1404 59.4959 11.094C59.2752 11.0237 59.22 11.0897 59.1667 11.4874C59.1402 11.6849 59.0396 12.0167 58.9431 12.2246C58.4551 13.2765 57.4325 13.691 55.3255 13.691H54.468V9.76794V5.84492L56.0625 5.88C57.5157 5.91192 57.7156 5.93285 58.3189 6.11548C59.1183 6.35751 59.3997 6.49671 59.9849 6.93967C60.7012 7.48193 61.2975 8.40376 61.6394 9.49738C61.7526 9.85971 61.8017 9.9298 61.9297 9.91143C62.0821 9.88952 62.0836 9.8625 62.0557 7.59319C62.0401 6.33034 62.0128 5.27172 61.995 5.24063C61.9771 5.20961 59.0596 5.18417 55.5117 5.18417C49.9631 5.18417 49.0552 5.19937 49.0194 5.29272ZM80.3684 5.42883C80.3912 5.6662 80.4043 5.67486 80.8062 5.71822C81.8109 5.82662 82.5695 6.31776 82.914 7.08286L83.0931 7.48027L83.1162 13.1264C83.1446 20.0894 83.0935 20.7745 82.4858 21.5739C82.2419 21.8948 81.9545 22.0221 81.2136 22.1377L80.6471 22.2261L80.6696 22.4567L80.692 22.6873H83.7309H86.7697L86.7925 22.4518C86.8152 22.2172 86.8137 22.2161 86.3798 22.167C84.7631 21.9839 84.4028 21.6823 84.0589 20.2238C83.9439 19.7362 83.9266 19.0348 83.9013 13.8416C83.8844 10.3968 83.9003 8.03811 83.94 8.08253C83.977 8.12393 86.4663 11.3253 89.4718 15.1967C92.4774 19.0681 95.0688 22.3964 95.2307 22.5931C95.4767 22.892 95.567 22.9507 95.7806 22.9507H96.0362L96.0388 16.6459C96.0422 8.48431 96.0941 7.4558 96.548 6.56522C96.8253 6.021 97.1759 5.83649 98.1184 5.73892L98.5874 5.69036V5.43644V5.18251L95.4923 5.20216L92.3971 5.22181V5.44547V5.66913L93.0586 5.75706C94.2947 5.9214 94.7053 6.21056 94.9828 7.11169C95.2585 8.00755 95.2936 8.78897 95.2705 13.5333L95.2484 18.0807L90.3338 11.6325L85.4193 5.18417H82.8821H80.3448L80.3684 5.42883ZM99.6378 5.44765C99.6378 5.6936 99.6537 5.71114 99.8767 5.71114C100.008 5.71114 100.32 5.76881 100.571 5.83927C101.345 6.05706 101.431 6.1812 104.125 10.9243L106.549 15.1921L106.526 18.1492L106.503 21.1063L106.316 21.4451C106.047 21.9297 105.648 22.1113 104.717 22.1727L103.99 22.2207V22.4728V22.7249H108.042H112.093V22.4725V22.2201L111.399 22.1764C110.596 22.1258 110.262 22.028 109.972 21.7578C109.571 21.3849 109.542 21.1129 109.542 17.7315V14.6474L111.662 10.8084C113.939 6.68371 114.15 6.37212 114.895 6.02424C115.094 5.93104 115.508 5.81481 115.814 5.76602L116.37 5.67719V5.42974V5.18228L113.688 5.20201L111.005 5.22181V5.44765C111.005 5.66883 111.015 5.67455 111.471 5.72507C112.583 5.84808 113.031 6.34562 112.756 7.1491C112.678 7.37518 109.571 13.2512 109.246 13.7875L109.119 13.9968L107.142 10.588C105.36 7.51724 105.161 7.13947 105.13 6.77932C105.099 6.42045 105.117 6.35706 105.306 6.15997C105.553 5.90078 105.887 5.77731 106.503 5.71731C106.946 5.67425 106.954 5.66936 106.977 5.42883L107.001 5.18417H103.319H99.6378V5.44765ZM178.581 5.80284C179.266 6.05593 179.703 6.32642 180.171 6.78692C181.179 7.77861 181.821 9.18225 182.191 11.2052C182.326 11.9393 182.35 12.3615 182.35 13.9545C182.35 16.0598 182.239 16.9338 181.803 18.2714C181.408 19.4814 180.956 20.2632 180.226 20.9966C179.48 21.7451 178.939 22.0435 177.969 22.2408C175.648 22.7125 173.577 21.4187 172.578 18.8725C172.024 17.4618 171.803 16.0477 171.803 13.9169C171.803 12.2403 171.907 11.3098 172.232 10.0914C172.877 7.67457 174.192 6.13453 176.006 5.67222C176.665 5.50434 177.95 5.56946 178.581 5.80284ZM71.4185 12.3232C72.1239 14.2414 72.701 15.8252 72.701 15.8426C72.701 15.86 71.5192 15.8742 70.0749 15.8742C68.6305 15.8742 67.4486 15.8488 67.4484 15.8178C67.4473 15.6332 70.0431 8.66822 70.0849 8.74343C70.113 8.79402 70.7131 10.4048 71.4185 12.3232ZM129.515 15.5784C131.055 17.6102 132.315 19.3055 132.315 19.3459C132.315 19.5164 131.135 20.3528 130.364 20.7296C129.054 21.3694 128.057 21.513 126.931 21.2241C125.867 20.9509 125.092 20.4232 124.518 19.5801C123.126 17.5361 123.467 14.293 125.236 12.7622C125.637 12.415 126.474 11.8843 126.621 11.8843C126.673 11.8843 127.975 13.5467 129.515 15.5784ZM188.339 19.3826C187.524 19.7905 187.155 20.7317 187.438 21.6816C187.55 22.0568 187.963 22.5385 188.334 22.7289C189.201 23.1725 190.291 22.8416 190.74 21.9983C190.997 21.5163 191.055 21.1474 190.951 20.6482C190.708 19.4735 189.413 18.8458 188.339 19.3826Z" fill="#292929"/>
</svg>
