<svg width="145" height="22" viewBox="0 0 145 22" fill="none" xmlns="http://www.w3.org/2000/svg">
<path opacity="0.3" fill-rule="evenodd" clip-rule="evenodd" d="M43.2168 0.0578011C40.9642 0.269567 38.6643 1.39187 37.1754 3.0062C35.1591 5.19223 34.176 7.87384 34.1796 11.1782C34.1825 13.995 34.8938 16.2316 36.4455 18.3034C37.6971 19.9746 39.8998 21.3158 42.1642 21.7852C43.2284 22.0059 45.1707 22.0143 46.3439 21.8035C47.4269 21.6087 49.0739 20.9501 49.9585 20.358C50.535 19.9721 50.6367 19.8529 50.6367 19.5635V19.2231L49.9587 19.568C47.597 20.7695 45.0052 20.9304 42.4442 20.0346C40.9802 19.5226 39.2976 18.159 38.3601 16.725C37.8228 15.9031 37.164 14.3919 36.937 13.4614C36.5618 11.9214 36.5837 8.83438 36.9823 7.10486C37.4367 5.13299 38.4818 3.38658 39.8167 2.36816C40.7355 1.66711 41.3333 1.38354 42.5371 1.07759C43.4055 0.856919 43.7414 0.828038 44.8027 0.882834C46.8195 0.987176 48.2944 1.5727 49.8151 2.87275C50.2075 3.20815 50.5725 3.4553 50.6263 3.42185C50.68 3.38841 50.7075 3.19342 50.6876 2.98862C50.6675 2.78381 50.6479 2.37284 50.644 2.07523L50.6367 1.53423L49.7588 1.09072C48.7123 0.562159 47.3129 0.196277 45.9922 0.106091C45.4626 0.0699029 44.8254 0.0250403 44.5762 0.00643233C44.327 -0.0121757 43.7152 0.0109958 43.2168 0.0578011ZM60.4356 0.0538059C58.2297 0.264772 56.3174 1.13387 54.6912 2.66441C52.2011 5.00776 50.9503 8.8539 51.421 12.7193C51.6521 14.617 52.1824 16.1642 53.1014 17.6209C54.2996 19.52 56.6409 21.1546 59.0195 21.7525C59.9715 21.9918 63.1727 21.9552 64.1172 21.6941C65.1644 21.4047 66.3256 20.8823 67.1475 20.331C67.7309 19.9397 67.8555 19.8008 67.8555 19.5413C67.8555 19.3681 67.8292 19.2264 67.7971 19.2264C67.7651 19.2264 67.4719 19.3761 67.1458 19.5589C66.8196 19.7417 66.1194 20.0355 65.5898 20.2115C64.7018 20.5068 64.4904 20.5317 62.8711 20.5317C61.2509 20.5317 61.0408 20.507 60.1523 20.2112C56.7709 19.0854 54.7622 16.6509 53.9719 12.7207C53.6834 11.2856 53.7933 8.36747 54.1898 6.93374C55.2603 3.06362 57.633 1.03798 61.2888 0.873244C62.2712 0.82895 62.6611 0.864568 63.4978 1.07519C64.9726 1.44632 66.3586 2.21313 67.4873 3.28258L67.8555 3.63133V2.64637C67.8555 1.70159 67.8428 1.65238 67.5439 1.44027C66.1194 0.428822 62.9592 -0.187527 60.4356 0.0538059ZM118.113 0.292286C118.017 0.440237 117.788 0.972334 117.603 1.47464C117.418 1.97694 116.822 3.4924 116.279 4.84234C115.736 6.19227 115.101 7.7848 114.869 8.38128C114.513 9.29364 112.982 13.1559 111 18.1419C110.75 18.7698 110.376 19.6945 110.169 20.1968C109.535 21.7314 109.517 21.6238 110.414 21.6238H111.188L111.457 20.8532C111.605 20.4294 111.968 19.4148 112.262 18.5985C112.557 17.7823 113.098 16.2789 113.463 15.2578L114.128 13.4011L117.633 13.4312L121.138 13.4614L121.36 14.0322C121.482 14.3461 121.751 15.0139 121.957 15.5162C122.163 16.0185 122.612 17.1487 122.954 18.0278C123.295 18.9068 123.755 20.0626 123.974 20.5963L124.373 21.5667L125.681 21.5989C126.4 21.6166 126.988 21.6162 126.988 21.5981C126.988 21.5581 126.556 20.4685 125.143 16.9432C123.477 12.7874 121.137 6.93454 119.735 3.41535C119.034 1.65729 118.422 0.174818 118.374 0.121048C118.326 0.0672793 118.209 0.144335 118.113 0.292286ZM0 10.947V21.6446L3.25684 21.5971C6.40832 21.5511 6.54664 21.5394 7.5332 21.2386C9.29156 20.7024 10.5357 19.9078 11.3447 18.8043C12.1055 17.7666 12.2784 17.2032 12.2852 15.7425C12.2908 14.5409 12.2741 14.4501 11.9114 13.7073C11.239 12.3301 9.89387 11.2759 7.97795 10.6246L7.2466 10.376L7.89967 9.88978C8.85961 9.17514 8.96995 9.06955 9.47654 8.38128C10.0721 7.57201 10.3131 6.84686 10.3894 5.63517C10.5181 3.58932 9.72372 2.22797 7.80802 1.21127C6.5344 0.535217 5.60029 0.371971 2.63379 0.307014L0 0.249478V10.947ZM14.3867 7.28421C14.3867 14.8403 14.4071 15.1576 15.0067 16.9341C15.6481 18.8344 16.8621 20.2726 18.4807 21.0492C19.0016 21.2992 19.7336 21.5832 20.1074 21.6805C21.1426 21.9498 23.0962 22.0748 24.3748 21.9536C27.4185 21.665 29.907 19.7689 31.131 16.806C31.9779 14.7558 32.0542 13.8946 32.0567 6.35495L32.0586 0.275962H31.0442H30.0298L29.9928 8.06734C29.9573 15.5168 29.9456 15.8939 29.7241 16.6605C29.3978 17.7902 28.7226 19.0252 28.1306 19.5751C25.8732 21.6719 21.1579 21.4789 18.938 19.1986C18.2586 18.5005 17.6655 17.5139 17.3206 16.5076C16.8331 15.0855 16.7656 13.9188 16.7656 6.91114V0.275962H15.5762H14.3867V7.28421ZM70.4609 10.9499V21.6262L75.3521 21.5965L80.2431 21.5667L80.283 21.0332C80.305 20.7397 80.2832 20.4752 80.2346 20.4452C80.1861 20.4153 78.974 20.5082 77.541 20.6517C76.108 20.7953 74.4896 20.9489 73.9443 20.993L72.9531 21.0735V16.1397V11.2058L73.8311 11.2747C74.314 11.3126 75.5118 11.3774 76.4932 11.4188L78.2773 11.4942V10.9483V10.4025L76.4365 10.4791C75.4241 10.5213 74.2261 10.5873 73.7744 10.6259L72.9531 10.696V5.77137C72.9531 3.05186 72.9973 0.846759 73.0518 0.846759C73.1061 0.846759 73.8834 0.924159 74.7793 1.01891C76.6993 1.22177 80.1347 1.51676 80.1737 1.48217C80.1886 1.46881 80.2141 1.20488 80.2303 0.895506L80.2598 0.333042L75.3604 0.303248L70.4609 0.273565V10.9499ZM82.9785 10.9499V21.6238H88.3877H93.7969V20.9889V20.354L93.3154 20.4195C92.8995 20.476 89.5115 20.7599 86.292 21.008L85.3008 21.0844V10.6802V0.275962H84.1396H82.9785V10.9499ZM96.5156 10.9499V21.6238H101.953H107.391V20.992V20.3601L106.853 20.424C106.315 20.4877 101.922 20.8565 99.9424 21.0042L98.8945 21.0824V10.6792V0.275962H97.7051H96.5156V10.9499ZM122.91 0.902125V1.52817L123.562 1.46961C123.92 1.43742 125.258 1.33467 126.535 1.24118C127.812 1.14779 129.176 1.03935 129.565 1.0003L130.273 0.929411V11.2766V21.6238H131.463H132.652V11.2761V0.928383L133.347 1.00156C133.729 1.04174 135.118 1.15099 136.434 1.24426C137.75 1.33753 139.068 1.43799 139.364 1.46744L139.902 1.52099V0.898473V0.275962H131.406H122.91V0.902125ZM142.621 10.8357C142.621 16.6436 142.621 21.4339 142.621 21.4811C142.62 21.5282 143.156 21.5813 143.81 21.5991L145 21.6315V10.9537V0.275962H143.811H142.621V10.8357ZM4.04788 1.23684C5.82877 1.7146 7.59585 3.39674 8.09451 5.08881C8.31337 5.83153 8.32017 7.14802 8.10879 7.8558C7.93581 8.43516 7.13536 9.84469 6.81987 10.1255C6.6572 10.2704 6.29345 10.2877 4.50293 10.2364L2.37891 10.1754V5.62524V1.07508L2.91699 1.07645C3.213 1.07713 3.72186 1.14939 4.04788 1.23684ZM117.725 4.8138C117.908 5.36028 119.541 9.48452 120.245 11.1782C120.879 12.7042 121.181 12.5434 117.614 12.5785C114.914 12.6051 114.527 12.5871 114.527 12.4352C114.527 12.3398 114.728 11.7096 114.973 11.0349C115.218 10.3602 115.757 8.85789 116.169 7.69632C116.582 6.53475 117.026 5.28904 117.155 4.92796C117.284 4.56687 117.424 4.27154 117.466 4.27154C117.508 4.27154 117.625 4.5155 117.725 4.8138ZM7.08008 11.5194C8.08975 12.0263 9.05876 13.0503 9.45796 14.0322C9.72995 14.7015 9.79045 15.0353 9.82998 16.087C9.88186 17.4663 9.73868 18.2513 9.23106 19.3686C8.98139 19.9181 8.87298 20.0304 8.39052 20.2396C7.25986 20.7298 6.62095 20.8247 4.45082 20.8247H2.37891V15.9919C2.37891 13.3339 2.39998 11.1378 2.42569 11.1116C2.45141 11.0855 3.3563 11.0897 4.43643 11.1211C6.33559 11.1762 6.42282 11.1895 7.08008 11.5194Z" fill="#292929"/>
</svg>
