<svg width="102" height="50" viewBox="0 0 102 50" fill="none" xmlns="http://www.w3.org/2000/svg">
<path opacity="0.3" d="M8.7087 18C4.4847 18 1 21.1179 1 25.5C1 29.8818 4.4847 33 8.7087 33C11.6021 33 14.1576 31.4928 15.4671 29.169L12.8482 27.7219C12.0879 29.2299 10.5461 30.1469 8.7087 30.1469C6.06871 30.1469 4.0625 28.2514 4.0625 25.5C4.0625 22.7486 6.06871 20.8531 8.7087 20.8531C10.5461 20.8531 12.0879 21.7704 12.8482 23.2786L15.4671 21.8316C14.1576 19.5083 11.6021 18 8.7087 18ZM19.1624 18.3667V32.6327H22.1194V26.5189H29.5112V32.6333H32.4676V18.3667H29.5112V23.6658H22.1194V18.3667H19.1624V18.3667ZM41.9715 18.3667L35.4241 32.6333H38.6557L40.1127 29.3725H47.8421L49.2997 32.6333H52.5307L45.9844 18.3667H41.9715V18.3667ZM55.4877 18.3667V32.6333H58.2327V21.4035L66.1529 32.6333H68.793V18.3667H66.0474V27.8237L59.3951 18.3667H55.4877V18.3667ZM74.4944 18.3667V32.6333L85.4771 32.6338V29.9843H77.24V26.7235H83.9983V24.0735H77.24V21.0163H85.0541V18.3667H74.4944V18.3667ZM90.2288 18.3667V32.6333V32.6338H101V29.7807H93.1858V18.3667H90.2288V18.3667ZM43.9777 20.7104L46.6602 26.723H41.2952L43.9777 20.7104V20.7104Z" fill="#292929"/>
</svg>
