<svg width="112" height="17" viewBox="0 0 112 17" fill="none" xmlns="http://www.w3.org/2000/svg">
<path opacity="0.3" d="M9.3135 0C4.62486 0 0.756836 3.53365 0.756836 8.5C0.756836 13.466 4.62486 17 9.3135 17C12.5252 17 15.3618 15.2918 16.8153 12.6581L13.9084 11.0182C13.0644 12.7272 11.353 13.7665 9.3135 13.7665C6.3831 13.7665 4.15621 11.6183 4.15621 8.5C4.15621 5.3817 6.3831 3.2335 9.3135 3.2335C11.353 3.2335 13.0644 4.27311 13.9084 5.98241L16.8153 4.34246C15.3618 1.70945 12.5252 0 9.3135 0ZM20.9171 0.415631V16.5838H24.1994V9.65473H32.4042V16.5844H35.6859V0.415631H32.4042V6.42123H24.1994V0.415631H20.9171ZM46.2352 0.415631L38.9676 16.5844H42.5547L44.172 12.8888H52.7515L54.3695 16.5844H57.9559L50.6895 0.415631H46.2352ZM61.2382 0.415631V16.5844H64.2851V3.85726L73.0766 16.5844H76.007V0.415631H72.9595V11.1336L65.5754 0.415631H61.2382ZM82.3356 0.415631V16.5844L94.5264 16.585V13.5822H85.3832V9.88667H92.885V6.88326H85.3832V3.41845H94.0569V0.415646L82.3356 0.415631ZM99.8008 0.415631V16.5844L111.757 16.585V13.3515H103.083V0.415646L99.8008 0.415631ZM48.4621 3.07177L51.4396 9.88605H45.4845L48.4621 3.07177Z" fill="#292929"/>
</svg>
