<svg width="24" height="24" viewBox="0 0 24 24" fill="none" xmlns="http://www.w3.org/2000/svg">
<path fill-rule="evenodd" clip-rule="evenodd" d="M12.0511 22L24 10.5L19.0979 4H4.69787L0 10.5L12.0511 22ZM2.95868 11.25L7.59086 15.6704L5.07849 11.25H2.95868ZM6.80384 11.25L11.3611 19.2682L12.0466 19.9224L12.6252 19.3656L17.0216 11.25H6.80384ZM18.7275 11.25L16.1894 15.9353L21.0576 11.25H18.7275ZM21.5556 9.75H19.131L19.4774 6.99438L21.5556 9.75ZM18.1534 5.5H14.422L17.73 8.86863L18.1534 5.5ZM16.4932 9.75L12.3197 5.5H11.476L7.30255 9.75H16.4932ZM6.06574 8.86863L9.37372 5.5H5.64232L6.06574 8.86863ZM4.32814 7.07228L2.39283 9.75H4.66472L4.32814 7.07228Z" fill="#292929"/>
</svg>
