<svg width="24" height="24" viewBox="0 0 24 24" fill="none" xmlns="http://www.w3.org/2000/svg">
<path fill-rule="evenodd" clip-rule="evenodd" d="M12 21.5C16.1421 21.5 19.5 18.1421 19.5 14C19.5 9.85786 16.1421 6.5 12 6.5C7.85786 6.5 4.5 9.85786 4.5 14C4.5 18.1421 7.85786 21.5 12 21.5ZM12 23C16.9706 23 21 18.9706 21 14C21 9.02944 16.9706 5 12 5C7.02944 5 3 9.02944 3 14C3 18.9706 7.02944 23 12 23Z" fill="#292929"/>
<path fill-rule="evenodd" clip-rule="evenodd" d="M12.0001 9L17.1963 0.750001L6.80398 0.75L12.0001 9ZM12.0001 6.18542L14.4788 2.25L9.52147 2.25L12.0001 6.18542Z" fill="#292929"/>
</svg>
