<svg width="56" height="56" viewBox="0 0 56 56" fill="none" xmlns="http://www.w3.org/2000/svg">
<g opacity="0.8">
<path fill-rule="evenodd" clip-rule="evenodd" d="M21.7659 38.8648C19.502 35.5106 18.3528 31.4063 18.636 27.367C18.8655 24.0927 19.9508 20.9205 21.7972 18.2144C21.8224 18.1774 21.8478 18.1405 21.8733 18.1036C22.1804 17.6607 22.508 17.2305 22.8558 16.8146C22.9795 16.6667 23.0767 16.5415 23.0718 16.5366C23.055 16.5198 22.6157 16.3907 22.2799 16.3038C22.2609 16.2988 22.2418 16.294 22.2228 16.2891C21.8645 16.198 21.5076 16.1231 21.1526 16.0638C21.0848 16.0525 21.017 16.0417 20.9493 16.0315C15.8344 15.2618 11.1332 17.7391 8.10986 22.0029C7.62972 21.7584 7.14707 21.5181 6.66433 21.2778C5.98141 20.9379 5.29831 20.5979 4.62194 20.2456C4.03734 19.9411 3.45776 19.6275 2.88766 19.2968C3.2255 18.7281 3.58775 18.1776 3.97461 17.6474C5.26486 15.8791 6.82885 14.3372 8.67379 13.1031C11.4913 11.2184 14.7375 10.1478 18.1042 9.99319C21.4756 9.83835 24.8956 10.6181 27.8394 12.2689C27.9443 12.3277 28.0364 12.3758 28.0441 12.3758C28.0517 12.3758 28.179 12.308 28.327 12.2251C30.749 10.8686 33.5124 10.1289 36.2808 9.99209C42.5835 9.68079 48.4129 12.7247 52.0946 17.6462C52.4894 18.174 52.8595 18.7234 53.2028 19.2926L47.9768 22.0027C44.9492 17.7326 40.2933 15.2521 35.1375 16.0303C35.0674 16.0409 34.9972 16.052 34.9269 16.0638C34.5848 16.1212 34.2406 16.193 33.8946 16.2795C33.8866 16.2815 33.8786 16.2835 33.8704 16.2856C33.5019 16.3787 33.0086 16.525 33.0086 16.5416C33.0086 16.5458 33.1094 16.6694 33.2326 16.8164C33.579 17.2296 33.9067 17.6588 34.2147 18.102C34.2402 18.1387 34.2655 18.1754 34.2907 18.2122C36.5781 21.5553 37.757 25.6761 37.4512 29.7165C37.2067 32.9456 36.1586 36.1693 34.3342 38.8684C34.3101 38.904 34.2859 38.9396 34.2615 38.975C34.1103 39.195 33.9539 39.4115 33.7923 39.6242C33.5818 39.9011 33.3624 40.1717 33.1343 40.4349C33.1308 40.439 33.1273 40.443 33.124 40.4469C33.0526 40.5301 33.0496 40.5447 33.092 40.557C33.1059 40.561 33.2254 40.5969 33.3752 40.6421C33.4068 40.6517 33.4399 40.6617 33.4736 40.6718C33.9731 40.8227 34.4757 40.9396 34.9791 41.0239C35.0465 41.0352 35.1139 41.0459 35.1813 41.056C40.2535 41.8173 45.3689 39.2885 48.0918 34.8563C49.3243 35.4271 50.5299 36.0702 51.7328 36.7118C52.2684 36.9975 52.8035 37.2829 53.3402 37.5616C53.319 37.6025 53.2977 37.6433 53.2762 37.6839C52.9875 38.2303 52.6703 38.7549 52.3272 39.2572C47.1365 46.8557 36.0175 49.3378 28.0429 44.6381C19.7171 49.4374 9.311 46.6873 3.83421 39.2184C3.4464 38.6895 3.08331 38.137 2.74742 37.5618C3.10625 37.374 3.46478 37.1853 3.82336 36.9966C4.04822 36.8783 4.27311 36.7599 4.4981 36.6418C5.65696 36.0332 6.81862 35.4294 7.99489 34.8562C10.7331 39.3138 15.8081 41.8308 20.9151 41.0544C20.9796 41.0446 21.044 41.0343 21.1085 41.0235C21.3046 40.9905 21.5008 40.9526 21.6968 40.9097C22.0203 40.839 22.3436 40.7547 22.6659 40.6566C22.702 40.6456 22.7373 40.6349 22.7706 40.6248C22.8887 40.5889 22.9817 40.5608 22.9948 40.557C23.0383 40.5444 23.0335 40.5262 22.9671 40.4514C22.9671 40.4514 22.9644 40.4485 22.9629 40.4467C22.9251 40.4033 22.805 40.2573 22.689 40.1139C22.5835 39.9832 22.4798 39.8511 22.3779 39.7175C22.1908 39.4722 22.01 39.222 21.8356 38.9674C21.8123 38.9333 21.7891 38.8991 21.7659 38.8648ZM19.6378 39.2066C17.4579 35.6461 16.37 31.4163 16.6635 27.2297C16.8953 23.9221 17.9185 20.7022 19.6603 17.8794C15.7776 17.6714 12.1876 19.6665 9.72479 23.1397L8.73593 24.5343L7.20998 23.7572C6.76484 23.5305 6.30375 23.301 5.83351 23.067C4.54206 22.4241 3.18159 21.747 1.89294 20.9996L0.171484 20.0012L1.18604 18.2933C2.78469 15.6021 4.90412 13.2517 7.57163 11.4673C10.6871 9.38325 14.2827 8.19642 18.0131 8.02508C21.4549 7.867 24.9474 8.58756 28.0411 10.1437C30.5781 8.85873 33.3877 8.16243 36.1828 8.02431C43.9568 7.64034 51.013 11.8382 54.8976 18.2776L55.9808 20.0731L47.3581 24.5446L46.3618 23.1395C43.8925 19.6568 40.3369 17.6602 36.4285 17.8766C38.6269 21.4274 39.7404 25.6711 39.423 29.8647C39.1776 33.1047 38.1935 36.3667 36.4645 39.2054C40.3793 39.4027 44.2485 37.3386 46.4053 33.8277L47.326 32.3291L48.9252 33.0697C50.21 33.6647 51.4988 34.352 52.7246 35.0057C53.2475 35.2846 53.759 35.5574 54.2539 35.8143L56 36.7208L55.0976 38.4645C50.1264 48.0708 37.4386 51.6711 28.0355 46.882C18.2794 51.8 6.43692 47.7973 1.03834 38.5527L0 36.7746L1.82767 35.8177C2.17824 35.6342 2.53123 35.4484 2.88636 35.2615C4.27245 34.5321 5.69118 33.7856 7.12622 33.0863L8.74228 32.2989L9.6814 33.8277C11.854 37.3645 15.6953 39.4225 19.6378 39.2066Z" fill="#292929"/>
<path fill-rule="evenodd" clip-rule="evenodd" d="M31.3399 31.0045C32.0858 27.2796 31.1005 23.4161 28.6418 20.4237C28.4121 20.1443 28.0648 19.7575 28.0434 19.7575C28.0344 19.7575 27.9366 19.8581 27.8261 19.981C25.5892 22.4695 24.3325 25.8269 24.5172 29.1729C24.6642 31.8379 25.5951 34.2819 27.2405 36.3228C27.5024 36.6477 28.0147 37.2208 28.0431 37.2208C28.0497 37.2208 28.1336 37.136 28.2297 37.0323C29.7939 35.3446 30.8877 33.2627 31.3399 31.0045ZM26 28.5C26 25 27.3333 23 28 22C28.6667 23.1667 30 25.5 30 28.5C30 31.5 29.0434 33.5 28.0434 35C28.0434 35 26 32 26 28.5Z" fill="#292929"/>
<path d="M9.28284 8.29927C9.88341 6.34285 10.2874 3.67002 10.5 2C10.7107 3.65478 11.1667 6.4378 11.7149 8.2808C14.1764 9.02158 16.3035 9.28402 18 9.5C16.3156 9.71445 13.9087 9.9747 11.7087 10.7035C11.1633 12.4405 10.7099 15.3514 10.5 17C10.2916 15.363 9.89931 12.4813 9.31824 10.7402C7.11094 10.1269 4.69131 9.71532 3 9.5C4.68227 9.28583 7.08511 9.02597 9.28284 8.29927Z" fill="#B4924F"/>
</g>
</svg>
