<svg width="56" height="56" viewBox="0 0 56 56" fill="none" xmlns="http://www.w3.org/2000/svg">
<g opacity="0.8">
<path fill-rule="evenodd" clip-rule="evenodd" d="M6 7H8V48H49V50H6V7Z" fill="#292929"/>
<path fill-rule="evenodd" clip-rule="evenodd" d="M42.001 18.5L49.0009 13.5V22L46.2782 20.9173L41.2367 30.7235L36.108 25.2006L30.141 38.076L24.3261 28.9779L17.8561 35.0011L13.6532 29.222L7.37884 31.783L6.62305 29.9313L14.3487 26.778L18.1458 31.9989L24.7193 25.8793L29.8609 33.924L35.5461 21.6565L40.7651 27.2765L44.501 20L42.001 18.5Z" fill="#292929"/>
<path d="M44.6074 38.6195C45.0478 37.1848 45.3441 35.2247 45.5 34C45.6545 35.2135 45.9889 37.2544 46.3909 38.6059C48.196 39.1492 49.7559 39.3416 51 39.5C49.7648 39.6573 47.9997 39.8481 46.3864 40.3826C45.9864 41.6564 45.6539 43.7911 45.5 45C45.3472 43.7995 45.0595 41.6863 44.6334 40.4095C43.0147 39.9597 41.2403 39.6579 40 39.5C41.2337 39.3429 42.9957 39.1524 44.6074 38.6195Z" fill="#B4924F"/>
</g>
</svg>
