<svg width="56" height="56" viewBox="0 0 56 56" fill="none" xmlns="http://www.w3.org/2000/svg">
<g opacity="0.8">
<path d="M43.8249 38.2321C44.1199 37.882 44.3918 37.7092 44.5824 37.7264C44.752 37.7416 44.8573 37.9072 44.8573 38.2321C44.8573 38.4479 44.7569 38.8047 44.6065 39.1995C44.5502 39.3473 44.4868 39.5006 44.419 39.654C44.3618 39.6123 44.2991 39.5719 44.2307 39.534C44.1362 39.4816 44.0376 39.4381 43.9363 39.4035C43.9093 39.4606 43.8817 39.5182 43.8535 39.5761C43.9179 39.6044 43.985 39.6294 44.0546 39.6505C44.1725 39.6861 44.2853 39.707 44.3908 39.7172C44.0294 40.5204 43.5564 41.3058 43.3488 41.3058C43.226 41.3058 43.1439 41.1907 43.0983 41.0043C43.0035 40.616 43.0671 39.9185 43.2515 39.3083C43.2643 39.2659 43.2778 39.2238 43.2917 39.1824C43.3788 38.9242 43.488 38.6876 43.6162 38.5048C43.6865 38.4044 43.7563 38.3135 43.8249 38.2321Z" fill="#292929"/>
<path d="M41.6864 32.6012C41.7843 32.7235 41.9559 32.932 42.1854 33.1295L39.3856 28.5105C39.599 29.0278 39.8894 29.6269 40.1925 30.199C40.5035 30.786 40.8508 31.3877 41.1773 31.8876C41.3394 32.1358 41.5125 32.3838 41.6864 32.6012Z" fill="#292929"/>
<path fill-rule="evenodd" clip-rule="evenodd" d="M19.49 13.2552L19.4434 13.2541L19.5482 13.1756C19.6313 13.113 19.8285 13.0444 20.1255 13.1965C20.1675 13.218 20.2052 13.2408 20.239 13.2644C20.0276 13.2653 19.7804 13.2623 19.49 13.2552Z" fill="#292929"/>
<path fill-rule="evenodd" clip-rule="evenodd" d="M19.49 13.2552L19.4434 13.2541L19.5482 13.1756C19.6313 13.113 19.8285 13.0444 20.1255 13.1965C20.1675 13.218 20.2052 13.2408 20.239 13.2644C20.0276 13.2653 19.7804 13.2623 19.49 13.2552Z" fill="#292929"/>
<path fill-rule="evenodd" clip-rule="evenodd" d="M19.49 13.2552L19.4434 13.2541L19.5482 13.1756C19.6313 13.113 19.8285 13.0444 20.1255 13.1965C20.1675 13.218 20.2052 13.2408 20.239 13.2644C20.0276 13.2653 19.7804 13.2623 19.49 13.2552Z" fill="#292929"/>
<path fill-rule="evenodd" clip-rule="evenodd" d="M19.49 13.2552L19.4434 13.2541L19.5482 13.1756C19.6313 13.113 19.8285 13.0444 20.1255 13.1965C20.1675 13.218 20.2052 13.2408 20.239 13.2644C20.0276 13.2653 19.7804 13.2623 19.49 13.2552Z" fill="#292929"/>
<path fill-rule="evenodd" clip-rule="evenodd" d="M20.1037 42.2261C20.5332 43.6487 20.9245 45.3126 21.1829 46.7935C21.3807 47.9265 21.5008 48.9524 21.5008 49.6813L23.0008 50.1376C23.0008 50.1376 23.0001 49.9701 23.0064 49.6813C23.0144 49.3114 23.0338 48.7425 23.0803 48.0713C23.109 47.6566 23.1481 47.2028 23.2013 46.7329C23.3565 45.3609 23.6319 43.8506 24.1203 42.7696L22.2977 41.9461C22.2584 42.0332 22.2203 42.1219 22.1834 42.2121C22.1289 42.0201 22.0737 41.8314 22.0183 41.6477C21.6846 40.5433 21.0601 39.7072 20.4434 39.0606C19.9822 38.5769 19.4393 38.118 19.0025 37.7489C18.8903 37.654 18.7851 37.5651 18.6901 37.4832C17.6209 36.5615 17.2995 36.0822 17.2995 35.4044V34.3891C17.9307 34.534 18.5732 34.8166 19.2118 35.2563C20.6574 36.2519 22.1947 37.073 23.6676 37.8231L23.6373 38.0439C23.5539 38.652 22.9758 40.4455 22.2977 41.9461L24.1203 42.7696C24.8211 41.2187 25.4955 39.2143 25.6188 38.3157L25.843 36.6812L25.5219 36.5194C23.753 35.628 21.9811 34.7352 20.346 33.609C19.5964 33.093 18.8104 32.7225 18.0046 32.5042C17.8914 32.4735 17.7778 32.4459 17.6638 32.4212C17.477 32.3808 17.2892 32.3485 17.1007 32.3244C17.0505 32.318 17.0003 32.3122 16.9501 32.307C16.8934 32.301 16.8376 32.2945 16.7827 32.2874C16.5014 32.2509 16.2447 32.1994 16.0184 32.1384L16.0072 32.1354C15.9545 32.1211 15.9035 32.1063 15.8543 32.091C15.5457 31.9954 15.3052 31.8828 15.1507 31.7708C14.9459 31.6222 14.8923 31.4744 15.0326 31.3698C15.1497 31.2826 15.4014 31.2249 15.8115 31.2212L15.8543 31.221C16.6458 31.221 16.7514 31.1267 16.4141 30.7208C16.3046 30.5891 16.1081 30.457 15.8543 30.3317C15.5938 30.2031 15.273 30.0817 14.9242 29.9752C14.7234 29.9139 14.5133 29.8575 14.3001 29.8075C14.1672 29.7763 14.033 29.7476 13.8991 29.7218C13.5363 29.6518 13.1756 29.6027 12.8466 29.5816L12.8055 29.5791L12.75 29.5762C12.4058 29.5597 12.1011 29.5759 11.8719 29.6334C11.7578 29.662 11.6571 29.6836 11.5684 29.6976C11.16 29.7621 11.0077 29.6655 10.9792 29.3462C10.9756 29.3067 10.974 29.2638 10.974 29.2174C10.974 28.8715 11.1857 28.43 11.4754 28.0538L11.4762 28.0527C11.5543 27.9515 11.6379 27.855 11.7246 27.7663C11.7818 27.7079 11.8402 27.6529 11.8993 27.6023C12.1416 27.3943 12.3935 27.2592 12.6033 27.2592C12.6526 27.2592 12.7194 27.2743 12.799 27.302C12.9685 27.3611 13.1965 27.4775 13.4407 27.628C13.4934 27.6604 13.5469 27.6945 13.6007 27.7299C13.7504 27.8284 13.9027 27.9375 14.0483 28.0519L15.0569 28.8446L14.8432 27.5282C14.8189 27.3786 14.8009 27.2394 14.7898 27.1085C14.7594 26.7478 14.7809 26.4496 14.8648 26.1703C14.9545 25.8715 15.1156 25.5937 15.3604 25.2825C16.2327 24.1743 19.2498 22.5769 20.47 22.5769C22.3607 22.5769 22.6248 20.301 21.089 17.787C21.0297 17.6899 20.9676 17.5923 20.9029 17.4946C20.847 17.4102 20.7926 17.3304 20.7397 17.2552C20.2156 16.5109 19.8275 16.2188 19.4137 16.4054C19.2241 16.491 19.0291 16.677 18.8131 16.9661C18.7867 17.0014 18.7601 17.0383 18.733 17.0767C18.6977 17.1268 18.6615 17.18 18.625 17.2354C18.5595 17.3349 18.4918 17.4429 18.4217 17.5595C18.3503 17.6783 18.2763 17.806 18.1994 17.9426C17.2156 19.6921 16.6867 19.3853 16.7984 17.1547L16.8005 17.1145C16.8033 17.0623 16.8064 17.009 16.8098 16.9547L16.9216 15.1934L19.4416 15.2546C20.4366 15.2788 21.1155 15.2632 21.5757 15.159C21.8791 15.0903 22.0874 14.983 22.2284 14.8232C22.3732 14.6591 22.4472 14.4396 22.4804 14.1495C22.4954 14.0184 22.5021 13.8728 22.5033 13.7113L22.5034 13.7042C22.5071 12.8237 22.038 12.081 21.3729 11.6179C21.0911 11.4217 20.7742 11.2757 20.4432 11.1907C20.4297 11.1872 20.4161 11.1839 20.4025 11.1806C20.0923 11.1059 19.7706 11.0847 19.4545 11.1259C19.3572 11.1386 19.2603 11.1573 19.1645 11.1821C18.8765 11.2566 18.5978 11.387 18.3422 11.5802C17.1861 12.4541 17.0645 12.226 17.9524 11.0646C18.0987 10.8733 18.2724 10.6566 18.4733 10.4155L18.5282 10.3498C19.0295 9.75145 19.4052 9.35141 19.7089 9.10597C20.4297 8.52357 20.7456 8.81159 21.3749 9.38531L21.38 9.38996C21.419 9.42551 21.4592 9.46216 21.5008 9.49975C21.6542 9.63849 21.8378 9.68843 22.0343 9.68109C22.5055 9.66348 23.0506 9.31643 23.4303 9.07474L23.4312 9.07416C23.4773 9.04483 23.5209 9.01706 23.5616 8.99163C24.1308 8.6365 24.2717 8.76076 24.6704 9.96806C25.0967 11.2589 25.1061 11.7095 24.4971 13.9917C24.4424 14.1968 24.3827 14.4166 24.3179 14.6532C24.2571 14.8748 24.21 15.0909 24.1752 15.2998C24.1622 15.3779 24.1509 15.455 24.1413 15.531C24.1117 15.7642 24.0978 15.9871 24.0976 16.197C24.0975 16.2454 24.0982 16.2931 24.0995 16.3401C24.1517 18.1306 25.2235 18.8773 25.9911 16.8455C26.0197 16.77 26.0581 16.6907 26.1058 16.6082C26.1125 16.5965 26.1194 16.5848 26.1265 16.5731C26.4892 15.9717 27.3281 15.2097 28.3922 14.5296C30.901 12.9261 31.5202 11.7776 31.5202 8.72835C31.5202 8.13993 31.303 7.21899 30.9315 6.16504L28.9199 6.48623C28.9449 6.55265 28.9693 6.61857 28.993 6.68392C29.3862 7.76752 29.5202 8.47795 29.5202 8.72835C29.5202 10.161 29.3638 10.8006 29.1366 11.2219C28.9135 11.6357 28.482 12.0986 27.3151 12.8444C27.1215 12.9682 26.9322 13.0956 26.7486 13.2259C27.1581 11.948 26.7998 10.1034 26.5695 9.34084C26.4679 9.03326 26.3583 8.71764 26.2366 8.44393C26.1344 8.21393 25.9193 7.76074 25.5018 7.39306C24.9337 6.89268 24.2121 6.72957 23.5356 6.86168C23.0454 6.95741 22.6598 7.19695 22.5028 7.29492C22.4551 7.32465 22.3961 7.36222 22.3446 7.39497L22.3437 7.39556L22.2781 7.43726L22.2211 7.47313C22.1443 7.4124 22.0657 7.3538 21.9881 7.30096C21.5708 7.01713 20.8828 6.68049 19.9953 6.81844C19.2282 6.93768 18.6525 7.3679 18.2773 7.69776C17.8752 8.05126 17.4516 8.52054 16.9953 9.06519C16.608 9.52732 16.284 9.94039 16.0422 10.2891C15.9223 10.4619 15.8026 10.6474 15.7018 10.8342C15.6273 10.9724 15.4557 11.3007 15.3935 11.7124C15.3622 11.9199 15.3225 12.3702 15.5413 12.8734C15.5859 12.976 15.6377 13.0726 15.6955 13.163L15.0474 13.1473L14.877 15.8328L14.8138 16.828C14.772 17.4854 14.7688 18.1041 14.8357 18.6313C14.869 18.8933 14.9282 19.2053 15.0471 19.5161C15.1556 19.7998 15.3921 20.2908 15.9083 20.6579C16.2606 20.9084 16.6466 21.0342 17.0247 21.0626C17.3105 21.0841 17.5917 21.05 17.8505 20.9721C18.3544 20.8205 18.7093 20.5284 18.9106 20.3373C19.2007 20.0618 19.4555 19.7193 19.6785 19.3671C19.9347 19.8909 20.0441 20.3132 20.0756 20.5987C19.5493 20.6545 19.0302 20.8092 18.6072 20.9602C18.031 21.1659 17.4235 21.4424 16.8489 21.7466C15.7879 22.3084 14.4976 23.1451 13.7887 24.0458C13.502 24.4101 13.2366 24.8195 13.0496 25.3027C12.9149 25.2771 12.7639 25.2592 12.6033 25.2592C12.1929 25.2592 11.8313 25.3595 11.5356 25.4865L9.93604 26.7756L9.93306 26.7641C9.76872 26.1278 9.34824 25.1649 8.95158 24.2567L8.87007 24.0699C8.40712 23.0084 7.88457 21.806 7.44021 20.5895L6.43164 23.4659C6.64747 23.9767 6.86 24.464 7.05633 24.9142C7.50787 25.9495 7.87368 26.7882 7.9966 27.2642V29.2174C8.16314 29.3594 8.36493 29.6052 8.60431 29.9702C8.72848 30.1596 8.99163 30.3986 9.35905 30.6652C9.79778 30.9835 10.3852 31.3411 11.0622 31.7004C11.4344 31.8979 11.8338 32.0959 12.2504 32.2882L15.2995 33.6958V35.4044C15.2995 37.2354 16.5262 38.2737 17.7598 39.3178C18.742 40.1492 19.7286 40.9843 20.1037 42.2261ZM19.49 13.2552L19.4434 13.2541L19.5482 13.1756C19.6313 13.113 19.8285 13.0444 20.1255 13.1965C20.1675 13.218 20.2052 13.2408 20.239 13.2644C20.0276 13.2653 19.7804 13.2623 19.49 13.2552Z" fill="#292929"/>
<path fill-rule="evenodd" clip-rule="evenodd" d="M48.895 28.0821C49.2483 28.227 49.547 28.371 49.7462 28.5014C49.9593 28.4405 50.1745 28.2417 50.438 27.9983L50.7786 25.3027C50.2365 25.5686 49.8128 25.8876 49.4876 26.1647C49.4281 26.1412 49.3692 26.1184 49.3114 26.0964C48.7678 25.8895 48.1614 25.6923 47.5861 25.5294C47.0178 25.3685 46.4331 25.2276 45.9394 25.147C45.7012 25.1081 45.4179 25.072 45.1407 25.07C45.0054 25.0691 44.8013 25.0752 44.5729 25.121C44.4017 25.1554 43.899 25.2694 43.4609 25.7072L43.1616 25.5464L43.1616 25.5477L43.4601 25.708C43.329 25.8391 43.2232 25.9767 43.1388 26.1171C43.1199 26.0896 43.1012 26.0626 43.0826 26.0363C43.1243 25.8811 43.1519 25.7173 43.1616 25.5477L37.2123 22.352C36.773 22.1686 36.2807 21.9696 35.7651 21.8393C36.217 21.6522 36.6488 21.325 36.9807 20.7884C37.5607 19.8507 37.2438 18.9163 37.0898 18.5691C36.931 18.2112 36.7014 17.8949 36.4382 17.6331C36.4653 17.3556 36.5977 16.8416 36.9782 16.0328C37.3727 15.1942 37.7949 14.6724 38.1182 14.4066C38.2574 14.2921 38.3468 14.2474 38.3903 14.231C38.8941 14.3325 39.3432 14.4194 39.7213 14.4721C40.0911 14.5236 40.571 14.571 41.0601 14.4913C41.654 14.3945 42.1841 14.1259 42.6079 13.6806C42.9386 13.3331 43.1441 12.9309 43.248 12.7276L43.2519 12.7199C43.3775 12.4741 43.4839 12.2143 43.5675 11.9557L41.7537 10.5382C41.8406 10.7637 41.713 11.336 41.4708 11.8103C41.3239 12.0976 41.2079 12.2913 41.0372 12.4055C40.6999 12.6309 40.1489 12.5459 38.724 12.258C37.5017 12.0113 36.1287 13.1401 35.1685 15.1815C34.7152 16.145 34.4714 16.9439 34.437 17.5785C34.4273 17.7575 34.4343 17.9234 34.4579 18.0763C34.467 18.1355 34.4787 18.1927 34.4928 18.248C34.5692 18.5464 34.7185 18.7878 34.9406 18.972C35.2359 19.2169 35.3883 19.5609 35.2798 19.7363C35.0632 20.0863 34.592 20.1403 34.1171 19.9651C34.0326 19.9339 33.9478 19.8954 33.8645 19.8501C33.7576 19.792 33.6529 19.7226 33.5533 19.6427C33.4914 19.593 33.4312 19.539 33.374 19.4814C33.357 19.4643 33.3402 19.4469 33.3238 19.4291C33.2459 19.3451 33.1737 19.2537 33.1091 19.1553C32.8886 18.819 32.6786 18.5773 32.4889 18.4211C31.7402 17.8047 31.3089 18.5213 31.8022 20.0123C31.8218 20.0715 31.8428 20.132 31.8654 20.1936C31.875 20.22 31.8849 20.2465 31.8951 20.2733C31.9882 20.5181 32.0451 20.7493 32.0632 20.9958C32.1011 21.5138 31.9672 22.099 31.6363 23.0185C31.5042 23.3857 31.4042 23.6852 31.3352 23.9313C31.1406 24.6259 31.1927 24.8958 31.4647 25.0639C31.7014 25.21 31.7071 25.4946 31.4233 26.1094C31.2852 26.4087 31.0785 26.7863 30.7964 27.2642C29.5564 29.3651 29.3668 30.6062 30.0795 31.9565C30.7139 33.1584 31.1017 33.3659 32.7818 33.4019C33.5749 33.4188 34.5337 33.5542 34.9122 33.7026C35.734 34.0243 36.5533 36.5156 36.5613 38.7151C36.5692 40.959 37.2728 43.4669 37.8946 43.4669C38.1815 43.4669 38.7244 43.3019 39.1011 43.1006C39.5209 42.8762 40.3178 41.771 41.0547 40.539C41.6469 39.5489 42.2004 38.477 42.4881 37.7144C42.6185 37.3688 42.6945 37.0861 42.6945 36.9042C42.6945 36.7917 42.7268 36.6333 42.7855 36.4427C42.9716 35.8376 43.4229 34.9073 43.9468 34.0859C44.0112 33.9848 44.073 33.8874 44.1321 33.7937C44.1928 33.6975 44.2506 33.6052 44.3057 33.5166C44.4012 33.363 44.4883 33.2205 44.5673 33.0887C44.6792 32.9018 44.7747 32.7363 44.8542 32.5903L44.8547 32.5894C45.3507 31.6783 45.2235 31.5308 44.5869 31.7289C44.2398 31.8366 43.7752 31.807 43.5542 31.663C43.4914 31.622 43.4155 31.5491 43.3299 31.4502L43.3291 31.4493C42.9257 30.9833 42.3053 29.9432 41.8027 28.9611C41.7525 28.863 41.7035 28.7654 41.6559 28.6691C41.5413 28.4367 41.4354 28.2113 41.343 28.0017C41.0868 27.4209 40.9343 26.9621 40.9852 26.814C41.0128 26.7334 41.0939 26.7667 41.2128 26.892C41.3589 27.046 41.5622 27.3387 41.7932 27.7287C41.9127 27.9305 42.0398 28.1584 42.1703 28.4068C42.2201 28.5016 42.2705 28.5994 42.3211 28.6998C42.9699 29.9875 43.5575 31.1033 43.6267 31.1796C43.6585 31.2146 43.7395 31.2195 43.8554 31.2007C43.9895 31.179 44.1705 31.1257 44.3759 31.0507C44.8664 30.8715 45.4979 30.5687 45.9701 30.2775C45.9891 30.2657 46.0079 30.254 46.0264 30.2423C46.1189 30.1839 46.2044 30.1261 46.2805 30.0702C46.3719 30.003 46.4498 29.9384 46.51 29.8783C46.523 29.8653 46.5357 29.8523 46.5482 29.8391C46.6587 29.7224 46.7493 29.5981 46.8197 29.4729C47.1336 28.915 47.0481 28.3397 46.5482 28.3397C46.5214 28.3397 46.4932 28.3378 46.4639 28.3342C46.2978 28.314 46.0938 28.2387 45.8872 28.1341L45.8847 28.1328C45.2987 27.8355 44.6934 27.303 44.8746 27.1219C44.9977 26.9988 45.7002 27.1062 46.5482 27.3212C46.6412 27.3448 46.736 27.3697 46.832 27.3958C47.531 27.5853 48.2925 27.835 48.895 28.0821ZM33.4478 24.4386C32.9419 24.9992 32.9063 25.0835 33.622 25.096C33.7309 25.0979 33.8573 25.0981 34.002 25.0981C34.0977 25.0981 34.2052 25.1055 34.3215 25.1194C34.54 25.1456 34.7897 25.1948 35.0496 25.2612C35.3255 25.3317 35.6132 25.4217 35.8882 25.5241C36.1296 25.6141 36.3614 25.7138 36.5667 25.8185C37.4306 26.2588 38.2684 26.4917 39.006 26.5128C39.1034 26.5156 39.1991 26.5147 39.2929 26.5101C39.3851 26.5056 39.4756 26.4975 39.5639 26.4858C39.6671 26.4721 39.7675 26.4535 39.8649 26.43L39.867 26.4295C40.1777 26.3543 40.4576 26.2291 40.6983 26.0533C41.4236 25.5233 41.276 25.0631 40.4508 24.8554C40.2542 24.806 40.0192 24.7709 39.7484 24.7526C39.6133 24.7434 39.4685 24.7384 39.3159 24.738L39.2929 24.738C38.7084 24.738 37.925 24.6246 37.2602 24.4582C36.9512 24.3808 36.6678 24.292 36.442 24.1977C35.5769 23.8366 35.0336 23.6662 34.6059 23.6994C34.3829 23.7167 34.1914 23.7893 34.002 23.9189C33.8401 24.0298 33.6798 24.1823 33.5028 24.3778L33.4478 24.4386ZM44.86 30.161C44.86 30.161 44.8551 30.1564 44.8457 30.1456C44.8553 30.1553 44.86 30.161 44.86 30.161ZM39.5294 24.4302C39.5426 24.4177 39.5512 24.4118 39.5512 24.4118C39.5512 24.4118 39.5453 24.4181 39.5294 24.4302ZM35.6585 27.6004C36.78 28.172 38.1051 28.5669 39.3856 28.5105L42.1854 33.1295C41.8182 33.7182 41.4859 34.3462 41.2346 34.912C41.1006 35.2135 40.9783 35.5227 40.8857 35.8167C40.8157 36.0389 40.7178 36.3874 40.6981 36.7688C40.693 36.7871 40.6856 36.8115 40.6755 36.8428C40.6298 36.9834 40.5514 37.1849 40.4356 37.4435C40.2055 37.9575 39.8763 38.5892 39.509 39.2226C39.2457 39.6766 38.9748 40.1109 38.722 40.4852C38.625 39.9234 38.5634 39.3024 38.5613 38.7081C38.5565 37.3891 38.313 36.0081 37.9418 34.8797C37.7565 34.3165 37.5184 33.7515 37.2193 33.2648C36.9672 32.8547 36.4734 32.1664 35.6422 31.8406C35.0128 31.6786 33.5681 31.364 32.8245 31.4023C32.4286 31.3939 32.1939 31.3761 32.0429 31.3529L32.0371 31.352C31.9962 31.2888 31.9338 31.1851 31.8483 31.023C31.6692 30.6838 31.6411 30.4664 31.6828 30.1939C31.7386 29.8284 31.9442 29.2542 32.5188 28.2807C32.7626 27.8676 32.9924 27.462 33.1779 27.0768L33.1929 27.078C33.4363 27.0982 33.7328 27.0982 33.9801 27.0981H34.0018C34.0018 27.0981 34.0175 27.0982 34.0575 27.1023C34.0975 27.1065 34.1506 27.1136 34.2165 27.1251C34.3497 27.1484 34.5114 27.1852 34.6896 27.2352C35.0565 27.3383 35.4114 27.4744 35.6585 27.6004ZM42.4622 33.3386C42.7625 33.5343 43.077 33.6456 43.356 33.7092L42.4622 33.3386ZM38.4218 14.2225C38.4218 14.2225 38.4171 14.2242 38.4081 14.225C38.4173 14.2224 38.4218 14.2225 38.4218 14.2225ZM48.8314 26.7496C48.8314 26.7496 48.839 26.743 48.8532 26.7333C48.8383 26.7453 48.8314 26.7496 48.8314 26.7496Z" fill="#292929"/>
<path fill-rule="evenodd" clip-rule="evenodd" d="M39.3856 28.5105L42.1854 33.1295C41.9559 32.932 41.7843 32.7235 41.6864 32.6012C41.5125 32.3838 41.3394 32.1358 41.1773 31.8876C40.8508 31.3877 40.5035 30.786 40.1925 30.199C39.8894 29.6269 39.599 29.0278 39.3856 28.5105Z" fill="#292929"/>
<path d="M39.2929 22.738C38.6722 22.738 37.6548 22.5367 37.2123 22.352L43.1616 25.5477L43.1616 25.5464C43.1756 25.2989 43.1514 25.0392 43.077 24.7758C42.9394 24.2885 42.6674 23.921 42.3933 23.6645C41.8896 23.1931 41.2745 22.9918 40.8415 22.8925C40.3617 22.7825 39.8339 22.738 39.2929 22.738Z" fill="#292929"/>
<path fill-rule="evenodd" clip-rule="evenodd" d="M28.5 50C40.3741 50 50 40.3741 50 28.5C50 16.6259 40.3741 7 28.5 7C16.6259 7 7 16.6259 7 28.5C7 40.3741 16.6259 50 28.5 50ZM28.5 52C41.4787 52 52 41.4787 52 28.5C52 15.5213 41.4787 5 28.5 5C15.5213 5 5 15.5213 5 28.5C5 41.4787 15.5213 52 28.5 52Z" fill="#292929"/>
<path d="M46.864 6.87932C47.4245 5.05332 47.8016 2.55869 48 1C48.1966 2.54446 48.6223 5.14195 49.1339 6.86208C51.4313 7.55348 53.4166 7.79842 55 8C53.4279 8.20015 51.1815 8.44305 49.1281 9.12329C48.6191 10.7445 48.1959 13.4614 48 15C47.8055 13.4721 47.4394 10.7825 46.897 9.15754C44.8369 8.58513 42.5786 8.20097 41 8C42.5701 7.80011 44.8128 7.55757 46.864 6.87932Z" fill="#B4924F"/>
</g>
</svg>
