<svg width="56" height="56" viewBox="0 0 56 56" fill="none" xmlns="http://www.w3.org/2000/svg">
<g opacity="0.8" clip-path="url(#clip0_372_6313)">
<path fill-rule="evenodd" clip-rule="evenodd" d="M28.2193 14.3931C17.4128 14.3931 8.65234 23.1535 8.65234 33.96C8.65234 44.7665 17.4128 53.5269 28.2193 53.5269C39.0258 53.5269 47.7862 44.7665 47.7862 33.96C47.7862 23.1535 39.0258 14.3931 28.2193 14.3931ZM6.65234 33.96C6.65234 22.0489 16.3082 12.3931 28.2193 12.3931C40.1304 12.3931 49.7862 22.0489 49.7862 33.96C49.7862 45.8711 40.1304 55.5269 28.2193 55.5269C16.3082 55.5269 6.65234 45.8711 6.65234 33.96ZM17.589 23.3298C15.014 25.9048 13.4787 29.5777 13.4787 33.96C13.4787 38.3423 15.014 42.0152 17.589 44.5902C20.1641 47.1653 23.8369 48.7005 28.2193 48.7005C32.6016 48.7005 36.2744 47.1653 38.8495 44.5902C41.4246 42.0152 42.9598 38.3423 42.9598 33.96C42.9598 29.5777 41.4246 25.9048 38.8495 23.3298C36.2744 20.7547 32.6016 19.2195 28.2193 19.2195C23.8369 19.2195 20.1641 20.7547 17.589 23.3298ZM16.1748 21.9155C19.1586 18.9317 23.3561 17.2195 28.2193 17.2195C33.0825 17.2195 37.2799 18.9317 40.2637 21.9155C43.2475 24.8993 44.9598 29.0968 44.9598 33.96C44.9598 38.8232 43.2475 43.0206 40.2637 46.0044C37.2799 48.9882 33.0825 50.7005 28.2193 50.7005C23.3561 50.7005 19.1586 48.9882 16.1748 46.0044C13.191 43.0206 11.4787 38.8232 11.4787 33.96C11.4787 29.0968 13.191 24.8993 16.1748 21.9155Z" fill="#292929"/>
<path fill-rule="evenodd" clip-rule="evenodd" d="M20.8187 -0.0427246H34.4731L39.5798 6.93371L35.2811 11.1963C36.3203 11.9186 37.0005 13.1207 37.0005 14.4827H35.0005C35.0005 13.6411 34.4799 12.9196 33.7432 12.6248L31.4063 14.4332L27.6356 14.9962L24.5385 14.4293L21.8629 12.651C20.7765 13.045 20.0005 14.0873 20.0005 15.3091V15.4827H18.0005V15.3091C18.0005 13.5864 18.9025 12.0756 20.2598 11.2216L15.9141 6.94894L20.8187 -0.0427246ZM22.6681 10.7847L23.3418 11.2324L21.4647 7.82975H19.6626L22.6681 10.7847ZM19.1422 5.82975L20.6615 3.66396L20.9257 5.82975H19.1422ZM23.7488 7.82975L25.6872 11.3436L27.666 12.7621L29.7486 11.3392L31.5938 7.82975H23.7488ZM33.8534 7.82975L31.9202 11.5066L32.8653 10.7752L35.8357 7.82975H33.8534ZM36.2932 5.82975H34.3788L34.6523 3.58809L36.2932 5.82975ZM32.8364 1.95728H29.9868L32.5131 4.60777L32.8364 1.95728ZM30.9148 5.82975L27.6523 2.40669L24.3897 5.82975H30.9148ZM22.7915 4.60778L25.3177 1.95728H22.4681L22.7915 4.60778Z" fill="#292929"/>
<path d="M44.4451 10.4594C44.9656 8.7638 45.3157 6.44735 45.5 5C45.6826 6.43414 46.0778 8.84609 46.5529 10.4434C48.6862 11.0854 50.5297 11.3128 52 11.5C50.5402 11.6859 48.4542 11.9114 46.5475 12.5431C46.0748 14.0484 45.6819 16.5713 45.5 18C45.3194 16.5813 44.9794 14.0838 44.4758 12.5749C42.5628 12.0433 40.4658 11.6866 39 11.5C40.458 11.3144 42.5404 11.0892 44.4451 10.4594Z" fill="#B4924F"/>
</g>
<defs>
<clipPath id="clip0_372_6313">
<rect width="56" height="56" fill="white"/>
</clipPath>
</defs>
</svg>
