<svg width="56" height="56" viewBox="0 0 56 56" fill="none" xmlns="http://www.w3.org/2000/svg">
<g opacity="0.8" clip-path="url(#clip0_346_3410)">
<path fill-rule="evenodd" clip-rule="evenodd" d="M22.8257 12H33.1743L37 14.8237V18.5136L33.0994 21H22.9006L19 18.5136V14.8237L22.8257 12ZM21 15.8333L23.4839 14H32.5161L35 15.8333V17.4167L32.5161 19H23.4839L21 17.4167V15.8333Z" fill="#292929"/>
<path fill-rule="evenodd" clip-rule="evenodd" d="M24 15H32L32 17H24L24 15Z" fill="#292929"/>
<path fill-rule="evenodd" clip-rule="evenodd" d="M2.00418 22.8356C1.89006 19.7637 4.21711 16.5738 8.88957 14.0854C13.5139 11.6226 20.1976 10 28.1488 10C37.2267 10 43.814 11.6305 48.0603 14.0699C52.2911 16.5005 54.1146 19.6664 53.9968 22.8358L53.9511 28.1427L53.8852 35.8459L53.8852 35.8474C53.8642 38.8427 51.219 41.8647 46.3853 44.2057C41.6318 46.5078 35.0889 47.9705 28.0469 48C21.0049 47.9705 14.438 46.5078 9.66049 44.2048C4.80035 41.862 2.13683 38.8392 2.11579 35.8472L2.04994 28.1426L2.00418 22.8356ZM49.0566 12.3357C53.7219 15.0159 56.1428 18.7808 55.996 22.8954L55.8852 35.8614C55.8556 40.0675 52.2471 43.5889 47.2571 46.0057C42.1877 48.4608 35.3385 49.9701 28.051 50H28.0428C20.7555 49.9701 13.8837 48.4608 8.79204 46.0064C3.78235 43.5915 0.145913 40.0703 0.115837 35.8613L0.0050198 22.8951C-0.143731 18.6834 3.02518 14.9426 7.94945 12.3201C12.9276 9.66892 19.9513 8 28.1488 8C37.4293 8 44.401 9.66113 49.0566 12.3357ZM51.0165 21.9586C50.9629 23.4008 50.1758 24.8486 48.6206 26.2029C43.6645 23.5112 36.1626 21.8418 28.4697 21.8728C20.7955 21.8419 12.42 23.5047 7.38208 26.2042C5.82581 24.8495 5.0381 23.4012 4.98451 21.9584L2.98589 22.0327C3.07489 24.4286 4.50182 26.52 6.66091 28.1995C11.0804 31.6374 19.0544 33.7603 27.9934 33.6721C36.9381 33.7627 44.9182 31.6394 49.3401 28.1996C51.4992 26.5201 52.9261 24.4287 53.0151 22.0328L51.0165 21.9586ZM28.4656 23.8728C21.4232 23.8439 13.9246 25.2917 9.20232 27.5264C13.2214 29.9966 19.7347 31.6428 27.2341 31.6743L27.2345 31.6585C27.4885 31.6649 27.7416 31.6693 27.9936 31.672C28.2502 31.6694 28.5079 31.6648 28.7665 31.6584L28.7669 31.6745C36.2732 31.6429 42.7915 29.9937 46.8097 27.5197C42.225 25.2833 35.4912 23.844 28.4738 23.8728H28.4656Z" fill="#292929"/>
<path d="M42.7017 5.71922C43.3423 3.63237 43.7732 0.781359 44 -1C44.2247 0.765094 44.7112 3.73365 45.2959 5.69952C47.9215 6.48969 50.1905 6.76963 52 7C50.2033 7.22874 47.636 7.50635 45.2893 8.28377C44.7075 10.1365 44.2239 13.2415 44 15C43.7777 13.2539 43.3593 10.18 42.7395 8.32291C40.385 7.66872 37.8041 7.22968 36 7C37.7944 6.77155 40.3574 6.49437 42.7017 5.71922Z" fill="#B4924F"/>
</g>
<defs>
<clipPath id="clip0_346_3410">
<rect width="56" height="56" fill="white"/>
</clipPath>
</defs>
</svg>
