<svg width="56" height="56" viewBox="0 0 56 56" fill="none" xmlns="http://www.w3.org/2000/svg">
<g opacity="0.8">
<path fill-rule="evenodd" clip-rule="evenodd" d="M18.5706 5.75854H37.4277L50.2406 18.8454V37.6196L37.4169 50.2413H18.5815L5.75781 37.6196V18.8454L18.5706 5.75854ZM16.1887 11.0503L10.8861 16.4663L14.6345 14.918L16.1887 11.0503ZM13.5918 17.5126L8.0598 19.7976L10.384 25.4951L13.5918 17.5126ZM9.31214 28.1625L7.75781 24.3523V32.0304L9.31214 28.1625ZM10.9874 39.9606L16.2301 45.1207L14.7333 41.4516L10.9874 39.9606ZM13.685 38.8817L10.398 30.8242L8.05979 36.6427L13.685 38.8817ZM17.3121 42.4781L19.5425 47.9455L25.2952 45.6557L17.3121 42.4781ZM27.9992 46.732L24.2074 48.2413H31.791L27.9992 46.732ZM39.7683 45.1207L45.011 39.9606L41.265 41.4516L39.7683 45.1207ZM38.6863 42.4781L30.7032 45.6557L36.4559 47.9455L38.6863 42.4781ZM42.3134 38.8817L47.9386 36.6427L45.6004 30.8242L42.3134 38.8817ZM46.6862 28.1625L48.2406 32.0304V24.3523L46.6862 28.1625ZM45.1123 16.4663L39.8097 11.0503L41.3639 14.918L45.1123 16.4663ZM42.4066 17.5126L45.6144 25.4951L47.9386 19.7976L42.4066 17.5126ZM38.7795 13.8504L36.4559 8.06826L30.6185 10.4795L38.7795 13.8504ZM25.3798 10.4795L17.2189 13.8504L19.5425 8.06826L25.3798 10.4795ZM27.9992 9.39751L24.0314 7.75854H31.967L27.9992 9.39751ZM26.975 11.9845L17.2746 15.9913L20.9621 19.2272L26.8986 16.7639L26.975 11.9845ZM27.8993 18.514L21.5558 21.1462L18.9448 28.1626L21.5589 35.3093L27.8993 37.9402L34.6652 35.2979L37.276 28.1185L34.6704 21.1583L27.8993 18.514ZM36.6236 20.6711L39.0369 27.1179L44.124 27.1502L40.2034 17.3939L36.6236 20.6711ZM38.7581 16.0055L28.9756 11.9647L28.899 16.7573L35.2343 19.2314L38.7581 16.0055ZM44.1233 29.1502L39.0406 29.118L36.6187 35.778L40.1157 38.9741L44.1233 29.1502ZM38.6469 40.3411L35.2348 37.2226L28.8995 39.6967L28.9748 44.1911L38.6469 40.3411ZM26.9742 44.1714L26.8991 39.6905L20.9614 37.2267L17.3874 40.3554L26.9742 44.1714ZM15.8948 39.0039L19.5957 35.7642L17.1799 29.1596H11.8789L15.8948 39.0039ZM11.8706 27.1596H17.1841L19.5929 20.6865L15.8069 17.3642L11.8706 27.1596Z" fill="#292929"/>
<path d="M47.6074 46.6195C48.0478 45.1848 48.3441 43.2247 48.5 42C48.6545 43.2135 48.9889 45.2544 49.3909 46.6059C51.196 47.1492 52.7559 47.3416 54 47.5C52.7648 47.6573 50.9997 47.8481 49.3864 48.3826C48.9864 49.6564 48.6539 51.7911 48.5 53C48.3472 51.7995 48.0595 49.6863 47.6334 48.4095C46.0147 47.9597 44.2403 47.6579 43 47.5C44.2337 47.3429 45.9957 47.1524 47.6074 46.6195Z" fill="#B4924F"/>
</g>
</svg>
