<svg width="56" height="56" viewBox="0 0 56 56" fill="none" xmlns="http://www.w3.org/2000/svg">
<g opacity="0.8" clip-path="url(#clip0_407_8220)">
<path fill-rule="evenodd" clip-rule="evenodd" d="M25.607 16.5653L30.038 6.08845L40.3242 1.62202L54.8377 15.7736L51.209 26.9343L40.0567 30.7919L25.607 16.5653ZM29.2149 17.3108L39.4961 27.4333L39.5873 26.3353L30.4118 17.3016L29.2149 17.3108ZM31.9627 16.0219L40.9081 24.829L47.2202 23.0183L48.8299 16.793L39.8745 7.976L33.9625 9.96474L31.9627 16.0219ZM33.4334 8.03261L39.1325 6.11547L39.1186 4.32594L32.5607 7.17344L33.4334 8.03261ZM31.1507 8.59188L28.3062 15.3177L30.0935 15.304L32.0253 9.45296L31.1507 8.59188ZM41.1254 5.1966L41.1349 6.41026L50.3035 15.4371L51.4887 15.3015L41.1254 5.1966ZM52.2624 17.226L50.7386 17.4004L49.1578 23.5139L49.9609 24.3046L52.2624 17.226ZM48.5617 25.7337L41.4396 28.1972L41.562 26.7221L47.7598 24.9441L48.5617 25.7337Z" fill="#292929"/>
<path fill-rule="evenodd" clip-rule="evenodd" d="M21.4234 4.80873L22.3616 14.3633L12.5145 23.3831L3.36279 21.3531L2.39381 12.312L12.2186 3.31251L21.4234 4.80873ZM19.1518 6.92964L16.6415 7.37819L18.5171 9.4258L19.1518 6.92964ZM17.6172 11.4043L14.6145 8.12631L6.99472 15.106L9.99738 18.384L17.6172 11.4043ZM7.89829 19.0534L6.11941 17.1114L5.5877 19.3539L7.89829 19.0534ZM4.85483 12.7699L12.4746 5.79018L13.2636 6.65151L5.64381 13.6312L4.85483 12.7699ZM12.2848 20.8813L11.3483 19.8588L18.9681 12.8791L19.9047 13.9016L12.2848 20.8813Z" fill="#292929"/>
<path fill-rule="evenodd" clip-rule="evenodd" d="M20.5014 26.0094C20.2798 27.1184 19.9319 28.2075 19.4576 29.2537C20.1971 29.3844 20.9587 29.4526 21.7368 29.4526C22.515 29.4526 23.2766 29.3844 24.0161 29.2537C23.5623 28.2527 23.2242 27.2124 23.0017 26.153C22.3497 26.0523 21.6813 26 21 26C20.833 26 20.6668 26.0031 20.5014 26.0094ZM25.1961 26.6918C25.3993 27.3921 25.6624 28.0784 25.9855 28.7428C26.6252 28.5217 27.2423 28.252 27.8325 27.938C27.01 27.4288 26.1267 27.009 25.1961 26.6918ZM29.5852 29.2379C28.7769 29.7351 27.9176 30.1579 27.0169 30.4967C27.4474 31.112 27.9376 31.6987 28.4878 32.249L27.7807 32.9561L28.4878 32.249C29.0381 32.7992 29.6249 33.2894 30.2402 33.7199C30.5652 32.8559 30.9676 32.0299 31.4387 31.2504C30.8927 30.5162 30.271 29.8415 29.5852 29.2379ZM32.6421 33.2085C32.3943 33.7056 32.1775 34.2207 31.9941 34.7513C32.4804 34.9878 32.9784 35.1921 33.4851 35.3644C33.2675 34.6157 32.9843 33.8949 32.6421 33.2085ZM33.9235 37.5808C33.0921 37.3666 32.2753 37.0799 31.4832 36.7208C31.3525 37.4603 31.2842 38.2218 31.2842 39C31.2842 39.7782 31.3525 40.5397 31.4832 41.2792C32.2753 40.9201 33.0921 40.6334 33.9235 40.4192C33.974 39.9533 34 39.4799 34 39C34 38.5201 33.974 38.0466 33.9235 37.5808ZM33.4851 42.6356C32.9784 42.8078 32.4803 43.0122 31.9941 43.2487C32.1775 43.7793 32.3943 44.2944 32.6421 44.7915C32.9843 44.1051 33.2675 43.3843 33.4851 42.6356ZM31.4387 46.7496C30.9675 45.9701 30.5652 45.1441 30.2402 44.2801C29.6249 44.7105 29.0381 45.2008 28.4878 45.751C27.9376 46.3013 27.4474 46.888 27.0169 47.5033C27.9176 47.8421 28.7769 48.2649 29.5852 48.7621C30.271 48.1585 30.8927 47.4838 31.4387 46.7496ZM27.8325 50.062C27.2423 49.748 26.6252 49.4783 25.9855 49.2572C25.6624 49.9216 25.3993 50.6079 25.1961 51.3082C26.1267 50.991 27.01 50.5712 27.8325 50.062ZM23.0016 51.847C23.2242 50.7876 23.5623 49.7473 24.016 48.7463C23.2766 48.6156 22.515 48.5474 21.7368 48.5474C20.9587 48.5474 20.1971 48.6156 19.4576 48.7463C19.9319 49.7925 20.2798 50.8816 20.5014 51.9906C20.6668 51.9969 20.833 52 21 52C21.6812 52 22.3497 51.9477 23.0016 51.847ZM18.3945 51.739C18.1794 50.8893 17.8772 50.0573 17.4881 49.2572C16.5769 49.5722 15.7114 49.9858 14.9043 50.4854C15.986 51.0608 17.1583 51.4876 18.3945 51.739ZM13.0707 49.3027C14.1091 48.5666 15.2455 47.9589 16.4568 47.5033C16.0263 46.888 15.5361 46.3013 14.9858 45.751C14.4356 45.2008 13.8488 44.7106 13.2335 44.2801C12.7666 45.5214 12.1401 46.6841 11.3792 47.7431C11.8958 48.3112 12.4619 48.8333 13.0707 49.3027ZM10.0947 46.0794C10.665 45.2028 11.1323 44.2536 11.4796 43.2487C10.4921 42.7685 9.45603 42.4207 8.39793 42.2054C8.75151 43.6001 9.33068 44.905 10.0947 46.0794ZM8.0469 40.1127C9.39705 40.3169 10.7252 40.7056 11.9905 41.2792C12.1212 40.5397 12.1895 39.7782 12.1895 39C12.1895 38.2218 12.1212 37.4603 11.9905 36.7208C10.7252 37.2944 9.39705 37.6832 8.0469 37.8873C8.01585 38.2539 8 38.625 8 39C8 39.375 8.01585 39.7461 8.0469 40.1127ZM8.39792 35.7946C9.45602 35.5794 10.4921 35.2315 11.4796 34.7513C11.1323 33.7465 10.665 32.7972 10.0947 31.9206C9.33067 33.095 8.75149 34.4 8.39792 35.7946ZM11.3792 30.2569C12.1401 31.3159 12.7666 32.4786 13.2335 33.7199C13.8488 33.2895 14.4355 32.7992 14.9858 32.249C15.536 31.6988 16.0263 31.112 16.4567 30.4967C15.2455 30.0411 14.1091 29.4334 13.0707 28.6973C12.4619 29.1667 11.8958 29.6888 11.3792 30.2569ZM14.9043 27.5146C15.7113 28.0142 16.5769 28.4278 17.4881 28.7428C17.8772 27.9427 18.1794 27.1107 18.3945 26.261C17.1583 26.5124 15.986 26.9392 14.9043 27.5146ZM18.462 31.0939C17.8822 32.006 17.1947 32.8685 16.4 33.6632C15.6053 34.4579 14.7428 35.1454 13.8307 35.7252C14.0657 36.7801 14.1895 37.8761 14.1895 39C14.1895 40.1239 14.0657 41.22 13.8307 42.2749C14.7428 42.8546 15.6053 43.5421 16.4 44.3368C17.1947 45.1315 17.8822 45.9941 18.462 46.9061C19.5169 46.6712 20.6129 46.5474 21.7368 46.5474C22.8607 46.5474 23.9568 46.6711 25.0117 46.9061C25.5914 45.994 26.2789 45.1315 27.0736 44.3368C27.8683 43.5421 28.7309 42.8546 29.643 42.2748C29.408 41.2199 29.2842 40.1239 29.2842 39C29.2842 37.8761 29.408 36.7801 29.643 35.7252C28.7309 35.1454 27.8684 34.4579 27.0736 33.6632C26.2789 32.8685 25.5914 32.0059 25.0117 31.0939C23.9568 31.3289 22.8607 31.4526 21.7368 31.4526C20.6129 31.4526 19.5169 31.3288 18.462 31.0939ZM19.5543 24.0688C20.0303 24.0233 20.5126 24 21 24C22.0484 24 23.0726 24.1077 24.062 24.313C26.3739 24.7927 28.4902 25.804 30.2772 27.2122C31.5145 28.1873 32.5945 29.353 33.4731 30.6654C34.6467 32.4185 35.4611 34.4338 35.8097 36.6049C35.935 37.3854 36 38.1854 36 39C36 39.8145 35.935 40.6146 35.8097 41.3951C35.4611 43.5662 34.6467 45.5815 33.4731 47.3346C32.5945 48.647 31.5145 49.8127 30.2772 50.7878C28.4902 52.196 26.3739 53.2073 24.062 53.687C23.0726 53.8923 22.0484 54 21 54C20.5126 54 20.0303 53.9767 19.5543 53.9312C16.9566 53.6825 14.5517 52.7712 12.5121 51.3691C11.308 50.5414 10.2311 49.5425 9.3162 48.4076C7.66797 46.363 6.54452 43.8752 6.15312 41.1504C6.05217 40.4476 6 39.7296 6 39C6 38.2704 6.05216 37.5524 6.15311 36.8496C6.5445 34.1248 7.66796 31.637 9.3162 29.5924C10.2311 28.4574 11.308 27.4586 12.5121 26.6309C14.5517 25.2288 16.9566 24.3175 19.5543 24.0688Z" fill="#292929"/>
<path d="M44.2828 41.2993C44.8834 39.3428 45.2874 36.67 45.5 35C45.7107 36.6548 46.1667 39.4378 46.7149 41.2808C49.1764 42.0216 51.3035 42.284 53 42.5C51.3156 42.7144 48.9087 42.9747 46.7087 43.7035C46.1633 45.4405 45.7099 48.3514 45.5 50C45.2916 48.363 44.8993 45.4813 44.3182 43.7402C42.1109 43.1269 39.6913 42.7153 38 42.5C39.6823 42.2858 42.0851 42.026 44.2828 41.2993Z" fill="#B4924F"/>
<path d="M2.60741 26.6195C3.04783 25.1848 3.34409 23.2247 3.5 22C3.65449 23.2135 3.98892 25.2544 4.39091 26.6059C6.196 27.1492 7.75594 27.3416 9 27.5C7.76475 27.6573 5.99973 27.8481 4.38638 28.3826C3.9864 29.6564 3.65391 31.7911 3.5 33C3.34717 31.7995 3.05949 29.6863 2.63337 28.4095C1.01469 27.9597 -0.759707 27.6579 -2 27.5C-0.766334 27.3429 0.995745 27.1524 2.60741 26.6195Z" fill="#B4924F"/>
</g>
<defs>
<clipPath id="clip0_407_8220">
<rect width="56" height="56" fill="white"/>
</clipPath>
</defs>
</svg>
