<svg width="21" height="21" viewBox="0 0 21 21" fill="none" xmlns="http://www.w3.org/2000/svg">
<path d="M12.3272 18.0706L12.3487 18.0492L12.3689 18.0265C12.7923 17.551 13.3034 16.9232 13.8991 16.1504C14.5005 15.37 15.1006 14.5403 15.6993 13.6617C16.3292 12.7373 16.8636 11.736 17.3035 10.6602C17.7487 9.57174 18 8.54393 18 7.59624C18 5.75484 17.2874 4.17116 15.9132 2.89978C14.5443 1.63321 12.881 1 10.9799 1C9.07871 1 7.41984 1.63344 6.06252 2.90366C4.70273 4.17621 4 5.75882 4 7.59624C4 8.54867 4.26051 9.58545 4.71917 10.6853C5.16792 11.7615 5.67769 12.738 6.25142 13.6105C6.80432 14.4513 7.43034 15.3136 8.12829 16.1973C8.80878 17.0589 9.30098 17.6633 9.59097 17.989C9.86512 18.2968 10.1028 18.5488 10.2966 18.7301L11.001 19.3893L11.685 18.7091L12.3272 18.0706ZM11.8334 8.26383C11.593 8.48176 11.3254 8.58685 10.9799 8.58685C10.6349 8.58685 10.3803 8.48243 10.1582 8.27455C9.93844 8.06888 9.85284 7.86081 9.85284 7.59624C9.85284 7.33168 9.93844 7.12361 10.1582 6.91794C10.3803 6.71006 10.6349 6.60563 10.9799 6.60563C11.3254 6.60563 11.593 6.71073 11.8334 6.92865C12.0639 7.1377 12.1472 7.34287 12.1472 7.59624C12.1472 7.84962 12.0639 8.05479 11.8334 8.26383Z" stroke="#292929" stroke-width="2"/>
</svg>
