<svg width="21" height="21" viewBox="0 0 21 21" fill="none" xmlns="http://www.w3.org/2000/svg">
<path d="M10 1C15.514 1 20 4.589 20 9C20 11.908 18.102 14.516 15 15.934V21L9.66 16.995C4.303 16.852 0 13.32 0 9C0 4.589 4.486 1 10 1ZM10 15H10.333L13 17V14.583L13.641 14.336C16.33 13.301 18 11.256 18 9C18 5.691 14.411 3 10 3C5.589 3 2 5.691 2 9C2 12.309 5.589 15 10 15Z" fill="#292929"/>
<path d="M8 9C8 9.55228 7.55228 10 7 10C6.44772 10 6 9.55228 6 9C6 8.44772 6.44772 8 7 8C7.55228 8 8 8.44772 8 9Z" fill="#292929"/>
<path d="M11 9C11 9.55228 10.5523 10 10 10C9.44772 10 9 9.55228 9 9C9 8.44772 9.44772 8 10 8C10.5523 8 11 8.44772 11 9Z" fill="#292929"/>
<path d="M14 9C14 9.55228 13.5523 10 13 10C12.4477 10 12 9.55228 12 9C12 8.44772 12.4477 8 13 8C13.5523 8 14 8.44772 14 9Z" fill="#292929"/>
</svg>
