<svg width="21" height="16" viewBox="0 0 21 16" fill="none" xmlns="http://www.w3.org/2000/svg">
<g clip-path="url(#clip0_844_3968)">
<path d="M4.85969 7.54934C4.11995 7.55184 3.39331 7.74469 2.74969 8.10934C3.65584 5.76385 5.15875 3.69562 7.10969 2.10934C7.22131 2.01741 7.31374 1.9044 7.38168 1.77676C7.44963 1.64911 7.49177 1.50934 7.5057 1.36541C7.51963 1.22147 7.50507 1.07621 7.46286 0.937904C7.42065 0.799599 7.35161 0.670963 7.25969 0.559339C7.16776 0.447716 7.05475 0.355291 6.92711 0.287342C6.79946 0.219394 6.65968 0.177252 6.51575 0.163323C6.37182 0.149395 6.22656 0.163952 6.08825 0.206163C5.94995 0.248375 5.82131 0.317414 5.70969 0.409339C1.70969 3.65934 -0.0703125 8.15934 -0.0703125 10.9493C-0.0634205 11.9358 0.230558 12.899 0.775727 13.7212C1.3209 14.5434 2.09367 15.189 2.99969 15.5793C3.58605 15.8634 4.22817 16.0137 4.87969 16.0193C5.45315 16.0472 6.0263 15.9583 6.56438 15.7581C7.10246 15.5578 7.59427 15.2504 8.00999 14.8544C8.4257 14.4584 8.75666 13.9821 8.9828 13.4544C9.20894 12.9266 9.32554 12.3585 9.32554 11.7843C9.32554 11.2102 9.20894 10.642 8.9828 10.1143C8.75666 9.58659 8.4257 9.11029 8.00999 8.71429C7.59427 8.31829 7.10246 8.01084 6.56438 7.8106C6.0263 7.61035 5.45315 7.52146 4.87969 7.54934H4.85969Z" fill="#CCCCCC"/>
<path d="M16.0003 7.54953C15.2605 7.55113 14.5336 7.74404 13.8903 8.10953C14.7961 5.76649 16.2951 3.69896 18.2403 2.10953C18.3621 2.02177 18.4646 1.91002 18.5415 1.78116C18.6185 1.6523 18.6682 1.50905 18.6878 1.36024C18.7073 1.21142 18.6961 1.06019 18.655 0.915843C18.6139 0.771496 18.5437 0.637091 18.4487 0.520899C18.3537 0.404706 18.2359 0.309185 18.1026 0.240213C17.9693 0.171242 17.8233 0.13028 17.6736 0.119848C17.5238 0.109416 17.3736 0.129734 17.232 0.179553C17.0904 0.229372 16.9605 0.307637 16.8503 0.409531C12.8503 3.65953 11.0703 8.15953 11.0703 10.9495C11.0751 11.9249 11.3605 12.8782 11.8924 13.6957C12.4244 14.5131 13.1805 15.1602 14.0703 15.5595C14.6715 15.8519 15.3318 16.0024 16.0003 15.9995C16.5738 16.0274 17.1469 15.9385 17.685 15.7383C18.2231 15.538 18.7149 15.2306 19.1306 14.8346C19.5463 14.4386 19.8773 13.9623 20.1034 13.4346C20.3296 12.9068 20.4462 12.3387 20.4462 11.7645C20.4462 11.1904 20.3296 10.6222 20.1034 10.0945C19.8773 9.56678 19.5463 9.09048 19.1306 8.69448C18.7149 8.29848 18.2231 7.99104 17.685 7.79079C17.1469 7.59054 16.5738 7.50166 16.0003 7.52953V7.54953Z" fill="#CCCCCC"/>
</g>
<defs>
<clipPath id="clip0_844_3968">
<rect width="21" height="16" fill="white"/>
</clipPath>
</defs>
</svg>
