<svg width="24" height="24" viewBox="0 0 24 24" fill="none" xmlns="http://www.w3.org/2000/svg">
<path fill-rule="evenodd" clip-rule="evenodd" d="M8.25 7.51305L4.5 6.05472V17.9453L8.25 16.4869V7.51305ZM8.04354 18.1767L7.59872 20.8456L5.3746 19.2146L8.04354 18.1767ZM3 19.3333V4.66667L8 1H16L21 4.66667V19.3333L16 23H8L3 19.3333ZM9.01034 21.5H14.9897L14.3647 17.75H9.63534L9.01034 21.5ZM14.25 16.25V7.75H9.75V16.25H14.25ZM15.75 7.51305V16.4869L19.5 17.9453V6.05472L15.75 7.51305ZM15.9565 5.82333L16.4013 3.15438L18.6254 4.7854L15.9565 5.82333ZM14.3647 6.25H9.63534L9.01034 2.5H14.9897L14.3647 6.25ZM18.6254 19.2146L15.9565 18.1767L16.4013 20.8456L18.6254 19.2146ZM7.59872 3.15438L8.04354 5.82333L5.3746 4.7854L7.59872 3.15438Z" fill="#292929"/>
</svg>
