<svg width="180" height="41" viewBox="0 0 180 41" fill="none" xmlns="http://www.w3.org/2000/svg">
<path d="M34.7017 6.71922C35.3423 4.63237 35.7732 1.78136 36 0C36.2247 1.76509 36.7112 4.73365 37.2959 6.69952C39.9215 7.48969 42.1905 7.76963 44 8C42.2033 8.22874 39.636 8.50635 37.2893 9.28377C36.7075 11.1365 36.2239 14.2415 36 16C35.7777 14.2539 35.3593 11.18 34.7395 9.32291C32.385 8.66872 29.8041 8.22968 28 8C29.7944 7.77155 32.3574 7.49437 34.7017 6.71922Z" fill="#B4924F"/>
<path d="M9.71773 12.127L9.99486 23.316L2.09668 30.8332H13.1818L20.8029 38.4542V27.3691L28.424 19.748H17.3388L9.71773 12.127ZM20.8029 12.127L13.1818 19.748H2.09668L10.4106 28.0619L9.71773 38.4542L17.3388 30.8332H28.424L20.8029 23.2121V12.127Z" stroke="#292929"/>
<path d="M15.2606 11.0303H9.25614L5.12807 15.1583L1 19.2864V25.2909V31.2953L5.12807 35.4234L9.25614 39.5515H15.2606H21.2651L25.3931 35.4234L29.5212 31.2953V25.2909V19.2864L25.3931 15.1583L21.2651 11.0303H15.2606Z" stroke="#292929" stroke-width="2"/>
<path d="M43.4855 33.2559V17.7441H48.6607C49.9058 17.7441 51.0459 17.9435 52.0809 18.3424C53.116 18.7265 54.001 19.2657 54.736 19.96C55.4861 20.6396 56.0636 21.4521 56.4686 22.3976C56.8886 23.3431 57.0986 24.3625 57.0986 25.4557C57.0986 26.5932 56.8811 27.6421 56.4461 28.6024C56.0261 29.5479 55.4411 30.3678 54.691 31.0621C53.956 31.7565 53.0935 32.2957 52.1034 32.6798C51.1134 33.0639 50.0558 33.2559 48.9308 33.2559H43.4855ZM45.5331 32.2809H48.0082C49.2383 32.2809 50.2808 32.0815 51.1359 31.6826C52.0059 31.2689 52.7184 30.7371 53.2735 30.0871C53.8285 29.4371 54.2335 28.7132 54.4885 27.9154C54.7435 27.1029 54.871 26.2978 54.871 25.5C54.871 24.6136 54.721 23.7641 54.421 22.9516C54.121 22.1243 53.6785 21.4004 53.0935 20.78C52.5234 20.1447 51.8109 19.6424 50.9559 19.2731C50.1008 18.9038 49.1183 18.7191 48.0082 18.7191H45.5331V32.2809Z" fill="#292929"/>
<path d="M61.3659 17.7441V33.2559H63.4135V17.7441H61.3659Z" fill="#292929"/>
<path d="M78.4697 28.691L80.6298 33.2559H82.8125L75.4771 17.7441H74.352L67.6917 33.2559H68.7268L70.7069 28.691H78.4697ZM77.9972 27.6938H71.1344L74.3745 20.226H74.4646L77.9972 27.6938Z" fill="#292929"/>
<path d="M87.7272 17.7441H86.1971V33.2559H87.1871V20.6027H87.2772L94.23 33.5219H94.635L101.745 20.6913H101.835V33.2559H103.883V17.7441H102.33L95.04 31.0621H94.95L87.7272 17.7441Z" fill="#292929"/>
<path d="M141.841 17.7441V29.5996H141.751L129.263 17.4781H129.151V33.2559H130.186V21.4004H130.276L142.764 33.5219H142.876V17.7441H141.841Z" fill="#292929"/>
<path d="M159.959 28.059L159.96 28.0566C160.034 27.8199 160.098 27.5833 160.152 27.347L159.73 26.9971L159.301 26.6407C159.241 27.0154 159.152 27.3929 159.032 27.7734C158.854 28.3293 158.598 28.8463 158.261 29.3255L158.584 29.7047L158.905 30.082C159.373 29.4665 159.725 28.7916 159.959 28.059Z" fill="#292929"/>
<path d="M161.01 28.4076L161.009 28.4107C160.622 29.2802 160.089 30.0334 159.408 30.6742L159.72 31.0416L160.033 31.4088C160.882 30.545 161.63 29.3069 161.897 28.7959L161.51 28.4742L161.12 28.1505C161.085 28.237 161.048 28.3227 161.01 28.4076Z" fill="#292929"/>
<path d="M150.055 19.6741L150.54 20.2451L151.026 20.816V19.7716L150.54 19.3686L150.055 18.9656V19.6741Z" fill="#292929"/>
<path d="M149.159 18.2222L148.583 17.7441L148.007 17.2659L148.493 17.8369L148.978 18.4079V18.2222H149.159Z" fill="#292929"/>
<path d="M168.095 19.1307L168.102 19.1284C168.138 19.1165 168.175 19.1051 168.213 19.0942L167.989 18.6618L167.765 18.23C167.699 18.25 167.635 18.271 167.572 18.2932L167.707 18.7534L167.842 19.2138C167.921 19.185 168.003 19.1579 168.088 19.1327L168.095 19.1307Z" fill="#292929"/>
<path d="M172.079 31.4766L172.075 31.479C171.911 31.5819 171.729 31.6725 171.529 31.7498L171.664 32.2108L171.8 32.6715C172.086 32.5674 172.351 32.4394 172.595 32.2862C173.479 31.7413 173.902 30.8723 173.902 29.7768C173.902 28.9116 173.645 28.17 173.09 27.6051C172.592 27.0989 171.972 26.6834 171.238 26.353C170.772 26.1284 170.278 25.9216 169.759 25.7324L169.928 26.3079L170.101 26.8937C170.347 26.9964 170.586 27.1035 170.818 27.2148L170.823 27.2176L170.829 27.2202C171.473 27.5099 171.991 27.8617 172.392 28.2701C172.737 28.6211 172.93 29.1056 172.93 29.7768C172.93 30.6011 172.634 31.135 172.079 31.4766Z" fill="#292929"/>
<path d="M167.726 18.1549L167.5 17.7189L167.275 17.2843L167.41 17.7436L167.545 18.2029C167.605 18.186 167.665 18.17 167.726 18.1549Z" fill="#292929"/>
<path d="M157.088 18.3424C156.053 17.9435 154.913 17.7441 153.668 17.7441H148.583L149.159 18.2222H153.668C154.86 18.2222 155.939 18.4129 156.911 18.7876L156.917 18.7898C157.896 19.1531 158.723 19.6593 159.407 20.3052L159.415 20.3119C160.112 20.9441 160.65 21.6996 161.029 22.5835L161.031 22.5893C161.423 23.4708 161.62 24.4244 161.62 25.4557C161.62 26.4295 161.452 27.3262 161.12 28.1505L161.51 28.4742C161.907 27.549 162.106 26.5428 162.106 25.4557C162.106 24.3625 161.896 23.3431 161.476 22.3976C161.071 21.4521 160.493 20.6396 159.743 19.96C159.008 19.2657 158.123 18.7265 157.088 18.3424Z" fill="#292929"/>
<path d="M173.754 32.3252C174.249 31.9411 174.631 31.4758 174.901 30.9292C175.171 30.3826 175.306 29.7768 175.306 29.1121C175.306 28.1961 175.074 27.4501 174.609 26.8739C174.144 26.283 173.559 25.7955 172.853 25.4114C172.163 25.0125 171.406 24.6801 170.581 24.4142C170.114 24.2608 169.664 24.1026 169.232 23.9394L169.401 24.5128C169.733 24.634 170.076 24.7523 170.427 24.8678L170.43 24.8686C171.225 25.1248 171.95 25.4437 172.608 25.8239L172.618 25.8298C173.269 26.1844 173.803 26.6303 174.225 27.1668L174.229 27.1714C174.61 27.644 174.821 28.2771 174.821 29.1121C174.821 29.7113 174.699 30.2445 174.464 30.72C174.227 31.2003 173.892 31.6092 173.453 31.9497C173.015 32.2892 172.475 32.5587 171.823 32.7509L171.958 33.2102C172.661 33.0035 173.26 32.7085 173.754 32.3252Z" fill="#292929"/>
<path fill-rule="evenodd" clip-rule="evenodd" d="M129.462 17H128.665V33.7341H130.671V22.4557L142.565 34H143.362V17.2659H141.356V28.5443L129.462 17ZM141.552 30.0777L129.636 18.5115V32.7778H129.7V20.9223H130.475L142.391 32.4885V18.2222H142.327V30.0777H141.552ZM169.388 17C168.656 17 167.95 17.0942 167.275 17.2843L167.272 17.2852C166.609 17.4764 166.01 17.7575 165.482 18.1314L165.476 18.1357C164.953 18.5183 164.531 19.0005 164.214 19.5767L164.209 19.5862C163.899 20.1801 163.75 20.8478 163.75 21.5777C163.75 22.5314 163.998 23.3509 164.538 23.989C165.031 24.5723 165.644 25.0533 166.37 25.4344L166.374 25.4364C167.09 25.8044 167.858 26.1175 168.677 26.3763C169.178 26.5343 169.652 26.7069 170.101 26.8937L169.928 26.3079C170.312 26.457 170.68 26.6162 171.031 26.7853C171.721 27.0955 172.291 27.4796 172.741 27.9376C173.191 28.3956 173.416 29.0086 173.416 29.7768C173.416 30.7371 173.056 31.4388 172.336 31.882C172.132 32.0102 171.908 32.1198 171.664 32.2108L171.529 31.7498C170.993 31.9565 170.323 32.0687 169.501 32.0687C168.593 32.0687 167.909 31.9545 167.421 31.7536C166.896 31.5216 166.529 31.2631 166.289 30.9921C166.027 30.6943 165.864 30.4077 165.783 30.1333C165.683 29.7827 165.632 29.5094 165.62 29.3056L165.593 28.8555H163.097L163.121 29.3559C163.154 30.0615 163.338 30.7122 163.679 31.2994L163.684 31.3081C164.035 31.8844 164.502 32.3754 165.078 32.7808L165.085 32.7853L165.091 32.7895C165.678 33.1749 166.355 33.4744 167.115 33.6928L167.124 33.6953C167.891 33.8999 168.722 34 169.613 34C170.521 34 171.35 33.8922 172.093 33.6695C173.159 33.5962 175.794 32.4885 175.992 29.3066C176.198 25.9922 172.425 24.3614 170.734 23.9603C170.147 23.7678 169.59 23.5679 169.062 23.3605C168.871 23.2856 168.684 23.2098 168.5 23.1329C167.844 22.8518 167.309 22.5346 166.888 22.1864C166.54 21.8995 166.364 21.5277 166.364 21.0237C166.364 20.7412 166.422 20.4819 166.538 20.2403C166.667 20 166.849 19.7906 167.092 19.6113L167.095 19.6091C167.301 19.4546 167.548 19.3217 167.842 19.2138L167.707 18.7534C167.785 18.7254 167.866 18.6992 167.948 18.6748L167.989 18.6618L168.213 19.0942C168.579 18.988 169.007 18.9313 169.501 18.9313C170.406 18.9313 171.137 19.1228 171.719 19.4796L171.725 19.4829L171.73 19.486C172.276 19.8013 172.607 20.2982 172.71 21.0436L172.767 21.4575H175.292L175.2 20.9029C175.099 20.2875 174.869 19.7305 174.509 19.2396C174.157 18.745 173.713 18.3335 173.183 18.0063C172.655 17.6658 172.059 17.418 171.4 17.259C170.758 17.0857 170.087 17 169.388 17ZM167.275 17.2843L167.5 17.7189C167.47 17.7269 167.44 17.7352 167.41 17.7436L167.275 17.2843ZM171.958 33.2102C172.661 33.0035 173.26 32.7085 173.754 32.3252C174.249 31.9411 174.631 31.4758 174.901 30.9292C175.171 30.3826 175.306 29.7768 175.306 29.1121C175.306 28.1961 175.074 27.4501 174.609 26.8739C174.144 26.283 173.559 25.7955 172.853 25.4114C172.163 25.0125 171.406 24.6801 170.581 24.4142C170.114 24.2608 169.664 24.1026 169.232 23.9394L169.401 24.5128L169.759 25.7324C170.278 25.9216 170.772 26.1284 171.238 26.353C171.972 26.6834 172.592 27.0989 173.09 27.6051C173.645 28.17 173.902 28.9116 173.902 29.7768C173.902 30.8723 173.479 31.7413 172.595 32.2862C172.351 32.4394 172.086 32.5674 171.8 32.6715L171.823 32.7509L171.958 33.2102ZM48.6607 17.2659H43V33.7341H48.9308C50.1132 33.7341 51.2314 33.532 52.2814 33.1247C53.3267 32.7191 54.243 32.1474 55.0253 31.4089C55.8228 30.6702 56.4447 29.7978 56.8902 28.7957C57.3547 27.7696 57.5842 26.6542 57.5842 25.4557C57.5842 24.3016 57.3623 23.2175 56.9147 22.2088C56.484 21.2045 55.8682 20.3371 55.0684 19.6115C54.2835 18.871 53.3432 18.3002 52.255 17.896C51.158 17.4737 49.958 17.2659 48.6607 17.2659ZM43.971 32.7778V18.2222H48.6607C49.8525 18.2222 50.9317 18.413 51.904 18.7877L51.9097 18.7898C52.8887 19.1531 53.7162 19.6593 54.3999 20.3052L54.4073 20.3119C55.105 20.9441 55.6426 21.6996 56.0213 22.5835L56.0238 22.5893C56.4154 23.4708 56.6131 24.4244 56.6131 25.4557C56.6131 26.5317 56.4078 27.5135 56.0027 28.4076L56.0013 28.4107C55.6071 29.2981 55.0599 30.0644 54.3585 30.7137L54.355 30.7171C53.6676 31.3664 52.8594 31.8726 51.9255 32.2349C50.9953 32.5958 49.9984 32.7778 48.9308 32.7778H43.971ZM63.899 17.2659H60.8804V33.7341H63.899V17.2659ZM62.928 32.7778H61.8514V18.2222H62.928V32.7778ZM75.7866 17.2659H74.0302L66.9593 33.7341H69.0473L71.0274 29.1692H78.1604L80.3205 33.7341H83.5741L75.7866 17.2659ZM70.6669 27.5543L74.6739 18.2222H75.1676L82.0508 32.7778H80.9392L78.7791 28.2129H70.3863L70.1755 28.699L70.4018 28.172H78.759L74.774 19.7478H74.054L70.6669 27.5543ZM88.0183 17.2659H85.7116V33.7341H87.6727V22.3586L93.9378 34H94.9231L101.35 22.4031V33.7341H104.368V17.2659H102.041L94.9968 30.1335L88.0183 17.2659ZM86.7016 32.7778H86.6826V18.2222H87.4361L94.6589 31.5403H95.18L94.4358 32.8833L87.5693 20.1245H86.7016V32.7778ZM102.321 20.2132H101.53L102.62 18.2222H103.397V32.7778H102.321V20.2132ZM153.668 17.2659H148.007V33.7341H153.938C155.12 33.7341 156.239 33.532 157.289 33.1247C158.334 32.7191 159.25 32.1474 160.033 31.4088L159.72 31.0416C160.46 30.3516 161.037 29.5385 161.453 28.6024C161.473 28.5598 161.491 28.5171 161.51 28.4742L161.897 28.7959C162.362 27.7698 162.591 26.6543 162.591 25.4557C162.591 24.3015 162.369 23.2174 161.922 22.2087C161.491 21.2044 160.875 20.337 160.076 19.6115C159.291 18.871 158.35 18.3003 157.262 17.896C156.165 17.4737 154.965 17.2659 153.668 17.2659ZM148.583 17.7441H153.668C154.913 17.7441 156.053 17.9435 157.088 18.3424C158.123 18.7265 159.008 19.2657 159.743 19.96C160.493 20.6396 161.071 21.4521 161.476 22.3976C161.896 23.3431 162.106 24.3625 162.106 25.4557C162.106 26.5428 161.907 27.549 161.51 28.4742L161.12 28.1505C161.452 27.3262 161.62 26.4295 161.62 25.4557C161.62 24.4244 161.423 23.4708 161.031 22.5893L161.029 22.5835C160.65 21.6996 160.112 20.9441 159.415 20.3119L159.407 20.3052C158.723 19.6593 157.896 19.1531 156.917 18.7898L156.911 18.7876C155.939 18.4129 154.86 18.2222 153.668 18.2222H149.159L148.583 17.7441ZM148.583 17.7441L148.007 17.2659L148.493 17.8369V17.7441H148.583ZM151.026 19.7716L150.54 19.3686V20.2451L151.026 20.816V31.8028H153.015C154.194 31.8028 155.161 31.6116 155.934 31.2511C156.749 30.8634 157.404 30.3714 157.909 29.7794C158.035 29.632 158.152 29.4808 158.261 29.3255L158.584 29.7047C158.986 29.1565 159.29 28.5601 159.496 27.9154C159.592 27.6082 159.67 27.3021 159.73 26.9971L159.301 26.6407C159.362 26.2576 159.393 25.8774 159.393 25.5C159.393 24.6679 159.252 23.8738 158.972 23.115L158.971 23.1124C158.692 22.3438 158.283 21.6765 157.745 21.1053L157.737 21.0967C157.217 20.5177 156.564 20.0548 155.768 19.711C154.985 19.3727 154.071 19.1972 153.015 19.1972H151.026V19.7716ZM48.0082 18.241H45.0476V32.759H48.0082C49.2894 32.759 50.4073 32.5516 51.3437 32.1147L51.3469 32.1132C52.2712 31.6737 53.0409 31.1024 53.6451 30.3948C54.2406 29.6973 54.6771 28.9178 54.9516 28.059L54.9524 28.0566C55.2208 27.2014 55.3565 26.3487 55.3565 25.5C55.3565 24.5598 55.1973 23.6553 54.8778 22.7894C54.5571 21.9059 54.0825 21.1274 53.4533 20.4589C52.8334 19.7695 52.063 19.2292 51.1509 18.8352C50.2239 18.4348 49.1729 18.241 48.0082 18.241ZM46.0186 31.8028V19.1972H48.0082C49.0636 19.1972 49.9778 19.3727 50.7609 19.711C51.5569 20.0548 52.21 20.5177 52.7295 21.0967L52.7377 21.1053C53.2762 21.6765 53.6851 22.3438 53.9638 23.1124L53.9648 23.115C54.2449 23.8738 54.3855 24.6679 54.3855 25.5C54.3855 26.2464 54.2664 27.0036 54.0251 27.773C53.7896 28.5092 53.4161 29.1771 52.9019 29.7794C52.3963 30.3715 51.7414 30.8635 50.9264 31.2512C50.153 31.6117 49.1863 31.8028 48.0082 31.8028H46.0186ZM77.2354 27.2157L74.4368 21.2994L71.8698 27.2157H77.2354Z" fill="#292929"/>
<path d="M171.238 26.353C171.972 26.6834 172.592 27.0989 173.09 27.6051C173.645 28.17 173.902 28.9116 173.902 29.7768C173.902 30.8723 173.479 31.7413 172.595 32.2862C172.351 32.4394 172.086 32.5674 171.8 32.6715L171.823 32.7509C172.475 32.5587 173.015 32.2892 173.453 31.9497C173.892 31.6092 174.227 31.2003 174.464 30.72C174.699 30.2445 174.821 29.7113 174.821 29.1121C174.821 28.2771 174.61 27.644 174.229 27.1714L174.225 27.1668C173.803 26.6303 173.269 26.1844 172.618 25.8298L172.608 25.8239C171.95 25.4437 171.225 25.1248 170.43 24.8686L170.427 24.8678C170.076 24.7523 169.733 24.634 169.401 24.5128L169.759 25.7324C170.278 25.9216 170.772 26.1284 171.238 26.353Z" fill="#292929"/>
<path d="M108 25.5C108 26.3766 108.165 27.3158 108.494 28.3177C108.839 29.3039 109.373 30.2196 110.094 31.0649C110.816 31.9102 111.733 32.6146 112.847 33.1782C113.961 33.7261 115.294 34 116.847 34C117.898 34 118.847 33.8748 119.694 33.6243C120.557 33.3582 121.325 33.006 122 32.5677C122.69 32.1294 123.286 31.6285 123.788 31.0649C124.29 30.4857 124.698 29.8831 125.012 29.2569C125.341 28.6151 125.584 27.9733 125.741 27.3315C125.914 26.6897 126 26.0792 126 25.5C126 24.6234 125.82 23.692 125.459 22.7058C125.098 21.704 124.541 20.7804 123.788 19.9351C123.035 19.0898 122.078 18.3932 120.918 17.8453C119.773 17.2818 118.416 17 116.847 17C115.294 17 113.961 17.2739 112.847 17.8218C111.733 18.3697 110.816 19.0663 110.094 19.9116C109.373 20.7413 108.839 21.657 108.494 22.6588C108.165 23.6607 108 24.6077 108 25.5ZM110.306 25.5C110.306 24.4042 110.471 23.4024 110.8 22.4945C111.145 21.5709 111.608 20.7804 112.188 20.1229C112.784 19.4655 113.482 18.9567 114.282 18.5967C115.082 18.221 115.953 18.0331 116.894 18.0331C117.82 18.0331 118.69 18.221 119.506 18.5967C120.337 18.9567 121.059 19.4655 121.671 20.1229C122.298 20.7804 122.792 21.5709 123.153 22.4945C123.514 23.4024 123.694 24.4042 123.694 25.5C123.694 26.5958 123.514 27.6054 123.153 28.529C122.792 29.4369 122.298 30.2196 121.671 30.8771C121.059 31.5345 120.337 32.0511 119.506 32.4268C118.69 32.7868 117.82 32.9669 116.894 32.9669C115.953 32.9669 115.082 32.7868 114.282 32.4268C113.482 32.0511 112.784 31.5345 112.188 30.8771C111.608 30.2196 111.145 29.4369 110.8 28.529C110.471 27.6054 110.306 26.5958 110.306 25.5Z" fill="#292929"/>
<path fill-rule="evenodd" clip-rule="evenodd" d="M116.84 17C115.15 17 113.662 17.2832 112.397 17.8739C111.171 18.447 110.145 19.1829 109.332 20.0861C108.531 20.9614 107.935 21.9325 107.549 22.997L107.546 23.0048C107.186 24.0452 107 25.0447 107 26C107 26.9408 107.186 27.9327 107.546 28.972L107.55 28.9824C107.936 30.0311 108.532 31.0002 109.331 31.8886C110.142 32.7912 111.166 33.5345 112.391 34.1232L112.397 34.1261C113.662 34.7168 115.15 35 116.84 35C117.985 35 119.035 34.8706 119.984 34.604L119.991 34.602C120.937 34.3247 121.791 33.9549 122.547 33.4888C123.31 33.0286 123.975 32.4988 124.538 31.8979L124.544 31.8919C125.097 31.2859 125.551 30.6498 125.903 29.9835C126.265 29.314 126.535 28.6387 126.711 27.9582C126.902 27.2827 127 26.6293 127 26C127 25.0523 126.795 24.0625 126.399 23.0347C125.995 21.9689 125.372 20.9909 124.538 20.1021C123.692 19.2002 122.626 18.4664 121.353 17.8951C120.058 17.2909 118.547 17 116.84 17ZM112.94 18.9168C113.428 18.6889 113.966 18.5109 114.555 18.3852C114.336 18.4575 114.12 18.5406 113.909 18.6347C112.998 19.0245 112.203 19.5757 111.527 20.2843L111.521 20.2901C110.861 21.0008 110.342 21.8471 109.959 22.8201L109.957 22.8253C109.586 23.7959 109.405 24.8562 109.405 26C109.405 27.1439 109.586 28.2108 109.956 29.195L109.96 29.2062C110.343 30.1637 110.862 31.001 111.521 31.7099L111.527 31.7156C112.203 32.4235 112.996 32.9816 113.904 33.3866L113.913 33.3905C114.082 33.4623 114.252 33.5275 114.426 33.5861C113.888 33.4628 113.394 33.2951 112.943 33.0846C111.847 32.5573 110.958 31.9057 110.265 31.1346C109.559 30.3501 109.043 29.507 108.71 28.6042C108.384 27.661 108.227 26.7941 108.227 26C108.227 25.189 108.384 24.3138 108.71 23.3712C109.044 22.4536 109.559 21.6126 110.261 20.8462L110.265 20.8421C110.957 20.0718 111.845 19.4285 112.94 18.9168ZM119.864 18.6321C119.708 18.5641 119.551 18.5018 119.391 18.4453C119.903 18.5701 120.377 18.7355 120.815 18.9401L120.824 18.9442C121.969 19.4578 122.898 20.1032 123.621 20.8746C124.358 21.6599 124.897 22.511 125.245 23.4292L125.246 23.4319C125.602 24.3571 125.773 25.2117 125.773 26C125.773 26.5159 125.692 27.0697 125.524 27.6633L125.522 27.6697L125.521 27.6762C125.369 28.2639 125.133 28.857 124.81 29.4559L124.807 29.4609C124.505 30.0329 124.11 30.5888 123.619 31.1282C123.136 31.6418 122.56 32.1027 121.885 32.5095L121.88 32.5128C121.23 32.9136 120.483 33.2406 119.632 33.49L119.571 33.5069C119.669 33.4707 119.765 33.4325 119.862 33.3922L119.867 33.3901C120.806 32.9871 121.624 32.4312 122.318 31.7238C123.029 31.0153 123.585 30.1763 123.987 29.2143L123.989 29.2112C124.396 28.2224 124.595 27.1499 124.595 26C124.595 24.8509 124.396 23.7854 123.988 22.8106C123.586 21.8337 123.031 20.986 122.318 20.2761C121.624 19.5685 120.804 19.0198 119.864 18.6321ZM110.8 22.4945C110.471 23.4024 110.306 24.4042 110.306 25.5C110.306 26.5958 110.471 27.6054 110.8 28.529C111.145 29.4369 111.608 30.2196 112.188 30.8771C112.784 31.5345 113.482 32.0511 114.282 32.4268C115.082 32.7868 115.953 32.9669 116.894 32.9669C117.82 32.9669 118.69 32.7868 119.506 32.4268C120.337 32.0511 121.059 31.5345 121.671 30.8771C122.298 30.2196 122.792 29.4369 123.153 28.529C123.514 27.6054 123.694 26.5958 123.694 25.5C123.694 24.4042 123.514 23.4024 123.153 22.4945C122.792 21.5709 122.298 20.7804 121.671 20.1229C121.059 19.4655 120.337 18.9567 119.506 18.5967C118.69 18.221 117.82 18.0331 116.894 18.0331C115.953 18.0331 115.082 18.221 114.282 18.5967C113.482 18.9567 112.784 19.4655 112.188 20.1229C111.608 20.7804 111.145 21.5709 110.8 22.4945Z" fill="#292929"/>
<path fill-rule="evenodd" clip-rule="evenodd" d="M110.306 25.5C110.306 24.4042 110.471 23.4024 110.8 22.4945C111.145 21.5709 111.608 20.7804 112.188 20.1229C112.784 19.4655 113.482 18.9567 114.282 18.5967C115.082 18.221 115.953 18.0331 116.894 18.0331C117.82 18.0331 118.69 18.221 119.506 18.5967C120.337 18.9567 121.059 19.4655 121.671 20.1229C122.298 20.7804 122.792 21.5709 123.153 22.4945C123.514 23.4024 123.694 24.4042 123.694 25.5C123.694 26.5958 123.514 27.6054 123.153 28.529C122.792 29.4369 122.298 30.2196 121.671 30.8771C121.059 31.5345 120.337 32.0511 119.506 32.4268C118.69 32.7868 117.82 32.9669 116.894 32.9669C115.953 32.9669 115.082 32.7868 114.282 32.4268C113.482 32.0511 112.784 31.5345 112.188 30.8771C111.608 30.2196 111.145 29.4369 110.8 28.529C110.471 27.6054 110.306 26.5958 110.306 25.5ZM116.89 19.186C115.992 19.186 115.174 19.3555 114.427 19.6888L114.418 19.6929C113.663 20.0156 113.004 20.4705 112.439 21.0616C111.891 21.6521 111.446 22.3699 111.11 23.2238C110.794 24.0509 110.632 24.9743 110.632 26C110.632 27.0243 110.794 27.9557 111.11 28.7994C111.445 29.6366 111.89 30.3469 112.439 30.9384C113.005 31.5303 113.665 31.994 114.422 32.3324C115.171 32.6514 115.99 32.814 116.89 32.814C117.772 32.814 118.594 32.6517 119.363 32.3298C120.156 31.9891 120.84 31.523 121.422 30.93L121.427 30.9246C122.023 30.3317 122.497 29.6218 122.846 28.7872C123.192 27.947 123.368 27.02 123.368 26C123.368 24.9792 123.191 24.0608 122.847 23.2376L122.846 23.2344C122.496 22.3837 122.021 21.6669 121.427 21.0754L121.422 21.0701C120.842 20.4782 120.159 20.021 119.369 19.6961L119.363 19.6935L119.356 19.6907C118.589 19.3549 117.769 19.186 116.89 19.186Z" fill="#292929"/>
</svg>
