<svg width="99" height="50" viewBox="0 0 99 50" fill="none" xmlns="http://www.w3.org/2000/svg">
<path opacity="0.3" fill-rule="evenodd" clip-rule="evenodd" d="M3.59402 16.5347C3.35054 17.332 2.91447 19.4243 2.7918 20.3844C2.74905 20.7178 2.6564 20.9904 2.58563 20.9904C2.515 20.9904 2.45709 21.3112 2.45709 21.7033C2.45709 22.0954 2.39276 22.4162 2.31412 22.4162C2.23548 22.4162 2.17115 22.705 2.17115 23.0579C2.17115 23.4107 2.10681 23.6995 2.02817 23.6995C1.94954 23.6995 1.8852 24.0075 1.8852 24.3839C1.8852 24.7603 1.82744 25.1293 1.75681 25.2037C1.68632 25.2783 1.59496 25.5958 1.55407 25.9095C1.51304 26.2232 1.41782 26.7365 1.34247 27.0502C1.11157 28.011 0.428436 31.1472 0.302047 31.8267C0.236422 32.1796 0.125188 32.7754 0.0549876 33.1507C-0.0152126 33.526 -0.018644 33.8662 0.0472671 33.907C0.113178 33.9476 2.1883 33.9757 4.65846 33.9694C8.28757 33.9603 9.2964 33.9153 9.9139 33.7349C10.3342 33.6123 10.7391 33.4534 10.8139 33.3821C10.8886 33.3108 11.0656 33.2525 11.2071 33.2525C11.3486 33.2525 11.4645 33.1884 11.4645 33.1099C11.4645 33.0315 11.5673 32.9674 11.6931 32.9674C11.8187 32.9674 12.102 32.7749 12.3223 32.5396C12.5426 32.3043 12.769 32.1119 12.825 32.1119C12.9963 32.1119 13.895 31.0706 13.895 30.8721C13.895 30.7697 13.9433 30.6855 14.0022 30.6849C14.1474 30.6835 14.4669 29.9781 14.4669 29.6596C14.4669 29.5183 14.5312 29.4028 14.6099 29.4028C14.6885 29.4028 14.7529 29.1461 14.7529 28.8325C14.7529 28.5188 14.8172 28.2621 14.8958 28.2621C14.9745 28.2621 15.0388 27.9734 15.0388 27.6205C15.0388 27.2676 14.9745 26.9789 14.8958 26.9789C14.8172 26.9789 14.7529 26.7864 14.7529 26.5511C14.7529 26.3159 14.6885 26.1234 14.6099 26.1234C14.5312 26.1234 14.4669 26.0226 14.4669 25.8994C14.4669 25.6141 14.2367 25.3872 13.4288 24.8764C12.9042 24.5446 12.8067 24.4208 12.9162 24.2256C12.9906 24.0931 13.1447 23.9846 13.2588 23.9846C13.3727 23.9846 13.4661 23.9205 13.4661 23.8421C13.4661 23.7636 13.5321 23.6995 13.6128 23.6995C13.8438 23.6995 15.0388 22.448 15.0388 22.2061C15.0388 22.0864 15.1031 21.9885 15.1818 21.9885C15.2604 21.9885 15.3248 21.873 15.3248 21.7318C15.3248 21.5907 15.403 21.3972 15.4988 21.3017C15.7577 21.0434 15.7345 18.6143 15.4674 18.0318C15.3505 17.777 15.2064 17.5684 15.1469 17.5684C15.0874 17.5684 15.0388 17.4997 15.0388 17.4157C15.0388 17.1884 14.6624 16.8555 14.4056 16.8555C14.282 16.8555 14.181 16.7913 14.181 16.7129C14.181 16.6345 14.0523 16.5703 13.895 16.5703C13.7377 16.5703 13.6091 16.5062 13.6091 16.4277C13.6091 16.3493 13.3195 16.2852 12.9657 16.2852C12.6118 16.2852 12.3223 16.221 12.3223 16.1426C12.3223 16.0508 10.7995 16 8.0398 16H3.7573L3.59402 16.5347ZM25.4382 16.3184C25.2995 16.4915 25.1069 16.8114 25.0101 17.0294C24.9133 17.2475 24.7856 17.4258 24.7262 17.4258C24.6667 17.4258 24.6181 17.5542 24.6181 17.711C24.6181 17.8678 24.5537 17.9962 24.4751 17.9962C24.3965 17.9962 24.3321 18.0924 24.3321 18.21C24.3321 18.3277 24.2678 18.4239 24.1891 18.4239C24.1105 18.4239 24.0462 18.5522 24.0462 18.7091C24.0462 18.8659 23.9897 18.9942 23.9205 18.9942C23.8514 18.9942 23.7149 19.1867 23.6172 19.422C23.5196 19.6573 23.3831 19.8497 23.314 19.8497C23.2448 19.8497 23.1883 19.9728 23.1883 20.1231C23.1883 20.2734 23.1337 20.4176 23.0671 20.4439C22.9538 20.4882 22.3352 21.5133 21.9848 22.2369C21.8997 22.4127 21.7817 22.5571 21.7228 22.5577C21.6639 22.5582 21.6156 22.673 21.6156 22.8125C21.6156 22.9521 21.4869 23.1587 21.3297 23.2717C21.1724 23.3848 21.0437 23.5914 21.0437 23.731C21.0437 23.8704 20.9794 23.9846 20.9007 23.9846C20.8221 23.9846 20.7578 24.113 20.7578 24.2698C20.7578 24.4266 20.6934 24.555 20.6148 24.555C20.5362 24.555 20.4718 24.6458 20.4718 24.757C20.4718 24.8681 20.4235 24.9803 20.3646 25.0065C20.3057 25.0326 20.0693 25.4069 19.8397 25.8382C19.61 26.2695 19.3848 26.6545 19.3393 26.6937C19.2013 26.8126 18.7437 27.604 18.6592 27.87C18.6154 28.0072 18.5229 28.1195 18.4535 28.1195C18.3841 28.1195 18.3272 28.2158 18.3272 28.3334C18.3272 28.451 18.2629 28.5473 18.1842 28.5473C18.1056 28.5473 18.0413 28.6756 18.0413 28.8325C18.0413 28.9893 17.9769 29.1176 17.8983 29.1176C17.8197 29.1176 17.7553 29.2459 17.7553 29.4028C17.7553 29.5596 17.7033 29.688 17.6396 29.688C17.5762 29.688 17.317 30.0726 17.0639 30.5429C16.6075 31.3907 16.0348 32.3091 15.7557 32.6406C15.6759 32.7352 15.6107 32.9118 15.6107 33.0327C15.6107 33.1536 15.5464 33.2525 15.4677 33.2525C15.3891 33.2525 15.3248 33.3488 15.3248 33.4664C15.3248 33.584 15.2604 33.6803 15.1818 33.6803C15.1031 33.6803 15.0388 33.7444 15.0388 33.8229C15.0388 33.9074 15.5675 33.9654 16.339 33.9654C17.5188 33.9654 17.6461 33.9391 17.7139 33.6803C17.755 33.5234 17.8455 33.3951 17.915 33.3951C17.9844 33.3951 18.0413 33.2989 18.0413 33.1812C18.0413 33.0636 18.1056 32.9674 18.1842 32.9674C18.2629 32.9674 18.3272 32.839 18.3272 32.6822C18.3272 32.5254 18.3915 32.397 18.4702 32.397C18.5488 32.397 18.6132 32.2687 18.6132 32.1119C18.6132 31.955 18.6619 31.8267 18.7215 31.8267C18.7813 31.8267 19.0868 31.3461 19.4007 30.7585C19.7146 30.171 20.0197 29.6898 20.0786 29.6891C20.1375 29.6885 20.1859 29.5871 20.1859 29.464C20.1859 28.8729 20.4369 28.8325 24.1075 28.8325C27.5252 28.8325 27.6205 28.8402 27.6205 29.1176C27.6205 29.2745 27.68 29.4028 27.7526 29.4028C27.8253 29.4028 27.9198 29.9001 27.9628 30.5078C28.0057 31.1155 28.091 32.1261 28.1524 32.7535L28.2639 33.8942L29.5864 33.9352L30.9089 33.9761V33.1867C30.9089 32.7523 30.8446 32.397 30.7659 32.397C30.6843 32.397 30.623 31.9693 30.623 31.3989C30.623 30.8286 30.5616 30.4009 30.48 30.4009C30.3998 30.4009 30.337 30.0063 30.337 29.5026C30.337 29.0085 30.2781 28.5434 30.2061 28.4689C30.1341 28.3944 30.0406 27.9484 29.9983 27.4779C29.9561 27.0074 29.8602 26.2054 29.7853 25.6956C29.7102 25.1859 29.5797 24.298 29.4949 23.7226C29.1974 21.7016 28.7597 18.9151 28.6198 18.1506C28.542 17.7258 28.4784 17.1598 28.4784 16.8929C28.4784 16.1346 28.2363 15.9997 26.8801 16.0019C25.8259 16.0036 25.6616 16.0396 25.4382 16.3184ZM37.3785 16.2107C37.2803 16.3235 37.1998 16.643 37.1998 16.9208C37.1998 17.1986 37.1354 17.4258 37.0568 17.4258C36.9782 17.4258 36.9138 17.7146 36.9138 18.0675C36.9138 18.4203 36.8495 18.7091 36.7709 18.7091C36.6922 18.7091 36.6279 19.0299 36.6279 19.422C36.6279 19.8141 36.5635 20.1349 36.4849 20.1349C36.4063 20.1349 36.3419 20.3924 36.3419 20.7072C36.3419 21.0219 36.2836 21.3909 36.2123 21.5271C36.1409 21.6633 35.9796 22.32 35.8541 22.9866C35.7284 23.6531 35.4599 24.9364 35.2575 25.8382C34.5222 29.1131 34.341 30.013 34.2456 30.8643C34.2039 31.2368 34.1115 31.5415 34.0405 31.5415C33.9696 31.5415 33.9114 31.8623 33.9114 32.2544C33.9114 32.6465 33.847 32.9674 33.7684 32.9674C33.6898 32.9674 33.6254 33.1919 33.6254 33.4664V33.9654H34.8407H36.056V33.5461C36.056 33.3154 36.1203 33.0871 36.199 33.0387C36.2776 32.9902 36.3419 32.6694 36.3419 32.3257C36.3419 31.9821 36.4063 31.6613 36.4849 31.6128C36.5635 31.5643 36.6279 31.2398 36.6279 30.8915C36.6279 30.5432 36.6922 30.2583 36.7709 30.2583C36.8495 30.2583 36.9138 29.9375 36.9138 29.5454C36.9138 29.1533 36.9782 28.8325 37.0568 28.8325C37.1354 28.8325 37.1998 28.5476 37.1998 28.1992C37.1998 27.8509 37.2641 27.5264 37.3427 27.4779C37.4214 27.4294 37.4857 27.1691 37.4857 26.8992V26.4085H41.203C43.586 26.4085 44.9204 26.4597 44.9204 26.5511C44.9204 26.6296 45.0057 26.6937 45.11 26.6937C45.3727 26.6937 45.9212 27.3024 45.9212 27.594C45.9212 27.7263 45.9855 27.8344 46.0642 27.8344C46.1428 27.8344 46.2071 28.1231 46.2071 28.476C46.2071 28.8289 46.1428 29.1176 46.0642 29.1176C45.9855 29.1176 45.9212 29.4346 45.9212 29.8221C45.9212 30.2097 45.8654 30.561 45.7972 30.6031C45.6867 30.6712 45.5167 32.0235 45.4464 33.3951L45.4208 33.8942L46.7683 33.9355C48.5353 33.9897 48.6028 33.9597 48.1946 33.301C47.8466 32.7395 47.8501 32.6734 48.3802 29.688C48.6088 28.4001 48.676 26.5819 48.5024 26.3779C48.4167 26.2771 48.2351 26.0619 48.0988 25.8997C47.9627 25.7373 47.7387 25.5629 47.6011 25.512C47.2305 25.375 47.2975 25.0767 47.7441 24.8735C48.1956 24.6682 49.2096 23.7887 49.2096 23.6024C49.2096 23.5335 49.3383 23.3848 49.4955 23.2717C49.6528 23.1587 49.7815 22.9521 49.7815 22.8125C49.7815 22.673 49.8458 22.5588 49.9245 22.5588C50.0031 22.5588 50.0674 22.4305 50.0674 22.2736C50.0674 22.1168 50.1248 21.9885 50.1948 21.9885C50.3531 21.9885 50.4972 21.2285 50.5896 19.9062C50.6492 19.0536 50.6086 18.7829 50.3327 18.1952C49.9628 17.4077 49.4732 16.8555 49.1445 16.8555C49.023 16.8555 48.9236 16.7913 48.9236 16.7129C48.9236 16.6345 48.7306 16.5703 48.4947 16.5703C48.2588 16.5703 48.0658 16.5123 48.0658 16.4416C48.0658 16.2066 46.6118 16.1141 42.0609 16.0596C38.2741 16.0143 37.5288 16.0384 37.3785 16.2107ZM60.2144 16.3027C60.0988 16.4691 59.9238 16.6891 59.8254 16.7915C59.7272 16.8939 59.6467 17.0785 59.6467 17.2018C59.6467 17.325 59.5824 17.4258 59.5037 17.4258C59.4251 17.4258 59.3607 17.5221 59.3607 17.6397C59.3607 17.7573 59.2964 17.8536 59.2178 17.8536C59.1391 17.8536 59.0748 17.9819 59.0748 18.1387C59.0748 18.2956 59.0105 18.4239 58.9318 18.4239C58.8532 18.4239 58.7889 18.508 58.7889 18.6108C58.7889 18.7138 58.6602 18.9356 58.5029 19.104C58.3456 19.2723 58.217 19.4796 58.217 19.5646C58.217 19.6497 58.1505 19.7967 58.0691 19.8914C57.8286 20.1717 56.9302 21.7271 56.9302 21.8632C56.9302 21.9322 56.8658 21.9885 56.7872 21.9885C56.7086 21.9885 56.6442 22.1027 56.6442 22.2421C56.6442 22.3817 56.5156 22.5883 56.3583 22.7014C56.201 22.8145 56.0723 23.0211 56.0723 23.1607C56.0723 23.3001 56.008 23.4143 55.9294 23.4143C55.8507 23.4143 55.7864 23.5426 55.7864 23.6995C55.7864 23.8563 55.7221 23.9846 55.6434 23.9846C55.5648 23.9846 55.5004 24.0809 55.5004 24.1985C55.5004 24.3161 55.4361 24.4124 55.3575 24.4124C55.2788 24.4124 55.2145 24.5407 55.2145 24.6976C55.2145 24.8544 55.1545 24.9827 55.0811 24.9827C55.0078 24.9827 54.9085 25.1062 54.8605 25.257C54.8125 25.408 54.6177 25.7598 54.4279 26.039C54.0611 26.5779 53.4103 27.6942 53.1531 28.2253C53.068 28.4011 52.9502 28.5456 52.8912 28.5462C52.8321 28.5467 52.7839 28.6756 52.7839 28.8325C52.7839 28.9893 52.7196 29.1176 52.641 29.1176C52.5623 29.1176 52.498 29.2017 52.498 29.3046C52.498 29.4075 52.3693 29.6294 52.212 29.7977C52.0548 29.966 51.9261 30.2027 51.9261 30.3236C51.9261 30.4445 51.8618 30.5435 51.7831 30.5435C51.7045 30.5435 51.6401 30.5998 51.6401 30.6688C51.6401 30.8048 50.7417 32.3602 50.5012 32.6406C50.4199 32.7352 50.352 32.8636 50.3502 32.9257C50.3485 32.9879 50.2213 33.1991 50.0674 33.3951C49.9136 33.5912 49.7864 33.7996 49.7846 33.8585C49.7809 33.9858 51.9461 34.0035 52.2718 33.8789C52.3962 33.8313 52.498 33.6709 52.498 33.5224C52.498 33.374 52.5623 33.2525 52.641 33.2525C52.7196 33.2525 52.7839 33.1684 52.7839 33.0656C52.7839 32.9627 52.9126 32.7408 53.0699 32.5724C53.2272 32.4042 53.3558 32.1675 53.3558 32.0466C53.3558 31.9256 53.4202 31.8267 53.4988 31.8267C53.5774 31.8267 53.6418 31.7678 53.6418 31.696C53.6418 31.6239 53.9313 31.0767 54.2852 30.4799C54.639 29.883 54.9286 29.3597 54.9286 29.3172C54.9286 29.2746 55.0205 29.1481 55.1329 29.0362C55.2987 28.8707 55.994 28.8325 58.8345 28.8325H62.3319L62.4308 29.3671C62.4852 29.6613 62.5615 30.3992 62.6002 31.0068C62.6391 31.6145 62.7274 32.1119 62.7961 32.1119C62.865 32.1119 62.9407 32.513 62.964 33.003L63.0066 33.8942L64.3291 33.9352L65.6516 33.9761V33.3292C65.6516 32.9733 65.5873 32.6822 65.5086 32.6822C65.427 32.6822 65.3657 32.2544 65.3657 31.6841C65.3657 31.1352 65.3066 30.686 65.2344 30.686C65.1622 30.686 65.0676 30.2529 65.0241 29.7236C64.856 27.6754 64.7765 27.04 64.6538 26.765C64.5839 26.6082 64.4902 26.1269 64.4458 25.6956C64.3392 24.6633 64.1284 23.1065 63.9627 22.1311C63.8894 21.6997 63.6847 20.3203 63.5077 19.0655C63.3307 17.8108 63.1217 16.6077 63.0432 16.3921C62.9024 16.0056 62.8831 16 61.6625 16C60.5623 16 60.4013 16.0337 60.2144 16.3027ZM71.8352 16.2133C71.737 16.3247 71.6565 16.5789 71.6565 16.7782C71.6565 16.9775 71.5922 17.1407 71.5135 17.1407C71.4349 17.1407 71.3706 17.4615 71.3706 17.8536C71.3706 18.2457 71.3062 18.5665 71.2276 18.5665C71.149 18.5665 71.0846 18.8552 71.0846 19.2081C71.0846 19.561 71.0264 19.8497 70.9555 19.8497C70.8844 19.8497 70.7957 20.1544 70.7581 20.527C70.6953 21.1512 70.4727 22.2233 69.655 25.8382C69.4864 26.5832 69.3129 27.4975 69.2691 27.87C69.2254 28.2426 69.1334 28.5473 69.0648 28.5473C68.9962 28.5473 68.94 28.8681 68.94 29.2602C68.94 29.6523 68.8757 29.9731 68.797 29.9731C68.7184 29.9731 68.6541 30.2619 68.6541 30.6147C68.6541 30.9676 68.5897 31.2564 68.5111 31.2564C68.4324 31.2564 68.3681 31.5772 68.3681 31.9693C68.3681 32.3614 68.3038 32.6822 68.2251 32.6822C68.1465 32.6822 68.0822 32.9657 68.0822 33.3121V33.9421L69.1054 33.9894C69.6682 34.0155 70.2082 33.9726 70.3055 33.8942C70.4798 33.7537 70.5965 33.3044 70.7499 32.1832C70.7928 31.8695 70.8857 31.5518 70.9562 31.4774C71.0269 31.4028 71.0846 31.0699 71.0846 30.7372C71.0846 30.4046 71.149 30.0929 71.2276 30.0444C71.3062 29.9959 71.3706 29.6393 71.3706 29.2518C71.3706 28.8643 71.4349 28.5473 71.5135 28.5473C71.5922 28.5473 71.6565 28.3783 71.6565 28.1719C71.6565 27.8034 71.8103 27.6205 72.6 27.0502C72.8172 26.8933 73.1412 26.6207 73.32 26.4442C73.4989 26.2677 73.7125 26.1234 73.7947 26.1234C73.8769 26.1234 73.9441 26.0592 73.9441 25.9808C73.9441 25.9024 74.0264 25.8382 74.127 25.8382C74.2276 25.8382 74.4026 25.7099 74.516 25.5531C74.9213 24.9923 75.1482 25.2121 76.0244 27.0145C76.4913 27.9753 76.9221 28.7826 76.9814 28.8086C77.0409 28.8349 77.0895 28.9792 77.0895 29.1295C77.0895 29.2797 77.1539 29.4028 77.2325 29.4028C77.3111 29.4028 77.3755 29.5311 77.3755 29.688C77.3755 29.8448 77.4398 29.9731 77.5184 29.9731C77.5971 29.9731 77.6614 30.1335 77.6614 30.3296C77.6614 30.5256 77.7258 30.686 77.8044 30.686C77.883 30.686 77.9474 30.8144 77.9474 30.9712C77.9474 31.128 78.0117 31.2564 78.0903 31.2564C78.169 31.2564 78.2333 31.3847 78.2333 31.5415C78.2333 31.6984 78.2976 31.8267 78.3763 31.8267C78.4549 31.8267 78.5193 31.955 78.5193 32.1119C78.5193 32.2687 78.5836 32.397 78.6622 32.397C78.7409 32.397 78.8052 32.4871 78.8052 32.5974C78.8052 32.7077 78.9436 33.0565 79.1129 33.3726L79.4206 33.9475L80.8643 33.9921C81.7081 34.0182 82.3501 33.978 82.4093 33.8956C82.4649 33.8179 82.4166 33.6116 82.3021 33.4372C82.1874 33.2627 82.0936 33.0215 82.0936 32.9011C82.0936 32.7807 82.0293 32.6822 81.9506 32.6822C81.872 32.6822 81.8077 32.5539 81.8077 32.397C81.8077 32.2402 81.7433 32.1119 81.6647 32.1119C81.5861 32.1119 81.5217 31.9835 81.5217 31.8267C81.5217 31.6699 81.4574 31.5415 81.3787 31.5415C81.3001 31.5415 81.2358 31.4132 81.2358 31.2564C81.2358 31.0995 81.1714 30.9712 81.0928 30.9712C81.0142 30.9712 80.9498 30.8482 80.9498 30.6979C80.9498 30.5476 80.9016 30.4033 80.8426 30.3771C80.7835 30.351 80.092 29.0463 79.3056 27.4779C78.5193 25.9095 77.8277 24.6049 77.7686 24.5788C77.7096 24.5526 77.6614 24.4083 77.6614 24.258C77.6614 24.1075 77.5971 23.9846 77.5184 23.9846C77.2395 23.9846 77.3808 23.2535 77.7265 22.9089C77.9195 22.7164 78.1321 22.5588 78.1989 22.5588C78.2658 22.5588 78.5487 22.3502 78.8278 22.0954C79.1067 21.8406 79.5139 21.5037 79.7325 21.3469C79.9511 21.19 80.3445 20.8531 80.6067 20.5983C80.8687 20.3435 81.1497 20.1349 81.231 20.1349C81.3123 20.1349 81.3787 20.0707 81.3787 19.9923C81.3787 19.9139 81.4611 19.8497 81.5616 19.8497C81.6623 19.8497 81.8373 19.7214 81.9506 19.5646C82.064 19.4077 82.2098 19.2794 82.2746 19.2794C82.3395 19.2794 82.5395 19.135 82.7193 18.9586C83.1027 18.582 83.799 18.0133 84.2468 17.711C84.4211 17.5934 84.7126 17.3528 84.8949 17.1763C85.0771 16.9998 85.2696 16.8555 85.323 16.8555C85.4534 16.8555 85.9539 16.2726 85.9539 16.1208C85.9539 16.0543 85.2603 16 84.4128 16C83.0357 16 82.8497 16.0304 82.6655 16.2852C82.5521 16.442 82.4094 16.5703 82.3484 16.5703C82.2872 16.5703 81.9985 16.7949 81.7067 17.0694C81.4149 17.3438 81.1321 17.5684 81.0781 17.5684C81.0242 17.5684 80.7858 17.7494 80.5485 17.9705C80.3111 18.1916 79.8758 18.5605 79.5811 18.7903C79.2865 19.02 78.8325 19.4167 78.5726 19.6715C78.3125 19.9263 78.0334 20.1349 77.9522 20.1349C77.8712 20.1349 77.5312 20.4001 77.1969 20.7242C76.8626 21.0484 76.3639 21.4813 76.0887 21.6862C75.8135 21.8912 75.4177 22.2356 75.2093 22.4514C75.0008 22.6673 74.7573 22.844 74.6683 22.844C74.5793 22.844 74.2937 23.0526 74.0336 23.3074C73.2808 24.0452 72.6698 24.555 72.5382 24.555C72.4001 24.555 72.4819 24.0544 73.0156 21.632C73.2231 20.691 73.4581 19.6002 73.538 19.2081C73.618 18.816 73.7467 18.2065 73.8241 17.8536C73.9015 17.5007 73.9988 16.9393 74.0403 16.606L74.1158 16L73.0649 16.0054C72.3419 16.0091 71.9582 16.074 71.8352 16.2133ZM93.7103 16.0944C93.612 16.134 93.5315 16.2431 93.5315 16.3369C93.5315 16.4306 93.4029 16.5998 93.2456 16.7129C93.0883 16.826 92.9596 17.0326 92.9596 17.1722C92.9596 17.3116 92.8953 17.4258 92.8167 17.4258C92.738 17.4258 92.6737 17.4821 92.6737 17.5512C92.6737 17.6872 91.7752 19.2426 91.5348 19.5229C91.4534 19.6176 91.3869 19.7941 91.3869 19.915C91.3869 20.036 91.3226 20.1349 91.2439 20.1349C91.1653 20.1349 91.101 20.2311 91.101 20.3488C91.101 20.4664 91.0366 20.5627 90.958 20.5627C90.8794 20.5627 90.815 20.6589 90.815 20.7765C90.815 20.8942 90.7507 20.9904 90.6721 20.9904C90.5934 20.9904 90.5291 21.1187 90.5291 21.2756C90.5291 21.4324 90.4647 21.5607 90.3861 21.5607C90.3075 21.5607 90.2431 21.657 90.2431 21.7746C90.2431 21.8922 90.1788 21.9885 90.1002 21.9885C90.0215 21.9885 89.9572 22.1168 89.9572 22.2736C89.9572 22.4305 89.9007 22.5588 89.8315 22.5588C89.7625 22.5588 89.6216 22.7617 89.5187 23.0095C89.4157 23.2575 89.1324 23.7547 88.889 24.1145C88.6458 24.4744 88.288 25.0735 88.0941 25.4461C87.9002 25.8187 87.6932 26.1234 87.6341 26.1234C87.575 26.1234 87.5266 26.2517 87.5266 26.4085C87.5266 26.5654 87.4623 26.6937 87.3836 26.6937C87.305 26.6937 87.2407 26.79 87.2407 26.9076C87.2407 27.0252 87.1763 27.1215 87.0977 27.1215C87.0191 27.1215 86.9547 27.2498 86.9547 27.4066C86.9547 27.5635 86.8978 27.6918 86.8285 27.6918C86.759 27.6918 86.6665 27.804 86.6227 27.9413C86.548 28.1767 86.1599 28.8556 85.9133 29.1829C85.6517 29.5301 84.8101 31.0163 84.8101 31.131C84.8101 31.2 84.7458 31.2564 84.6671 31.2564C84.5885 31.2564 84.5242 31.3706 84.5242 31.51C84.5242 31.6496 84.3955 31.8562 84.2382 31.9693C84.081 32.0824 83.9523 32.289 83.9523 32.4285C83.9523 32.568 83.8879 32.6822 83.8093 32.6822C83.7307 32.6822 83.6663 32.8105 83.6663 32.9674C83.6663 33.1242 83.602 33.2525 83.5234 33.2525C83.4447 33.2525 83.3804 33.3488 83.3804 33.4664C83.3804 33.584 83.3032 33.6803 83.2088 33.6803C83.0897 33.6803 83.0829 33.7258 83.1864 33.829C83.273 33.9154 83.8272 33.9602 84.5102 33.9359L85.685 33.8942L86.0696 33.1812C86.2812 32.7891 86.5025 32.4469 86.5615 32.4208C86.6206 32.3946 86.6688 32.2503 86.6688 32.1C86.6688 31.9497 86.7331 31.8267 86.8117 31.8267C86.8904 31.8267 86.9547 31.7305 86.9547 31.6128C86.9547 31.4952 87.0191 31.3989 87.0977 31.3989C87.1763 31.3989 87.2407 31.2706 87.2407 31.1138C87.2407 30.9569 87.2889 30.8276 87.3479 30.8263C87.407 30.8252 87.6126 30.5044 87.805 30.1134C87.9974 29.7226 88.2022 29.4028 88.2599 29.4028C88.3178 29.4028 88.4061 29.2745 88.456 29.1176C88.5435 28.8426 88.6723 28.8325 92.0961 28.8325C95.3426 28.8325 95.6543 28.8537 95.7469 29.082C95.8553 29.3486 96.0726 31.1183 96.1979 32.7532C96.2399 33.3019 96.3488 33.7982 96.4399 33.8559C96.531 33.9138 97.1442 33.962 97.8027 33.9633L99 33.9654L98.9196 33.2169C98.8755 32.8052 98.7742 32.0513 98.6947 31.5415C97.8014 25.8107 97.5465 24.0802 97.4454 23.0579C97.3988 22.5873 97.3033 22.1415 97.2333 22.0669C97.1632 21.9925 97.1059 21.5272 97.1059 21.0332C97.1059 20.5294 97.0431 20.1349 96.9629 20.1349C96.8813 20.1349 96.8199 19.7072 96.8199 19.1368C96.8199 18.5665 96.7586 18.1387 96.677 18.1387C96.5973 18.1387 96.534 17.7552 96.534 17.2731C96.534 16.1049 96.4036 15.9971 95.0072 16.0113C94.3922 16.0174 93.8086 16.0549 93.7103 16.0944ZM11.7979 18.4155C12.0993 18.5095 12.5433 18.7747 12.785 19.0049C13.1354 19.3389 13.2262 19.546 13.2338 20.0288C13.2436 20.6521 12.9051 21.9885 12.7374 21.9885C12.6855 21.9885 12.5629 22.181 12.4653 22.4162C12.357 22.6769 12.1826 22.844 12.0191 22.844C11.8712 22.844 11.7504 22.9081 11.7504 22.9866C11.7504 23.065 11.6217 23.1291 11.4645 23.1291C11.3072 23.1291 11.1785 23.186 11.1785 23.2556C11.1785 23.4974 10.2319 23.598 7.42544 23.6543L4.6017 23.7109V23.1433C4.6017 22.8311 4.66604 22.536 4.74468 22.4875C4.82331 22.439 4.88765 22.1503 4.88765 21.8459C4.88765 21.5415 4.95199 21.2528 5.03063 21.2043C5.10926 21.1558 5.1736 20.8313 5.1736 20.4829C5.1736 20.1346 5.23794 19.8497 5.31657 19.8497C5.39521 19.8497 5.45955 19.5583 5.45955 19.2021C5.45955 18.1181 5.44754 18.1221 8.53349 18.1872C10.0702 18.2197 11.4879 18.319 11.7979 18.4155ZM46.3225 18.303C47.6762 18.6344 48.1629 19.2989 48.0252 20.6284C47.9814 21.051 47.8166 21.6876 47.6589 22.0432C47.3406 22.7607 46.4799 23.6995 46.1404 23.6995C46.0198 23.6995 45.9212 23.7527 45.9212 23.8175C45.9212 23.8826 45.5946 24.0109 45.1955 24.1027C44.3337 24.301 38.2571 24.3337 38.1374 24.1406C38.0934 24.0695 38.217 23.3156 38.4122 22.4653C38.6074 21.6149 38.8364 20.5662 38.9213 20.1349C39.1369 19.0393 39.3573 18.3707 39.5433 18.2478C39.8052 18.0747 45.5822 18.1218 46.3225 18.303ZM26.5057 20.1822C26.5611 20.7444 26.6753 21.7817 26.7595 22.4875C26.8437 23.1933 26.9594 24.252 27.0165 24.8401C27.0735 25.4283 27.1686 25.9839 27.2278 26.0749C27.2871 26.1659 27.2963 26.3422 27.2482 26.467C27.1729 26.6629 26.8033 26.6937 24.5313 26.6937C21.9969 26.6937 21.9016 26.6834 21.9016 26.4085C21.9016 26.2517 21.9659 26.1234 22.0445 26.1234C22.1232 26.1234 22.1875 26.0244 22.1875 25.9035C22.1875 25.7826 22.254 25.6061 22.3353 25.5114C22.5758 25.2311 23.4743 23.6757 23.4743 23.5396C23.4743 23.4706 23.5386 23.4143 23.6172 23.4143C23.6959 23.4143 23.7602 23.286 23.7602 23.1291C23.7602 22.9723 23.8246 22.844 23.9032 22.844C23.9818 22.844 24.0462 22.7477 24.0462 22.6301C24.0462 22.5125 24.1105 22.4162 24.1891 22.4162C24.2678 22.4162 24.3321 22.32 24.3321 22.2024C24.3321 22.0847 24.3965 21.9885 24.4751 21.9885C24.5537 21.9885 24.6181 21.8602 24.6181 21.7033C24.6181 21.5465 24.6667 21.4181 24.7262 21.4181C24.7856 21.4181 24.9252 21.2096 25.0364 20.9548C25.1475 20.7 25.2759 20.4593 25.3215 20.4201C25.3671 20.3809 25.5298 20.1242 25.6832 19.8497C26.0155 19.255 26.2361 18.9979 26.3337 19.0916C26.3731 19.1294 26.4504 19.6202 26.5057 20.1822ZM61.2441 20.3766C61.3188 21.0671 61.413 22.1132 61.4535 22.7014C61.4938 23.2895 61.5863 23.8318 61.6591 23.9062C61.7318 23.9808 61.7913 24.5048 61.7913 25.0707C61.7913 25.7631 61.8494 26.119 61.9687 26.1586C62.0978 26.2015 62.0811 26.2825 61.9075 26.4556C61.7027 26.6599 61.3125 26.6937 59.1564 26.6937C56.9718 26.6937 56.6442 26.6646 56.6442 26.4704C56.6442 26.2333 56.9062 25.6723 57.0724 25.5531C57.1272 25.5138 57.4189 25.0167 57.7204 24.448C58.0221 23.8794 58.3215 23.4143 58.3858 23.4143C58.4503 23.4143 58.5029 23.286 58.5029 23.1291C58.5029 22.9723 58.5672 22.844 58.6459 22.844C58.7245 22.844 58.7889 22.7157 58.7889 22.5588C58.7889 22.402 58.8532 22.2736 58.9318 22.2736C59.0105 22.2736 59.0748 22.1828 59.0748 22.0716C59.0748 21.9605 59.123 21.8483 59.182 21.8221C59.2411 21.796 59.5077 21.3576 59.7748 20.8478C60.0419 20.3381 60.3007 19.8889 60.35 19.8497C60.3993 19.8105 60.5559 19.5964 60.698 19.3739C60.8401 19.1515 60.9905 19.0037 61.0323 19.0453C61.0741 19.0869 61.1694 19.6861 61.2441 20.3766ZM94.4489 19.8141C94.5778 20.8782 94.7594 22.3284 94.953 23.8421C95.0382 24.5086 95.1484 25.423 95.198 25.8739L95.288 26.6937H92.6225C90.0525 26.6937 89.9572 26.6834 89.9572 26.4085C89.9572 26.2517 90.0215 26.1234 90.1002 26.1234C90.1788 26.1234 90.2431 25.9951 90.2431 25.8382C90.2431 25.6814 90.3075 25.5531 90.3861 25.5531C90.4647 25.5531 90.5291 25.4247 90.5291 25.2679C90.5291 25.111 90.5934 24.9827 90.6721 24.9827C90.7507 24.9827 90.815 24.8865 90.815 24.7688C90.815 24.6512 90.8632 24.554 90.9223 24.5527C90.9813 24.5513 91.2204 24.1663 91.4535 23.6972C91.6867 23.228 91.9153 22.844 91.9615 22.844C92.0077 22.844 92.2029 22.5242 92.3953 22.1333C92.5878 21.7424 92.7934 21.4216 92.8524 21.4204C92.9115 21.4191 92.9596 21.2898 92.9596 21.133C92.9596 20.9761 93.024 20.8478 93.1026 20.8478C93.1812 20.8478 93.2456 20.7516 93.2456 20.6339C93.2456 20.5163 93.3099 20.4201 93.3886 20.4201C93.4672 20.4201 93.5315 20.2917 93.5315 20.1349C93.5315 19.9781 93.5959 19.8497 93.6745 19.8497C93.7531 19.8497 93.8175 19.7508 93.8175 19.6299C93.8175 19.409 94.0991 19.0098 94.2621 18.9997C94.3102 18.9967 94.3941 19.3632 94.4489 19.8141ZM9.31985 25.6956C9.31985 25.7741 9.67371 25.8382 10.1062 25.8382C10.5387 25.8382 10.8926 25.9024 10.8926 25.9808C10.8926 26.0592 11.0212 26.1234 11.1785 26.1234C11.3358 26.1234 11.4645 26.1875 11.4645 26.266C11.4645 26.3444 11.5931 26.4085 11.7504 26.4085C11.941 26.4085 12.0364 26.5037 12.0364 26.6937C12.0364 26.8506 12.1007 26.9789 12.1793 26.9789C12.2634 26.9789 12.3223 27.4779 12.3223 28.1908C12.3223 28.9038 12.2634 29.4028 12.1793 29.4028C12.1007 29.4028 12.0364 29.5311 12.0364 29.688C12.0364 29.8448 11.972 29.9731 11.8934 29.9731C11.8147 29.9731 11.7504 30.0394 11.7504 30.1204C11.7504 30.3465 10.871 31.1614 10.3911 31.38C10.1558 31.4871 9.83684 31.6406 9.68229 31.721C9.36002 31.8889 3.68338 32.0567 3.11778 31.9151C2.74018 31.8206 2.61565 31.4479 2.87143 31.1779C2.94192 31.1035 3.03156 30.7858 3.07045 30.4722C3.22615 29.2186 3.9872 26.0136 4.18093 25.7957C4.35607 25.599 4.76069 25.563 6.85354 25.5585C8.4061 25.555 9.31985 25.606 9.31985 25.6956Z" fill="#292929"/>
</svg>
