<svg width="106" height="50" viewBox="0 0 106 50" fill="none" xmlns="http://www.w3.org/2000/svg">
<g clip-path="url(#clip0_794_8090)">
<g opacity="0.3">
<path fill-rule="evenodd" clip-rule="evenodd" d="M70.3461 14.7178C69.9459 16.051 69.4896 17.62 69.0266 19.2486C67.4732 24.7127 65.8441 30.8478 66 31C66.0874 31.0858 66.2952 30.8217 66.4866 30.3782C66.6078 30.0972 66.7224 29.7442 66.7957 29.3625L67.1387 27.5735L69.6641 27.7196L72.1895 27.8656L73.0778 30.9564C73.7333 33.2385 73.8105 34.0938 73.3713 34.2256C73.0443 34.3241 72.4388 34.5153 72.0257 34.6501C71.6126 34.7849 73.19 34.8986 75.5311 34.903C78.4706 34.9079 79.4491 34.777 78.6935 34.479C77.1877 33.885 77.0094 33.4737 73.829 23.2486C72.2846 18.283 70.9295 14.1311 70.8178 14.0218C70.7062 13.9125 70.4939 14.2257 70.3461 14.7178ZM0.213637 14.8643C1.20266 15.2559 1.28328 15.7706 1.61229 23.8049C1.95281 32.1166 1.80609 33.858 0.702389 34.5976C-0.354237 35.3059 10.4224 35.002 11.833 34.2839C15.1962 32.5714 16.9409 29.2057 16.9409 24.4308C16.9409 19.501 15.046 16.4778 11.0899 15.0971C8.98614 14.3624 -1.6282 14.1355 0.213637 14.8643ZM24.2617 14.8771C24.0859 15.2814 22.8325 19.5794 21.4769 24.4278C19.637 31.0069 18.7347 33.463 17.9209 34.108C16.8452 34.9608 16.8638 34.9716 19.264 34.9059C20.603 34.8692 21.1909 34.7437 20.5715 34.6265C19.2289 34.3736 19.2545 34.6893 20.257 30.7849L21.0687 27.6206H23.4925H25.9162L26.6864 30.1604C27.73 33.6002 27.6684 34.3746 26.3303 34.6265C25.7109 34.7437 28.3585 34.8471 32.2144 34.8569C36.0703 34.8667 38.6618 34.7216 37.9733 34.5344L36.7213 34.1942L36.6037 25.8835L36.4855 17.5728L39.3354 26.0276C40.9028 30.6775 42.3079 34.482 42.4582 34.4815C42.6079 34.4815 43.7221 31.0074 44.934 26.7618C46.1459 22.5168 47.3252 18.7124 47.555 18.308C47.7879 17.8982 47.9206 21.2517 47.8555 25.8835L47.7383 34.1942L46.4864 34.5344C45.7768 34.7275 47.0793 34.8643 49.491 34.85C51.8321 34.8368 53.1557 34.7363 52.432 34.6275L51.1165 34.429L50.8806 25.5105C50.7509 20.6057 50.8351 16.222 51.0684 15.7691C51.3013 15.3162 51.9994 14.8437 52.6198 14.7187C53.2403 14.5942 52.414 14.5237 50.7835 14.5619L47.8194 14.632L45.8108 21.6164C44.7056 25.4581 43.6585 28.6008 43.4838 28.6008C43.309 28.6008 42.1612 25.4581 40.9328 21.6164L38.6999 14.632L35.9582 14.5001C33.4398 14.3791 33.3181 14.4202 34.4679 15.004C35.7193 15.6397 35.7198 15.6431 35.8625 23.9583C36.0448 34.5574 36.0388 34.58 33.3246 34.3874L31.2129 34.2374L30.1067 31.0515C29.4987 29.2993 28.0064 24.7778 26.7911 21.0037C25.5071 17.0165 24.4474 14.4497 24.2617 14.8771ZM55.8758 14.8922C56.9891 15.3304 57.0026 15.4476 57.0026 24.6797C57.0026 33.9119 56.9891 34.0291 55.8758 34.4672C55.0646 34.7863 55.8703 34.9103 58.7553 34.9103C61.4354 34.9103 62.4144 34.7731 61.7123 34.4952C60.8069 34.1369 60.6186 33.5213 60.3382 29.9928C59.9346 24.9189 59.9226 17.4414 60.3157 16.0073C60.4774 15.4162 61.0944 14.8393 61.6858 14.7261C62.2772 14.6129 60.9587 14.5045 58.7553 14.4849C55.8994 14.4595 55.0726 14.5761 55.8758 14.8922ZM81.0396 14.8256L82.2915 15.1662V24.6797V34.1933L81.0396 34.5339C80.2098 34.7599 80.8002 34.875 82.7923 34.875C84.7824 34.875 85.3743 34.7599 84.545 34.5344L83.2931 34.1942L83.1553 25.6507C83.0727 20.5156 83.1994 17.2983 83.4728 17.585C83.7227 17.8478 86.151 21.5189 88.8681 25.7429C91.5858 29.9668 94.0777 33.8266 94.4057 34.3202C94.8789 35.0324 95.0086 33.2865 95.0316 25.8762C95.0617 16.3734 95.246 15.3633 97.0643 14.7271C97.4774 14.5825 96.4633 14.4771 94.8108 14.4923C93.1582 14.508 92.327 14.6178 92.9634 14.7369C93.5999 14.856 94.2269 15.2241 94.3566 15.5549C94.4868 15.8858 94.5294 18.9011 94.4512 22.2555L94.31 28.3538L89.8787 21.3704L85.4474 14.3869L82.6175 14.4359C80.6259 14.4702 80.1582 14.5854 81.0396 14.8256ZM99.9437 14.8922C101.057 15.3304 101.07 15.4476 101.07 24.6797C101.07 33.9119 101.057 34.0291 99.9437 34.4672C99.1324 34.7863 99.9382 34.9103 102.823 34.9103C105.501 34.9103 106.482 34.7731 105.781 34.4957C104.852 34.1276 104.696 33.534 104.407 29.2576C104.003 23.2936 103.993 17.4331 104.384 16.0073C104.545 15.4162 105.162 14.8393 105.754 14.7261C106.345 14.6129 105.027 14.5045 102.823 14.4849C99.9672 14.4595 99.1405 14.5761 99.9437 14.8922ZM10.2446 16.1887C10.9296 16.6278 11.9402 17.8512 12.4905 18.9065C15.8352 25.3233 12.3503 34.4824 6.56341 34.4824H4.92239V24.617V14.7516L6.96053 15.0707C8.08175 15.2461 9.55953 15.7495 10.2446 16.1887ZM70.921 23.3319L71.9286 26.6403H69.7587H67.5894L68.5559 23.3333C69.0872 21.5145 69.5219 19.9338 69.5219 19.821C69.5219 19.1388 70.0417 20.442 70.921 23.3319ZM24.6207 23.202C25.0789 24.8155 25.454 26.2492 25.454 26.3879C25.454 26.5266 24.5286 26.6403 23.3973 26.6403C21.9616 26.6403 21.4108 26.4555 21.5735 26.0276C21.7012 25.6909 22.1058 24.2573 22.4729 22.8417C22.8395 21.4262 23.2852 20.2685 23.4634 20.2685C23.6417 20.2685 24.1625 21.5885 24.6207 23.202ZM65.0259 32.9856C64.6899 33.7796 64.0429 34.5261 63.5882 34.6442C63.1335 34.7623 64.0009 34.8623 65.5157 34.8667C67.4467 34.8726 67.8958 34.7697 67.018 34.5236C66.026 34.2452 65.7961 33.8987 65.9103 32.8567C66.0981 31.1441 65.7861 31.1892 65.0259 32.9856Z" fill="#292929"/>
<path d="M66 31C65.8441 30.8478 67.4732 24.7127 69.0266 19.2486L65.0259 32.9856C65.7861 31.1892 66.0981 31.1441 65.9103 32.8567L66.4866 30.3782C66.2952 30.8217 66.0874 31.0858 66 31Z" fill="#292929"/>
</g>
</g>
<defs>
<clipPath id="clip0_794_8090">
<rect width="106" height="50" fill="white"/>
</clipPath>
</defs>
</svg>
