<svg width="191" height="50" viewBox="0 0 191 50" fill="none" xmlns="http://www.w3.org/2000/svg">
<path opacity="0.3" fill-rule="evenodd" clip-rule="evenodd" d="M21.4743 17.6018C21.3251 18.0052 20.0899 21.7133 18.7285 25.8421C17.3672 29.971 15.942 33.55 15.5609 33.7953C15.1397 34.0668 15.6226 34.2439 16.7962 34.2484C18.5914 34.2546 18.728 34.1305 18.7886 32.441C18.8244 31.4432 19.1283 29.9352 19.4637 29.0905C19.9841 27.7786 20.3905 27.554 22.2453 27.554C24.3616 27.554 24.4409 27.6255 25.328 30.3352C25.8286 31.8644 26.0814 33.3729 25.8903 33.6875C25.6766 34.0378 26.3408 34.2585 27.6074 34.2585C29.3547 34.2585 29.5392 34.1512 28.8057 33.5601C28.3293 33.1763 26.7582 29.3966 25.3143 25.1611C22.7288 17.5744 22.0074 16.1548 21.4743 17.6018ZM139.325 17.3403C137.476 17.7974 136.296 19.2567 136.305 21.0758C136.316 23.452 136.755 23.9856 140.139 25.7444C143.717 27.6037 144.434 28.6083 143.7 30.737C143.306 31.8778 142.733 32.3527 141.589 32.4863C139.175 32.7679 137.4 32.1164 136.858 30.7498C136.383 29.5497 136.365 29.557 136.331 30.9777C136.283 33.0343 137.68 33.9791 140.772 33.9791C144.179 33.9791 145.772 32.5304 145.854 29.3564C145.926 26.5942 145.158 25.636 141.898 24.4141C138.441 23.119 137.949 22.6648 137.949 20.7691C137.949 17.9532 142.057 17.0621 142.745 19.7288C143.085 21.0501 144.006 20.6602 144.006 19.1952C144.006 18.5427 143.371 17.941 142.272 17.5521C141.318 17.2146 140.513 16.9677 140.482 17.0034C140.452 17.0392 139.931 17.1906 139.325 17.3403ZM0 25.8779V34.2585L1.37673 34.2596C2.73144 34.2607 2.75071 34.1993 2.57064 30.3487L2.38781 26.4366H6.33298H10.2781L10.0953 30.3487L9.91248 34.2613L11.537 34.2596C12.8003 34.259 13.0145 34.1093 12.5007 33.588C11.5849 32.6589 11.5849 19.0969 12.5007 18.1678C13.0145 17.6465 12.8003 17.4973 11.537 17.4962L9.91248 17.4951V21.2675V25.0398H6.33298H2.75347V21.2675C2.75347 17.6158 2.70941 17.4951 1.37673 17.4962L0 17.4973V25.8779ZM32.1082 17.937C32.6556 18.3198 32.7866 20.3199 32.6589 26.3494L32.4909 34.2601L33.8677 34.2607C35.2312 34.2613 35.2427 34.2194 35.0902 29.9296L34.9365 25.5985L36.9422 27.8334C38.0458 29.0625 39.7909 31.0113 40.8202 32.1633C42.8533 34.4389 44.7929 34.8753 46.049 33.34C46.7186 32.5215 46.6614 32.4662 45.5258 32.8315C44.0626 33.3025 42.8373 32.393 40.4165 29.0363L38.8663 26.8869L40.4969 25.4946C42.4447 23.8319 42.6947 21.1244 41.0867 19.1098C40.1841 17.9789 39.4671 17.78 35.7174 17.6203C33.0477 17.5063 31.6649 17.6275 32.1082 17.937ZM48.629 17.937C49.1764 18.3198 49.3074 20.3199 49.1797 26.3494L49.0117 34.2601L50.3885 34.2607C51.752 34.2613 51.7635 34.2194 51.6099 29.9296L51.4546 25.5985L53.7405 28.1127C54.9983 29.4955 56.7754 31.4437 57.6907 32.4427C59.4903 34.4071 61.3935 34.7775 62.5324 33.3852C63.1557 32.6237 63.0709 32.5567 61.8699 32.8628C60.7448 33.1489 60.1319 32.807 58.515 30.9917C56.315 28.5211 55.06 26.4366 55.772 26.4366C56.0287 26.4366 56.7809 25.9237 57.4434 25.2974C58.9584 23.866 59.0365 20.9004 57.6075 19.1098C56.7049 17.9789 55.9879 17.78 52.2382 17.6203C49.5685 17.5063 48.1857 17.6275 48.629 17.937ZM62.3214 17.9298C62.6755 18.1583 64.2241 20.0975 65.7633 22.2391C68.4655 25.9997 68.5613 26.2612 68.5613 29.8698C68.5613 32.3365 68.3273 33.7026 67.873 33.8886C67.4947 34.0434 67.928 34.1909 68.8367 34.2155L70.4888 34.2613L70.3048 30.3185C70.1275 26.5271 70.2019 26.2561 72.2323 23.2648C73.3937 21.5535 74.8894 19.5562 75.5563 18.8254L76.7694 17.4973H75.1609C74.1096 17.4973 73.6376 17.7393 73.799 18.1957C74.0551 18.9215 70.5119 24.218 69.7949 24.1806C69.5708 24.1688 68.4617 22.8061 67.3294 21.1518C65.9351 19.1137 65.4912 18.0544 65.9527 17.865C66.3277 17.7113 65.5188 17.5694 64.1558 17.5499C62.7928 17.5303 61.9673 17.7013 62.3214 17.9298ZM89.9971 25.8416C92.2803 30.4313 94.2743 34.0579 94.4291 33.9009C94.5838 33.7445 95.3691 31.9376 96.1748 29.8866L97.6402 26.1573L99.5153 30.333L101.39 34.5088L104.579 26.4221C106.333 21.9742 108.054 18.1505 108.403 17.9247C108.76 17.694 108.361 17.5107 107.49 17.5057C106.64 17.5012 106.087 17.7325 106.262 18.0197C106.437 18.3069 105.539 21.1004 104.266 24.2264C101.709 30.5068 101.514 30.5604 99.6138 25.5125C98.725 23.1514 98.7355 23.0302 100.069 20.2964L101.434 17.4973H100.109C99.3159 17.4973 98.9293 17.7348 99.1452 18.0896C99.748 19.0789 98.5058 21.1328 98.116 22.0871L97.34 20.5842C96.9132 19.7573 96.6985 18.7248 96.8631 18.289C97.0845 17.7046 96.6875 17.4973 95.3454 17.4973H93.5276L95.3322 21.1345C97.09 24.6784 97.1148 24.8259 96.2899 26.8612C95.824 28.0105 95.2364 29.1715 94.9836 29.4408C94.4307 30.0308 88.7624 18.7946 89.2278 18.0309C89.4095 17.732 88.7371 17.4973 87.6996 17.4973H85.8465L89.9971 25.8416ZM111.791 25.8779V34.2585H113.415C114.679 34.2585 114.893 34.1093 114.379 33.588C113.935 33.1377 113.718 30.6085 113.718 25.8779C113.718 21.1474 113.935 18.6181 114.379 18.1678C114.893 17.6465 114.679 17.4973 113.415 17.4973H111.791V25.8779ZM119.188 18.2901C119.635 18.8366 119.784 21.4418 119.668 26.6718C119.508 33.9445 119.546 34.2601 120.602 34.2607C121.65 34.2607 121.695 33.9462 121.533 27.6948C121.426 23.6057 121.556 21.3395 121.877 21.6876C122.16 21.9949 124.195 24.7605 126.4 27.8334C128.605 30.9062 130.605 33.6461 130.846 33.9221C131.087 34.1981 131.358 30.6152 131.449 25.96L131.616 17.4957L130.267 17.4968C129.217 17.4973 129.064 17.6465 129.578 18.1678C130.303 18.9036 130.535 28.6832 129.826 28.6547C129.599 28.6457 127.619 26.1316 125.427 23.0676C122.12 18.446 121.194 17.4973 119.99 17.4973C118.8 17.4973 118.656 17.6398 119.188 18.2901ZM147.861 19.298C147.861 21.0865 147.867 21.0904 148.719 19.8567C149.207 19.1494 150.155 18.6147 150.921 18.6147H152.267V26.1109C152.267 31.5845 152.081 33.6825 151.578 33.8886C151.2 34.0434 151.881 34.1702 153.093 34.1702C154.304 34.1702 154.986 34.0434 154.607 33.8886C154.104 33.6825 153.919 31.5845 153.919 26.1109V18.6147H155.313C156.08 18.6147 156.85 18.9919 157.024 19.4528C157.524 20.7747 158.324 20.4305 158.324 18.8941C158.324 17.5024 158.306 17.4973 153.093 17.4973H147.861V19.298ZM164.373 18.5164C162.27 19.6333 159.976 23.4738 159.976 25.8779C159.976 28.3323 162.274 32.2086 164.382 33.3115C167.53 34.958 170.757 34.3188 173.31 31.5421C175.241 29.4419 175.396 29.0256 175.396 25.9422C175.396 23.1643 175.156 22.3229 173.954 20.8725C171.143 17.4839 167.845 16.6727 164.373 18.5164ZM178.59 18.1678C179.538 19.1299 179.513 33.4992 178.562 33.8886C178.184 34.0434 178.494 34.1903 179.251 34.2155L180.627 34.2607L180.462 27.4155L180.296 20.5702L185.419 27.554L190.54 34.5378L190.67 31.7443C190.742 30.2079 190.865 26.3735 190.945 23.2229C191.082 17.818 191.028 17.4951 189.989 17.4951C188.978 17.4951 188.903 17.8069 189.067 21.315C189.166 23.4162 189.166 25.9785 189.067 27.0087C188.89 28.8608 188.842 28.8172 184.8 23.19C181.481 18.5689 180.45 17.4973 179.32 17.4973C178.238 17.4973 178.076 17.6465 178.59 18.1678ZM39.3746 19.7322C41.4424 21.8301 40.2827 25.3192 37.5182 25.3192C35.6502 25.3192 34.969 24.2437 34.969 21.2965C34.969 18.6891 35.0147 18.6147 36.6211 18.6147C37.5391 18.6147 38.7628 19.1114 39.3746 19.7322ZM55.7726 19.4847C58.1273 21.1574 56.8905 25.3192 54.039 25.3192C52.171 25.3192 51.4898 24.2437 51.4898 21.2965C51.4898 18.7371 51.5598 18.6147 53.0191 18.6147C53.8606 18.6147 55.0996 19.0064 55.7726 19.4847ZM171.144 19.9456C173.228 21.9061 174.091 25.2935 173.239 28.1787C171.522 33.9931 165.619 34.9177 163.002 29.7827C161.382 26.6037 162.466 21.3245 165.127 19.4332C166.874 18.1924 169.518 18.4175 171.144 19.9456ZM23.3797 24.9002C23.3968 25.5773 22.981 25.8779 22.0277 25.8779C20.4362 25.8779 20.4384 25.8885 21.3168 22.9151L21.9826 20.6602L22.6687 22.2916C23.046 23.1883 23.3659 24.3621 23.3797 24.9002Z" fill="#292929"/>
</svg>
