<svg width="97" height="50" viewBox="0 0 97 50" fill="none" xmlns="http://www.w3.org/2000/svg">
<path opacity="0.3" fill-rule="evenodd" clip-rule="evenodd" d="M28.1684 16.0578C26.434 16.2947 24.9269 16.9302 23.6303 17.9712C23.2069 18.311 22.4853 19.0551 22.1653 19.4817C21.2442 20.7094 20.6646 22.162 20.5083 23.6337C20.4549 24.1366 20.4824 25.0863 20.5696 25.7512C20.8373 27.7933 21.7144 29.5385 23.0705 30.7273C24.7738 32.2204 27.0603 32.9135 29.9077 32.7997C32.7345 32.6867 35.0206 31.6991 36.461 29.9687C37.7442 28.4273 38.4056 26.2878 38.3323 23.9158C38.2955 22.726 38.0625 21.7583 37.5751 20.7716C36.2728 18.135 33.6586 16.3759 30.539 16.037C30.0083 15.9793 28.6556 15.9912 28.1684 16.0578ZM0 17.3413V18.2444L1.04957 18.2621C2.24735 18.2824 2.42508 18.3151 2.63347 18.5545C2.8687 18.8245 2.85882 18.5621 2.85882 24.5406C2.85882 29.7087 2.8545 30.0555 2.78777 30.2482C2.70017 30.5011 2.55415 30.6468 2.28494 30.7499C2.09881 30.8212 1.97507 30.8291 1.03913 30.8291H0V31.6958V32.5624H4.51814H9.03627V31.6984V30.8344L8.08667 30.8216C7.20415 30.8098 7.12574 30.8028 6.97712 30.7221C6.77625 30.6131 6.66093 30.4894 6.56921 30.2843C6.50296 30.1362 6.49636 29.9273 6.48513 27.6143L6.47289 25.105L7.48471 25.105C8.57978 25.1051 8.9318 25.1442 9.4058 25.3182C10.3422 25.6621 10.9604 26.431 11.133 27.4663C11.166 27.6641 11.2307 28.3883 11.2767 29.0756C11.368 30.4382 11.4197 30.7787 11.6029 31.2237C12.1016 32.4348 13.4365 33.0818 15.251 32.9917C16.1928 32.945 16.7849 32.7366 17.2129 32.3013C17.512 31.997 17.6899 31.6637 17.812 31.1782C17.9534 30.6165 17.9926 30.1381 17.9926 28.9764V27.9267H17.3376H16.6827L16.6628 28.5616C16.6399 29.295 16.5907 29.4975 16.3545 29.8301C15.9745 30.3651 15.3198 30.4161 15.0218 29.934C14.8333 29.6291 14.7928 29.393 14.7537 28.3701C14.7338 27.8491 14.7003 27.3231 14.6794 27.2011C14.4732 25.9992 13.9268 25.2096 12.861 24.573C12.5479 24.386 12.5181 24.3585 12.6011 24.3333C13.5133 24.0565 14.1677 23.771 14.6878 23.4233C15.0763 23.1635 15.5973 22.6517 15.8295 22.3017C16.2533 21.6628 16.4179 21.0384 16.3814 20.2076C16.3324 19.0931 15.986 18.2669 15.295 17.6162C14.638 16.9978 13.7943 16.6401 12.6575 16.4982C12.2517 16.4475 11.2344 16.4382 6.08869 16.4382H0V17.3413ZM57.9361 17.3414V18.2445L59.0057 18.2608C60.003 18.2761 60.0909 18.2835 60.3069 18.3691C60.5844 18.4791 60.7144 18.6494 60.7756 18.9831C60.8026 19.1307 60.8129 21.0681 60.8058 24.6853L60.7949 30.164L60.7009 30.3565C60.6004 30.5623 60.4412 30.7046 60.2152 30.7906C60.1165 30.8281 59.7598 30.8486 59.0057 30.86L57.9361 30.8762V31.7193V32.5624H66.0128H74.0894V29.0957V25.629H73.3298H72.5701V25.8539C72.5701 26.2674 72.4856 27.0551 72.3883 27.5479C72.0396 29.3158 71.1665 30.4103 69.8348 30.7487C69.5354 30.8248 69.3837 30.8291 66.986 30.8291H64.4534V28.0678V25.3065H65.0479C65.4002 25.3065 65.7872 25.3317 65.9975 25.3682C66.6442 25.4805 67.153 25.7977 67.3897 26.2362C67.5715 26.573 67.6111 26.7972 67.6116 27.4934L67.6121 28.1283H68.4918H69.3714V24.2778V20.4274L68.5018 20.4383L67.6321 20.4491L67.6101 21.1143C67.5922 21.654 67.5726 21.8181 67.5063 21.9847C67.1675 22.8363 66.4049 23.2104 65.008 23.2104H64.4534V20.7313V18.2522L66.6025 18.2526C69.514 18.2532 69.9354 18.2971 70.7308 18.6828C71.0493 18.8372 71.1635 18.9208 71.4375 19.1997C71.7123 19.4795 71.7964 19.5989 71.966 19.9505C72.2143 20.4647 72.3809 21.0979 72.4689 21.8605C72.5047 22.1706 72.5432 22.5014 72.5544 22.5957L72.575 22.767H73.3322H74.0894V19.6026V16.4382H66.0128H57.9361V17.3414ZM78.1278 17.3452V18.2522H78.2219C78.4077 18.2522 79.3532 18.3344 79.6472 18.376C80.3414 18.4745 80.8861 18.6965 81.2752 19.0397C81.5101 19.2468 85.6162 24.2446 85.5971 24.3001C85.5903 24.3199 84.4872 25.5014 83.1457 26.9255C81.8043 28.3496 80.5222 29.7176 80.2967 29.9656C79.6321 30.6964 79.3651 30.8291 78.5592 30.8291H78.1278V31.7161V32.6032L82.1761 32.5929L86.2244 32.5826V31.7159V30.8492L85.0977 30.8291C84.0383 30.8101 83.9643 30.8039 83.8583 30.7254C83.5974 30.5324 83.5243 30.099 83.7023 29.8012C83.822 29.6009 86.9691 25.9966 87.0241 25.9967C87.0461 25.9968 87.6668 26.7221 88.4035 27.6084C90.0852 29.6316 90.1981 29.7741 90.237 29.9221C90.3118 30.2067 90.1121 30.6073 89.8259 30.7471C89.6719 30.8222 89.5813 30.8291 88.7508 30.8291H87.8438V31.7159V32.6027H92.4219H97V31.7206V30.8384L96.4702 30.8202C95.6751 30.7929 95.3961 30.6527 94.8092 29.9857C94.1906 29.2827 89.3831 23.5307 89.3831 23.4936C89.3831 23.4365 92.7928 19.7208 93.2737 19.2538C93.7575 18.7841 94.1826 18.4898 94.5561 18.3662C94.7951 18.2871 94.9271 18.277 95.9104 18.2616L97 18.2446V17.3414V16.4382H92.9417H88.8833V17.3452V18.2522H89.4271C90.0224 18.2522 90.1734 18.2919 90.3277 18.4891C90.4498 18.6451 90.4125 18.8884 90.2326 19.1087C89.9156 19.4968 87.9964 21.6997 87.9654 21.7108C87.9259 21.725 86.1072 19.4964 86.0163 19.3223C85.915 19.1284 85.9047 18.742 85.9963 18.5747C86.1319 18.3271 86.2749 18.2743 86.8542 18.2583L87.364 18.2441V17.3412V16.4382H82.7459H78.1278V17.3452ZM40.7832 17.3654V18.2522L41.5529 18.2528C42.7057 18.2537 43.0026 18.3473 43.2133 18.7763L43.3221 18.998V24.581V30.164L43.2268 30.3575C43.1247 30.5648 42.9673 30.7053 42.7424 30.79C42.6482 30.8255 42.3049 30.8483 41.6928 30.8599L40.7832 30.8771V31.7399V32.6027H48.3601H55.9369V29.0554V25.5081H55.0773H54.2176L54.2168 25.6794C54.2163 25.7737 54.1983 26.2289 54.1769 26.6912C54.1135 28.059 53.9922 28.7088 53.6791 29.3578C53.3858 29.9657 52.9471 30.3694 52.3184 30.6098C51.783 30.8145 51.6164 30.8261 49.2091 30.8277L46.9793 30.8291L46.9905 24.9135C47.0029 18.4068 46.9863 18.8135 47.2493 18.5484C47.4764 18.3194 47.6786 18.2813 48.7699 18.262L49.7395 18.2449V17.3617V16.4786H45.2613H40.7832V17.3654ZM29.9824 18.0923C31.4676 18.246 32.5295 19.0009 33.2079 20.3853C33.5143 21.0104 33.7003 21.6625 33.853 22.6461C33.9579 23.3215 33.9575 25.4467 33.8524 26.1128C33.4389 28.7326 32.2943 30.3003 30.4344 30.7945C30.2175 30.8522 29.9459 30.8822 29.5078 30.897C28.9739 30.9151 28.8301 30.9059 28.4693 30.8306C27.2344 30.573 26.302 29.8085 25.6543 28.5224C25.1853 27.5912 24.9302 26.5134 24.8264 25.0244C24.7007 23.2227 24.9509 21.5904 25.5344 20.4053C26.3518 18.7447 28.0006 17.8873 29.9824 18.0923ZM9.9014 18.2952C11.2312 18.4447 11.9759 18.9813 12.1762 19.9344C12.2543 20.3057 12.2513 21.0217 12.1704 21.3535C11.9826 22.1239 11.4747 22.6021 10.5756 22.8552C10.2691 22.9415 10.1769 22.9458 8.36655 22.9591L6.47733 22.9729V20.6126V18.2522H7.99826C8.8348 18.2522 9.6912 18.2716 9.9014 18.2952Z" fill="#292929"/>
</svg>
