<svg width="133" height="50" viewBox="0 0 133 50" fill="none" xmlns="http://www.w3.org/2000/svg">
<g clip-path="url(#clip0_794_8095)">
<path opacity="0.3" fill-rule="evenodd" clip-rule="evenodd" d="M14.1373 14.6347C13.7029 15.1568 12.926 15.2484 10.7019 15.0414C8.24272 14.8125 7.46034 14.9416 5.28649 15.9337C1.7971 17.5262 0.342076 19.7471 0.0663449 23.8997C-0.113361 26.6097 0.0165031 27.2758 1.15647 29.4843C3.51716 34.0586 10.559 36.0255 15.061 33.2508C17.0446 32.028 18.6437 29.0284 17.3117 29.0284C17.0602 29.0284 16.8544 29.3124 16.8544 29.6594C16.8544 30.0064 16.0062 31.0545 14.9691 31.9883C12.4301 34.2749 8.01955 34.2719 5.63676 31.6787C1.3915 27.0602 3.36644 16.897 8.75623 15.625C10.5098 15.2115 13.5209 16.6116 15.3541 18.6939C16.1639 19.6135 16.934 20.3658 17.0652 20.3658C17.2852 20.3658 15.1886 14.4496 14.8488 14.1104C14.7661 14.0284 14.446 14.2641 14.1373 14.6347ZM82.7972 14.684C82.3157 15.2279 80.3819 15.3574 72.2801 15.3879C63.2884 15.4212 62.4923 15.486 63.8385 16.0727C65.2771 16.7001 65.5208 17.0967 65.3543 18.542C65.2501 19.4475 61.6052 29.1492 61.1868 29.6352C60.6564 30.2517 56.1162 17.8682 56.5035 16.8619C56.6306 16.5323 57.0723 16.2592 57.4857 16.2556C57.8991 16.2515 58.5456 16.0495 58.9229 15.8065C59.3765 15.5142 56.2003 15.3743 49.5489 15.3934C41.8998 15.4157 39.8179 15.5379 40.8609 15.9036C43.3827 16.7881 43.3758 16.7644 43.3758 24.4924C43.3758 32.6238 43.1879 33.1436 40.2568 33.1158C37.7025 33.0912 36.6193 32.234 34.177 28.3044L31.9392 24.7035L33.3544 24.2284C37.9554 22.6837 38.3272 17.446 33.9539 15.7882C33.3187 15.5475 29.5719 15.3665 25.6271 15.3857C19.2939 15.4167 18.6688 15.485 20.2839 15.9697L22.113 16.5186L22.2387 24.1951C22.3727 32.3772 22.2026 33.1318 20.2281 33.1318C19.63 33.1318 19.1407 33.3369 19.1407 33.5877C19.1407 33.864 21.1221 34.0436 24.1707 34.0436C27.2193 34.0436 29.2006 33.864 29.2006 33.5877C29.2006 33.3369 28.5906 33.1318 27.8448 33.1318C26.0263 33.1318 25.5425 32.084 25.5425 28.1466V24.925H27.0995C28.5687 24.925 28.779 25.137 30.8349 28.6865C34.2141 34.521 33.2127 34.0436 42.0749 34.0436C46.5397 34.0436 49.7776 33.8649 49.7776 33.6178C49.7776 33.3839 49.2165 33.1272 48.5306 33.0479C46.4286 32.8049 46.0833 31.4298 46.2232 23.8614C46.3357 17.7752 46.4368 17.0343 47.2356 16.4525C47.724 16.0974 48.6897 15.8065 49.382 15.8065C51.7745 15.8065 52.7809 17.3721 55.9722 26.058C57.6293 30.5676 59.0633 34.3354 59.1584 34.4307C59.254 34.5255 59.885 34.1699 60.5608 33.6397C61.2367 33.1094 62.0707 32.6758 62.4141 32.6758C62.7575 32.6758 63.0383 32.4707 63.0383 32.2199C63.0383 31.9691 62.7296 31.764 62.3524 31.764C61.9751 31.764 61.6674 31.5077 61.6688 31.1941C61.6729 30.2115 67.0782 17.5098 67.7975 16.7926C68.6211 15.9715 71.0816 15.8936 71.8558 16.6641C72.2298 17.0361 72.4529 19.4133 72.5371 23.9206C72.677 31.4261 72.3286 32.8053 70.2297 33.0479C69.5438 33.1272 68.9827 33.3839 68.9827 33.6178C68.9827 33.8622 71.8123 34.0436 75.6131 34.0436C81.6819 34.0436 82.3226 34.1225 83.1786 34.976L84.1132 35.9079L85.6935 32.498C87.7073 28.1517 87.69 27.4668 85.6272 29.87C83.516 32.3289 81.9188 33.1318 79.1363 33.1318C75.9437 33.1318 75.3845 32.3621 75.3845 27.9665V24.4691H77.6708C80.1638 24.4691 81.7862 25.5369 81.7862 27.1778C81.7862 27.6647 81.992 28.1895 82.2435 28.3445C82.5361 28.5251 82.7007 27.0319 82.7007 24.1919C82.7007 19.7229 82.4424 19.1899 81.5736 21.8694C81.1154 23.2832 81.0102 23.3334 78.2424 23.4652L75.3845 23.6006V20.4788C75.3845 18.6583 75.6131 17.1287 75.9332 16.8095C76.6118 16.1329 79.9109 16.096 81.6422 16.7457C82.35 17.011 83.7314 17.9858 84.7113 18.9113C85.9478 20.0781 86.3895 20.3142 86.1531 19.6819C84.7305 15.8717 83.9047 13.9855 83.666 14.0001C83.5124 14.0097 83.1214 14.3174 82.7972 14.684ZM89.1015 15.8899C89.9818 16.1416 90.8529 16.5847 91.0381 16.8747C91.5607 17.6936 91.4523 31.2492 90.9155 32.25C90.611 32.8172 89.9589 33.1318 89.0864 33.1318C88.3406 33.1318 87.7307 33.3369 87.7307 33.5877C87.7307 33.8694 90.1217 34.0436 93.9888 34.0436C99.7586 34.0436 100.328 34.1198 101.291 35.022L102.335 36L102.766 34.908C103.003 34.3071 103.738 32.6106 104.4 31.1375C105.061 29.6644 105.52 28.3764 105.419 28.2752C105.317 28.1744 104.667 28.8328 103.975 29.7387C103.281 30.6447 102.07 31.7776 101.281 32.2568C99.6594 33.243 95.9948 33.4386 95.1384 32.5846C94.5256 31.9737 94.3468 17.8044 94.9404 16.8747C95.1256 16.5847 95.9967 16.1416 96.8769 15.8899C98.1673 15.5211 97.416 15.4326 92.9892 15.4326C88.5624 15.4326 87.8111 15.5211 89.1015 15.8899ZM106.25 15.9036C108.768 16.7867 108.765 16.7776 108.765 24.3269C108.765 28.3085 108.559 31.7512 108.292 32.25C107.987 32.8172 107.335 33.1318 106.463 33.1318C105.717 33.1318 105.107 33.3369 105.107 33.5877C105.107 33.8694 107.498 34.0436 111.365 34.0436C117.022 34.0436 117.717 34.1325 118.61 34.9682L119.597 35.8929L121.28 32.1684C122.206 30.1199 122.827 28.319 122.661 28.1662C122.494 28.0135 122.263 28.1526 122.148 28.4754C121.754 29.5755 119.633 31.7954 118.336 32.4643C116.773 33.2704 113.275 33.3428 112.514 32.5846C111.755 31.8278 111.739 16.9116 112.498 16.4443C112.79 16.2642 113.664 15.9656 114.441 15.7805C115.303 15.5749 113.718 15.4399 110.365 15.4331C105.963 15.4249 105.149 15.5179 106.25 15.9036ZM123.626 15.9036C126.152 16.7899 126.141 16.7512 126.141 24.6615C126.141 32.6243 125.998 33.1318 123.763 33.1318C123.059 33.1318 122.483 33.3369 122.483 33.5877C122.483 33.8653 124.541 34.0436 127.741 34.0436C130.942 34.0436 133 33.8653 133 33.5877C133 33.3369 132.424 33.1318 131.72 33.1318C129.485 33.1318 129.341 32.622 129.349 24.7199C129.353 20.6949 129.507 17.1647 129.693 16.8747C129.878 16.5847 130.749 16.1416 131.629 15.8899C132.921 15.5206 132.174 15.4317 127.741 15.4276C123.334 15.4235 122.524 15.5174 123.626 15.9036ZM32.6648 17.2126C33.7691 18.4294 33.7509 21.5106 32.6328 22.5715C31.4097 23.7333 29.1651 24.0132 27.6002 24.0132H25.5425V20.6849C25.5425 18.7043 25.7647 17.135 26.0912 16.8095C26.393 16.5086 27.8014 16.2624 29.2212 16.2624C31.2565 16.2624 31.9849 16.4635 32.6648 17.2126Z" fill="#292929"/>
</g>
<defs>
<clipPath id="clip0_794_8095">
<rect width="133" height="50" fill="white"/>
</clipPath>
</defs>
</svg>
