<svg width="152" height="50" viewBox="0 0 152 50" fill="none" xmlns="http://www.w3.org/2000/svg">
<path opacity="0.3" fill-rule="evenodd" clip-rule="evenodd" d="M7.20164 15.2399V15.4777L7.40845 15.5103C7.72566 15.5602 8.01353 15.7163 8.12778 15.9002C8.27016 16.1293 8.30067 16.5105 8.20613 16.8777C8.08852 17.3343 2.84878 30.4813 2.38817 31.4756C1.87165 32.5904 1.24228 33.3987 0.668536 33.6838C0.506402 33.7645 0.324268 33.8304 0.263833 33.8304C0.041312 33.8304 0 33.8767 0 34.126V34.3628H2.06804H4.13608V34.1227C4.13608 33.8839 4.13496 33.8822 3.94363 33.831C3.67196 33.7582 3.46019 33.5624 3.3166 33.2513C3.20838 33.0168 3.19276 32.9169 3.19159 32.451C3.19057 32.057 3.21373 31.8493 3.28064 31.6523C3.35718 31.427 4.00815 29.824 4.53373 28.5667L4.68043 28.2158H6.84122H9.00205L9.00035 30.2124C8.99855 32.3447 8.96527 32.7527 8.75836 33.1778C8.70036 33.297 8.56592 33.4685 8.45969 33.559C8.2506 33.737 8.04078 33.8042 7.5301 33.8564L7.20164 33.8901V34.1264V34.3628H10.2915H13.3814V34.1296V33.8964L12.971 33.8418C12.7453 33.8118 12.4749 33.7437 12.3703 33.6906C11.9674 33.4862 11.7314 33.0597 11.6334 32.3587C11.5976 32.1029 11.581 29.2913 11.581 23.4932V15.0022H9.39133H7.20164V15.2399ZM95.7137 15.2379C95.7137 15.4954 95.7526 15.5346 96.0078 15.5346C96.2419 15.5346 96.664 15.7202 96.9 15.9267C97.1506 16.1462 97.3746 16.5675 97.4635 16.9866C97.5053 17.1839 97.516 19.2277 97.5049 24.8761L97.4898 32.4994L97.3809 32.8181C97.154 33.4816 96.8273 33.7487 96.1336 33.8378L95.7137 33.8917V34.1272V34.3628H98.8279H101.942V34.1208C101.942 33.9877 101.922 33.8788 101.897 33.8788C101.699 33.8788 101.066 33.7596 100.947 33.6999C100.597 33.5246 100.396 33.2369 100.255 32.7066C100.184 32.4405 100.171 31.9912 100.155 29.1022L100.136 25.8019L102.024 25.7867L103.913 25.7715L104.186 25.644C104.694 25.4071 105.01 25.0153 105.233 24.3437C105.315 24.098 105.323 23.8066 105.337 20.5735C105.354 16.7424 105.349 16.6611 105.073 16.0778C104.89 15.6925 104.474 15.2902 104.107 15.1432L103.816 15.0264L99.7646 15.0132L95.7137 15V15.2379ZM102.514 15.7762C102.574 15.8159 102.662 15.9248 102.709 16.0182C102.788 16.176 102.794 16.4858 102.794 20.399C102.794 24.3766 102.789 24.6188 102.705 24.771C102.554 25.0465 102.416 25.0732 101.224 25.0585L100.166 25.0455L100.154 20.4232C100.147 17.8809 100.152 15.7718 100.166 15.7363C100.203 15.6378 102.36 15.6744 102.514 15.7762ZM9.00205 22.6496V27.5382H7.0018C5.11774 27.5382 5.00329 27.5333 5.03176 27.4535C5.1191 27.2086 8.97456 17.7611 8.98716 17.7611C8.99534 17.7611 9.00205 19.9609 9.00205 22.6496ZM84.23 18.0754C83.0958 18.3322 82.223 19.2969 81.8698 20.6845C81.4539 22.3186 81.6875 24.1482 82.4795 25.459C82.9826 26.2917 83.3568 26.6551 84.5706 27.4902C86.3897 28.7417 87.0441 29.3638 87.3051 30.0898C87.4575 30.5134 87.4753 31.1724 87.3506 31.7733C87.0926 33.0173 86.4088 33.7317 85.3954 33.8162C84.5083 33.8902 83.7131 33.2263 83.064 31.8701C82.7696 31.255 82.6368 30.8353 82.4544 29.9442C82.3607 29.4861 82.2725 29.0623 82.2585 29.0023C82.2364 28.9073 82.2021 28.8934 81.9904 28.8934H81.7476L81.7601 31.6644L81.7727 34.4354H82.0146H82.2566L82.293 34.2234C82.313 34.1068 82.3634 33.9598 82.4049 33.8967C82.5201 33.722 82.8402 33.7419 83.3541 33.9558C84.6783 34.5069 85.1404 34.6052 85.9793 34.5147C87.8209 34.3161 88.924 33.3454 89.3975 31.5071C89.7441 30.1613 89.6048 28.6222 89.0271 27.4172C88.4762 26.2677 87.6288 25.4325 86.1816 24.6128C85.433 24.1887 85.3471 24.1325 84.8948 23.7697C84.307 23.2984 83.8393 22.6004 83.6941 21.978C83.4681 21.0088 83.8775 19.5223 84.5009 19.0488C84.8108 18.8134 85.0897 18.7489 85.5272 18.8116C86.0285 18.8835 86.379 19.0682 86.7871 19.4756C87.4531 20.1406 87.8941 21.133 88.246 22.7585L88.3272 23.1336H88.5413H88.7554V20.6652V18.1967H88.5121C88.3021 18.1967 88.2688 18.2098 88.2688 18.2925C88.2688 18.4736 88.1186 18.7639 87.9962 18.8193C87.7862 18.9145 87.6043 18.8805 87.2131 18.6725C86.1823 18.1247 85.9711 18.0592 85.1302 18.0266C84.717 18.0105 84.4539 18.0248 84.23 18.0754ZM116.564 18.1958C115.758 18.3095 115.064 18.558 114.597 18.8996C114.011 19.3289 113.534 20.0864 113.318 20.9314L113.207 21.367V26.3524V31.3377L113.319 31.7491C113.65 32.9588 114.339 33.7511 115.419 34.1655C116.616 34.6248 117.677 34.6594 118.769 34.2749C119.718 33.9409 120.56 33.0894 120.983 32.0354C121.218 31.4506 121.26 31.0226 121.26 29.238C121.261 28.2125 121.28 27.5392 121.314 27.4172C121.381 27.1723 121.567 26.9254 121.778 26.8018C121.919 26.7189 121.941 26.68 121.941 26.517V26.3282H120.214H118.486V26.5195C118.486 26.6908 118.504 26.7193 118.658 26.7916C118.865 26.8895 119.011 27.083 119.101 27.38C119.2 27.7081 119.198 32.0209 119.098 32.5393C118.989 33.1056 118.788 33.4141 118.403 33.6073C118.178 33.7204 117.551 33.7968 117.098 33.7662C116.191 33.7049 115.803 33.4048 115.639 32.638C115.538 32.1626 115.533 20.6283 115.633 20.2517C115.847 19.4532 116.383 18.9973 117.178 18.9377C118.45 18.8422 119.619 19.7982 120.09 21.3186C120.213 21.715 120.335 22.4687 120.335 22.8311L120.336 23.0852H120.725H121.114V20.641V18.1967H120.829H120.544L120.517 18.4916C120.488 18.8131 120.353 19.0195 120.172 19.0195C120.118 19.0195 119.775 18.8798 119.409 18.709C118.444 18.2588 118.192 18.189 117.465 18.1702C117.13 18.1616 116.725 18.1731 116.564 18.1958ZM63.2577 18.6271C63.2577 18.8659 63.3015 18.9227 63.4854 18.9227C63.6451 18.9227 63.8858 19.0819 63.9595 19.2363C64.059 19.4449 64.0589 19.955 63.9591 20.4783C63.8778 20.9048 61.4084 31.9035 61.2819 32.4026C61.0636 33.264 60.7201 33.7864 60.3381 33.8381C60.2282 33.853 60.215 33.8791 60.2017 34.1087L60.187 34.3628H61.5277H62.8684V34.1214V33.88L62.6774 33.8496C62.0897 33.7561 61.8761 33.234 62.0444 32.3026C62.0911 32.0443 62.52 30.3728 62.7052 29.7277L62.7784 29.473L64.4138 29.4857L66.0493 29.4985L66.4028 31.0957C66.7862 32.8278 66.8277 33.1985 66.6715 33.4924C66.573 33.6777 66.3494 33.8121 66.0678 33.8552L65.8853 33.8832V34.123V34.3628H67.9315H69.9778L69.9631 34.1116C69.9492 33.8743 69.9398 33.8581 69.7936 33.8206C69.5935 33.7694 69.3192 33.4498 69.1975 33.1263C69.1246 32.9326 66.1286 18.5804 66.1286 18.425C66.1286 18.4059 65.4826 18.3903 64.6931 18.3903H63.2577V18.6271ZM13.0408 18.6798C13.0408 18.9033 13.0505 18.923 13.1746 18.9503C13.4898 19.0198 13.6223 19.0808 13.8162 19.2458C14.0694 19.4614 14.2202 19.6941 14.365 20.0926L14.4763 20.399L14.5015 26.1829C14.5268 31.9605 14.5269 31.9674 14.634 32.3445C14.9547 33.4743 15.726 34.2142 16.8849 34.5041C17.9253 34.7643 19.9489 34.6573 20.6531 34.3049C21.3774 33.9425 21.7538 33.379 22.0046 32.2815C22.1081 31.829 22.1102 31.7319 22.1403 26.1345C22.1734 19.971 22.1593 20.2751 22.4366 19.7229C22.5906 19.4161 22.9519 19.0895 23.2167 19.0178C23.3339 18.986 23.4571 18.9523 23.4905 18.9429C23.5288 18.9321 23.5513 18.8356 23.5513 18.6822V18.4387H21.7996H20.0478V18.6798C20.0478 18.9035 20.0574 18.9229 20.1816 18.9499C20.6291 19.0471 20.9418 19.2843 21.1604 19.6921C21.4637 20.2582 21.4572 20.124 21.4581 25.8212C21.4587 29.1005 21.4405 31.152 21.4086 31.4116C21.3069 32.2393 21.1166 32.7573 20.781 33.1195C20.409 33.5208 19.868 33.658 18.7684 33.6296C18.1277 33.6131 18.0565 33.6018 17.7965 33.4751C17.3148 33.2406 17.0645 32.81 16.8965 31.9272C16.8193 31.5217 16.8119 31.0052 16.8119 26.0135C16.8119 21.7596 16.8257 20.4861 16.8738 20.283C17.0377 19.5908 17.4978 19.058 18.0041 18.974C18.171 18.9462 18.1747 18.9406 18.1891 18.6922L18.2039 18.4387H15.6223H13.0408V18.6798ZM24.2812 18.6798C24.2812 18.9033 24.2909 18.923 24.415 18.9503C25.0726 19.0952 25.4532 19.5265 25.6218 20.3179C25.7241 20.7978 25.7241 32.0037 25.6218 32.4836C25.4529 33.2763 25.0732 33.706 24.4124 33.8518C24.2837 33.8803 24.2768 33.8948 24.2908 34.1103L24.3055 34.3386H27.7604C30.9744 34.3386 31.2356 34.3324 31.5072 34.2497C32.7677 33.8659 33.5602 32.7159 34.1144 30.4665C34.816 27.6181 34.6111 22.5161 33.7099 20.3975C33.2121 19.2273 32.3937 18.6713 30.9002 18.489C30.6542 18.459 29.2358 18.4387 27.3845 18.4387H24.2812V18.6798ZM35.1323 18.6775C35.1323 18.8841 35.147 18.9201 35.2418 18.9454C35.6328 19.0495 35.7542 19.111 35.9563 19.3079C36.212 19.5568 36.3666 19.8526 36.4706 20.2914C36.5775 20.7423 36.5775 32.0592 36.4706 32.5101C36.3695 32.9368 36.2132 33.2415 35.973 33.4806C35.7549 33.6977 35.6093 33.7754 35.327 33.8256C35.1604 33.8552 35.1563 33.8614 35.142 34.1093L35.1272 34.3628H39.4033H43.6793L43.9089 33.3101C44.0352 32.7311 44.179 32.0776 44.2285 31.858L44.3185 31.4587H43.9908H43.6632L43.6024 31.6644C43.3965 32.361 42.8123 33.0742 42.2229 33.3486C41.7058 33.5893 41.3049 33.6492 40.3876 33.6229C39.5592 33.5991 39.3285 33.5542 39.1337 33.3788C38.888 33.1577 38.8791 33.0316 38.8791 29.7801V26.7638L39.1103 26.7655C39.4301 26.7678 40.0502 26.883 40.2213 26.9718C40.6372 27.1878 40.7923 27.5352 41.0956 28.9297C41.1159 29.023 41.1507 29.0386 41.3374 29.0386H41.5554V26.3282V23.6177H41.3374C41.1502 23.6177 41.1162 23.6331 41.0974 23.7266C40.7365 25.5181 40.5352 25.754 39.2562 25.8841L38.8791 25.9225L38.8794 22.8461C38.8796 20.8296 38.8974 19.7061 38.9313 19.5851C39.0255 19.2476 39.0986 19.2131 39.7185 19.2135C41.8034 19.215 42.6449 19.7177 42.9316 21.1331L42.9986 21.4638L43.2746 21.4783L43.5505 21.4928V19.9658V18.4387H39.3414H35.1323V18.6775ZM44.9616 18.6741V18.9094L45.324 18.9676C46.0328 19.0813 46.2649 19.3814 46.3759 20.3279C46.4512 20.9686 46.4098 32.3399 46.3313 32.6183C46.137 33.3069 45.7329 33.7409 45.2049 33.8278C45.038 33.8553 45.0343 33.8608 45.0199 34.1093L45.0052 34.3628H46.7863H48.5675L48.5528 34.1093C48.5384 33.8608 48.5347 33.8553 48.3678 33.8278C47.8398 33.7409 47.4352 33.3064 47.2416 32.6183C47.1668 32.3526 47.1267 20.4325 47.2011 20.5926C47.2258 20.6458 48.0798 23.6515 49.0988 27.272C50.1178 30.8924 50.9849 33.969 51.0256 34.1087C51.0987 34.3596 51.102 34.3628 51.2908 34.3628C51.396 34.3628 51.482 34.3516 51.482 34.3378C51.482 34.3035 55.4163 20.8645 55.4706 20.7136C55.4965 20.6415 55.5105 23.0127 55.5052 26.5702L55.4964 32.5478L55.3913 32.8243C55.1755 33.3916 54.8066 33.7433 54.3458 33.8211L54.134 33.8569L54.1193 34.1098L54.1045 34.3628H56.7129H59.3213L59.3066 34.1093C59.2922 33.8614 59.2882 33.8552 59.1216 33.8256C58.5607 33.7259 58.1633 33.2956 57.9777 32.5868C57.8686 32.17 57.8686 20.6315 57.9777 20.2147C58.0811 19.8198 58.2566 19.5003 58.4809 19.2987C58.7263 19.0782 58.8327 19.0222 59.0874 18.9792L59.2919 18.9446L59.3066 18.6911L59.3213 18.4376L57.3641 18.4503L55.4068 18.4629L53.7729 23.9905C52.7438 27.472 52.126 29.4876 52.104 29.4357C52.0848 29.3904 51.3994 26.9356 50.5809 23.9807C49.7625 21.0258 49.0815 18.57 49.0676 18.5234C49.0442 18.4445 48.9033 18.4387 47.0021 18.4387H44.9616V18.6741ZM70.6148 18.6881C70.6294 18.9411 70.6326 18.9462 70.7999 18.974C71.3182 19.0599 71.7568 19.5891 71.9128 20.3166C71.9519 20.4992 71.9678 22.2492 71.9678 26.3921C71.9678 31.8828 71.9628 32.2291 71.8787 32.5305C71.6898 33.2083 71.2315 33.7245 70.7269 33.8282C70.5898 33.8563 70.5801 33.8735 70.5663 34.1105L70.5515 34.3628H73.1356H75.7197L75.7049 34.1098L75.6902 33.8569L75.4802 33.8214C75.084 33.7545 74.7542 33.4685 74.5339 33.0005C74.3139 32.5331 74.3034 32.3788 74.3034 29.5929V26.9574H74.6818H75.06L76.4213 30.329C77.2547 32.3933 77.8435 33.7863 77.9397 33.9213C78.2219 34.3173 78.2954 34.3363 79.6195 34.3545L80.7752 34.3705V34.1246C80.7752 33.9228 80.7599 33.8788 80.69 33.8786C80.518 33.8783 80.307 33.6943 80.1572 33.414C80.0301 33.1765 77.3203 26.8512 77.3203 26.7922C77.3203 26.7818 77.4785 26.7254 77.6719 26.667C78.5561 26.3998 78.9895 26.0051 79.1519 25.3188C79.225 25.0098 79.2343 23.196 79.1737 21.0766C79.1393 19.8744 79.1323 19.8062 79.0154 19.5512C78.8595 19.2114 78.4804 18.8666 78.1087 18.7266C77.471 18.4866 77.314 18.4764 73.8506 18.4527L70.5999 18.4305L70.6148 18.6881ZM106.759 18.6798C106.759 18.9039 106.769 18.9228 106.893 18.9482C107.411 19.0538 107.633 19.2046 107.846 19.5937C108.126 20.105 108.12 19.9682 108.12 26.4008C108.12 31.2941 108.109 32.3608 108.052 32.6273C107.898 33.3486 107.539 33.75 106.978 33.8276L106.784 33.8546L106.769 34.1087L106.754 34.3628H109.29H111.825L111.81 34.1091L111.796 33.8554L111.562 33.8223C111.207 33.7722 110.87 33.5257 110.696 33.1906C110.456 32.7255 110.459 32.8203 110.459 26.4008C110.459 21.2693 110.469 20.3549 110.531 20.0949C110.699 19.3853 110.998 19.0887 111.686 18.9482C111.811 18.9228 111.82 18.9039 111.82 18.6798V18.4387H109.29H106.759V18.6798ZM122.379 18.6798C122.379 18.9033 122.389 18.923 122.513 18.9503C122.827 19.0195 122.96 19.0804 123.149 19.2414C123.403 19.457 123.674 19.9996 123.74 20.4232C123.771 20.6217 123.79 22.7392 123.79 26.1645C123.79 32.1281 123.788 32.0818 124.084 32.7845C124.454 33.6646 125.144 34.227 126.207 34.5171C126.545 34.6092 126.712 34.6209 127.683 34.62C128.975 34.6189 129.418 34.5544 129.957 34.2893C130.776 33.8868 131.211 33.116 131.376 31.7733C131.412 31.4814 131.43 29.6452 131.431 26.2071C131.431 23.2532 131.452 20.8883 131.479 20.6328C131.576 19.7128 131.947 19.1433 132.546 18.9925L132.768 18.9366L132.783 18.6877L132.798 18.4387H131.092H129.386V18.6775C129.386 18.8841 129.401 18.9201 129.496 18.9454C129.878 19.0471 129.997 19.1062 130.172 19.2802C130.28 19.3873 130.421 19.5789 130.486 19.7061C130.752 20.2294 130.747 20.1127 130.748 25.797C130.748 29.0793 130.73 31.2037 130.699 31.46C130.605 32.2329 130.367 32.8442 130.035 33.1625C129.65 33.5324 129.116 33.6579 128.058 33.6278C127.491 33.6117 127.327 33.59 127.144 33.5076C126.689 33.303 126.392 32.8705 126.245 32.201C126.099 31.5339 126.073 30.4037 126.089 25.4074C126.107 19.9009 126.091 20.1743 126.432 19.6076C126.664 19.2241 126.913 19.0461 127.355 18.95C127.479 18.9229 127.489 18.9034 127.489 18.6798V18.4387H124.934H122.379V18.6798ZM133.522 18.6798C133.522 18.9033 133.532 18.923 133.656 18.9503C134.141 19.0571 134.4 19.2543 134.637 19.6968C134.934 20.25 134.93 20.1642 134.93 26.4008C134.93 32.513 134.929 32.5393 134.674 33.0394C134.436 33.5079 134.145 33.7559 133.757 33.8214L133.547 33.8569L133.532 34.1101L133.517 34.3633L137.787 34.351L142.056 34.3386L142.362 32.9592C142.53 32.2005 142.669 31.5525 142.669 31.5192C142.67 31.477 142.576 31.4587 142.358 31.4587H142.046L141.942 31.7673C141.713 32.4545 141.224 33.044 140.651 33.3256C140.117 33.5879 139.722 33.6501 138.753 33.6242C137.87 33.6006 137.678 33.5579 137.481 33.3405C137.261 33.0991 137.254 33.0033 137.233 29.7935L137.213 26.7487L137.642 26.7803C138.792 26.8648 139.057 27.1177 139.354 28.4123L139.492 29.0144L139.719 29.0292L139.945 29.044V26.3282V23.6123L139.719 23.6271L139.493 23.6419L139.4 24.0983C139.215 25.0158 139.019 25.4175 138.653 25.6306C138.443 25.7531 137.918 25.874 137.488 25.8993L137.245 25.9135L137.232 23.2047C137.218 20.2932 137.25 19.5676 137.406 19.362L137.5 19.2373L138.297 19.2407C138.735 19.2425 139.244 19.2709 139.428 19.3035C140.495 19.4937 141.081 20.0538 141.296 21.09L141.379 21.488H141.66H141.94V19.9633V18.4387H137.731H133.522V18.6798ZM143.011 19.9631V21.488H143.268H143.525L143.585 21.1049C143.698 20.3948 143.914 19.926 144.245 19.675C144.563 19.4335 144.918 19.3438 145.651 19.3204L146.32 19.2989V25.7928C146.32 32.9665 146.332 32.6798 146.013 33.2037C145.817 33.526 145.562 33.7311 145.263 33.8062L145.03 33.8649L145.016 34.1138L145.001 34.3628H147.512H150.023L150.008 34.1138L149.994 33.8649L149.761 33.8062C149.344 33.7013 148.996 33.3374 148.789 32.7898L148.68 32.4994L148.667 25.9046L148.654 19.3099L149.202 19.3106C150.266 19.312 150.82 19.5554 151.132 20.1581C151.24 20.3672 151.429 21.0459 151.429 21.2256C151.429 21.4503 151.474 21.488 151.744 21.488H152L151.994 19.9754L151.989 18.4629L147.5 18.4505L143.011 18.4382V19.9631ZM30.512 19.3042C30.6605 19.3604 30.8729 19.4729 30.984 19.5542C31.6947 20.074 32.1878 21.6768 32.3562 24.0139C32.4693 25.5841 32.3691 29.5087 32.1884 30.5875C31.9557 31.9768 31.3669 33.0876 30.6892 33.4161C30.2348 33.6364 28.6671 33.7127 28.2899 33.533C27.9876 33.3888 28.0051 33.7667 27.9888 27.0333C27.9733 20.653 27.9879 20.0591 28.1684 19.7089C28.4011 19.2576 28.6715 19.1573 29.5851 19.1833C30.1029 19.1981 30.2992 19.2237 30.512 19.3042ZM76.2674 19.3126C76.6011 19.3971 76.8505 19.6456 76.9527 19.9952C77.0231 20.2362 77.031 20.5566 77.0183 22.6608L77.0041 25.0526L76.8576 25.3374C76.6875 25.6681 76.4317 25.8829 76.0202 26.0407C75.7898 26.1292 75.6091 26.1529 75.0212 26.1718L74.3034 26.195L74.3036 22.9097C74.3038 19.7293 74.3068 19.6195 74.3994 19.4685C74.452 19.3827 74.545 19.3019 74.606 19.2889C74.6671 19.2759 74.7608 19.2546 74.8144 19.2415C74.9853 19.1997 76.0222 19.2504 76.2674 19.3126ZM65.178 25.2125C65.5384 27.1412 65.8265 28.7261 65.818 28.7345C65.8096 28.7429 65.1571 28.7439 64.3681 28.7369L62.9334 28.724L63.7141 25.173C64.1434 23.2198 64.501 21.6407 64.5087 21.6638C64.5164 21.6869 64.8176 23.2838 65.178 25.2125Z" fill="#292929"/>
</svg>
