<svg width="121" height="50" viewBox="0 0 121 50" fill="none" xmlns="http://www.w3.org/2000/svg">
<path opacity="0.3" fill-rule="evenodd" clip-rule="evenodd" d="M22.2988 11.0473C19.3998 11.3165 15.3838 13.1351 11.6713 15.8599C9.50259 17.4516 8.09685 18.6929 6.89125 20.0809C3.41219 24.0862 1.01059 28.6482 0.120368 32.9426C-0.0667626 33.8453 -0.0304833 35.7583 0.192927 36.7695C0.457137 37.9658 1.04753 39.1427 1.7203 39.8145C3.36102 41.4527 7.39475 42.3637 10.5544 41.8097C13.6328 41.2699 17.0926 39.5533 20.1615 37.0431L20.5055 36.7619L20.398 37.3469C20.2685 38.0516 20.3501 39.0747 20.592 39.78C20.8085 40.4111 21.7205 41.3202 22.4873 41.6689C23.1499 41.9703 24.662 41.9947 25.6732 41.7205C26.9978 41.3612 29.3662 40.1096 30.8677 38.9756C31.1835 38.737 31.4564 38.5423 31.4742 38.5427C31.4919 38.5431 31.5119 38.8558 31.5186 39.2373C31.5388 40.3887 32.1655 41.2769 33.3203 41.7908C35.2395 42.6447 38.8006 40.836 42.2617 37.2492C43.0763 36.4051 43.6637 35.8392 43.5673 35.9917C42.7674 37.2558 40.0525 41.676 40.0525 41.7142C40.0525 41.7409 40.8553 41.749 41.8365 41.7323L43.6204 41.7018L44.3866 40.3713C48.6789 32.9176 50.102 30.6104 51.0538 29.5616C51.8457 28.6893 53.0833 27.8105 54.0234 27.4529C54.5646 27.2471 54.8161 27.2179 55.6508 27.2638C56.5877 27.3152 56.6539 27.3358 56.9465 27.6651C57.3009 28.0639 57.3684 28.5003 57.0619 28.4104C56.3953 28.2149 55.8653 28.2284 55.5117 28.45C54.7845 28.9053 54.4821 30.2458 54.9556 30.9145C55.3082 31.4126 55.7442 31.5549 56.5322 31.4294C57.7431 31.2365 59.0233 30.3353 60.961 28.3117C61.6938 27.5464 62.1607 27.1243 62.0325 27.3433C59.0387 32.4512 56.0958 37.7279 55.8795 38.3755C55.4562 39.6437 55.5564 40.515 56.1871 41.0497C56.8682 41.6273 57.1352 41.6779 58.7897 41.5427C60.214 41.4264 60.3362 41.3968 61.2847 40.9393C61.9707 40.6084 62.721 40.1027 63.6875 39.3196C65.303 38.0107 68.0801 35.4473 68.5419 34.8384C68.7145 34.6109 68.8722 34.4414 68.8923 34.4618C68.9125 34.4821 68.5347 35.2907 68.0527 36.2587C66.9898 38.3934 66.803 38.9855 66.8748 39.9936C66.9713 41.3503 67.4258 41.812 68.8041 41.9533C69.8916 42.0648 70.4484 41.9462 71.6552 41.3462C72.9283 40.7132 75.7354 38.2219 77.8136 35.8808C78.1114 35.5454 78.3154 35.3708 78.2669 35.4927C78.0317 36.0849 77.767 37.0349 77.7039 37.5124C77.5544 38.6462 78.0264 40.0291 78.8438 40.8514C79.5651 41.5771 80.0142 41.7294 81.68 41.8139C83.0029 41.881 83.1986 41.8642 84.2162 41.5968C86.2408 41.0648 89.3668 39.2915 91.9352 37.2177C93.4194 36.0195 95.7103 33.8932 97.1988 32.3327C97.9636 31.5308 98.427 31.1103 98.2984 31.3348C98.0328 31.7985 92.7275 40.7672 92.4101 41.289L92.1891 41.6525L93.8178 41.6216L95.4465 41.5909L97.2763 38.5418C100.351 33.4188 101.201 32.0924 102.014 31.1484C104.23 28.5755 107.836 26.4854 109.138 27.0192L109.468 27.1549L108.985 27.2457C108.054 27.421 107.617 27.9651 107.617 28.951C107.617 29.9877 108.146 30.5592 109.104 30.5583C110.572 30.557 111.528 28.5716 110.684 27.2763C110.462 26.9364 109.492 26.4588 109.02 26.4574C107.877 26.4537 105.532 27.677 103.164 29.5117L102.263 30.2098L103.045 28.8598C103.475 28.1172 103.942 27.3234 104.084 27.096C104.225 26.8685 104.341 26.6565 104.341 26.6248C104.341 26.5931 103.609 26.5675 102.714 26.568L101.088 26.5688L100.851 26.9838C100.404 27.7688 98.3095 30.5188 97.1527 31.8406C95.8247 33.3577 93.8567 35.2966 92.6517 36.2747C89.9676 38.4537 86.9345 40.2469 85.1535 40.7078C83.6072 41.1081 81.942 40.6836 81.3159 39.7296C81.0419 39.3121 81.0192 39.1919 81.0299 38.216C81.0387 37.4104 81.105 36.9695 81.3056 36.3797L81.5697 35.6036L82.7827 35.5313C85.8637 35.3478 89.3641 33.7779 91.5209 31.6123C92.6515 30.4771 93.03 29.7418 93.0347 28.671C93.0397 27.5408 92.7855 27.0907 91.8925 26.6485C91.2146 26.3129 91.0939 26.2901 90.0079 26.2909C89.2492 26.2915 88.5995 26.3593 88.1308 26.4865C87.1226 26.7605 85.176 27.7638 83.9405 28.6463C82.6104 29.5963 80.3077 31.8987 79.5328 33.0534C78.7528 34.2156 77.4709 35.7351 75.8959 37.364C73.7373 39.5965 72.2294 40.6481 71.1864 40.6484C70.8127 40.6485 70.6763 40.5873 70.4515 40.3185C70.0599 39.8506 69.9986 39.4296 70.2132 38.6823C70.3304 38.2741 71.5694 35.9922 73.64 32.3709C75.4237 29.2513 76.8832 26.6693 76.8832 26.633C76.8832 26.5968 76.2752 26.5672 75.5321 26.5672H74.1812L73.0806 28.2499C70.8517 31.6577 69.005 33.9404 66.501 36.3827C63.3649 39.4415 60.7373 40.9497 59.4327 40.4398C58.9699 40.259 58.6646 39.6896 58.7419 39.1516C58.8422 38.4534 59.3504 37.5079 62.6451 31.8892L65.7335 26.6226L67.4342 26.5921C68.9657 26.5647 69.1546 26.5399 69.332 26.3426C69.5275 26.1254 69.5152 26.1237 67.858 26.1237C66.9389 26.1237 66.1868 26.1001 66.1868 26.0714C66.1868 26.0427 66.9597 24.6399 67.9044 22.954C68.849 21.2683 69.6484 19.8199 69.6806 19.7354C69.7475 19.5601 68.9314 19.5296 67.4782 19.6531L66.6413 19.7242L65.7893 21.1222C63.625 24.6733 62.0777 26.7236 60.2218 28.4994C59.3106 29.3712 57.6217 30.632 57.5123 30.522C57.4904 30.4999 57.5476 30.3011 57.6394 30.0804C57.8473 29.5799 57.8553 28.5608 57.655 28.0882C57.2885 27.2231 56.4793 26.8677 55.193 27.0064C53.9874 27.1365 53.0265 27.5176 51.934 28.299C51.6458 28.5052 51.3863 28.6738 51.3574 28.6738C51.3285 28.6738 51.5767 28.223 51.909 27.672C52.2414 27.1211 52.5132 26.6471 52.5132 26.6187C52.5132 26.5903 51.8276 26.5672 50.9897 26.5672H49.4662L48.8234 27.6482C47.1744 30.4216 44.5486 34.1117 42.847 36.0471C40.9372 38.2193 38.4452 40.1699 36.9711 40.6465C35.9957 40.9618 35.5359 40.8958 35.1484 40.3851C34.3669 39.3548 34.5375 38.9299 38.2919 32.5545C39.9977 29.6578 41.4928 27.1256 41.6142 26.9275L41.8348 26.5672H40.2883H38.7417L38.1362 27.6482C37.8032 28.2427 37.4662 28.8745 37.3874 29.0521C37.247 29.3685 37.2414 29.3586 37.1087 28.5618C36.9474 27.5934 36.5436 26.8748 35.9082 26.4258C35.0743 25.8366 33.2245 25.7566 31.4822 26.2347C30.3197 26.5536 28.192 27.6118 26.9902 28.4687C25.1953 29.7483 23.1243 32.0368 21.4864 34.5503C20.318 36.3435 20.3845 36.2631 19.4508 37.0104C17.5446 38.5363 15.299 39.8497 13.3511 40.5782C10.5045 41.6427 7.15282 41.5395 5.81313 40.3461C4.70181 39.3561 3.80509 37.2306 3.69537 35.3264C3.55698 32.9216 4.64458 28.8408 6.26645 25.6801C6.81009 24.6207 8.68074 21.9469 10.3842 19.7944C13.7199 15.5793 18.7271 12.0591 22.1885 11.4955C23.1266 11.3427 25.0016 11.3449 25.7394 11.4996C27.9522 11.9636 29.313 13.6749 29.8711 16.6957L29.9627 17.1913L30.5428 16.1805C31.1654 15.0955 32.391 13.3404 33.1719 12.4151L33.6527 11.8454L32.8004 12.1176C30.9441 12.7103 29.4164 12.6886 28.1615 12.0516C26.5662 11.2419 24.3295 10.8587 22.2988 11.0473ZM76.9673 20.6425C76.3017 21.0056 76.116 22.079 76.6155 22.6758C77.4278 23.6464 78.9909 23.1241 78.973 21.8882C78.9658 21.3923 78.6522 20.7827 78.3167 20.6122C77.9496 20.4258 77.3395 20.4395 76.9673 20.6425ZM35.0826 26.4829C35.6933 26.6382 36.3155 27.2423 36.4989 27.8578C36.9419 29.3443 36.3479 31.0388 34.3089 34.1068C32.7992 36.3783 31.2562 38.0693 29.5811 39.2878C27.8295 40.5621 26.4953 41.053 25.0547 40.9533C24.1352 40.8897 23.688 40.6529 23.3751 40.064C23.161 39.6612 23.1263 39.431 23.1288 38.4309C23.1316 37.3427 23.1594 37.198 23.5535 36.2134C24.1382 34.7526 24.51 34.0938 25.8889 32.0744C27.1491 30.229 27.8735 29.4489 29.3914 28.3029C31.7735 26.5044 33.277 26.0236 35.0826 26.4829ZM90.0553 26.8349C90.577 27.0541 90.6969 27.344 90.6494 28.2721C90.5836 29.5623 89.6312 31.3056 88.3373 32.5047C86.7959 33.9331 84.4226 35.0382 82.5885 35.1817L81.7327 35.2486L82.0182 34.5995C82.3878 33.759 82.7146 33.1936 83.6241 31.8204C84.9095 29.8799 86.1946 28.4596 87.5356 27.4974C88.6837 26.6736 89.2911 26.5139 90.0553 26.8349Z" fill="#292929"/>
</svg>
