<svg width="129" height="50" viewBox="0 0 129 50" fill="none" xmlns="http://www.w3.org/2000/svg">
<path opacity="0.3" fill-rule="evenodd" clip-rule="evenodd" d="M18.2049 4.01062C10.8887 4.42789 4.84033 6.902 1.75668 10.7388C0.906164 11.797 0.507579 12.5404 0.250036 13.5487C-0.286766 15.6504 0.0516022 17.7704 1.16088 19.255C2.42228 20.9434 4.32408 22.1128 6.85946 22.7591C7.68976 22.9708 8.88463 23.1761 9.923 23.2854C10.38 23.3335 10.8332 23.3844 10.93 23.3985L11.106 23.4242L10.9104 23.7648C10.0259 25.3048 9.17209 27.2943 8.69594 28.9245C7.6691 32.4405 7.89933 35.1636 9.3539 36.7062C10.4733 37.8934 12.1264 38.4292 14.4486 38.3576C15.9213 38.3122 17.017 38.0471 18.5334 37.3692C20.3002 36.5794 21.8573 35.5435 25.3852 32.8108C27.1204 31.4667 27.9112 30.8829 28.7434 30.3316C29.7509 29.6641 30.891 29.0067 30.891 29.0933C30.891 29.1112 30.7456 29.3026 30.5679 29.5187C29.8613 30.3777 24.5756 37.2984 24.5756 37.3645C24.5756 37.4691 27.6332 37.1879 27.7367 37.0738C27.7575 37.0509 28.0426 36.6625 28.3703 36.2106C30.9165 32.6992 33.5483 29.8736 36.126 27.8836C37.5828 26.7591 38.9218 26.0527 39.6386 26.0307C39.9737 26.0204 40.1673 26.1222 40.2871 26.3719C40.3677 26.5397 40.3722 26.6118 40.3184 26.8657C40.1765 27.5341 39.808 28.1302 38.2325 30.239C37.017 31.8661 36.4766 32.6363 36.0025 33.4171C34.9022 35.2291 34.5534 36.459 34.9503 37.1266C35.216 37.5735 35.8367 37.8264 36.668 37.8264C37.7911 37.8264 38.9362 37.1589 41.8849 34.7852C42.1273 34.5901 42.3698 34.4304 42.4238 34.4304C42.5952 34.4304 42.6804 34.6561 42.8169 35.4721C43.0271 36.7294 43.2964 37.1808 43.9888 37.437C45.3544 37.9421 46.7661 37.7468 48.8675 36.7619C49.5632 36.4358 50.2925 36.0005 50.9571 35.5145C51.7619 34.926 53.4162 33.5648 53.5719 33.363C53.8405 33.0149 54.0092 32.8935 54.6565 32.5825C56.206 31.838 58.7111 30.3036 60.0123 29.3018C60.4908 28.9335 60.711 28.8672 60.8848 29.039C61.0145 29.1673 60.9966 29.2301 60.7046 29.6717C59.7167 31.1661 58.4302 32.8542 55.7629 36.1558C53.1002 39.4516 52.5823 40.1109 49.9752 43.523C47.8716 46.2762 47.0771 47.3015 46.2533 48.3263C46.0307 48.6032 45.869 48.8423 45.894 48.8576C46.0019 48.9235 46.6931 48.9996 47.1868 49C47.7726 49.0005 48.4596 48.8917 48.7237 48.7566C49.0034 48.6136 48.9044 48.7404 53.5395 42.5918C58.2695 36.3174 61.7029 32.304 64.268 30.0508C66.2026 28.3515 68.2171 27.0418 68.9337 27.0174C69.1914 27.0087 69.1988 27.0129 69.2151 27.1782C69.2545 27.5775 68.4326 28.8572 66.1052 32.0203C64.9042 33.6525 64.6132 34.1426 64.3975 34.896C64.2186 35.521 64.22 36.3161 64.4009 36.7168C64.5459 37.0379 64.8525 37.3411 65.167 37.4742C65.2819 37.5229 65.5761 37.5759 65.8207 37.592C67.019 37.6709 68.5201 36.9111 71.1872 34.8758C71.8241 34.3898 72.3633 33.9922 72.3854 33.9922C72.5044 33.9922 72.5666 34.23 72.6391 34.9617C72.7756 36.3395 72.927 36.6677 73.5689 36.9775C74.0999 37.2338 74.5294 37.3334 75.1027 37.3334C76.1341 37.3334 77.0859 36.9625 79.0143 35.8086C79.6243 35.4437 80.1652 35.1292 80.2165 35.1098C80.374 35.05 80.5229 35.2464 80.8879 35.9951C81.4301 37.1071 81.8917 37.5372 82.6041 37.5937C83.0808 37.6315 83.5043 37.5275 84.119 37.2216C84.9412 36.8124 85.7424 36.1798 86.9576 34.9805C88.8317 33.1308 90.3019 31.323 93.3233 27.1526C94.0079 26.2075 94.6007 25.4219 94.6406 25.4068C94.7463 25.3667 95.153 25.5332 95.4153 25.7239C95.7048 25.9344 95.9277 26.3625 95.9277 26.708C95.9277 27.4866 95.45 28.3016 93.5676 30.7347C91.5088 33.3958 90.9687 34.3791 90.9016 35.5882C90.8785 36.0036 90.8934 36.1824 90.9713 36.4273C91.1009 36.8347 91.4515 37.2228 91.8391 37.3876C92.0926 37.4955 92.1946 37.5078 92.6301 37.4832C93.6527 37.4254 94.7397 36.9115 97.0176 35.4091L98.0798 34.7084L98.1171 35.0761C98.2654 36.5361 98.8322 37.2644 99.9641 37.4492C100.671 37.5646 101.703 37.3744 102.88 36.912C103.831 36.5383 105.429 35.6949 106.354 35.0786L106.67 34.8679L106.702 35.0737C106.836 35.9387 107.107 36.6627 107.449 37.0698C107.793 37.4785 108.515 37.6832 109.18 37.5605C110.696 37.281 112.89 35.4476 115.354 32.4037C116.295 31.2412 117.699 29.3096 117.699 29.178C117.699 29.1411 117.582 29.1173 117.402 29.1173H117.105L116.458 29.9938C114.293 32.9226 112.686 34.6258 111.107 35.6649C110.038 36.3678 109.517 36.5075 109.155 36.1877C108.993 36.0445 108.974 35.9969 108.974 35.7317C108.974 35.3944 109.022 35.3056 109.961 33.91C110.729 32.7694 111.361 31.8919 112.898 29.8316C113.628 28.8537 115.214 26.7093 116.422 25.0662C120.653 19.3141 121.99 17.5509 124.814 13.9995C127.328 10.8381 129 8.65107 129 8.52481C129 8.49485 128.857 8.42873 128.681 8.37785C128.399 8.29585 128.279 8.29267 127.615 8.34986C127.204 8.3853 126.704 8.41389 126.505 8.4134L126.143 8.41247L125.337 9.43949C124.206 10.8792 122.926 12.5765 121.383 14.6842C116.188 21.7757 115.156 23.1512 113.539 25.1424C112.243 26.7371 112.136 26.8658 112.104 26.8687C112.089 26.87 111.992 26.7107 111.89 26.5147C111.431 25.6385 110.433 25.1574 108.918 25.083C107.852 25.0305 106.965 25.2474 105.719 25.8651C104.417 26.5109 103.049 27.5427 101.632 28.9484C100.279 30.2908 99.1663 31.7286 98.6461 32.8063C98.4745 33.162 98.3465 33.3361 98.0665 33.5951C96.9022 34.672 95.476 35.5428 94.4527 35.8015C93.946 35.9296 93.7712 35.9353 93.5205 35.8318C93.2773 35.7313 93.1946 35.5705 93.2256 35.2577C93.2657 34.8522 93.5122 34.4415 94.3375 33.4052C96.3535 30.8739 97.2713 29.5279 97.7372 28.4194C97.8702 28.1028 97.8928 27.9737 97.8935 27.5288C97.8941 27.1139 97.8706 26.9585 97.7779 26.762C97.5737 26.3292 97.216 25.9519 96.4075 25.3165C95.5587 24.6495 95.3183 24.4092 95.3183 24.2279C95.3183 24.1644 95.3708 23.9273 95.4351 23.701C95.5919 23.1483 95.5623 22.8128 95.3267 22.4743C94.8972 21.8569 94.0624 21.7516 93.4227 22.2341C93.0605 22.5073 92.9278 22.7736 92.9501 23.1831C92.9673 23.4988 92.9942 23.5581 93.3623 24.0956C93.9281 24.9214 93.929 24.941 93.4345 25.6117C93.2901 25.8075 92.6542 26.7072 92.0213 27.611C88.5879 32.5145 86.7107 34.6256 84.4922 36.0785C84.0419 36.3734 83.9711 36.4023 83.6985 36.4023C83.4417 36.4023 83.3764 36.3796 83.2374 36.2422C83.0092 36.0166 83.0239 35.7922 83.3089 35.149C84.33 32.8443 85.5051 31.1361 88.7135 27.2927C89.9796 25.776 90.1104 25.5993 90.1107 25.4046C90.111 25.2308 89.9924 25.2027 89.5655 25.2753C89.3628 25.3098 88.808 25.3409 88.3327 25.3444L87.4686 25.3507L87.1417 25.739C86.7302 26.2278 86.4118 26.4552 86.1388 26.4552C85.9644 26.4552 85.907 26.4203 85.738 26.2115C85.23 25.584 84.6378 25.162 83.9618 24.9459C83.4484 24.7818 82.4677 24.7466 81.8504 24.8701C80.1315 25.2141 78.1781 26.4107 76.2582 28.2956C74.9518 29.5782 73.9299 30.8865 73.3593 32.0069C73.1414 32.4347 73.0749 32.5151 72.7361 32.7598C72.5275 32.9104 71.883 33.4049 71.3039 33.8587C69.5076 35.2661 68.7779 35.7452 68.0146 36.018C67.4254 36.2287 67.0956 36.2701 66.9188 36.1554C66.7257 36.0304 66.6224 35.7536 66.6224 35.3618C66.6224 34.8034 66.9116 34.3248 68.7648 31.8158C71.4297 28.2078 71.9568 27.2617 71.9615 26.0773C71.9645 25.3224 71.6647 24.9497 71.0221 24.9093C70.1967 24.8573 69.3185 25.3197 66.567 27.2547C65.8451 27.7624 65.3786 28.0218 65.1875 28.0218C64.8518 28.0218 64.9647 27.5102 65.458 26.7953C65.8273 26.2603 66.1612 25.8496 67.2891 24.5436C68.2875 23.3874 68.7719 22.7839 68.9879 22.4267C69.3089 21.896 69.3944 21.9417 68.0825 21.9424C67.447 21.9427 66.8398 21.958 66.7332 21.9762C66.5661 22.0048 66.4797 22.0875 66.109 22.5733C64.6595 24.4727 62.6096 26.4045 59.9551 28.3728C58.8902 29.1623 56.7114 30.6442 56.3344 30.8353C56.0987 30.9548 55.728 30.9671 55.6187 30.8589C55.5246 30.7659 55.5418 30.6674 55.957 28.9256C56.0647 28.4737 56.178 27.8872 56.2087 27.6222C56.3423 26.4721 55.9418 25.6754 54.9929 25.2029C54.4353 24.9253 53.9734 24.8287 53.2162 24.8317C50.4798 24.8423 47.9232 26.7078 44.051 31.5193C42.5832 33.3433 40.7423 34.9936 38.9129 36.1257C38.0874 36.6364 37.5339 36.8671 37.1325 36.8675C36.8765 36.8678 36.7933 36.8458 36.7309 36.7615C36.4903 36.4361 36.8314 35.7976 38.4008 33.6362C41.052 29.9847 41.3274 29.5797 41.8061 28.6278C42.3188 27.608 42.494 26.8804 42.3908 26.1997C42.2513 25.28 40.8786 24.6533 39.5884 24.9203C38.794 25.0847 38.1524 25.4617 36.3458 26.8254C35.6943 27.3172 34.9987 27.7251 34.8822 27.6835C34.8548 27.6737 34.924 27.5157 35.036 27.3324C35.7632 26.1422 36.6141 25.3735 38.9513 23.7954C42.1405 21.6421 43.5533 20.4922 45.8488 18.182C47.03 16.9931 47.6482 16.3061 48.4783 15.2593C50.3141 12.9445 51.3561 10.6543 51.2623 9.14102C51.2163 8.39795 50.927 7.98971 50.3802 7.896C50.1126 7.85015 49.5354 7.9844 49.1298 8.18685C48.4641 8.51911 46.9497 9.78325 45.4836 11.2306C43.4311 13.2566 42.1472 14.8067 38.6988 19.4222C35.8955 23.1742 34.7297 24.6297 33.5698 25.8261C32.4648 26.9658 31.3173 27.8983 29.8342 28.8617C28.9769 29.4186 26.182 31.0883 26.183 31.043C26.1835 31.0232 26.2838 30.7482 26.4059 30.4319C27.0644 28.7258 27.3914 27.1205 27.3264 25.9129C27.2882 25.2042 27.1843 24.7854 26.9254 24.2968C26.1923 22.913 24.6714 22.5799 22.4447 23.3154C19.6004 24.255 16.1091 26.9924 14.3115 29.6924C13.8336 30.4102 13.5784 30.9273 13.6716 30.9891C13.9282 31.1592 13.9074 31.1731 14.53 30.4181C15.409 29.352 15.8077 28.9102 16.7345 27.975C19.4041 25.2811 21.5521 23.9769 23.5672 23.8265C24.8143 23.7334 25.7376 24.1855 26.0778 25.0559C26.2571 25.5145 26.2443 26.2914 26.0467 26.9537C25.5701 28.5504 24.2348 30.5076 22.2213 32.5603C20.2699 34.5496 18.1125 36.0664 16.1058 36.8598C14.4784 37.5033 12.8 37.626 11.6154 37.1883C10.053 36.6109 9.67183 34.9431 10.474 32.1933C11.052 30.2122 12.4815 27.2962 14.4182 24.1477C14.9609 23.2655 15.012 23.2008 15.203 23.1543C15.3154 23.127 16.0555 22.9506 16.8477 22.7624C18.4908 22.3719 20.4525 21.848 21.6673 21.4751C22.1243 21.3348 22.5843 21.195 22.6894 21.1645C23.5833 20.9047 26.1113 19.9363 27.3408 19.3827C31.4048 17.5526 35.3174 14.7742 37.0592 12.4815C38.736 10.2743 39.6987 8.23056 39.6982 6.87878C39.6979 5.88867 39.212 5.43519 37.8988 5.19944C37.3051 5.09285 36.9426 5.1364 35.7665 5.45546C27.3748 7.73211 19.419 13.2531 12.252 21.7732L11.5894 22.5609L10.5883 22.5264C7.58107 22.4229 5.53352 21.7559 3.84323 20.3292C2.41231 19.1213 1.64644 17.6371 1.4633 15.7168C1.31317 14.1426 1.7235 12.6258 2.58726 11.5623C3.44398 10.5074 4.96082 9.11325 6.06257 8.36804C9.03636 6.35661 12.4029 5.23696 16.8754 4.77187C18.4487 4.60826 19.4826 4.56351 21.8335 4.55721L24.2156 4.55086L24.4362 4.41529L24.6568 4.27967L24.4156 4.23897C23.5808 4.09809 22.2353 4.01801 20.4762 4.00465C19.4251 3.99659 18.403 3.99928 18.2049 4.01062ZM38.2449 6.13899C38.3135 6.21787 38.3696 6.32802 38.3696 6.38383C38.3696 6.55709 37.9826 7.81334 37.7784 8.30292C36.9521 10.2842 34.938 12.6796 32.2482 14.8801C27.9004 18.4369 21.5184 21.2323 16.6129 21.7284C16.24 21.7662 15.9189 21.7811 15.8993 21.7618C15.806 21.6695 18.9399 18.408 20.733 16.7314C24.8086 12.9204 27.1318 11.1982 31.5881 8.68437C34.0269 7.30865 36.2456 6.30578 37.5664 5.98217C37.81 5.92247 38.1186 5.99378 38.2449 6.13899ZM50.3226 8.95123C50.6391 9.14979 50.4289 10.1872 49.8159 11.4525C48.9167 13.3081 45.9643 16.891 43.3119 19.3451C41.5915 20.9371 39.6862 22.4199 38.4638 23.1181L38.1978 23.2701L38.9669 22.1814C39.39 21.5827 40.3546 20.2178 41.1105 19.1483C44.0496 14.99 45.8408 12.7638 47.9747 10.6174C48.5511 10.0376 49.1498 9.46715 49.3052 9.34977C49.8157 8.96388 50.1403 8.83675 50.3226 8.95123ZM54.5457 25.6679C54.7219 25.757 54.91 25.9293 55.0891 26.1656C55.2223 26.3415 55.2746 26.8465 55.2088 27.3229C55.149 27.7559 54.8359 28.8225 54.6801 29.1236C54.5375 29.3993 54.2833 29.4637 53.1783 29.504C52.2298 29.5386 52.1567 29.549 51.927 29.6822C51.4826 29.9396 51.0719 30.5756 50.886 31.2941C50.7272 31.9083 50.7408 32.002 51.0834 32.6478C51.2509 32.9638 51.3881 33.2784 51.3881 33.347C51.3881 33.6175 49.4376 35.2562 48.228 36.0019C46.9469 36.7916 45.7401 37.1549 44.9103 37.0005C44.2353 36.8749 44.0338 36.4942 44.2045 35.6667C44.3687 34.8706 44.8874 33.8417 45.8219 32.4585C46.7447 31.0927 47.8382 29.8266 49.3466 28.3778C51.739 26.0799 53.5222 25.1505 54.5457 25.6679ZM84.5708 25.961C85.4879 26.561 85.0986 28.8368 83.7627 30.6847C82.3099 32.6945 79.6855 34.8794 77.2864 36.0766C75.7046 36.8659 74.7362 36.927 74.3215 36.2636C73.5709 35.0627 75.7406 31.5352 79.0473 28.5806C81.7273 26.1859 83.5752 25.3095 84.5708 25.961ZM110.581 25.9201C110.741 26.0018 110.845 26.1152 110.96 26.3291C111.111 26.6125 111.116 26.6493 111.091 27.2002C111.061 27.8771 110.905 28.4156 110.498 29.2542C109.294 31.7315 106.079 34.7816 103.131 36.2428C101.499 37.052 100.401 37.1525 99.9885 36.5305C99.8203 36.2764 99.8578 35.6048 100.072 35.0404C101.159 32.1733 105.476 27.5874 108.36 26.2368C109.334 25.7806 110.097 25.6717 110.581 25.9201Z" fill="#292929"/>
</svg>
