<svg width="183" height="50" viewBox="0 0 183 50" fill="none" xmlns="http://www.w3.org/2000/svg">
<path opacity="0.3" fill-rule="evenodd" clip-rule="evenodd" d="M158.049 14.0401C158.031 14.072 157.975 14.2278 157.925 14.3862C157.742 14.9647 157.453 15.2143 156.966 15.2143C156.825 15.2143 156.191 15.0388 155.558 14.8243C153.829 14.2384 153.44 14.1703 151.847 14.1742C150.731 14.177 150.376 14.2047 149.802 14.3336C146.159 15.1529 143.238 17.5366 141.789 20.8716C141.139 22.3688 140.898 23.6903 140.954 25.4634C140.996 26.8162 141.087 27.3531 141.474 28.5351C141.979 30.0725 142.834 31.4594 144.026 32.6727C146.378 35.0677 149.581 36.23 153.092 35.9622C154.282 35.8714 155.248 35.6955 156.118 35.4111C156.783 35.1938 158.024 34.5909 158.293 34.3546L158.483 34.1887L158.598 32.2084C158.661 31.1193 158.731 30.0142 158.754 29.7527C158.792 29.3187 158.784 29.2738 158.654 29.2394C158.432 29.1807 158.381 29.2522 158.216 29.8477C157.554 32.2451 156.038 34.1349 154.138 34.9326C153.39 35.2466 152.86 35.3312 151.933 35.2846C150.203 35.1975 148.758 34.5774 147.553 33.4042C146.02 31.9123 145.076 29.8518 144.733 27.2499C144.588 26.1486 144.589 23.949 144.735 22.8112C145.282 18.5506 147.288 15.7319 150.303 14.9848C151.16 14.7725 152.477 14.7715 153.243 14.9826C155.101 15.4945 156.741 16.957 157.643 18.9068C157.794 19.2341 157.979 19.728 158.054 20.0044C158.183 20.4838 158.2 20.508 158.418 20.5299L158.646 20.5527L158.598 19.0537C158.572 18.2292 158.53 16.7607 158.505 15.7904L158.46 14.0262L158.271 14.004C158.167 13.9919 158.067 14.0081 158.049 14.0401ZM2.03159 16.9605C2.00386 18.3566 1.99213 19.6447 2.00557 19.8229C2.02832 20.1245 2.04489 20.1484 2.24562 20.1683C2.43788 20.1874 2.47166 20.1602 2.55777 19.9163C2.75281 19.364 3.40789 18.0255 3.72935 17.5222C4.79052 15.861 6.07509 15.1894 8.37788 15.092L9.3929 15.049L9.37334 24.4388C9.355 33.2639 9.34611 33.8481 9.22658 34.1516C8.95845 34.8327 8.57377 35.0328 7.29041 35.1592C6.90004 35.1977 6.53869 35.2299 6.48735 35.2309C6.42507 35.2321 6.40139 35.3108 6.41625 35.4668L6.43851 35.7008L10.8292 35.7194L15.2199 35.7379V35.4854C15.2199 35.3323 15.1849 35.2321 15.131 35.2309C15.0822 35.2299 14.7228 35.1977 14.3324 35.1592C13.3299 35.0605 12.9215 34.9269 12.6924 34.6227C12.2894 34.0876 12.3046 34.49 12.3046 24.384V15.0703L12.9623 15.0707C15.3201 15.0722 16.8056 15.8054 17.9095 17.5121C18.2574 18.0499 18.931 19.4178 19.1237 19.9776C19.1806 20.1429 19.2367 20.1829 19.4114 20.1829H19.6284V17.3026V14.4222H10.8552H2.08215L2.03159 16.9605ZM123.541 15.8973C122.106 16.2134 120.822 17.2108 120.201 18.4907C119.796 19.3248 119.694 19.9413 119.81 20.8564C119.949 21.9503 120.281 22.7518 121.123 24.024C121.381 24.4138 121.592 24.7543 121.592 24.7805C121.592 24.8068 121.392 24.9048 121.148 24.9983C120.09 25.403 119.051 26.0752 118.191 26.9109C116.887 28.1771 116.33 29.366 116.33 30.882C116.33 31.7511 116.467 32.3453 116.849 33.1445C117.084 33.6351 117.262 33.8793 117.75 34.3747C118.255 34.8884 118.471 35.0497 119.033 35.3296C120.051 35.8372 120.643 35.973 121.841 35.9733C122.69 35.9735 122.94 35.9458 123.542 35.7841C124.842 35.4351 126.132 34.6698 127.314 33.546C127.626 33.2496 127.897 33.0322 127.918 33.0629C127.939 33.0936 128.383 33.7079 128.905 34.4278L129.854 35.7369H132.399C135.113 35.7369 135.075 35.742 134.985 35.3936C134.955 35.2768 134.864 35.2445 134.458 35.2062C133.077 35.0763 132.258 34.4517 130.505 32.1921L129.614 31.0429L129.803 30.7795C129.907 30.6347 130.395 29.9167 130.887 29.184C132.264 27.1342 132.501 26.8319 132.973 26.5229C133.397 26.2451 134.172 25.992 134.853 25.9088C135.685 25.8071 135.681 25.8083 135.657 25.5975L135.635 25.4036L132.311 25.3848L128.987 25.3661V25.5725C128.987 25.773 128.999 25.78 129.431 25.8214C130.609 25.9343 131.193 26.5037 130.974 27.3269C130.833 27.8557 129.791 29.8099 129.337 30.395L129.208 30.5619L128.713 29.927C126.886 27.5823 124.436 24.3929 124.436 24.3592C124.436 24.3371 124.684 24.1955 124.987 24.0446C126.29 23.3962 127.574 22.3587 128.075 21.5511C128.628 20.6593 128.865 19.6239 128.705 18.7936C128.312 16.7535 125.87 15.384 123.541 15.8973ZM125.486 16.6201C125.996 16.7733 126.56 17.3087 126.812 17.8778C127.106 18.5412 127.199 19.4407 127.046 20.1594C126.764 21.4956 125.898 22.6911 124.665 23.4498C124.024 23.8441 123.97 23.8338 123.565 23.2433C123.038 22.474 122.69 21.7978 122.437 21.0459C122.228 20.4288 122.206 20.2796 122.203 19.4988C122.2 18.8418 122.231 18.5398 122.331 18.2387C122.71 17.0947 123.47 16.5218 124.619 16.5139C124.895 16.512 125.286 16.5598 125.486 16.6201ZM69.022 18.5807C69.0042 18.6104 67.8156 21.8427 66.3806 25.7636C64.9457 29.6845 63.6484 33.154 63.4978 33.4735C63.0484 34.4266 62.5759 34.8183 61.5089 35.122C60.9989 35.2672 60.9756 35.2832 60.9756 35.4873V35.7008H63.4998H66.024V35.4858C66.024 35.2802 66.007 35.2683 65.6338 35.2139C65.0969 35.1357 64.6733 34.9123 64.489 34.6103C64.3572 34.3945 64.3401 34.2838 64.3699 33.8414C64.3981 33.4254 64.5283 32.9801 65.0371 31.5603L65.6694 29.7961H68.4052H71.1409L71.7299 31.3443C72.0539 32.1958 72.3702 33.0943 72.4328 33.3411C72.6974 34.3835 72.2978 34.9818 71.1999 35.187C70.733 35.2743 70.7169 35.2843 70.7169 35.4891V35.7008L74.1122 35.7196L77.5074 35.7382V35.4855C77.5074 35.2966 77.4772 35.2328 77.3877 35.2328C77.0437 35.2328 76.4164 34.9771 76.1265 34.7188C75.5396 34.1955 75.7627 34.7409 72.5673 26.0198C71.2241 22.3541 70.056 19.1685 69.9715 18.9408L69.8179 18.5267H69.4361C69.2261 18.5267 69.0398 18.5511 69.022 18.5807ZM168.427 18.8521C165.604 19.3325 163.159 21.393 162.093 24.1888C161.383 26.0492 161.337 28.2351 161.969 30.1233C162.951 33.0611 165.262 35.1464 168.24 35.783C169.063 35.9589 170.614 35.957 171.436 35.7791C174.724 35.068 177.22 32.5087 177.948 29.1004C178.119 28.2989 178.154 26.9071 178.025 26.0517C177.379 21.7893 173.902 18.7116 169.774 18.7502C169.339 18.7542 168.733 18.8001 168.427 18.8521ZM22.2592 19.2014V19.444L22.9964 19.4772C23.9361 19.5195 24.3386 19.696 24.6057 20.1829L24.7835 20.507L24.8026 27.1623C24.8238 34.4766 24.8295 34.3692 24.3995 34.8046C24.1449 35.0623 23.8033 35.1583 22.9525 35.2109L22.2592 35.2537V35.4953V35.7369H26.2411H30.2229V35.4953V35.2537L29.5297 35.2109C28.6823 35.1586 28.3781 35.0734 28.1009 34.8113C27.6502 34.3849 27.6582 34.5296 27.6795 27.1623L27.6987 20.507L27.8765 20.1829C28.1436 19.696 28.5461 19.5195 29.4858 19.4772L30.2229 19.444V19.2014V18.9588H26.2411H22.2592V19.2014ZM33.5211 19.0626C33.4994 19.1196 33.4928 19.225 33.5063 19.2966C33.5272 19.4076 33.6323 19.4335 34.218 19.4723C35.325 19.5456 35.6792 19.8172 35.8328 20.7105C35.9333 21.2946 35.9417 33.2759 35.842 33.8918C35.6861 34.856 35.3223 35.1435 34.1699 35.2131L33.4864 35.2544L33.5078 35.4776L33.5293 35.7008H37.4756H41.4219L41.4434 35.4778L41.4648 35.2548L40.6968 35.2105C40.2743 35.1861 39.8097 35.1313 39.6643 35.0887C39.3029 34.9828 39.0101 34.7168 38.8524 34.351C38.7314 34.0702 38.7185 33.7745 38.6983 30.8114L38.6763 27.5782L39.8358 27.6206C41.1934 27.6701 41.6912 27.782 42.234 28.1597C42.6772 28.4681 43.0589 29.084 43.1364 29.6161C43.1883 29.9716 43.2533 30.0487 43.4563 29.9949C43.5849 29.9609 43.5906 29.847 43.5906 27.3083C43.5906 24.7244 43.587 24.656 43.449 24.6117C43.2432 24.5455 43.1888 24.6065 43.1415 24.956C43.0358 25.7369 42.52 26.4455 41.8305 26.7567C41.326 26.9845 40.56 27.0958 39.4969 27.0958H38.6844V23.3433V19.5908L40.1953 19.6243C41.5792 19.6551 41.76 19.6742 42.3447 19.8528C43.3614 20.1633 44.0159 20.5929 44.5954 21.3298C44.898 21.7147 45.3767 22.6924 45.508 23.1938C45.576 23.4531 45.6151 23.5006 45.7454 23.4818L45.9015 23.4593L45.8798 21.4071C45.8679 20.2783 45.8414 19.2657 45.8208 19.1568L45.7835 18.9588H39.6719C34.4151 18.9588 33.5549 18.9733 33.5211 19.0626ZM48.453 19.0626C48.4314 19.1196 48.4247 19.225 48.4382 19.2966C48.459 19.4069 48.5608 19.4332 49.102 19.4686C50.1237 19.5353 50.4093 19.6843 50.6798 20.2919C50.7993 20.5602 50.809 21.0013 50.8282 27.0238C50.8497 33.7336 50.8335 34.182 50.5524 34.6501C50.3542 34.9802 49.9107 35.1559 49.1205 35.2175L48.4612 35.2688V35.4848V35.7008H52.4075H56.3538L56.3753 35.4778L56.3968 35.2548L55.6287 35.2105C55.2063 35.1861 54.7416 35.1313 54.5962 35.0887C54.2346 34.9828 53.9417 34.7165 53.785 34.351C53.665 34.0711 53.6516 33.7655 53.6303 30.8114L53.607 27.5782L54.7671 27.6205C56.1244 27.6701 56.6215 27.7816 57.1689 28.1597C57.637 28.483 57.9237 28.9269 58.041 29.51C58.1353 29.9789 58.1852 30.0487 58.3882 29.9949C58.5168 29.9609 58.5225 29.847 58.5225 27.3083C58.5225 24.7244 58.519 24.656 58.3809 24.6117C58.1718 24.5444 58.1195 24.6076 58.0689 24.9879C58.0438 25.1769 57.9485 25.4942 57.8571 25.6931C57.3946 26.6993 56.4256 27.0958 54.4289 27.0958H53.6163V23.3433V19.5908L55.1273 19.6243C56.5044 19.6549 56.6938 19.6749 57.2655 19.8496C58.0231 20.0811 58.2898 20.2142 58.8443 20.6379C59.5232 21.1566 60.0882 22.0384 60.4122 23.0845C60.5195 23.431 60.566 23.4981 60.6874 23.4805C60.8317 23.4595 60.8331 23.4337 60.8067 21.2631C60.792 20.0551 60.7661 19.0425 60.7491 19.0128C60.7322 18.9831 57.9675 18.9588 54.6054 18.9588C49.3472 18.9588 48.4868 18.9733 48.453 19.0626ZM78.1606 19.1928C78.1823 19.4198 78.1947 19.4281 78.5755 19.4696C79.5276 19.5733 80.2465 20.0431 80.573 20.7749L80.7427 21.155L80.7646 26.5557C80.7915 33.216 80.7431 33.8712 80.1672 34.6359C79.936 34.9428 79.6636 35.0647 78.9616 35.1752L78.4247 35.2597L78.4461 35.4803L78.4673 35.7008H81.347H84.2268L84.2484 35.4756C84.2699 35.2512 84.2684 35.2501 83.8573 35.2032C82.3252 35.0281 81.9838 34.7396 81.6579 33.3445C81.549 32.8781 81.5326 32.2072 81.5085 27.2398C81.4925 23.9447 81.5076 21.6886 81.5453 21.7311C81.5803 21.7707 83.9393 24.8329 86.7874 28.536C89.6356 32.239 92.0914 35.4227 92.2448 35.6108C92.4779 35.8967 92.5635 35.9529 92.7659 35.9529H93.0082L93.0106 29.9221C93.0138 22.1154 93.063 21.1316 93.4931 20.2798C93.7559 19.7592 94.0882 19.5827 94.9813 19.4894L95.4257 19.443V19.2001V18.9572L92.4927 18.976L89.5596 18.9948V19.2087V19.4227L90.1865 19.5068C91.3578 19.664 91.7469 19.9405 92.0099 20.8025C92.2712 21.6594 92.3044 22.4068 92.2825 26.9449L92.2616 31.2946L87.6043 25.1267L82.9471 18.9588H80.5427H78.1383L78.1606 19.1928ZM96.4212 19.2108C96.4212 19.4461 96.4363 19.4628 96.6476 19.4628C96.7722 19.4628 97.0681 19.518 97.3053 19.5854C98.0385 19.7937 98.1207 19.9125 100.674 24.4493L102.97 28.5316L102.949 31.3601L102.927 34.1887L102.749 34.5127C102.495 34.9762 102.117 35.15 101.234 35.2087L100.545 35.2545V35.4957V35.7369H104.385H108.225V35.4954V35.254L107.567 35.2122C106.805 35.1638 106.489 35.0703 106.214 34.8118C105.834 34.4551 105.807 34.1949 105.807 30.9606V28.0106L107.816 24.3385C109.974 20.3931 110.173 20.0951 110.879 19.7623C111.068 19.6732 111.46 19.562 111.75 19.5153L112.277 19.4304V19.1937V18.957L109.735 18.9758L107.194 18.9948V19.2108C107.194 19.4224 107.203 19.4278 107.635 19.4762C108.688 19.5938 109.114 20.0697 108.852 20.8383C108.779 21.0545 105.835 26.6751 105.526 27.188L105.406 27.3882L103.532 24.1276C101.844 21.1904 101.655 20.8291 101.626 20.4846C101.597 20.1413 101.614 20.0807 101.792 19.8921C102.027 19.6442 102.343 19.5261 102.927 19.4687C103.347 19.4275 103.354 19.4229 103.376 19.1928L103.398 18.9588H99.9098H96.4212V19.2108ZM171.232 19.5505C171.88 19.7926 172.294 20.0514 172.738 20.4918C173.693 21.4404 174.301 22.783 174.652 24.718C174.78 25.4202 174.803 25.824 174.803 27.3478C174.803 29.3615 174.698 30.1976 174.284 31.477C173.911 32.6343 173.482 33.3822 172.79 34.0837C172.083 34.7997 171.571 35.0851 170.651 35.2738C168.452 35.725 166.49 34.4874 165.542 32.0519C165.017 30.7026 164.808 29.35 164.808 27.3118C164.808 25.7081 164.907 24.8181 165.215 23.6527C165.826 21.3409 167.072 19.8678 168.791 19.4256C169.416 19.265 170.633 19.3273 171.232 19.5505ZM69.6793 25.7874C70.3477 27.6222 70.8947 29.1372 70.8947 29.1538C70.8947 29.1704 69.7748 29.184 68.406 29.184C67.0373 29.184 65.9172 29.1597 65.9171 29.13C65.916 28.9535 68.3759 22.2913 68.4156 22.3633C68.4421 22.4117 69.0108 23.9524 69.6793 25.7874ZM124.734 28.901C126.193 30.8445 127.387 32.4661 127.387 32.5047C127.387 32.6678 126.27 33.4679 125.538 33.8283C124.297 34.4403 123.353 34.5777 122.286 34.3014C121.277 34.04 120.542 33.5353 119.998 32.7288C118.679 30.7737 119.003 27.6716 120.679 26.2073C121.059 25.8752 121.853 25.3676 121.992 25.3676C122.041 25.3676 123.275 26.9577 124.734 28.901ZM180.479 32.5399C179.706 32.93 179.356 33.8303 179.625 34.739C179.731 35.0978 180.122 35.5586 180.474 35.7407C181.295 36.165 182.328 35.8485 182.754 35.0418C182.997 34.5808 183.052 34.2279 182.954 33.7504C182.724 32.6268 181.496 32.0264 180.479 32.5399Z" fill="#292929"/>
</svg>
