<svg width="145" height="50" viewBox="0 0 145 50" fill="none" xmlns="http://www.w3.org/2000/svg">
<path opacity="0.3" fill-rule="evenodd" clip-rule="evenodd" d="M43.2168 14.0578C40.9642 14.2696 38.6643 15.3919 37.1754 17.0062C35.1591 19.1922 34.176 21.8738 34.1796 25.1782C34.1825 27.995 34.8938 30.2316 36.4455 32.3034C37.6971 33.9746 39.8998 35.3158 42.1642 35.7852C43.2284 36.0059 45.1707 36.0143 46.3439 35.8035C47.4269 35.6087 49.0739 34.9501 49.9585 34.358C50.535 33.9721 50.6367 33.8529 50.6367 33.5635V33.2231L49.9587 33.568C47.597 34.7695 45.0052 34.9304 42.4442 34.0346C40.9802 33.5226 39.2976 32.159 38.3601 30.725C37.8228 29.9031 37.164 28.3919 36.9371 27.4614C36.5618 25.9214 36.5837 22.8344 36.9823 21.1049C37.4367 19.133 38.4818 17.3866 39.8167 16.3682C40.7355 15.6671 41.3333 15.3835 42.5371 15.0776C43.4055 14.8569 43.7414 14.828 44.8027 14.8828C46.8195 14.9872 48.2944 15.5727 49.8151 16.8727C50.2075 17.2081 50.5725 17.4553 50.6263 17.4219C50.68 17.3884 50.7075 17.1934 50.6876 16.9886C50.6675 16.7838 50.6479 16.3728 50.644 16.0752L50.6367 15.5342L49.7588 15.0907C48.7123 14.5622 47.3129 14.1963 45.9922 14.1061C45.4626 14.0699 44.8254 14.025 44.5762 14.0064C44.327 13.9878 43.7152 14.011 43.2168 14.0578ZM60.4356 14.0538C58.2297 14.2648 56.3174 15.1339 54.6912 16.6644C52.2011 19.0078 50.9503 22.8539 51.421 26.7193C51.6521 28.617 52.1824 30.1642 53.1014 31.6209C54.2996 33.52 56.6409 35.1546 59.0195 35.7525C59.9716 35.9918 63.1727 35.9552 64.1172 35.6941C65.1644 35.4047 66.3256 34.8823 67.1475 34.331C67.7309 33.9397 67.8555 33.8008 67.8555 33.5413C67.8555 33.3681 67.8292 33.2264 67.7971 33.2264C67.7651 33.2264 67.4719 33.3761 67.1458 33.5589C66.8196 33.7417 66.1194 34.0355 65.5898 34.2115C64.7018 34.5068 64.4905 34.5317 62.8711 34.5317C61.2509 34.5317 61.0408 34.5069 60.1523 34.2112C56.7709 33.0854 54.7622 30.6509 53.9719 26.7207C53.6834 25.2856 53.7933 22.3675 54.1898 20.9337C55.2603 17.0636 57.633 15.038 61.2888 14.8732C62.2712 14.8289 62.6611 14.8646 63.4978 15.0752C64.9726 15.4463 66.3586 16.2131 67.4873 17.2826L67.8555 17.6313V16.6464C67.8555 15.7016 67.8428 15.6524 67.5439 15.4403C66.1194 14.4288 62.9592 13.8125 60.4356 14.0538ZM118.113 14.2923C118.017 14.4402 117.788 14.9723 117.603 15.4746C117.418 15.9769 116.822 17.4924 116.279 18.8423C115.736 20.1923 115.101 21.7848 114.869 22.3813C114.513 23.2936 112.982 27.1559 111 32.1419C110.75 32.7698 110.376 33.6945 110.169 34.1968C109.535 35.7314 109.517 35.6238 110.414 35.6238H111.188L111.457 34.8532C111.605 34.4294 111.968 33.4148 112.262 32.5985C112.557 31.7823 113.098 30.2789 113.463 29.2578L114.128 27.4011L117.633 27.4312L121.138 27.4614L121.36 28.0322C121.482 28.3461 121.751 29.0139 121.957 29.5162C122.163 30.0185 122.612 31.1487 122.954 32.0278C123.295 32.9068 123.755 34.0626 123.974 34.5963L124.373 35.5667L125.681 35.5989C126.4 35.6166 126.988 35.6162 126.988 35.5981C126.988 35.5581 126.556 34.4685 125.143 30.9432C123.477 26.7874 121.137 20.9345 119.735 17.4153C119.034 15.6573 118.422 14.1748 118.374 14.121C118.326 14.0673 118.209 14.1443 118.113 14.2923ZM0 24.947V35.6446L3.25684 35.5971C6.40832 35.5511 6.54664 35.5394 7.5332 35.2386C9.29156 34.7024 10.5357 33.9078 11.3447 32.8043C12.1055 31.7666 12.2784 31.2032 12.2852 29.7425C12.2908 28.5409 12.2741 28.4501 11.9114 27.7073C11.239 26.3301 9.89387 25.2759 7.97795 24.6246L7.2466 24.376L7.89967 23.8898C8.85961 23.1751 8.96995 23.0695 9.47654 22.3813C10.0721 21.572 10.3131 20.8469 10.3894 19.6352C10.5181 17.5893 9.72372 16.228 7.80802 15.2113C6.5344 14.5352 5.60029 14.372 2.63379 14.307L0 14.2495V24.947ZM14.3867 21.2842C14.3867 28.8403 14.4071 29.1576 15.0067 30.9341C15.6481 32.8344 16.8621 34.2726 18.4807 35.0492C19.0016 35.2992 19.7336 35.5832 20.1074 35.6805C21.1426 35.9498 23.0962 36.0748 24.3748 35.9536C27.4185 35.665 29.907 33.7689 31.131 30.806C31.9779 28.7558 32.0542 27.8946 32.0567 20.3549L32.0586 14.276H31.0442H30.0298L29.9928 22.0673C29.9573 29.5168 29.9456 29.8939 29.7241 30.6605C29.3978 31.7902 28.7226 33.0252 28.1306 33.5751C25.8732 35.6719 21.1579 35.4789 18.938 33.1986C18.2586 32.5005 17.6655 31.5139 17.3206 30.5076C16.8331 29.0855 16.7656 27.9188 16.7656 20.9111V14.276H15.5762H14.3867V21.2842ZM70.4609 24.9499V35.6262L75.3521 35.5965L80.2431 35.5667L80.283 35.0332C80.305 34.7397 80.2832 34.4752 80.2346 34.4452C80.1861 34.4153 78.974 34.5082 77.541 34.6517C76.108 34.7953 74.4896 34.9489 73.9443 34.993L72.9531 35.0735V30.1397V25.2058L73.8311 25.2747C74.314 25.3126 75.5118 25.3774 76.4932 25.4188L78.2773 25.4942V24.9483V24.4025L76.4365 24.4791C75.4241 24.5213 74.2261 24.5873 73.7744 24.6259L72.9531 24.696V19.7714C72.9531 17.0519 72.9973 14.8468 73.0518 14.8468C73.1061 14.8468 73.8834 14.9242 74.7793 15.0189C76.6993 15.2218 80.1347 15.5168 80.1737 15.4822C80.1886 15.4688 80.2141 15.2049 80.2303 14.8955L80.2598 14.333L75.3604 14.3032L70.4609 14.2736V24.9499ZM82.9785 24.9499V35.6238H88.3877H93.7969V34.9889V34.354L93.3154 34.4195C92.8995 34.476 89.5114 34.7599 86.292 35.008L85.3008 35.0844V24.6802V14.276H84.1397H82.9785V24.9499ZM96.5156 24.9499V35.6238H101.953H107.391V34.992V34.3601L106.853 34.424C106.315 34.4877 101.922 34.8565 99.9424 35.0042L98.8945 35.0824V24.6792V14.276H97.7051H96.5156V24.9499ZM122.91 14.9021V15.5282L123.562 15.4696C123.92 15.4374 125.258 15.3347 126.535 15.2412C127.812 15.1478 129.176 15.0393 129.565 15.0003L130.273 14.9294V25.2766V35.6238H131.463H132.652V25.2761V14.9284L133.347 15.0016C133.729 15.0417 135.118 15.151 136.434 15.2443C137.75 15.3375 139.068 15.438 139.364 15.4674L139.902 15.521V14.8985V14.276H131.406H122.91V14.9021ZM142.621 24.8357C142.621 30.6436 142.621 35.4339 142.621 35.4811C142.62 35.5282 143.156 35.5813 143.81 35.5991L145 35.6315V24.9537V14.276H143.811H142.621V24.8357ZM4.04788 15.2368C5.82877 15.7146 7.59585 17.3967 8.09451 19.0888C8.31337 19.8315 8.32017 21.148 8.10879 21.8558C7.93581 22.4352 7.13536 23.8447 6.81987 24.1255C6.6572 24.2704 6.29345 24.2877 4.50293 24.2364L2.37891 24.1754V19.6252V15.0751L2.91699 15.0764C3.213 15.0771 3.72186 15.1494 4.04788 15.2368ZM117.725 18.8138C117.908 19.3603 119.541 23.4845 120.245 25.1782C120.879 26.7042 121.181 26.5434 117.614 26.5785C114.914 26.6051 114.527 26.5871 114.527 26.4352C114.527 26.3398 114.728 25.7096 114.973 25.0349C115.218 24.3602 115.757 22.8579 116.169 21.6963C116.582 20.5348 117.026 19.289 117.155 18.928C117.284 18.5669 117.424 18.2715 117.466 18.2715C117.508 18.2715 117.625 18.5155 117.725 18.8138ZM7.08008 25.5194C8.08975 26.0263 9.05876 27.0503 9.45796 28.0322C9.72995 28.7015 9.79045 29.0353 9.82998 30.087C9.88186 31.4663 9.73868 32.2513 9.23106 33.3686C8.98139 33.9181 8.87298 34.0304 8.39052 34.2396C7.25986 34.7298 6.62095 34.8247 4.45082 34.8247H2.37891V29.9919C2.37891 27.3339 2.39998 25.1378 2.42569 25.1116C2.45141 25.0855 3.3563 25.0897 4.43643 25.1211C6.33559 25.1762 6.42282 25.1895 7.08008 25.5194Z" fill="#292929"/>
</svg>
