<svg width="255" height="50" viewBox="0 0 255 50" fill="none" xmlns="http://www.w3.org/2000/svg">
<path opacity="0.3" fill-rule="evenodd" clip-rule="evenodd" d="M69.2102 12.2221C63.8233 13.2595 59.8296 18.9217 60.5827 24.4544C60.9439 27.1071 61.9227 29.0097 63.954 31.0074C67.4229 34.4187 71.7757 34.9047 77.2176 32.4883L78.3263 31.9961V29.6111C78.3263 28.2993 78.2946 27.2261 78.2558 27.2261C78.2171 27.2261 78.0627 27.6385 77.9129 28.1426C77.5054 29.5128 76.9094 30.5541 75.987 31.5078C74.8313 32.7024 73.7029 33.2103 72.0202 33.2937C70.041 33.3915 69.0814 32.9953 67.4769 31.4171C65.3691 29.3439 64.2339 26.7326 64.0839 23.6129C63.8986 19.7555 65.1488 15.947 67.1931 14.1406C68.5515 12.9404 69.2611 12.6939 71.3455 12.6984C72.8586 12.7016 73.3123 12.7644 74.1367 13.0851C75.4134 13.5818 76.7876 14.9076 77.3473 16.1831C77.5696 16.6894 77.8068 17.105 77.8746 17.1065C77.9424 17.1079 77.9978 16.6262 77.9978 16.0358V14.9625L77.1995 14.2103C76.2214 13.2885 74.6805 12.5282 73.1523 12.2131C71.7614 11.9263 70.7336 11.9287 69.2102 12.2221ZM126.484 12.6997C123.987 13.9211 122.839 15.9997 122.839 19.301C122.839 20.3911 122.803 20.5107 122.306 21.0657L121.772 21.661L122.306 21.5569L122.839 21.453V27.5664C122.839 33.5445 122.832 33.6815 122.511 33.7636C121.683 33.9754 122.344 34.1313 124.071 34.1313C125.789 34.1313 126.368 33.9975 125.714 33.752C125.501 33.6722 125.467 32.8508 125.467 27.7128V21.7662H126.946C128.413 21.7662 128.424 21.7631 128.424 21.3647C128.424 20.966 128.414 20.9633 126.93 20.9633H125.436L125.497 18.0326C125.549 15.4698 125.6 15.0111 125.901 14.3792C126.565 12.9866 127.819 12.2805 129.051 12.6049C129.408 12.6989 129.774 12.8656 129.864 12.9752C129.954 13.0851 130.062 13.739 130.104 14.4285C130.185 15.7752 130.364 16.1017 131.052 16.1605C131.877 16.2311 132.2 16.1375 132.458 15.7524C132.683 15.4163 132.694 15.2287 132.531 14.4602C132.186 12.8357 131.056 12.131 128.797 12.131C127.808 12.131 127.483 12.211 126.484 12.6997ZM81.9399 12.5881C81.9399 12.6679 82.1593 12.7761 82.4276 12.8286C82.6958 12.881 83.0654 13.0708 83.2488 13.2502C83.577 13.571 83.5825 13.7391 83.5825 23.5884V33.6004L83.2129 33.7748C82.9276 33.9092 83.3302 33.9473 84.9786 33.9412C86.153 33.937 86.9804 33.8996 86.8171 33.8583C86.6539 33.8169 86.4492 33.5998 86.362 33.3759C86.2659 33.1288 86.2079 28.9482 86.2145 22.7506L86.2251 12.5325L84.0826 12.4877C82.8814 12.4626 81.9399 12.5066 81.9399 12.5881ZM233.876 12.5955C233.876 12.6741 234.079 12.7878 234.327 12.8482C234.576 12.9084 234.945 13.1095 235.149 13.295L235.518 13.6324V23.5516V33.4708L235.153 33.7207C234.814 33.9529 234.932 33.9707 236.796 33.9707H238.803L238.475 33.6495C238.153 33.3349 238.146 33.1143 238.146 22.8903V12.4522H236.011C234.837 12.4522 233.876 12.5166 233.876 12.5955ZM176.585 13.0544C175.195 16.8431 168.899 32.8693 168.688 33.1564C168.531 33.3711 168.147 33.6365 167.836 33.7464C167.313 33.931 167.389 33.9468 168.831 33.9521C170.274 33.9574 170.359 33.9407 169.959 33.7282C169.721 33.602 169.489 33.4032 169.443 33.2863C169.398 33.1695 169.974 31.4872 170.724 29.5479L172.088 26.0217H175.748H179.408L180.689 29.3137C181.394 31.1243 181.971 32.7694 181.971 32.9695C181.971 33.2074 181.787 33.443 181.437 33.6513L180.903 33.9696L184.106 33.9614L187.309 33.9532L186.575 33.678C186.141 33.5153 185.704 33.2034 185.507 32.9153C185.324 32.6472 183.441 27.9695 181.322 22.5203C177.838 13.5585 177.436 12.6128 177.109 12.6128C176.863 12.6128 176.695 12.7544 176.585 13.0544ZM0.387389 13.048C1.39148 13.3428 2.18877 13.9086 2.54241 14.5771C2.74822 14.9662 9.25386 31.4355 10.0323 33.5379C10.1655 33.898 10.2854 33.9786 10.6292 33.9394C11.039 33.8927 11.2328 33.4422 14.7584 24.3356C16.793 19.0804 18.5592 14.544 18.6836 14.2546C18.9265 13.6887 19.4746 13.2425 20.2622 12.9696C20.6651 12.8299 20.4105 12.7965 18.8661 12.7864L16.9771 12.7739L17.5515 13.0547C17.8674 13.2091 18.1511 13.467 18.1818 13.6275C18.2496 13.9831 12.0919 29.9795 11.9467 29.8247C11.7791 29.6463 5.72567 14.1082 5.72567 13.8565C5.72567 13.5437 6.24619 13.1056 6.81681 12.9385C7.10771 12.8532 5.81864 12.8021 3.4261 12.8039C-0.264374 12.8066 -0.397749 12.8174 0.387389 13.048ZM177.501 21.164L178.982 24.9779H175.795C174.043 24.9779 172.609 24.918 172.609 24.8446C172.609 24.6956 175.541 17.1175 175.689 16.8826C175.741 16.8004 175.837 16.8719 175.902 17.0416C175.968 17.2113 176.687 19.0664 177.501 21.164ZM146.355 18.1695C144.086 19.2753 143.501 22.0408 145.103 24.0923C145.728 24.8938 145.801 25.1385 145.414 25.1385C144.929 25.1385 143.421 25.9421 142.801 26.5306C141.95 27.3384 141.572 28.2197 141.568 29.4056C141.561 31.3304 142.459 32.7864 144.154 33.597C144.955 33.9802 145.34 34.0547 146.796 34.1074C148.803 34.18 150.234 33.8728 151.255 33.1498C151.615 32.8946 151.949 32.686 151.997 32.686C152.045 32.686 152.453 32.934 152.904 33.2372C154.429 34.2623 156.234 34.3482 157.806 33.4703C158.595 33.03 159.003 32.5102 158.359 32.7658C156.902 33.3447 155.927 33.0356 154.403 31.5117L153.691 30.7995L154.642 29.2938C156.058 27.0498 158.062 25.1385 158.998 25.1385C159.156 25.1385 159.33 25.0662 159.386 24.9779C159.452 24.874 158.737 24.8173 157.361 24.8173H155.235L155.125 25.5801C154.896 27.1758 153.97 29.8647 153.46 30.4179C153.429 30.451 153.198 30.24 152.946 29.949C152.145 29.0242 148.792 24.8128 148.792 24.7311C148.792 24.688 149.217 24.4692 149.736 24.2448C150.765 23.8006 151.632 23.079 152.03 22.3361C152.562 21.3424 152.192 19.4624 151.311 18.6837C150.175 17.6794 147.856 17.4387 146.355 18.1695ZM148.938 18.3288C149.75 18.7979 150.173 19.6089 150.244 20.8337C150.33 22.3294 149.976 23.2391 149.08 23.8183L148.418 24.2471L147.779 23.5286C145.993 21.5171 145.663 19.253 147.02 18.3234C147.492 18.0004 148.374 18.0029 148.938 18.3288ZM24.615 20.5819C22.1934 21.0402 20.6748 22.3088 20.6735 23.8744C20.6727 24.7671 20.9518 25.051 21.8302 25.051C22.8185 25.051 23.1367 24.6535 23.1367 23.4194C23.1367 22.8328 23.2397 22.198 23.3768 21.9387C23.8356 21.0712 25.8829 20.6716 27.1714 21.198C28.0937 21.5748 28.3848 22.4056 28.3892 24.6739L28.3928 26.5377L26.9313 26.6456C23.2372 26.9183 20.9955 28.1326 20.5063 30.1261C20.1525 31.568 20.6605 32.8929 21.8231 33.5606C22.2819 33.8241 22.6786 33.8899 23.7937 33.8883C24.9755 33.8864 25.3295 33.8194 26.0993 33.4512C26.5997 33.2119 27.3137 32.7612 27.6862 32.4495L28.3634 31.8828L28.7302 32.6237C29.1829 33.5378 30.0153 33.9636 31.3494 33.9636C32.1346 33.9636 33.649 33.5076 33.649 33.2712C33.649 33.2311 33.2239 33.2302 32.7045 33.2694C31.0501 33.3942 31.1172 33.5945 31.0178 28.2232C30.9447 24.2689 30.8908 23.5216 30.6398 22.9706C29.9465 21.4487 28.552 20.6626 26.3712 20.5647C25.6311 20.5314 24.8408 20.5392 24.615 20.5819ZM43.7186 20.6607C43.2494 20.7184 42.5327 20.9228 42.1262 21.1153C41.4054 21.4564 40.0549 22.6261 40.0549 22.9092C40.0549 22.9871 39.981 23.0509 39.8907 23.0509C39.798 23.0509 39.7264 22.5959 39.7264 22.0071V20.9633L37.8785 20.9734C36.6049 20.9804 36.1455 21.0288 36.4003 21.1288L36.7698 21.2742V27.3724V33.4708L36.4047 33.7207C36.066 33.9527 36.1864 33.9707 38.0783 33.9707H40.1169L39.7453 33.6322C39.3751 33.2951 39.3739 33.2778 39.4268 29.1759C39.479 25.1321 39.4876 25.0423 39.9055 24.175C40.4984 22.9439 41.0746 22.3337 42.1132 21.837C42.8905 21.4652 43.1651 21.4176 44.2265 21.4699C46.4095 21.5777 46.4609 21.7392 46.4609 28.4925C46.4609 33.4549 46.4597 33.4716 46.0957 33.7207C45.7569 33.9529 45.8745 33.9707 47.7383 33.9707H49.746L49.4175 33.6495C49.1034 33.3425 49.0889 33.1143 49.0889 28.4544C49.0889 23.3385 49.0395 22.9165 48.3316 21.9833C47.5773 20.9893 45.6187 20.4277 43.7186 20.6607ZM196.62 20.6691C195.348 20.8852 194.609 21.4704 193.803 22.9001L193.311 23.7735L193.308 22.3684L193.305 20.9633H191.744C190.184 20.9633 190.184 20.9633 190.512 21.2844C190.829 21.594 190.841 21.8197 190.841 27.5381V33.4708L190.476 33.7207C190.137 33.9529 190.25 33.9707 192.068 33.9707C193.697 33.9707 193.976 33.9363 193.737 33.7653C193.473 33.5765 193.454 33.1895 193.5 28.971L193.551 24.3821L194.126 23.2892C194.825 21.9602 195.685 21.2202 196.532 21.2202C197.364 21.2202 197.575 21.5786 197.575 22.9921C197.575 24.0136 197.62 24.1875 197.94 24.4067C198.462 24.764 199.429 24.7282 199.79 24.3381C200.03 24.0796 200.069 23.84 199.997 23.0658C199.817 21.1219 198.685 20.3185 196.62 20.6691ZM223.743 20.7797C221.974 21.3774 220.825 22.4623 219.889 24.4176C218.879 26.5272 219.082 29.2172 220.401 31.212C221.505 32.8821 223.105 33.8095 225.1 33.9357C227.222 34.0701 228.996 33.4644 230.303 32.1593C231.174 31.2894 231.255 31.0778 230.714 31.0853C230.456 31.0888 230.212 31.3037 229.905 31.7985C229.191 32.9492 227.589 33.5453 226.197 33.1785C224.163 32.6433 222.636 30.3615 222.295 27.3465L222.19 26.4232H226.905H231.621L231.538 25.4165C231.441 24.2336 230.864 23.0077 230.011 22.1741C228.53 20.7254 225.741 20.1051 223.743 20.7797ZM245.428 20.7686C244.232 21.1873 243.504 21.785 243.009 22.7567C242.095 24.5487 242.674 26.6777 244.3 27.5041C244.567 27.6403 245.588 28.0311 246.568 28.3728C249.603 29.4314 249.808 29.6097 249.808 31.1906C249.808 32.0801 249.752 32.2563 249.305 32.7533C248.707 33.4196 247.855 33.6383 246.534 33.4652C245.019 33.2665 243.578 31.9791 242.957 30.27C242.798 29.8324 242.612 29.4743 242.543 29.4743C242.473 29.4743 242.417 30.0849 242.417 30.8311C242.417 32.1826 242.419 32.1895 242.969 32.5999C244.614 33.8265 247.421 34.3068 249.171 33.6613C250.909 33.0204 251.999 31.5616 252 29.8758C252.001 27.8884 251.068 27.0554 247.591 25.9413C244.606 24.9846 243.894 24.4526 243.896 23.1793C243.897 21.9228 245.151 20.9735 246.817 20.9668C248.412 20.9604 249.47 21.8121 250.073 23.5871C250.22 24.0194 250.387 24.2993 250.444 24.2092C250.528 24.0757 250.547 22.7962 250.479 21.7978C250.472 21.6828 249.996 21.374 249.422 21.1116C248.047 20.4821 246.601 20.358 245.428 20.7686ZM94.9583 20.9824C93.942 21.3642 92.4525 22.6388 91.8524 23.6401C90.6114 25.7102 90.471 28.4112 91.4935 30.538C91.9698 31.5287 93.2387 32.8508 94.2033 33.3611C96.656 34.6591 100.041 34.1329 101.918 32.1619C102.684 31.3565 102.701 31.3188 102.322 31.2664C102.08 31.2329 101.868 31.3145 101.775 31.4768C101.434 32.0713 100.556 32.9078 100.057 33.1114C99.4225 33.3704 98.0753 33.3948 97.4316 33.1588C95.4959 32.449 94.1578 30.3339 93.8559 27.5071L93.7401 26.4232H98.4572H103.174L103.087 25.4817C102.876 23.2029 101.348 21.4863 98.9836 20.8709C97.7322 20.5453 95.9935 20.5934 94.9583 20.9824ZM110.07 20.9721C109.596 21.1558 108.82 21.6547 108.345 22.0809C103.948 26.027 105.854 33.2278 111.512 34.047C112.41 34.1769 114.299 33.896 115.228 33.4943C115.938 33.1867 117.319 32.0448 117.6 31.5319C117.732 31.2897 117.696 31.2417 117.384 31.2467C117.122 31.2507 116.87 31.4667 116.552 31.9573C115.968 32.8579 115.017 33.3297 113.795 33.3248C112.173 33.3184 110.77 32.3435 109.863 30.5944C109.32 29.5477 109.11 28.7931 108.979 27.4268L108.883 26.4232H113.623H118.364L118.28 25.6604C118.062 23.6775 116.967 22.1222 115.187 21.2656C114.257 20.8178 113.922 20.746 112.527 20.6957C111.202 20.6479 110.784 20.6949 110.07 20.9721ZM209.73 20.9061C208.802 21.075 207.744 21.4906 207.123 21.9303L206.463 22.3976L206.413 21.7206L206.363 21.0436L204.844 20.9973C203.455 20.9552 202.923 21.0994 203.571 21.3426C203.786 21.4232 203.817 22.66 203.817 31.1274V40.8199L203.447 41.155C203.244 41.3392 202.819 41.5989 202.503 41.732C201.953 41.9635 202.024 41.9743 204.187 41.9868L206.445 42V37.3355V32.6709L207.061 33.1403C207.859 33.7483 208.573 33.9707 209.729 33.9707C212.321 33.9707 214.566 32.3326 215.452 29.7955C216.622 26.4457 215.357 22.6619 212.638 21.3792C211.781 20.975 210.499 20.7664 209.73 20.9061ZM226.92 21.2268C227.233 21.3716 227.676 21.7307 227.905 22.0247C228.408 22.6695 228.948 24.2887 228.948 25.1528V25.7808H225.919C224.253 25.7808 222.859 25.7266 222.822 25.6604C222.684 25.4163 223.178 23.1952 223.526 22.4927C224.171 21.1902 225.651 20.6381 226.92 21.2268ZM98.4968 21.3495C99.5324 21.8763 100.27 23.1848 100.443 24.8024L100.548 25.7808H97.4308H94.314L94.4321 24.9378C94.7086 22.9651 95.1767 21.9978 96.1297 21.4298C96.736 21.0683 97.8685 21.0299 98.4968 21.3495ZM114.207 21.7575C114.922 22.4349 115.461 23.6563 115.571 24.849L115.658 25.7808H112.573H109.488L109.587 24.8559C109.694 23.857 110.055 22.7165 110.453 22.1225C110.929 21.4127 111.662 21.1004 112.698 21.1654C113.505 21.2162 113.728 21.3034 114.207 21.7575ZM210.41 21.9301C211.214 22.1487 212.222 23.2492 212.697 24.4289C213.187 25.6453 213.245 28.2563 212.812 29.6349C212.103 31.8906 210.69 33.2238 208.989 33.2399C207.917 33.2498 207.343 32.8904 206.815 31.8799C206.463 31.2075 206.445 30.992 206.445 27.5052C206.445 23.5961 206.489 23.3407 207.292 22.6289C208.214 21.8107 209.176 21.5952 210.41 21.9301ZM148.953 28.7517C150.335 30.4298 151.546 31.9017 151.643 32.0225C152.023 32.4925 150.068 33.4971 148.803 33.4819C147.014 33.4604 145.301 32.0821 144.466 29.993C143.996 28.8161 144.216 27.2056 144.957 26.3896C145.372 25.9334 146.215 25.4417 146.338 25.584C146.394 25.648 147.571 27.0735 148.953 28.7517ZM28.3928 28.8384C28.3928 30.2811 28.333 30.7259 28.0716 31.2269C27.4104 32.494 26.27 33.0353 24.9783 32.6952C23.205 32.2284 22.4023 29.8705 23.559 28.5265C24.2155 27.7637 26.0473 27.1375 27.7769 27.0845L28.3928 27.0655V28.8384Z" fill="#292929"/>
</svg>
