<svg width="143" height="50" viewBox="0 0 143 50" fill="none" xmlns="http://www.w3.org/2000/svg">
<g opacity="0.3">
<path d="M13.0196 24.5134H17.2738V24.8034H17.1271C16.5403 24.8034 16.1553 25.7819 16.1553 26.3255V34.208C14.7616 34.7336 12.3594 35.0235 10.5623 35.0235C3.39242 35.0235 0 29.8591 0 25.0208C0 20.1463 3.35575 15.0544 10.709 15.0544C12.1027 15.0544 13.2946 15.3443 14.2115 15.5617C14.7249 15.6705 15.11 15.7973 15.3667 15.7973H15.6418V18.9141H15.3484C14.8533 16.4678 12.3411 16.0872 10.5807 16.0872C4.60269 16.0872 1.99878 20.6356 1.99878 24.7309C1.99878 29.2792 5.62958 33.9906 11.0941 33.9906C11.846 33.9906 13.0562 33.8819 14.1565 33.2658V26.3436C14.1565 25.7819 13.8081 24.8215 13.1846 24.8215H13.0196V24.5134Z" fill="#292929"/>
<path d="M38.7286 34.4436V34.7336H34.5294V34.4436H34.6761C35.2629 34.4436 35.6296 33.4107 35.6296 32.8309V17.1745C35.6296 16.6128 35.2812 15.6523 34.6761 15.6523H34.5294V15.3624H39.7005C43.6614 15.3624 45.9169 16.9208 45.9169 19.8926C45.9169 22.8644 43.8081 24.3322 41.2775 24.8034L43.423 28.0289C44.4682 29.5873 45.5318 31.055 46.577 32.6678C47.1455 33.4651 47.9157 34.4617 48.8142 34.4617V34.7517H47.5306C45.9536 34.7517 45 33.8638 44.3215 32.849C42.5428 30.2577 40.7824 27.5577 39.022 24.9846C38.5819 24.9483 38.0685 24.894 37.6284 24.8034V32.849C37.6284 33.4289 37.9768 34.4617 38.5819 34.4617H38.7286V34.4436ZM37.6284 16.3591V23.8248H37.7751C38.1051 23.8611 38.7836 23.8792 39.8289 23.8792C41.4609 23.8792 43.8631 22.9369 43.8631 20.0013C43.8631 17.0295 41.4792 16.3591 38.0685 16.3591H37.6284Z" fill="#292929"/>
<path d="M76.2286 34.4436H76.3753C76.8521 34.4436 77.0905 34.2443 77.0905 33.7913C77.0905 33.6463 77.0538 33.4651 76.9988 33.2839L74.3215 26.1443H69.132L66.5465 33.157C66.4914 33.302 66.4548 33.447 66.4548 33.5919C66.4548 34.0993 66.7848 34.4074 67.1149 34.4074H67.2616V34.6973H63.9609V34.4074H64.1076C64.621 34.4074 65.1528 33.7007 65.4829 32.8852L72.2861 15L78.9426 32.7403C79.2176 33.5376 79.6944 34.4436 80.4829 34.4436H80.6296V34.7336H76.2286V34.4436ZM69.4254 25.1658H74.0098L71.7176 19.0228L69.4254 25.1658Z" fill="#292929"/>
<path d="M103.936 34.4436V34.7336H99.6821V34.4436H99.8288C100.452 34.4436 100.819 33.4832 100.819 32.8852V17.1745C100.819 16.6128 100.489 15.6523 99.8288 15.6523H99.6821V15.3624H111.803V18.0805H111.51C111.51 17.1745 110.923 16.3772 109.603 16.3772H102.8V23.8067H108.447C109.364 23.8067 110.061 23.1544 110.061 22.4295H110.355V26.1081H110.061C110.061 25.4013 109.401 24.8215 108.447 24.8215H102.8V32.9034C102.8 33.4832 103.148 34.4617 103.771 34.4617H103.936V34.4436Z" fill="#292929"/>
<path d="M134.89 34.4436V34.7336H130.636V34.4436H130.782C131.406 34.4436 131.773 33.4832 131.773 32.8852V17.1745C131.773 16.6128 131.443 15.6523 130.782 15.6523H130.636V15.3624H142.757V18.0805H142.463C142.463 17.1745 141.877 16.3772 140.556 16.3772H133.753V23.8067H139.401C140.318 23.8067 141.015 23.1544 141.015 22.4295H141.308V26.1081H141.015C141.015 25.4013 140.355 24.8215 139.401 24.8215H133.753V32.9034C133.753 33.4832 134.12 34.4617 134.743 34.4617H134.89V34.4436Z" fill="#292929"/>
</g>
</svg>
