<svg width="166" height="20" viewBox="0 0 166 20" fill="none" xmlns="http://www.w3.org/2000/svg">
<path opacity="0.3" fill-rule="evenodd" clip-rule="evenodd" d="M83.5588 0.0514988C81.5613 0.286121 79.5752 1.11114 78.0347 2.34612C75.9643 4.00595 74.7236 6.06716 74.3083 8.53729C74.1488 9.48556 74.1691 11.4309 74.3467 12.2054C74.682 13.6686 75.3294 14.965 76.3544 16.2257C78.1686 18.4572 80.5511 19.6393 83.8521 19.9458C86.5694 20.198 89.6287 19.5558 91.6195 18.3152C92.5028 17.7648 93.4958 16.7563 93.8163 16.0842L93.9778 15.7456L93.9575 13.7252C93.9381 11.7812 93.9425 11.6962 94.0749 11.4758C94.2529 11.1793 94.5533 11.0546 95.1037 11.049L95.5473 11.0445V10.7209V10.3974H92.5902H89.6331V10.7209V11.0445H90.0918C90.6025 11.0445 91.0445 11.2189 91.1503 11.4623C91.2964 11.7982 91.3431 12.5842 91.3003 13.9848L91.2561 15.4288L90.8981 15.9048C90.013 17.0814 88.2396 17.957 86.1503 18.2491C84.0575 18.5416 81.7339 17.8529 79.9684 16.4167C79.0125 15.6391 78.0161 14.0667 77.6151 12.7029C76.79 9.89649 77.2344 7.14217 78.8711 4.91783C80.5338 2.65822 82.727 1.48592 85.296 1.4835C87.1955 1.4818 88.7969 2.02343 90.1344 3.12019C90.7999 3.66586 92.1417 5.33467 92.4916 6.0518C92.6362 6.34813 92.79 6.59181 92.8335 6.59334C92.9605 6.59803 93.2473 6.41566 93.2473 6.33033C93.2473 6.25294 92.6436 3.04279 92.5164 2.44414C92.4536 2.14806 92.4164 2.11352 91.7153 1.6996C90.4291 0.940168 88.9865 0.431537 87.366 0.165939C86.3969 0.0071786 84.4376 -0.0516994 83.5588 0.0514988ZM0 0.769923V1.09666H0.346047C0.791255 1.09666 1.10425 1.30282 1.27813 1.71068C1.41133 2.02318 1.41284 2.11732 1.41284 10.0775C1.41284 17.4715 1.40384 18.1451 1.30277 18.335C1.15353 18.6153 0.798812 18.8086 0.433643 18.8086H0.131427V19.1321V19.4556H5.11033C10.0578 19.4556 11.5684 19.399 12.8687 19.1648C14.9033 18.7986 16.2168 18.0114 16.9265 16.7333C17.3735 15.9281 17.4948 15.4418 17.53 14.3137C17.6012 12.038 16.985 10.8092 15.3589 9.98392C14.9414 9.77203 13.7066 9.36255 13.0121 9.20573L12.7173 9.13917L13.275 8.86662C14.861 8.09142 15.683 6.88579 15.8119 5.14558C15.9687 3.02937 14.8025 1.44726 12.5485 0.718324L11.8613 0.495995L5.93063 0.469629L0 0.443183V0.769923ZM24.2921 0.503598C24.268 0.533198 24.2482 0.696973 24.2482 0.867541V1.17754L24.5604 1.17932C25.0029 1.18183 25.3776 1.41621 25.6111 1.83652C25.7187 2.03014 26.0471 2.7708 26.3409 3.48252C26.6346 4.19423 28.2876 8.07023 30.0141 12.0958L33.1532 19.4152L34.2699 19.435L35.3867 19.4548L37.7523 13.6603C41.0824 5.5037 42.6994 1.63967 42.8865 1.39138C43.0309 1.19962 43.0949 1.17754 43.5049 1.17754H43.9623V0.813597V0.449653H43.2501C42.8583 0.449653 41.8218 0.473754 40.9467 0.503112L39.3557 0.556652L39.3754 0.846837L39.3952 1.1371L39.8497 1.18514C40.2368 1.22599 40.327 1.2657 40.4576 1.45244C40.5419 1.57311 40.6109 1.75281 40.6109 1.85189C40.6109 2.13285 39.8288 4.10494 37.4785 9.75043C36.2841 12.6195 35.183 15.2941 35.0315 15.694L34.7561 16.421L34.6364 16.1792C34.3577 15.6164 29.005 3.1197 28.8691 2.71419C28.5541 1.77505 28.7485 1.31697 29.5066 1.21135L29.8996 1.15667V0.803164V0.449653H27.1178C25.5877 0.449653 24.3161 0.473916 24.2921 0.503598ZM160.538 0.73272C160.538 0.888407 160.56 1.01652 160.587 1.01741C160.862 1.02646 161.489 1.18951 161.571 1.2733C161.629 1.33185 161.73 1.52531 161.795 1.70324C161.908 2.00895 161.915 2.46541 161.916 10.0159C161.918 18.8836 161.938 18.4622 161.495 18.6902C161.369 18.7553 161.131 18.8086 160.967 18.8086H160.669V19.1321V19.4556H163.335H166L165.98 19.1523L165.959 18.849L165.564 18.8024C165.092 18.7468 164.863 18.5807 164.7 18.177C164.585 17.8935 164.579 17.4816 164.579 9.99306C164.579 3.7951 164.597 2.04526 164.663 1.81622C164.794 1.36234 164.998 1.18126 165.49 1.08081L165.926 0.991848V0.720751V0.449653H163.232H160.538V0.73272ZM52.8993 0.803891V1.07725L53.2944 1.11243C53.7605 1.15392 53.991 1.32999 54.1807 1.78937C54.3095 2.10123 54.3121 2.26759 54.3121 10.0335C54.3121 18.6802 54.3315 18.2329 53.9407 18.5888C53.8398 18.6806 53.6049 18.7688 53.3821 18.7982L52.9979 18.849L52.9775 19.1523L52.9571 19.4556H59.8452H66.7333L67.5047 17.5545C67.9291 16.5089 68.2762 15.6201 68.2762 15.5794C68.2762 15.5386 68.1727 15.4631 68.0463 15.4118C67.8274 15.3229 67.8076 15.3311 67.6356 15.5827C67.0405 16.4531 66.3051 16.9713 65.3055 17.2245C64.8762 17.3332 64.2022 17.3528 60.8862 17.3528H56.9735L56.9772 9.68978C56.98 3.97344 57.0009 1.95557 57.0593 1.74651C57.177 1.32635 57.4984 1.09666 57.9689 1.09666H58.3535V0.813597V0.530529H55.6264H52.8993V0.803891ZM110.837 1.03398C110.712 1.31309 109.161 4.94436 107.39 9.10342C103.676 17.8251 103.542 18.1348 103.348 18.3904C103.139 18.666 102.861 18.8234 102.483 18.8802C102.167 18.9276 102.15 18.9421 102.131 19.1927L102.11 19.4556H104.472H106.834L106.874 19.2046C106.922 18.9098 106.88 18.7958 106.729 18.814C106.026 18.899 105.667 18.6116 105.667 17.9624C105.667 17.5359 105.721 17.3905 106.507 15.6746L107.073 14.4413L111.676 14.4429L116.28 14.4444L116.884 15.7167C117.216 16.4163 117.548 17.1526 117.622 17.3528C117.933 18.1997 117.719 18.6119 116.888 18.7621C116.576 18.8185 116.576 18.8189 116.576 19.137V19.4556H119.401H122.227V19.0917C122.227 18.7351 122.223 18.7277 122.013 18.7272C121.263 18.7257 120.957 18.3531 120.144 16.4574C119.812 15.6821 118.091 11.7905 116.319 7.8094L113.098 0.570968L112.081 0.548727L111.064 0.526486L110.837 1.03398ZM131.164 0.798635C131.164 1.06909 131.17 1.07499 131.494 1.12222C131.897 1.18094 132.158 1.36121 132.321 1.69402C132.44 1.93568 132.446 2.27301 132.463 10.0041C132.474 15.0926 132.457 18.1385 132.417 18.2694C132.316 18.594 132.082 18.7317 131.599 18.7509L131.164 18.7681L131.164 19.1119L131.164 19.4556H133.895H136.626L136.605 19.1119L136.585 18.7681L136.148 18.7219C135.9 18.6956 135.635 18.6142 135.535 18.5336C135.187 18.253 135.172 18.1067 135.172 14.8051V11.767L137.785 11.7899L140.397 11.8128L140.777 12.0319C141.219 12.2867 141.837 12.9814 142.237 13.6729C142.483 14.0966 143.305 15.7585 144.158 17.555C144.48 18.2329 144.684 18.4835 145.15 18.7703C145.803 19.1716 147.487 19.4556 149.215 19.4556H149.958V19.1425V18.8294L149.482 18.7722C148.609 18.6671 147.993 18.325 147.487 17.6644C147.063 17.1103 146.932 16.8568 146.109 15.0074C145.684 14.051 145.227 13.0684 145.093 12.8237C144.764 12.2227 144.244 11.6401 143.828 11.4065C143.452 11.1954 142.786 10.9636 142.555 10.9636C142.302 10.9636 142.326 10.8243 142.589 10.7725C143.097 10.6726 144.027 10.2973 144.602 9.9599C146.025 9.12615 146.735 8.03949 146.975 6.32961C147.295 4.05156 146.395 2.22133 144.475 1.24289C144.22 1.11284 143.73 0.909273 143.387 0.790547L142.762 0.574688L136.963 0.548969L131.164 0.52317V0.798635ZM141.218 2.13059C142.639 2.50391 143.52 3.17219 143.905 4.16996C144.052 4.5513 144.08 4.74508 144.099 5.52747C144.144 7.37202 143.665 8.393 142.407 9.13488C141.452 9.69778 140.493 9.83131 137.4 9.83131H135.172V5.86085V1.8903L137.883 1.92848C140.282 1.9622 140.666 1.98549 141.218 2.13059ZM10.087 2.10406C11.2833 2.1665 11.9391 2.43476 12.5704 3.12003C13.0143 3.60181 13.1596 3.98929 13.1918 4.77654C13.247 6.12936 12.6623 7.3273 11.6672 7.90031C10.6581 8.48156 9.65816 8.61752 6.39063 8.61792L4.00852 8.61816V5.34372V2.06928L6.32491 2.04801C7.5989 2.03629 8.78917 2.03491 8.96988 2.04486C9.15059 2.05481 9.6533 2.08149 10.087 2.10406ZM113.507 7.80026C114.544 10.1972 115.393 12.1807 115.393 12.208C115.393 12.2353 113.722 12.2576 111.68 12.2576C109.638 12.2576 107.967 12.2339 107.967 12.2049C107.967 12.1127 111.547 3.44378 111.585 3.44289C111.606 3.44248 112.471 5.40325 113.507 7.80026ZM10.8329 10.4031C12.2531 10.5669 13.1615 10.9881 13.8078 11.7826C14.511 12.6472 14.7803 13.7098 14.562 14.7585C14.3111 15.9639 13.587 16.6303 12.0913 17.0321C11.1538 17.2841 10.0826 17.3511 6.98205 17.352L4.00852 17.3528V13.8347V10.3166L7.04776 10.3168C8.71938 10.317 10.4227 10.3558 10.8329 10.4031Z" fill="#292929"/>
</svg>
