<svg width="192" height="18" viewBox="0 0 192 18" fill="none" xmlns="http://www.w3.org/2000/svg">
<path opacity="0.3" fill-rule="evenodd" clip-rule="evenodd" d="M22.2321 0.601812C22.0829 1.0052 20.8477 4.71332 19.4863 8.84215C18.125 12.971 16.6998 16.55 16.3188 16.7953C15.8975 17.0668 16.3804 17.2439 17.554 17.2484C19.3492 17.2546 19.4858 17.1305 19.5464 15.441C19.5822 14.4432 19.8862 12.9352 20.2215 12.0905C20.7419 10.7786 21.1483 10.554 23.0031 10.554C25.1194 10.554 25.1987 10.6255 26.0859 13.3352C26.5864 14.8644 26.8392 16.3729 26.6481 16.6875C26.4344 17.0378 27.0986 17.2585 28.3652 17.2585C30.1125 17.2585 30.297 17.1512 29.5635 16.5601C29.0871 16.1763 27.516 12.3966 26.0721 8.16108C23.4866 0.574436 22.7652 -0.845233 22.2321 0.601812ZM140.083 0.340337C138.234 0.797357 137.054 2.2567 137.063 4.07584C137.074 6.45201 137.513 6.98557 140.897 8.74437C144.475 10.6037 145.191 11.6083 144.457 13.737C144.064 14.8778 143.491 15.3527 142.347 15.4863C139.933 15.7679 138.158 15.1164 137.616 13.7498C137.14 12.5497 137.123 12.557 137.089 13.9777C137.041 16.0343 138.438 16.9791 141.529 16.9791C144.937 16.9791 146.53 15.5304 146.612 12.3564C146.683 9.59417 145.916 8.63599 142.656 7.4141C139.199 6.11903 138.707 5.6648 138.707 3.76911C138.707 0.953243 142.815 0.0621068 143.503 2.7288C143.843 4.05014 144.764 3.66016 144.764 2.19524C144.764 1.54267 144.129 0.940953 143.03 0.552095C142.076 0.214637 141.271 -0.0323149 141.24 0.00344217C141.209 0.0391993 140.689 0.190604 140.083 0.340337ZM0.757812 8.8779V17.2585L2.13455 17.2596C3.48925 17.2607 3.50853 17.1993 3.32845 13.3487L3.14562 9.43661H7.09079H11.036L10.8531 13.3487L10.6703 17.2613L12.2948 17.2596C13.5581 17.259 13.7724 17.1093 13.2586 16.588C12.3428 15.6589 12.3428 2.0969 13.2586 1.16778C13.7724 0.646508 13.5581 0.497338 12.2948 0.496221L10.6703 0.495103V4.26748V8.03985H7.09079H3.51128V4.26748C3.51128 0.615784 3.46722 0.495104 2.13455 0.496221L0.757812 0.497335V8.8779ZM32.866 0.93704C33.4134 1.31975 33.5444 3.31991 33.4167 9.34945L33.2487 17.2601L34.6255 17.2607C35.989 17.2613 36.0005 17.2194 35.848 12.9296L35.6944 8.59855L37.7 10.8334C38.8036 12.0625 40.5487 14.0113 41.578 15.1633C43.6111 17.4389 45.5507 17.8753 46.8068 16.34C47.4764 15.5215 47.4192 15.4662 46.2836 15.8315C44.8205 16.3025 43.5952 15.393 41.1743 12.0363L39.6241 9.88692L41.2547 8.49463C43.2025 6.83193 43.4525 4.12445 41.8445 2.10976C40.9419 0.97894 40.2249 0.780041 36.4752 0.620252C33.8055 0.506276 32.4227 0.627517 32.866 0.93704ZM49.3868 0.93704C49.9342 1.31975 50.0653 3.31991 49.9375 9.34945L49.7695 17.2601L51.1463 17.2607C52.5098 17.2613 52.5214 17.2194 52.3677 12.9296L52.2124 8.59855L54.4983 11.1127C55.7561 12.4955 57.5332 14.4437 58.4485 15.4427C60.2481 17.4071 62.1513 17.7775 63.2902 16.3852C63.9136 15.6237 63.8287 15.5567 62.6277 15.8628C61.5026 16.1489 60.8897 15.807 59.2729 13.9917C57.0728 11.5211 55.8178 9.43661 56.5299 9.43661C56.7865 9.43661 57.5387 8.92371 58.2012 8.29741C59.7162 6.86601 59.7944 3.90041 58.3653 2.10976C57.4627 0.97894 56.7457 0.780041 52.996 0.620252C50.3263 0.506276 48.9435 0.627517 49.3868 0.93704ZM63.0793 0.929777C63.4333 1.15829 64.9819 3.09755 66.5211 5.23906C69.2233 8.9997 69.3192 9.26117 69.3192 12.8698C69.3192 15.3365 69.0851 16.7026 68.6308 16.8886C68.2525 17.0434 68.6859 17.1909 69.5945 17.2155L71.2466 17.2613L71.0627 13.3185C70.8853 9.52712 70.9597 9.25614 72.9901 6.26484C74.1515 4.55353 75.6472 2.55616 76.3141 1.82538L77.5272 0.497335H75.9187C74.8674 0.497335 74.3954 0.739257 74.5568 1.19572C74.8129 1.92148 71.2697 7.218 70.5527 7.18056C70.3286 7.16883 69.2195 5.80615 68.0873 4.15182C66.6929 2.11367 66.249 1.05437 66.7105 0.864965C67.0855 0.711321 66.2766 0.569406 64.9136 0.549852C63.5506 0.530297 62.7252 0.701266 63.0793 0.929777ZM90.7549 8.84158C93.0381 13.4313 95.0321 17.0579 95.1869 16.9009C95.3416 16.7445 96.1269 14.9376 96.9326 12.8866L98.398 9.15725L100.273 13.333L102.148 17.5088L105.337 9.42208C107.091 4.97424 108.812 1.15046 109.161 0.924745C109.518 0.694 109.118 0.510744 108.248 0.505716C107.397 0.501246 106.845 0.732549 107.02 1.01972C107.195 1.3069 106.297 4.10043 105.023 7.22638C102.467 13.5068 102.272 13.5604 100.372 8.51251C99.4828 6.15142 99.4933 6.03018 100.827 3.29644L102.192 0.497335H100.867C100.074 0.497335 99.6871 0.734785 99.903 1.08956C100.102 1.41585 99.9515 2.44833 99.5693 3.38472L98.8738 5.08709L98.0978 3.58418C97.6711 2.75729 97.4563 1.72482 97.6209 1.28903C97.8423 0.704621 97.4453 0.497335 96.1032 0.497335H94.2854L96.09 4.1345C97.8478 7.67836 97.8726 7.82586 97.0477 9.86122C96.5818 11.0105 95.9942 12.1715 95.7414 12.4408C95.1885 13.0308 89.5202 1.79465 89.9856 1.0309C90.1673 0.731993 89.4949 0.497335 88.4574 0.497335H86.6043L90.7549 8.84158ZM112.549 8.8779V17.2585H114.173C115.436 17.2585 115.651 17.1093 115.137 16.588C114.693 16.1377 114.476 13.6085 114.476 8.8779C114.476 4.14735 114.693 1.6181 115.137 1.16778C115.651 0.646508 115.436 0.497335 114.173 0.497335H112.549V8.8779ZM119.946 1.29014C120.393 1.83656 120.542 4.44179 120.426 9.67183C120.265 16.9445 120.304 17.2601 121.36 17.2607C122.408 17.2607 122.453 16.9462 122.29 10.6948C122.184 6.60566 122.314 4.33955 122.635 4.68762C122.918 4.99491 124.953 7.76049 127.158 10.8334C129.362 13.9062 131.363 16.6461 131.604 16.9221C131.844 17.1981 132.116 13.6152 132.207 8.96003L132.374 0.495656L131.024 0.496774C129.975 0.497333 129.822 0.646508 130.336 1.16778C131.061 1.90359 131.293 11.6832 130.584 11.6547C130.356 11.6457 128.377 9.13156 126.185 6.06762C122.878 1.44602 121.952 0.497335 120.748 0.497335C119.558 0.497335 119.414 0.639811 119.946 1.29014ZM148.619 2.29804C148.619 4.08646 148.625 4.09037 149.476 2.85675C149.964 2.14943 150.913 1.61474 151.679 1.61474H153.025V9.11089C153.025 14.5845 152.839 16.6825 152.336 16.8886C151.958 17.0434 152.639 17.1702 153.851 17.1702C155.062 17.1702 155.744 17.0434 155.365 16.8886C154.862 16.6825 154.677 14.5845 154.677 9.11089V1.61474H156.07C156.838 1.61474 157.607 1.99187 157.781 2.4528C158.281 3.7747 159.082 3.43053 159.082 1.8941C159.082 0.502365 159.064 0.497335 153.851 0.497335H148.619V2.29804ZM165.131 1.51642C163.028 2.63327 160.734 6.4738 160.734 8.8779C160.734 11.3323 163.032 15.2086 165.14 16.3115C168.288 17.958 171.515 17.3188 174.068 14.5421C175.998 12.4419 176.154 12.0256 176.154 8.94216C176.154 6.16428 175.914 5.32287 174.711 3.87247C171.901 0.48393 168.603 -0.327309 165.131 1.51642ZM179.348 1.16778C180.296 2.12987 180.271 16.4992 179.32 16.8886C178.942 17.0434 179.251 17.1903 180.009 17.2155L181.385 17.2607L181.22 10.4155L181.054 3.57021L186.176 10.554L191.298 17.5378L191.428 14.7443C191.499 13.2079 191.623 9.37347 191.703 6.22294C191.84 0.818033 191.786 0.495103 190.747 0.495103C189.735 0.495103 189.661 0.806853 189.825 4.31496C189.924 6.41625 189.924 8.97847 189.825 10.0087C189.648 11.8608 189.599 11.8172 185.557 6.18997C182.239 1.56893 181.207 0.497335 180.078 0.497335C178.996 0.497335 178.834 0.646508 179.348 1.16778ZM40.1324 2.73216C42.2003 4.83009 41.0405 8.3192 38.276 8.3192C36.4081 8.3192 35.7269 7.2437 35.7269 4.29653C35.7269 1.68906 35.7726 1.61474 37.3789 1.61474C38.2969 1.61474 39.5206 2.11144 40.1324 2.73216ZM56.5304 2.48465C58.8852 4.15741 57.6483 8.3192 54.7968 8.3192C52.9289 8.3192 52.2477 7.2437 52.2477 4.29653C52.2477 1.7371 52.3176 1.61474 53.7769 1.61474C54.6184 1.61474 55.8574 2.0064 56.5304 2.48465ZM171.902 2.94558C173.986 4.90607 174.849 8.2935 173.997 11.1787C172.28 16.9931 166.377 17.9177 163.76 12.7827C162.14 9.60367 163.223 4.32446 165.885 2.43324C167.632 1.19236 170.276 1.41752 171.902 2.94558ZM24.1375 7.90017C24.1546 8.57732 23.7388 8.8779 22.7856 8.8779C21.194 8.8779 21.1963 8.88852 22.0746 5.9151L22.7404 3.66016L23.4266 5.29157C23.8038 6.18829 24.1237 7.36214 24.1375 7.90017Z" fill="#292929"/>
</svg>
