<svg width="130" height="19" viewBox="0 0 130 19" fill="none" xmlns="http://www.w3.org/2000/svg">
<path opacity="0.3" fill-rule="evenodd" clip-rule="evenodd" d="M85.5683 0.151084C83.6147 0.546692 82.1002 1.40251 80.8197 2.83444C78.5982 5.31842 77.9124 9.51617 79.1493 13.0563C80.4304 16.7223 83.6021 18.9992 87.4278 18.9992C91.5722 18.9992 94.7983 16.4407 95.8917 12.2868C96.2321 10.9931 96.2306 7.99548 95.8888 6.71533C94.7795 2.56174 91.4464 -0.0357139 87.2893 0.013737C86.6801 0.021026 85.9057 0.0827679 85.5683 0.151084ZM118.886 0.2154C116.388 0.728203 114.277 2.40482 113.134 4.78346C112.538 6.02288 112.276 7.15181 112.185 8.8633C111.833 15.4836 116.867 20.0778 123.05 18.7802C126.198 18.1195 128.604 15.6995 129.462 12.3297C129.824 10.9092 129.859 8.3645 129.536 6.96587C128.386 1.98277 123.955 -0.825355 118.886 0.2154ZM1.87234 0.400769C1.94475 0.46637 2.29046 0.628729 2.6406 0.761646C2.99088 0.894563 3.40692 1.14639 3.56517 1.32118L3.85287 1.63918L3.51616 8.89932C3.21835 15.3231 3.14927 16.2203 2.91667 16.6885C2.57456 17.3773 2.14827 17.7766 1.38084 18.1275L0.757812 18.4123L3.52682 18.4125C6.21428 18.4126 6.27548 18.4062 5.60358 18.1957C5.22284 18.0763 4.76318 17.8396 4.58195 17.6696C3.86949 17.001 3.87087 17.0333 4.22876 9.8709C4.41097 6.22411 4.59067 3.20889 4.62792 3.1703C4.6653 3.13171 4.75405 3.25391 4.82521 3.44157C4.89637 3.62937 6.17912 7.0309 7.67577 11.0006C9.17255 14.9702 10.4457 18.2691 10.5053 18.3313C10.5647 18.3936 10.6785 18.3614 10.7579 18.2598C10.8376 18.1584 12.194 14.8594 13.7723 10.9291C15.3506 6.99875 16.722 3.62337 16.8199 3.42842C16.989 3.09113 17.0018 3.11213 17.0778 3.85719C17.1218 4.28795 17.2816 7.28345 17.4328 10.5136C17.7545 17.3861 17.7435 17.4978 16.6796 18.1692C16.2687 18.4286 16.2953 18.4313 19.1717 18.4206C21.3864 18.4125 21.9802 18.3742 21.6638 18.2597C21.1035 18.0569 20.7859 17.7506 20.4668 17.1052C20.2313 16.6287 20.1507 15.6798 19.7932 9.17301C19.3287 0.718054 19.2714 1.31418 20.6009 0.781655C20.9935 0.624441 21.3153 0.447504 21.3162 0.388621C21.317 0.329737 20.4208 0.281429 19.3246 0.281429H17.3316L16.0564 3.38997C12.1706 12.8631 11.4516 14.5674 11.3648 14.512C11.3123 14.4785 10.0919 11.263 8.65253 7.36634L6.03568 0.281429H3.88832C2.70719 0.281429 1.79993 0.335168 1.87234 0.400769ZM24.0175 0.424351C24.0646 0.502958 24.1845 0.567273 24.2839 0.567273C24.6139 0.567273 25.2255 1.17983 25.4856 1.77082C25.7232 2.31092 25.7423 2.83787 25.7451 8.94448C25.7469 12.8055 25.6901 15.8507 25.608 16.2974C25.4408 17.2081 25.0881 17.6424 24.1559 18.0863L23.4637 18.416L26.8557 18.4219L30.2478 18.4276L29.5 18.037C28.5821 17.5575 28.2837 17.1569 28.103 16.162C27.8779 14.9215 27.9305 2.62692 28.1639 1.95133C28.4023 1.26116 28.7422 0.86655 29.3132 0.617152C29.5608 0.50896 29.7632 0.389192 29.7632 0.351032C29.7632 0.312729 28.4511 0.281429 26.8476 0.281429C24.939 0.281429 23.9614 0.330737 24.0175 0.424351ZM33.1552 0.558412C33.8332 0.87284 34.162 1.23829 34.4083 1.95133C34.6418 2.62692 34.6944 14.9215 34.4692 16.162C34.2859 17.1713 33.9944 17.5642 33.0796 18.0349L32.3245 18.4233L35.7165 18.4196L39.1086 18.416L38.4163 18.0863C36.9618 17.3937 36.793 16.7902 36.8545 12.5012L36.8934 9.78572L40.3922 14.1091L43.8911 18.4325L46.2071 18.4198C48.309 18.408 48.4655 18.3905 47.8994 18.2291C47.0371 17.9831 46.8172 17.8404 46.0827 17.0497C45.1143 16.007 38.7256 8.11325 38.7083 7.93788C38.7 7.8537 40.0653 6.39047 41.742 4.68642C44.4655 1.91874 44.9011 1.53342 45.8225 1.07765C46.3898 0.796948 46.9337 0.567273 47.031 0.567273C47.1283 0.567273 47.2079 0.502958 47.2079 0.424351C47.2079 0.334167 46.2619 0.281429 44.6466 0.281429C43.2379 0.281429 42.0853 0.307298 42.0853 0.338741C42.0853 0.370327 42.3033 0.528969 42.5698 0.691185C42.9863 0.944871 43.0544 1.0615 43.0544 1.5207C43.0544 2.02665 42.8883 2.22688 39.9401 5.27726L36.8258 8.49942L36.828 5.42661C36.83 2.74354 36.8628 2.2799 37.0867 1.77082C37.3468 1.17983 37.9583 0.567273 38.2884 0.567273C38.3878 0.567273 38.5077 0.502958 38.5548 0.424351C38.6109 0.330594 37.601 0.284859 35.6209 0.291577L32.6014 0.301581L33.1552 0.558412ZM49.4924 0.518965C49.7208 0.643164 50.0559 0.881843 50.2371 1.0492C50.9394 1.69793 50.9461 1.77382 50.9461 9.17458C50.9461 13.2356 50.8904 16.2764 50.811 16.5626C50.6271 17.2245 50.1782 17.6939 49.3539 18.0863L48.6617 18.416L52.1229 18.4232L55.5842 18.4303L54.6861 17.9667C54.0748 17.6511 53.7209 17.3661 53.5784 17.0746C53.4012 16.7121 53.3629 15.5242 53.3295 9.3781L53.2901 2.11011L53.6363 1.50027C53.844 1.13439 54.1784 0.794375 54.4719 0.650596C54.741 0.518822 54.9612 0.381761 54.9612 0.346173C54.9612 0.310586 53.6373 0.284002 52.0191 0.287146C49.2519 0.292577 49.1017 0.306298 49.4924 0.518965ZM57.6679 0.400769C57.7401 0.46637 58.086 0.628729 58.4361 0.761646C58.7864 0.894563 59.2013 1.14639 59.3582 1.32118L59.6434 1.63918L59.3091 8.83801C59.019 15.0801 58.9401 16.1173 58.715 16.6427C58.4257 17.3178 57.7727 17.8988 56.9561 18.2077C56.4559 18.3967 56.6302 18.4123 59.2531 18.4125C62.0026 18.4126 62.0698 18.4058 61.3991 18.1957C61.0184 18.0763 60.5587 17.8396 60.3775 17.6696C59.6589 16.9953 59.6603 17.0283 60.0186 9.86704C60.2007 6.22568 60.3816 3.21361 60.4205 3.17331C60.4596 3.13314 60.5489 3.25391 60.6191 3.44157C61.6835 6.28843 65.9238 17.5063 66.0931 17.9232C66.2894 18.4069 66.3483 18.4571 66.5112 18.2806C66.6529 18.1273 71.7222 5.69759 72.5633 3.44157C72.6332 3.25391 72.7279 3.13886 72.7738 3.18617C72.8195 3.23333 72.9988 6.19753 73.1721 9.77328C73.542 17.4092 73.5346 17.5006 72.4751 18.1692C72.0642 18.4286 72.0908 18.4313 74.9672 18.4206C77.1819 18.4125 77.7757 18.3742 77.4594 18.2597C76.8971 18.0562 76.5814 17.7505 76.2579 17.096C76.0164 16.6077 75.9403 15.7144 75.5818 9.16387C75.1195 0.717054 75.0614 1.31647 76.3965 0.781655C76.789 0.624441 77.1109 0.447504 77.1117 0.388621C77.1125 0.329737 76.2158 0.281429 75.119 0.281429H73.1246L71.6426 3.8902C70.8276 5.8751 69.5065 9.09026 68.7071 11.0353C67.9075 12.9802 67.2106 14.544 67.1581 14.5106C67.1056 14.4771 65.8848 11.262 64.445 7.36563L61.8273 0.281429H59.6819C58.5019 0.281429 57.5956 0.335168 57.6679 0.400769ZM97.2621 0.460081C97.1752 0.736206 96.7923 4.49119 96.8453 4.54721C96.8712 4.57451 97.0284 4.31725 97.1946 3.97552C97.7266 2.8826 98.5383 1.91845 99.2753 1.50441C99.9081 1.14896 100.125 1.10752 101.456 1.08851L102.934 1.0675L102.975 8.21358C102.998 12.1439 102.978 15.698 102.93 16.1114C102.823 17.0493 102.371 17.6401 101.416 18.0887L100.719 18.416L104.18 18.4206L107.642 18.4252L106.773 17.9906C106.296 17.7515 105.81 17.4056 105.693 17.2219C105.328 16.6468 105.224 14.569 105.221 7.83798C105.219 2.15299 105.246 1.2936 105.431 1.1351C105.759 0.854259 108.24 1.04706 108.922 1.40637C109.634 1.78125 110.534 2.81243 110.993 3.77972C111.199 4.21392 111.404 4.56908 111.448 4.56908C111.561 4.56908 111.128 0.678323 110.991 0.460081C110.904 0.321162 109.371 0.281429 104.099 0.281429C98.7966 0.281429 97.3061 0.320447 97.2621 0.460081ZM88.9658 1.34705C90.9062 2.33707 92.4803 4.70057 93.2535 7.78481C94.3165 12.0252 93.089 16.4747 90.4949 17.7849C87.5043 19.2953 84.334 17.8845 82.6126 14.2775C80.9444 10.782 80.564 6.95473 81.6152 4.24493C82.8069 1.17297 86.0887 -0.120752 88.9658 1.34705ZM122.5 1.29374C123.879 1.99463 125.004 3.25677 125.846 5.04744C126.795 7.06706 127.103 8.28647 127.188 10.3574C127.304 13.1757 126.624 15.4643 125.25 16.8828C124.466 17.6929 123.713 18.0802 122.51 18.2928C119.441 18.8357 116.826 16.6294 115.396 12.292C114.075 8.28018 114.491 4.32039 116.448 2.30048C118.006 0.692043 120.5 0.277285 122.5 1.29374Z" fill="#292929"/>
</svg>
