<svg width="103" height="18" viewBox="0 0 103 18" fill="none" xmlns="http://www.w3.org/2000/svg">
<path opacity="0.3" fill-rule="evenodd" clip-rule="evenodd" d="M29.9108 0.0611499C28.0691 0.312076 26.4687 0.984907 25.0919 2.08712C24.6424 2.44697 23.8761 3.23483 23.5363 3.68649C22.5583 4.98645 21.9428 6.52448 21.7769 8.0827C21.7202 8.61524 21.7493 9.62078 21.8419 10.3248C22.1262 12.4871 23.0576 14.3349 24.4975 15.5936C26.3062 17.1746 28.7341 17.9084 31.7576 17.7879C34.7594 17.6682 37.1869 16.6226 38.7164 14.7904C40.0789 13.1583 40.7812 10.893 40.7033 8.38147C40.6643 7.1216 40.4168 6.09698 39.8993 5.0523C38.5164 2.26062 35.7405 0.398036 32.428 0.0391682C31.8644 -0.0218666 30.4281 -0.00931757 29.9108 0.0611499ZM0 1.42022V2.37642L1.11449 2.3952C2.38636 2.41662 2.57508 2.45133 2.79637 2.70473C3.04614 2.9907 3.03566 2.71283 3.03566 9.04304C3.03566 14.5151 3.03107 14.8823 2.96021 15.0863C2.86719 15.3541 2.71214 15.5084 2.42627 15.6176C2.22864 15.6931 2.09723 15.7014 1.10341 15.7014H0V16.619V17.5367H4.79761H9.59522V16.6218V15.707L8.58687 15.6935C7.64977 15.681 7.56651 15.6736 7.4087 15.5882C7.19539 15.4727 7.07295 15.3417 6.97555 15.1246C6.9052 14.9678 6.8982 14.7465 6.88627 12.2975L6.87328 9.64058L7.94769 9.64063C9.11049 9.64071 9.48428 9.68207 9.9876 9.86637C10.9819 10.2305 11.6384 11.0446 11.8217 12.1408C11.8567 12.3502 11.9254 13.117 11.9743 13.8447C12.0712 15.2875 12.1261 15.648 12.3206 16.1192C12.8501 17.4016 14.2676 18.0866 16.1944 17.9912C17.1944 17.9418 17.8231 17.7211 18.2776 17.2602C18.5952 16.938 18.7841 16.5851 18.9138 16.0711C19.0639 15.4763 19.1055 14.9698 19.1055 13.7397V12.6283H18.41H17.7146L17.6935 13.3005C17.6692 14.077 17.6169 14.2914 17.3661 14.6436C16.9626 15.2101 16.2675 15.2642 15.9509 14.7536C15.7508 14.4308 15.7078 14.1808 15.6663 13.0978C15.6451 12.5461 15.6096 11.9891 15.5874 11.86C15.3684 10.5874 14.7883 9.75138 13.6565 9.07727C13.3241 8.87927 13.2924 8.85016 13.3805 8.82353C14.3491 8.53039 15.0441 8.22816 15.5963 7.85995C16.0089 7.58486 16.5621 7.04294 16.8087 6.67237C17.2587 5.99596 17.4334 5.33482 17.3946 4.4551C17.3427 3.27508 16.9748 2.40023 16.2411 1.71131C15.5435 1.05644 14.6475 0.677731 13.4404 0.527492C13.0095 0.473841 11.9294 0.464021 6.46531 0.464021H0V1.42022ZM61.5198 1.42026V2.3765L62.6555 2.39383C63.7145 2.41001 63.8078 2.41778 64.0372 2.50843C64.3319 2.62491 64.4699 2.8052 64.5349 3.1586C64.5636 3.3149 64.5745 5.36618 64.5669 9.19622L64.5554 14.9971L64.4556 15.201C64.3488 15.4189 64.1798 15.5695 63.9398 15.6606C63.835 15.7004 63.4563 15.722 62.6555 15.7342L61.5198 15.7513V16.644V17.5367H70.096H78.6723V13.8661V10.1954H77.8656H77.0589V10.4335C77.0589 10.8714 76.9692 11.7054 76.866 12.2272C76.4957 14.099 75.5685 15.2579 74.1545 15.6163C73.8365 15.6969 73.6754 15.7014 71.1294 15.7014H68.4402V12.7777V9.85399H69.0715C69.4456 9.85399 69.8565 9.88058 70.0799 9.9193C70.7666 10.0382 71.3068 10.3741 71.5581 10.8383C71.7512 11.195 71.7933 11.4324 71.7938 12.1695L71.7943 12.8417H72.7284H73.6624V8.76475V4.68785L72.739 4.69932L71.8155 4.71085L71.7921 5.4151C71.7731 5.98661 71.7524 6.16032 71.682 6.33677C71.3222 7.23842 70.5125 7.63454 69.0291 7.63454H68.4402V5.00962V2.3847L70.7223 2.38512C73.8139 2.38572 74.2613 2.43225 75.1059 2.84058C75.4441 3.0041 75.5654 3.09262 75.8563 3.38793C76.1481 3.68418 76.2374 3.81065 76.4175 4.18283C76.6811 4.72737 76.8581 5.39781 76.9515 6.20526C76.9895 6.53361 77.0304 6.88386 77.0423 6.98365L77.0642 7.16505H77.8682H78.6723V3.81454V0.464021H70.096H61.5198V1.42026ZM82.9604 1.42436V2.3847H83.0604C83.2576 2.3847 84.2616 2.47168 84.5738 2.51582C85.311 2.62005 85.8894 2.85513 86.3026 3.21853C86.5519 3.43778 90.9121 8.72963 90.8918 8.78836C90.8846 8.80936 89.7132 10.0603 88.2887 11.5682C86.8643 13.076 85.503 14.5246 85.2635 14.7871C84.5578 15.5609 84.2743 15.7014 83.4185 15.7014H82.9604V16.6406V17.5798L87.2592 17.5689L91.5579 17.558V16.6404V15.7227L90.3615 15.7014C89.2365 15.6813 89.158 15.6747 89.0454 15.5916C88.7684 15.3872 88.6908 14.9283 88.8798 14.613C89.0069 14.401 92.3486 10.5847 92.4071 10.5848C92.4304 10.5849 93.0895 11.3528 93.8718 12.2912C95.6574 14.4334 95.7774 14.5844 95.8187 14.741C95.8981 15.0423 95.6861 15.4666 95.3821 15.6145C95.2187 15.694 95.1224 15.7014 94.2405 15.7014H93.2774V16.6404V17.5794H98.1387H103V16.6453V15.7113L102.437 15.692C101.593 15.6631 101.297 15.5147 100.674 14.8084C100.017 14.064 94.912 7.97365 94.912 7.93443C94.912 7.87399 98.5326 3.93964 99.0432 3.44521C99.5569 2.94784 100.008 2.63626 100.405 2.5054C100.659 2.42166 100.799 2.41091 101.843 2.39464L103 2.37663V1.4203V0.464021H98.6906H94.3813V1.42436V2.3847H94.9587C95.5908 2.3847 95.7511 2.42674 95.915 2.63554C96.0447 2.80067 96.005 3.0583 95.814 3.29155C95.4774 3.70249 93.4394 6.03496 93.4066 6.04674C93.3646 6.06181 91.4335 3.70203 91.3369 3.51769C91.2293 3.31247 91.2183 2.90332 91.3157 2.72615C91.4597 2.46396 91.6115 2.40809 92.2266 2.3911L92.7679 2.37612V1.42009V0.464021H87.8642H82.9604V1.42436ZM43.3059 1.4457V2.3847L44.1231 2.38534C45.3473 2.38628 45.6625 2.48538 45.8862 2.93956L46.0019 3.17431V9.08572V14.9971L45.9006 15.2021C45.7922 15.4216 45.6251 15.5704 45.3862 15.66C45.2862 15.6975 44.9217 15.7217 44.2717 15.734L43.3059 15.7522V16.6658V17.5794H51.3514H59.3969V13.8234V10.0674H58.4841H57.5713L57.5704 10.2488C57.5699 10.3486 57.5508 10.8306 57.528 11.3201C57.4607 12.7684 57.3319 13.4564 56.9995 14.1435C56.688 14.7872 56.2222 15.2146 55.5546 15.4692C54.9861 15.6859 54.8092 15.6983 52.2529 15.6999L49.8853 15.7014L49.8972 9.43785C49.9103 2.54834 49.8927 2.979 50.172 2.69828C50.4131 2.45585 50.6278 2.41551 51.7866 2.39511L52.8162 2.37693V1.44182V0.506703H48.061H43.3059V1.4457ZM31.837 2.21542C33.414 2.37813 34.5417 3.17743 35.262 4.64324C35.5873 5.30515 35.7849 5.99557 35.947 7.037C36.0584 7.75222 36.058 10.0024 35.9463 10.7076C35.5072 13.4816 34.2919 15.1415 32.317 15.6648C32.0867 15.7258 31.7983 15.7576 31.3331 15.7733C30.7661 15.7924 30.6134 15.7827 30.2302 15.703C28.919 15.4303 27.929 14.6208 27.2411 13.259C26.7431 12.273 26.4723 11.1319 26.362 9.55522C26.2286 7.64756 26.4943 5.91925 27.1138 4.66441C27.9818 2.90614 29.7326 1.99835 31.837 2.21542ZM10.5139 2.4302C11.926 2.58846 12.7166 3.15664 12.9294 4.1658C13.0123 4.55899 13.0092 5.31714 12.9232 5.66846C12.7238 6.48415 12.1845 6.99048 11.2298 7.25844C10.9043 7.34977 10.8064 7.35439 8.88407 7.36843L6.87799 7.38307V4.88388V2.3847H8.493C9.38128 2.3847 10.2907 2.40519 10.5139 2.4302Z" fill="#292929"/>
</svg>
