<svg width="133" height="22" viewBox="0 0 133 22" fill="none" xmlns="http://www.w3.org/2000/svg">
<path opacity="0.3" fill-rule="evenodd" clip-rule="evenodd" d="M14.1373 0.634734C13.7029 1.15677 12.926 1.24842 10.7019 1.04142C8.24272 0.812548 7.46034 0.941577 5.28649 1.93368C1.7971 3.52624 0.342076 5.74706 0.0663449 9.89966C-0.113361 12.6097 0.016503 13.2758 1.15647 15.4843C2.96495 18.9886 5.2993 20.2483 9.99542 20.2547C12.7418 20.2584 13.7509 20.0582 15.061 19.2508C17.0446 18.028 18.6437 15.0284 17.3117 15.0284C17.0602 15.0284 16.8544 15.3124 16.8544 15.6594C16.8544 16.0064 16.0062 17.0545 14.9691 17.9883C13.1304 19.6442 13.0097 19.6821 10.1093 19.4979C7.39038 19.3255 7.00627 19.1691 5.63676 17.6787C1.3915 13.0602 3.36644 2.89705 8.75623 1.62501C10.5098 1.21148 13.5209 2.61164 15.3541 4.69387C16.1639 5.61347 16.934 6.36576 17.0652 6.36576C17.2852 6.36576 15.1886 0.44963 14.8488 0.110419C14.7661 0.0283522 14.446 0.264065 14.1373 0.634734ZM82.7972 0.683976C82.3157 1.2279 80.3819 1.35738 72.2801 1.38793C63.2884 1.42121 62.4923 1.48595 63.8385 2.07273C65.2771 2.70009 65.5208 3.09675 65.3543 4.54204C65.2501 5.44752 61.6052 15.1492 61.1868 15.6352C60.6564 16.2517 56.1162 3.86818 56.5035 2.86195C56.6306 2.53231 57.0723 2.25921 57.4857 2.25556C57.8991 2.25146 58.5456 2.04948 58.9229 1.80647C59.3765 1.51422 56.2003 1.37425 49.5489 1.3934C41.8998 1.41574 39.8179 1.53793 40.8609 1.90358C43.3827 2.78808 43.3758 2.76438 43.3758 10.4924C43.3758 18.6238 43.1879 19.1436 40.2568 19.1158C37.7025 19.0912 36.6193 18.234 34.177 14.3044L31.9392 10.7035L33.3544 10.2284C37.9554 8.6837 38.3272 3.44599 33.9539 1.78824C33.3187 1.54751 29.5719 1.3665 25.6271 1.38565C19.2939 1.41665 18.6688 1.48504 20.2839 1.96969L22.113 2.51863L22.2387 10.1951C22.3727 18.3772 22.2026 19.1318 20.2281 19.1318C19.63 19.1318 19.1407 19.3369 19.1407 19.5877C19.1407 19.864 21.1221 20.0436 24.1707 20.0436C27.2193 20.0436 29.2006 19.864 29.2006 19.5877C29.2006 19.3369 28.5906 19.1318 27.8448 19.1318C26.0263 19.1318 25.5425 18.084 25.5425 14.1466V10.925H27.0995C28.5687 10.925 28.779 11.137 30.8349 14.6865C34.2141 20.521 33.2127 20.0436 42.0749 20.0436C46.5397 20.0436 49.7776 19.8649 49.7776 19.6178C49.7776 19.3839 49.2165 19.1272 48.5306 19.0479C46.4286 18.8049 46.0833 17.4298 46.2232 9.86136C46.3357 3.77517 46.4368 3.03428 47.2356 2.45252C47.724 2.09735 48.6897 1.80647 49.382 1.80647C51.7745 1.80647 52.7809 3.37213 55.9722 12.058C57.6293 16.5676 59.0633 20.3354 59.1584 20.4307C59.2539 20.5255 59.885 20.1699 60.5608 19.6397C61.2367 19.1094 62.0707 18.6758 62.4141 18.6758C62.7575 18.6758 63.0383 18.4707 63.0383 18.2199C63.0383 17.9691 62.7296 17.764 62.3524 17.764C61.9751 17.764 61.6674 17.5077 61.6688 17.1941C61.6729 16.2115 67.0782 3.50982 67.7975 2.79264C68.621 1.97152 71.0816 1.89355 71.8558 2.66407C72.2298 3.03611 72.4529 5.41332 72.5371 9.92063C72.677 17.4261 72.3286 18.8053 70.2297 19.0479C69.5438 19.1272 68.9827 19.3839 68.9827 19.6178C68.9827 19.8622 71.8123 20.0436 75.6131 20.0436C81.6819 20.0436 82.3226 20.1225 83.1786 20.976L84.1132 21.9079L85.6935 18.498C87.7073 14.1517 87.6899 13.4668 85.6272 15.87C83.516 18.3289 81.9188 19.1318 79.1363 19.1318C75.9437 19.1318 75.3845 18.3621 75.3845 13.9665V10.4691H77.6708C80.1638 10.4691 81.7862 11.5369 81.7862 13.1778C81.7862 13.6647 81.992 14.1895 82.2435 14.3445C82.5361 14.5251 82.7007 13.0319 82.7007 10.1919C82.7007 5.7229 82.4424 5.18992 81.5736 7.86941C81.1154 9.28324 81.0102 9.3334 78.2424 9.46516L75.3845 9.60057V6.47883C75.3845 4.6583 75.6131 3.12866 75.9332 2.80951C76.6118 2.13292 79.9109 2.09598 81.6422 2.74568C82.35 3.01103 83.7314 3.98581 84.7113 4.91134C85.9478 6.07807 86.3895 6.31424 86.1531 5.68186C84.7305 1.87167 83.9047 -0.0145057 83.666 8.39883e-05C83.5124 0.00965848 83.1214 0.31741 82.7972 0.683976ZM89.1015 1.88991C89.9818 2.14158 90.8529 2.58474 91.0381 2.87472C91.5607 3.69356 91.4523 17.2492 90.9155 18.25C90.611 18.8172 89.9589 19.1318 89.0864 19.1318C88.3406 19.1318 87.7307 19.3369 87.7307 19.5877C87.7307 19.8694 90.1217 20.0436 93.9888 20.0436C99.7586 20.0436 100.328 20.1198 101.291 21.022L102.335 22L102.766 20.908C103.003 20.3071 103.738 18.6106 104.4 17.1375C105.061 15.6644 105.52 14.3764 105.419 14.2752C105.317 14.1744 104.667 14.8328 103.975 15.7387C103.281 16.6447 102.07 17.7776 101.281 18.2568C99.6594 19.243 95.9948 19.4386 95.1384 18.5846C94.5256 17.9737 94.3468 3.80435 94.9404 2.87472C95.1256 2.58474 95.9967 2.14158 96.8769 1.88991C98.1673 1.52106 97.416 1.43261 92.9892 1.43261C88.5624 1.43261 87.8111 1.52106 89.1015 1.88991ZM106.25 1.90358C108.768 2.78672 108.765 2.7776 108.765 10.3269C108.765 14.3085 108.559 17.7512 108.292 18.25C107.987 18.8172 107.335 19.1318 106.463 19.1318C105.717 19.1318 105.107 19.3369 105.107 19.5877C105.107 19.8694 107.498 20.0436 111.365 20.0436C117.022 20.0436 117.717 20.1325 118.61 20.9682L119.597 21.8929L121.28 18.1684C122.206 16.1199 122.827 14.319 122.661 14.1662C122.494 14.0135 122.263 14.1526 122.148 14.4754C121.754 15.5755 119.633 17.7954 118.336 18.4643C116.773 19.2704 113.275 19.3428 112.514 18.5846C111.755 17.8278 111.739 2.91164 112.498 2.44432C112.79 2.26423 113.664 1.96559 114.441 1.78048C115.303 1.57486 113.718 1.4399 110.365 1.43307C105.963 1.42486 105.149 1.51787 106.25 1.90358ZM123.626 1.90358C126.152 2.78991 126.141 2.75116 126.141 10.6615C126.141 18.6243 125.998 19.1318 123.763 19.1318C123.059 19.1318 122.483 19.3369 122.483 19.5877C122.483 19.8653 124.541 20.0436 127.741 20.0436C130.942 20.0436 133 19.8653 133 19.5877C133 19.3369 132.424 19.1318 131.72 19.1318C129.485 19.1318 129.341 18.622 129.349 10.7199C129.353 6.69494 129.507 3.16469 129.693 2.87472C129.878 2.58474 130.749 2.14158 131.629 1.88991C132.921 1.52061 132.174 1.4317 127.741 1.42759C123.334 1.42349 122.524 1.51741 123.626 1.90358ZM32.6648 3.21255C33.7691 4.42943 33.7509 7.51059 32.6328 8.57154C32.0731 9.10315 31.7741 9.16744 31.6323 8.78811C31.4961 8.42382 31.1399 8.53552 30.544 9.13005C29.9299 9.74191 29.0259 10.0132 27.6002 10.0132H25.5425V6.6849C25.5425 4.70435 25.7647 3.13505 26.0912 2.80951C26.393 2.5086 27.8014 2.2624 29.2212 2.2624C31.2565 2.2624 31.9849 2.46346 32.6648 3.21255Z" fill="#292929"/>
</svg>
