<svg width="99" height="18" viewBox="0 0 99 18" fill="none" xmlns="http://www.w3.org/2000/svg">
<path opacity="0.3" fill-rule="evenodd" clip-rule="evenodd" d="M3.59402 0.534686C3.35054 1.33201 2.91447 3.42427 2.7918 4.38442C2.74905 4.71778 2.6564 4.9904 2.58563 4.9904C2.515 4.9904 2.45709 5.31121 2.45709 5.70331C2.45709 6.09542 2.39276 6.41623 2.31412 6.41623C2.23548 6.41623 2.17115 6.70496 2.17115 7.05785C2.17115 7.41074 2.10681 7.69947 2.02817 7.69947C1.94954 7.69947 1.8852 8.00746 1.8852 8.38387C1.8852 8.76029 1.82744 9.1293 1.75681 9.20372C1.68632 9.2783 1.59496 9.59583 1.55407 9.90951C1.51304 10.2232 1.41782 10.7365 1.34247 11.0502C1.11157 12.011 0.428436 15.1472 0.302047 15.8267C0.236422 16.1796 0.125188 16.7754 0.0549876 17.1507C-0.0152126 17.526 -0.018644 17.8662 0.0472671 17.907C0.113178 17.9476 2.1883 17.9757 4.65846 17.9694C8.28757 17.9603 9.2964 17.9153 9.9139 17.7349C10.3342 17.6123 10.7391 17.4534 10.8139 17.3821C10.8886 17.3108 11.0656 17.2525 11.2071 17.2525C11.3486 17.2525 11.4645 17.1884 11.4645 17.1099C11.4645 17.0315 11.5673 16.9674 11.6931 16.9674C11.8187 16.9674 12.102 16.7749 12.3223 16.5396C12.5426 16.3043 12.769 16.1119 12.825 16.1119C12.9963 16.1119 13.895 15.0706 13.895 14.8721C13.895 14.7697 13.9433 14.6855 14.0022 14.6849C14.1474 14.6835 14.4669 13.9781 14.4669 13.6596C14.4669 13.5183 14.5312 13.4028 14.6099 13.4028C14.6885 13.4028 14.7529 13.1461 14.7529 12.8325C14.7529 12.5188 14.8172 12.2621 14.8958 12.2621C14.9745 12.2621 15.0388 11.9734 15.0388 11.6205C15.0388 11.2676 14.9745 10.9789 14.8958 10.9789C14.8172 10.9789 14.7529 10.7864 14.7529 10.5511C14.7529 10.3159 14.6885 10.1234 14.6099 10.1234C14.5312 10.1234 14.4669 10.0226 14.4669 9.89939C14.4669 9.61408 14.2367 9.38723 13.4288 8.87635C12.9042 8.54456 12.8067 8.4208 12.9162 8.22561C12.9906 8.09315 13.1447 7.98464 13.2588 7.98464C13.3727 7.98464 13.4661 7.92048 13.4661 7.84206C13.4661 7.76364 13.5321 7.69947 13.6128 7.69947C13.8438 7.69947 15.0388 6.44803 15.0388 6.20606C15.0388 6.08644 15.1031 5.98848 15.1818 5.98848C15.2604 5.98848 15.3248 5.87299 15.3248 5.73183C15.3248 5.59067 15.403 5.39719 15.4988 5.30166C15.7577 5.04344 15.7345 2.61426 15.4674 2.03181C15.3505 1.77701 15.2064 1.56841 15.1469 1.56841C15.0874 1.56841 15.0388 1.49969 15.0388 1.41571C15.0388 1.18843 14.6624 0.855497 14.4056 0.855497C14.282 0.855497 14.181 0.791335 14.181 0.712915C14.181 0.634494 14.0523 0.570331 13.895 0.570331C13.7377 0.570331 13.6091 0.50617 13.6091 0.427749C13.6091 0.349328 13.3195 0.285166 12.9657 0.285166C12.6118 0.285166 12.3223 0.221004 12.3223 0.142583C12.3223 0.05076 10.7995 0 8.0398 0H3.7573L3.59402 0.534686ZM25.4382 0.318388C25.2995 0.491484 25.1069 0.811439 25.0101 1.02945C24.9133 1.24746 24.7856 1.42583 24.7262 1.42583C24.6667 1.42583 24.6181 1.55415 24.6181 1.71099C24.6181 1.86784 24.5537 1.99616 24.4751 1.99616C24.3965 1.99616 24.3321 2.0924 24.3321 2.21004C24.3321 2.32767 24.2678 2.42391 24.1891 2.42391C24.1105 2.42391 24.0462 2.55223 24.0462 2.70907C24.0462 2.86592 23.9897 2.99424 23.9205 2.99424C23.8514 2.99424 23.7149 3.18673 23.6172 3.42199C23.5196 3.65725 23.3831 3.84974 23.314 3.84974C23.2448 3.84974 23.1883 3.97279 23.1883 4.12307C23.1883 4.27335 23.1337 4.41765 23.0671 4.44388C22.9538 4.48822 22.3352 5.51325 21.9848 6.23686C21.8997 6.41266 21.7817 6.5571 21.7228 6.55767C21.6639 6.55824 21.6156 6.67302 21.6156 6.81247C21.6156 6.95206 21.4869 7.15866 21.3297 7.27173C21.1724 7.38479 21.0437 7.5914 21.0437 7.73099C21.0437 7.87043 20.9794 7.98464 20.9007 7.98464C20.8221 7.98464 20.7578 8.11296 20.7578 8.26981C20.7578 8.42665 20.6934 8.55497 20.6148 8.55497C20.5362 8.55497 20.4718 8.6458 20.4718 8.75701C20.4718 8.86808 20.4235 8.9803 20.3646 9.00653C20.3057 9.03263 20.0693 9.4069 19.8397 9.83822C19.61 10.2695 19.3848 10.6545 19.3393 10.6937C19.2013 10.8126 18.7437 11.604 18.6592 11.87C18.6154 12.0072 18.5229 12.1195 18.4535 12.1195C18.3841 12.1195 18.3272 12.2158 18.3272 12.3334C18.3272 12.451 18.2629 12.5473 18.1842 12.5473C18.1056 12.5473 18.0413 12.6756 18.0413 12.8325C18.0413 12.9893 17.9769 13.1176 17.8983 13.1176C17.8197 13.1176 17.7553 13.2459 17.7553 13.4028C17.7553 13.5596 17.7033 13.688 17.6396 13.688C17.5762 13.688 17.317 14.0726 17.0639 14.5429C16.6075 15.3907 16.0348 16.3091 15.7557 16.6406C15.6759 16.7352 15.6107 16.9118 15.6107 17.0327C15.6107 17.1536 15.5464 17.2525 15.4677 17.2525C15.3891 17.2525 15.3248 17.3488 15.3248 17.4664C15.3248 17.584 15.2604 17.6803 15.1818 17.6803C15.1031 17.6803 15.0388 17.7444 15.0388 17.8229C15.0388 17.9074 15.5675 17.9654 16.339 17.9654C17.5188 17.9654 17.6461 17.9391 17.7139 17.6803C17.755 17.5234 17.8455 17.3951 17.915 17.3951C17.9844 17.3951 18.0413 17.2989 18.0413 17.1812C18.0413 17.0636 18.1056 16.9674 18.1842 16.9674C18.2629 16.9674 18.3272 16.839 18.3272 16.6822C18.3272 16.5254 18.3915 16.397 18.4702 16.397C18.5488 16.397 18.6132 16.2687 18.6132 16.1119C18.6132 15.955 18.6619 15.8267 18.7215 15.8267C18.7813 15.8267 19.0868 15.3461 19.4007 14.7585C19.7146 14.171 20.0197 13.6898 20.0786 13.6891C20.1375 13.6885 20.1859 13.5871 20.1859 13.464C20.1859 12.8729 20.4369 12.8325 24.1075 12.8325C27.5252 12.8325 27.6205 12.8402 27.6205 13.1176C27.6205 13.2745 27.68 13.4028 27.7526 13.4028C27.8253 13.4028 27.9198 13.9001 27.9628 14.5078C28.0057 15.1155 28.091 16.1261 28.1524 16.7535L28.2639 17.8942L29.5864 17.9352L30.9089 17.9761V17.1867C30.9089 16.7523 30.8446 16.397 30.7659 16.397C30.6843 16.397 30.623 15.9693 30.623 15.3989C30.623 14.8286 30.5616 14.4009 30.48 14.4009C30.3998 14.4009 30.337 14.0063 30.337 13.5026C30.337 13.0085 30.2781 12.5434 30.2061 12.4689C30.1341 12.3944 30.0406 11.9484 29.9983 11.4779C29.9561 11.0074 29.8602 10.2054 29.7853 9.69563C29.7102 9.1859 29.5797 8.29804 29.4949 7.72257C29.1974 5.7016 28.7597 2.91511 28.6198 2.15058C28.542 1.72582 28.4784 1.15977 28.4784 0.892853C28.4784 0.134597 28.2363 -0.000285276 26.8801 0.00185347C25.8259 0.00356446 25.6616 0.0396385 25.4382 0.318388ZM37.3785 0.210737C37.2803 0.32352 37.1998 0.643048 37.1998 0.920799C37.1998 1.19855 37.1354 1.42583 37.0568 1.42583C36.9782 1.42583 36.9138 1.71456 36.9138 2.06745C36.9138 2.42034 36.8495 2.70907 36.7709 2.70907C36.6922 2.70907 36.6279 3.02989 36.6279 3.42199C36.6279 3.81409 36.5635 4.1349 36.4849 4.1349C36.4063 4.1349 36.3419 4.39241 36.3419 4.70723C36.3419 5.02191 36.2836 5.39092 36.2123 5.52708C36.1409 5.66325 35.9796 6.31999 35.8541 6.98656C35.7284 7.65314 35.4599 8.93638 35.2575 9.83822C34.5222 13.1131 34.341 14.013 34.2456 14.8643C34.2039 15.2368 34.1115 15.5415 34.0405 15.5415C33.9696 15.5415 33.9114 15.8623 33.9114 16.2544C33.9114 16.6465 33.847 16.9674 33.7684 16.9674C33.6898 16.9674 33.6254 17.1919 33.6254 17.4664V17.9654H34.8407H36.056V17.5461C36.056 17.3154 36.1203 17.0871 36.199 17.0387C36.2776 16.9902 36.3419 16.6694 36.3419 16.3257C36.3419 15.9821 36.4063 15.6613 36.4849 15.6128C36.5635 15.5643 36.6279 15.2398 36.6279 14.8915C36.6279 14.5432 36.6922 14.2583 36.7709 14.2583C36.8495 14.2583 36.9138 13.9375 36.9138 13.5454C36.9138 13.1533 36.9782 12.8325 37.0568 12.8325C37.1354 12.8325 37.1998 12.5476 37.1998 12.1992C37.1998 11.8509 37.2641 11.5264 37.3427 11.4779C37.4214 11.4294 37.4857 11.1691 37.4857 10.8992V10.4085H41.203C43.586 10.4085 44.9204 10.4597 44.9204 10.5511C44.9204 10.6296 45.0057 10.6937 45.11 10.6937C45.3727 10.6937 45.9212 11.3024 45.9212 11.594C45.9212 11.7263 45.9855 11.8344 46.0642 11.8344C46.1428 11.8344 46.2071 12.1231 46.2071 12.476C46.2071 12.8289 46.1428 13.1176 46.0642 13.1176C45.9855 13.1176 45.9212 13.4346 45.9212 13.8221C45.9212 14.2097 45.8654 14.561 45.7972 14.6031C45.6867 14.6712 45.5167 16.0235 45.4464 17.3951L45.4208 17.8942L46.7683 17.9355C48.5353 17.9897 48.6028 17.9597 48.1946 17.301C47.8466 16.7395 47.8501 16.6734 48.3802 13.688C48.6088 12.4001 48.676 10.5819 48.5024 10.3779C48.4167 10.2771 48.2351 10.0619 48.0988 9.89967C47.9627 9.73727 47.7387 9.56289 47.6011 9.51199C47.2305 9.37497 47.2975 9.07668 47.7441 8.8735C48.1956 8.66818 49.2096 7.78873 49.2096 7.60238C49.2096 7.53351 49.3383 7.38479 49.4955 7.27173C49.6528 7.15866 49.7815 6.95206 49.7815 6.81247C49.7815 6.67302 49.8458 6.55881 49.9245 6.55881C50.0031 6.55881 50.0674 6.43049 50.0674 6.27365C50.0674 6.11681 50.1248 5.98848 50.1948 5.98848C50.3531 5.98848 50.4972 5.22851 50.5896 3.9062C50.6492 3.05355 50.6086 2.78293 50.3327 2.19521C49.9628 1.40772 49.4732 0.855497 49.1445 0.855497C49.023 0.855497 48.9236 0.791335 48.9236 0.712915C48.9236 0.634494 48.7306 0.570331 48.4947 0.570331C48.2588 0.570331 48.0658 0.512301 48.0658 0.441579C48.0658 0.206603 46.6118 0.114066 42.0609 0.0595995C38.2741 0.0142582 37.5288 0.0383546 37.3785 0.210737ZM60.2144 0.302704C60.0988 0.469098 59.9238 0.689102 59.8254 0.791476C59.7272 0.893851 59.6467 1.0785 59.6467 1.20183C59.6467 1.32502 59.5824 1.42583 59.5037 1.42583C59.4251 1.42583 59.3607 1.52207 59.3607 1.6397C59.3607 1.75733 59.2964 1.85358 59.2178 1.85358C59.1391 1.85358 59.0748 1.9819 59.0748 2.13874C59.0748 2.29558 59.0105 2.42391 58.9318 2.42391C58.8532 2.42391 58.7888 2.50803 58.7888 2.61084C58.7888 2.71378 58.6602 2.93564 58.5029 3.10403C58.3456 3.27228 58.217 3.47959 58.217 3.56457C58.217 3.64969 58.1505 3.7967 58.0691 3.89137C57.8286 4.17169 56.9302 5.72713 56.9302 5.86315C56.9302 5.93216 56.8658 5.98848 56.7872 5.98848C56.7086 5.98848 56.6442 6.10269 56.6442 6.24214C56.6442 6.38172 56.5156 6.58833 56.3583 6.70139C56.201 6.81446 56.0723 7.02107 56.0723 7.16065C56.0723 7.3001 56.008 7.41431 55.9294 7.41431C55.8507 7.41431 55.7864 7.54263 55.7864 7.69947C55.7864 7.85632 55.7221 7.98464 55.6434 7.98464C55.5648 7.98464 55.5005 8.08088 55.5005 8.19851C55.5005 8.31615 55.4361 8.41239 55.3575 8.41239C55.2788 8.41239 55.2145 8.54071 55.2145 8.69755C55.2145 8.8544 55.1544 8.98272 55.0811 8.98272C55.0078 8.98272 54.9085 9.1062 54.8605 9.25705C54.8125 9.40804 54.6177 9.7598 54.4279 10.039C54.0611 10.5779 53.4103 11.6942 53.1531 12.2253C53.068 12.4011 52.9502 12.5456 52.8912 12.5462C52.8321 12.5467 52.7839 12.6756 52.7839 12.8325C52.7839 12.9893 52.7196 13.1176 52.641 13.1176C52.5623 13.1176 52.498 13.2017 52.498 13.3046C52.498 13.4075 52.3693 13.6294 52.212 13.7977C52.0548 13.966 51.9261 14.2027 51.9261 14.3236C51.9261 14.4445 51.8618 14.5435 51.7831 14.5435C51.7045 14.5435 51.6401 14.5998 51.6401 14.6688C51.6401 14.8048 50.7417 16.3602 50.5012 16.6406C50.4199 16.7352 50.352 16.8636 50.3502 16.9257C50.3485 16.9879 50.2213 17.1991 50.0674 17.3951C49.9136 17.5912 49.7864 17.7996 49.7846 17.8585C49.7809 17.9858 51.9461 18.0035 52.2718 17.8789C52.3962 17.8313 52.498 17.6709 52.498 17.5224C52.498 17.374 52.5623 17.2525 52.641 17.2525C52.7196 17.2525 52.7839 17.1684 52.7839 17.0656C52.7839 16.9627 52.9126 16.7408 53.0699 16.5724C53.2272 16.4042 53.3558 16.1675 53.3558 16.0466C53.3558 15.9256 53.4202 15.8267 53.4988 15.8267C53.5774 15.8267 53.6418 15.7678 53.6418 15.696C53.6418 15.6239 53.9313 15.0767 54.2852 14.4799C54.639 13.883 54.9286 13.3597 54.9286 13.3172C54.9286 13.2746 55.0205 13.1481 55.1329 13.0362C55.2987 12.8707 55.994 12.8325 58.8345 12.8325H62.3319L62.4308 13.3671C62.4852 13.6613 62.5615 14.3992 62.6003 15.0068C62.6391 15.6145 62.7274 16.1119 62.7961 16.1119C62.865 16.1119 62.9407 16.513 62.964 17.003L63.0066 17.8942L64.3291 17.9352L65.6516 17.9761V17.3292C65.6516 16.9733 65.5873 16.6822 65.5086 16.6822C65.427 16.6822 65.3657 16.2544 65.3657 15.6841C65.3657 15.1352 65.3066 14.686 65.2344 14.686C65.1622 14.686 65.0676 14.2529 65.0241 13.7236C64.8559 11.6754 64.7765 11.04 64.6538 10.765C64.5839 10.6082 64.4902 10.1269 64.4458 9.69563C64.3392 8.66333 64.1284 7.10647 63.9627 6.13106C63.8894 5.69975 63.6847 4.32026 63.5077 3.06553C63.3307 1.8108 63.1217 0.607689 63.0432 0.392103C62.9024 0.00556127 62.8831 0 61.6625 0C60.5623 0 60.4013 0.0336502 60.2144 0.302704ZM71.8352 0.213305C71.737 0.324662 71.6565 0.578886 71.6565 0.778217C71.6565 0.977548 71.5922 1.14066 71.5135 1.14066C71.4349 1.14066 71.3706 1.46147 71.3706 1.85358C71.3706 2.24568 71.3062 2.56649 71.2276 2.56649C71.1489 2.56649 71.0846 2.85522 71.0846 3.20811C71.0846 3.56101 71.0264 3.84974 70.9555 3.84974C70.8844 3.84974 70.7957 4.15444 70.7581 4.52701C70.6953 5.15123 70.4727 6.22331 69.655 9.83822C69.4865 10.5832 69.3129 11.4975 69.2691 11.87C69.2254 12.2426 69.1334 12.5473 69.0648 12.5473C68.9962 12.5473 68.94 12.8681 68.94 13.2602C68.94 13.6523 68.8757 13.9731 68.797 13.9731C68.7184 13.9731 68.6541 14.2619 68.6541 14.6147C68.6541 14.9676 68.5897 15.2564 68.5111 15.2564C68.4324 15.2564 68.3681 15.5772 68.3681 15.9693C68.3681 16.3614 68.3038 16.6822 68.2251 16.6822C68.1465 16.6822 68.0822 16.9657 68.0822 17.3121V17.9421L69.1054 17.9894C69.6682 18.0155 70.2082 17.9726 70.3055 17.8942C70.4798 17.7537 70.5965 17.3044 70.7499 16.1832C70.7928 15.8695 70.8857 15.5518 70.9562 15.4774C71.0269 15.4028 71.0846 15.0699 71.0846 14.7372C71.0846 14.4046 71.1489 14.0929 71.2276 14.0444C71.3062 13.9959 71.3706 13.6393 71.3706 13.2518C71.3706 12.8643 71.4349 12.5473 71.5135 12.5473C71.5922 12.5473 71.6565 12.3783 71.6565 12.1719C71.6565 11.8034 71.8103 11.6205 72.6 11.0502C72.8172 10.8933 73.1412 10.6207 73.32 10.4442C73.4989 10.2677 73.7125 10.1234 73.7947 10.1234C73.8769 10.1234 73.9441 10.0592 73.9441 9.9808C73.9441 9.90238 74.0264 9.83822 74.127 9.83822C74.2276 9.83822 74.4026 9.70989 74.516 9.55305C74.9213 8.99227 75.1482 9.21214 76.0244 11.0145C76.4913 11.9753 76.9221 12.7826 76.9814 12.8086C77.0409 12.8349 77.0895 12.9792 77.0895 13.1295C77.0895 13.2797 77.1539 13.4028 77.2325 13.4028C77.3111 13.4028 77.3755 13.5311 77.3755 13.688C77.3755 13.8448 77.4398 13.9731 77.5184 13.9731C77.5971 13.9731 77.6614 14.1335 77.6614 14.3296C77.6614 14.5256 77.7258 14.686 77.8044 14.686C77.883 14.686 77.9474 14.8144 77.9474 14.9712C77.9474 15.128 78.0117 15.2564 78.0903 15.2564C78.169 15.2564 78.2333 15.3847 78.2333 15.5415C78.2333 15.6984 78.2976 15.8267 78.3763 15.8267C78.4549 15.8267 78.5193 15.955 78.5193 16.1119C78.5193 16.2687 78.5836 16.397 78.6622 16.397C78.7409 16.397 78.8052 16.4871 78.8052 16.5974C78.8052 16.7077 78.9436 17.0565 79.1129 17.3726L79.4206 17.9475L80.8643 17.9921C81.7081 18.0182 82.3501 17.978 82.4093 17.8956C82.4649 17.8179 82.4166 17.6116 82.3021 17.4372C82.1874 17.2627 82.0936 17.0215 82.0936 16.9011C82.0936 16.7807 82.0293 16.6822 81.9506 16.6822C81.872 16.6822 81.8077 16.5539 81.8077 16.397C81.8077 16.2402 81.7433 16.1119 81.6647 16.1119C81.5861 16.1119 81.5217 15.9835 81.5217 15.8267C81.5217 15.6699 81.4574 15.5415 81.3787 15.5415C81.3001 15.5415 81.2358 15.4132 81.2358 15.2564C81.2358 15.0995 81.1714 14.9712 81.0928 14.9712C81.0142 14.9712 80.9498 14.8482 80.9498 14.6979C80.9498 14.5476 80.9016 14.4033 80.8426 14.3771C80.7835 14.351 80.092 13.0463 79.3056 11.4779C78.5193 9.90951 77.8277 8.60488 77.7686 8.57878C77.7096 8.55255 77.6614 8.40826 77.6614 8.25797C77.6614 8.10755 77.5971 7.98464 77.5184 7.98464C77.2395 7.98464 77.3808 7.25348 77.7265 6.90885C77.9195 6.71637 78.1321 6.55881 78.1989 6.55881C78.2658 6.55881 78.5487 6.35021 78.8278 6.09542C79.1067 5.84062 79.5139 5.5037 79.7325 5.34686C79.9511 5.19002 80.3445 4.85309 80.6067 4.5983C80.8688 4.3435 81.1497 4.1349 81.231 4.1349C81.3123 4.1349 81.3787 4.07074 81.3787 3.99232C81.3787 3.9139 81.4611 3.84974 81.5616 3.84974C81.6623 3.84974 81.8373 3.72141 81.9506 3.56457C82.064 3.40773 82.2098 3.27941 82.2746 3.27941C82.3395 3.27941 82.5395 3.13497 82.7193 2.95859C83.1027 2.58203 83.799 2.01327 84.2468 1.71099C84.4211 1.59336 84.7126 1.35283 84.8949 1.17631C85.0771 0.999792 85.2696 0.855497 85.323 0.855497C85.4534 0.855497 85.9539 0.272619 85.9539 0.120768C85.9539 0.0543246 85.2603 0 84.4128 0C83.0357 0 82.8497 0.0303701 82.6655 0.285166C82.5521 0.442007 82.4094 0.570331 82.3484 0.570331C82.2872 0.570331 81.9985 0.794899 81.7067 1.06937C81.4149 1.34384 81.1321 1.56841 81.0781 1.56841C81.0242 1.56841 80.7858 1.74935 80.5485 1.9705C80.3111 2.19164 79.8758 2.5605 79.5811 2.79035C79.2865 3.02005 78.8325 3.41671 78.5726 3.67151C78.3125 3.9263 78.0334 4.1349 77.9522 4.1349C77.8712 4.1349 77.5312 4.40011 77.1969 4.7242C76.8626 5.04843 76.3639 5.48131 76.0887 5.68621C75.8135 5.89124 75.4177 6.23558 75.2093 6.45145C75.0008 6.66732 74.7573 6.84398 74.6683 6.84398C74.5793 6.84398 74.2937 7.05258 74.0336 7.30737C73.2808 8.04524 72.6698 8.55497 72.5382 8.55497C72.4001 8.55497 72.4819 8.05436 73.0156 5.63202C73.2231 4.69098 73.4581 3.60022 73.538 3.20811C73.618 2.81601 73.7467 2.20647 73.8241 1.85358C73.9015 1.50068 73.9988 0.939336 74.0403 0.605977L74.1158 0L73.0649 0.00541717C72.3419 0.00912432 71.9582 0.0740013 71.8352 0.213305ZM93.7103 0.09439C93.612 0.134028 93.5315 0.243104 93.5315 0.336924C93.5315 0.430601 93.4029 0.599846 93.2456 0.712915C93.0883 0.825983 92.9596 1.03258 92.9596 1.17217C92.9596 1.31162 92.8953 1.42583 92.8167 1.42583C92.738 1.42583 92.6737 1.48215 92.6737 1.55116C92.6737 1.68718 91.7752 3.24262 91.5348 3.52294C91.4534 3.61761 91.3869 3.79413 91.3869 3.91504C91.3869 4.03595 91.3226 4.1349 91.2439 4.1349C91.1653 4.1349 91.101 4.23115 91.101 4.34878C91.101 4.46641 91.0366 4.56265 90.958 4.56265C90.8794 4.56265 90.815 4.6589 90.815 4.77653C90.815 4.89416 90.7507 4.9904 90.6721 4.9904C90.5934 4.9904 90.5291 5.11872 90.5291 5.27557C90.5291 5.43241 90.4647 5.56073 90.3861 5.56073C90.3075 5.56073 90.2431 5.65698 90.2431 5.77461C90.2431 5.89224 90.1788 5.98848 90.1002 5.98848C90.0215 5.98848 89.9572 6.11681 89.9572 6.27365C89.9572 6.43049 89.9007 6.55881 89.8315 6.55881C89.7625 6.55881 89.6216 6.76171 89.5187 7.00952C89.4157 7.25747 89.1324 7.75465 88.889 8.11453C88.6458 8.47441 88.288 9.07355 88.0941 9.44612C87.9002 9.81869 87.6932 10.1234 87.6341 10.1234C87.575 10.1234 87.5266 10.2517 87.5266 10.4085C87.5266 10.5654 87.4623 10.6937 87.3837 10.6937C87.305 10.6937 87.2407 10.79 87.2407 10.9076C87.2407 11.0252 87.1763 11.1215 87.0977 11.1215C87.0191 11.1215 86.9547 11.2498 86.9547 11.4066C86.9547 11.5635 86.8978 11.6918 86.8285 11.6918C86.759 11.6918 86.6665 11.804 86.6227 11.9413C86.548 12.1767 86.1599 12.8556 85.9133 13.1829C85.6517 13.5301 84.8101 15.0163 84.8101 15.131C84.8101 15.2 84.7458 15.2564 84.6671 15.2564C84.5885 15.2564 84.5242 15.3706 84.5242 15.51C84.5242 15.6496 84.3955 15.8562 84.2382 15.9693C84.081 16.0823 83.9523 16.289 83.9523 16.4285C83.9523 16.568 83.8879 16.6822 83.8093 16.6822C83.7307 16.6822 83.6663 16.8105 83.6663 16.9674C83.6663 17.1242 83.602 17.2525 83.5234 17.2525C83.4447 17.2525 83.3804 17.3488 83.3804 17.4664C83.3804 17.584 83.3032 17.6803 83.2088 17.6803C83.0897 17.6803 83.0829 17.7258 83.1864 17.829C83.273 17.9154 83.8272 17.9602 84.5102 17.9359L85.685 17.8942L86.0696 17.1812C86.2812 16.7891 86.5025 16.4469 86.5615 16.4208C86.6206 16.3946 86.6688 16.2503 86.6688 16.1C86.6688 15.9497 86.7331 15.8267 86.8118 15.8267C86.8904 15.8267 86.9547 15.7305 86.9547 15.6128C86.9547 15.4952 87.0191 15.3989 87.0977 15.3989C87.1763 15.3989 87.2407 15.2706 87.2407 15.1138C87.2407 14.9569 87.2889 14.8276 87.3479 14.8263C87.407 14.8252 87.6125 14.5044 87.805 14.1134C87.9974 13.7226 88.2022 13.4028 88.2599 13.4028C88.3178 13.4028 88.4061 13.2745 88.456 13.1176C88.5434 12.8426 88.6723 12.8325 92.0961 12.8325C95.3426 12.8325 95.6543 12.8537 95.7469 13.082C95.8553 13.3486 96.0726 15.1183 96.1979 16.7532C96.2399 17.3019 96.3488 17.7982 96.4399 17.8559C96.531 17.9138 97.1442 17.962 97.8027 17.9633L99 17.9654L98.9196 17.2169C98.8755 16.8052 98.7742 16.0513 98.6947 15.5415C97.8014 9.8107 97.5465 8.08017 97.4454 7.05785C97.3988 6.58733 97.3033 6.14147 97.2333 6.0669C97.1632 5.99247 97.1059 5.52723 97.1059 5.03318C97.1059 4.52943 97.0431 4.1349 96.9629 4.1349C96.8813 4.1349 96.8199 3.70715 96.8199 3.13682C96.8199 2.56649 96.7586 2.13874 96.677 2.13874C96.5973 2.13874 96.534 1.7552 96.534 1.27312C96.534 0.104941 96.4036 -0.00285274 95.0072 0.011263C94.3922 0.017394 93.8086 0.0548945 93.7103 0.09439ZM11.7979 2.4155C12.0993 2.50946 12.5433 2.77466 12.785 3.00493C13.1354 3.33886 13.2262 3.54604 13.2338 4.02882C13.2436 4.65205 12.9051 5.98848 12.7374 5.98848C12.6855 5.98848 12.5629 6.18097 12.4653 6.41623C12.357 6.67687 12.1826 6.84398 12.0191 6.84398C11.8712 6.84398 11.7504 6.90814 11.7504 6.98656C11.7504 7.06498 11.6217 7.12914 11.4645 7.12914C11.3072 7.12914 11.1785 7.18603 11.1785 7.25561C11.1785 7.49743 10.2319 7.59795 7.42544 7.65427L4.6017 7.71088V7.14326C4.6017 6.83115 4.66604 6.536 4.74468 6.48752C4.82331 6.43904 4.88765 6.15031 4.88765 5.8459C4.88765 5.54148 4.95199 5.25275 5.03063 5.20427C5.10926 5.1558 5.1736 4.83128 5.1736 4.48295C5.1736 4.13462 5.23794 3.84974 5.31657 3.84974C5.39521 3.84974 5.45955 3.5583 5.45955 3.20213C5.45955 2.11807 5.44754 2.12206 8.53349 2.18722C10.0702 2.21973 11.4879 2.31897 11.7979 2.4155ZM46.3225 2.303C47.6762 2.63436 48.1629 3.29894 48.0252 4.62838C47.9814 5.051 47.8166 5.68763 47.6589 6.04323C47.3406 6.76071 46.4799 7.69947 46.1404 7.69947C46.0198 7.69947 45.9212 7.75266 45.9212 7.81753C45.9212 7.88255 45.5946 8.01088 45.1955 8.1027C44.3337 8.30103 38.2571 8.33368 38.1374 8.14062C38.0934 8.06948 38.217 7.31564 38.4122 6.46528C38.6074 5.61491 38.8364 4.56622 38.9213 4.1349C39.1369 3.0393 39.3573 2.37072 39.5433 2.24782C39.8052 2.07472 45.5822 2.12177 46.3225 2.303ZM26.5057 4.18224C26.5611 4.74444 26.6753 5.78174 26.7595 6.48752C26.8437 7.19331 26.9594 8.25198 27.0165 8.84014C27.0735 9.42829 27.1686 9.98394 27.2278 10.0749C27.2871 10.1659 27.2962 10.3422 27.2482 10.467C27.1729 10.6629 26.8033 10.6937 24.5313 10.6937C21.9969 10.6937 21.9016 10.6834 21.9016 10.4085C21.9016 10.2517 21.9659 10.1234 22.0445 10.1234C22.1232 10.1234 22.1875 10.0244 22.1875 9.90352C22.1875 9.78261 22.254 9.60609 22.3353 9.51142C22.5758 9.2311 23.4743 7.67566 23.4743 7.53964C23.4743 7.47063 23.5386 7.41431 23.6172 7.41431C23.6959 7.41431 23.7602 7.28598 23.7602 7.12914C23.7602 6.9723 23.8246 6.84398 23.9032 6.84398C23.9818 6.84398 24.0462 6.74773 24.0462 6.6301C24.0462 6.51247 24.1105 6.41623 24.1891 6.41623C24.2678 6.41623 24.3321 6.31998 24.3321 6.20235C24.3321 6.08472 24.3965 5.98848 24.4751 5.98848C24.5537 5.98848 24.6181 5.86016 24.6181 5.70331C24.6181 5.54647 24.6667 5.41815 24.7262 5.41815C24.7856 5.41815 24.9252 5.20955 25.0364 4.95475C25.1475 4.69996 25.2759 4.45928 25.3215 4.42007C25.3671 4.38086 25.5298 4.12421 25.6832 3.84974C26.0155 3.25502 26.2361 2.99795 26.3337 3.09162C26.3731 3.12941 26.4504 3.62018 26.5057 4.18224ZM61.2441 4.37658C61.3188 5.06711 61.413 6.11324 61.4535 6.70139C61.4938 7.28955 61.5863 7.83179 61.6591 7.90622C61.7318 7.98079 61.7913 8.50478 61.7913 9.0707C61.7913 9.76308 61.8493 10.119 61.9687 10.1586C62.0978 10.2015 62.0811 10.2825 61.9075 10.4556C61.7027 10.6599 61.3125 10.6937 59.1564 10.6937C56.9718 10.6937 56.6442 10.6646 56.6442 10.4704C56.6442 10.2333 56.9062 9.67225 57.0724 9.55305C57.1272 9.51384 57.4189 9.01666 57.7204 8.44804C58.0221 7.87942 58.3215 7.41431 58.3858 7.41431C58.4503 7.41431 58.5029 7.28598 58.5029 7.12914C58.5029 6.9723 58.5672 6.84398 58.6459 6.84398C58.7245 6.84398 58.7888 6.71565 58.7888 6.55881C58.7888 6.40197 58.8532 6.27365 58.9318 6.27365C59.0105 6.27365 59.0748 6.18282 59.0748 6.0716C59.0748 5.96053 59.123 5.84832 59.182 5.82209C59.2411 5.79599 59.5077 5.35755 59.7748 4.84782C60.0419 4.33808 60.3007 3.88895 60.35 3.84974C60.3993 3.81053 60.5559 3.59637 60.698 3.37394C60.8401 3.15151 60.9905 3.00365 61.0323 3.04528C61.0742 3.08692 61.1694 3.68605 61.2441 4.37658ZM94.4489 3.81409C94.5778 4.87819 94.7594 6.3284 94.953 7.84206C95.0382 8.50863 95.1484 9.42302 95.198 9.87386L95.288 10.6937H92.6225C90.0526 10.6937 89.9572 10.6834 89.9572 10.4085C89.9572 10.2517 90.0215 10.1234 90.1002 10.1234C90.1788 10.1234 90.2431 9.99506 90.2431 9.83822C90.2431 9.68138 90.3075 9.55305 90.3861 9.55305C90.4647 9.55305 90.5291 9.42473 90.5291 9.26789C90.5291 9.11104 90.5934 8.98272 90.6721 8.98272C90.7507 8.98272 90.815 8.88648 90.815 8.76885C90.815 8.65121 90.8632 8.55397 90.9223 8.55269C90.9813 8.55126 91.2204 8.16629 91.4535 7.69719C91.6867 7.22795 91.9154 6.84398 91.9615 6.84398C92.0077 6.84398 92.2029 6.52417 92.3953 6.13335C92.5878 5.74238 92.7934 5.42157 92.8524 5.42043C92.9115 5.41915 92.9596 5.28982 92.9596 5.13298C92.9596 4.97614 93.024 4.84782 93.1026 4.84782C93.1812 4.84782 93.2456 4.75157 93.2456 4.63394C93.2456 4.51631 93.3099 4.42007 93.3886 4.42007C93.4672 4.42007 93.5315 4.29174 93.5315 4.1349C93.5315 3.97806 93.5959 3.84974 93.6745 3.84974C93.7531 3.84974 93.8175 3.75078 93.8175 3.62987C93.8175 3.40901 94.0991 3.00978 94.2621 2.99966C94.3102 2.99666 94.3941 3.36325 94.4489 3.81409ZM9.31985 9.69563C9.31985 9.77406 9.67371 9.83822 10.1062 9.83822C10.5387 9.83822 10.8926 9.90238 10.8926 9.9808C10.8926 10.0592 11.0212 10.1234 11.1785 10.1234C11.3358 10.1234 11.4645 10.1875 11.4645 10.266C11.4645 10.3444 11.5931 10.4085 11.7504 10.4085C11.941 10.4085 12.0364 10.5037 12.0364 10.6937C12.0364 10.8506 12.1007 10.9789 12.1793 10.9789C12.2634 10.9789 12.3223 11.4779 12.3223 12.1908C12.3223 12.9038 12.2634 13.4028 12.1793 13.4028C12.1007 13.4028 12.0364 13.5311 12.0364 13.688C12.0364 13.8448 11.972 13.9731 11.8934 13.9731C11.8147 13.9731 11.7504 14.0394 11.7504 14.1204C11.7504 14.3465 10.871 15.1614 10.3911 15.38C10.1558 15.4871 9.83684 15.6406 9.68229 15.721C9.36002 15.8889 3.68338 16.0567 3.11778 15.9151C2.74018 15.8206 2.61565 15.4479 2.87143 15.1779C2.94192 15.1035 3.03156 14.7858 3.07045 14.4722C3.22615 13.2186 3.9872 10.0136 4.18093 9.79573C4.35607 9.59896 4.76069 9.56303 6.85354 9.55847C8.4061 9.55505 9.31985 9.60595 9.31985 9.69563Z" fill="#292929"/>
</svg>
