<svg width="121" height="34" viewBox="0 0 121 34" fill="none" xmlns="http://www.w3.org/2000/svg">
<path opacity="0.3" fill-rule="evenodd" clip-rule="evenodd" d="M24.3077 0.0519097C21.1475 0.34717 16.7697 2.34176 12.7228 5.33024C10.3587 7.0759 8.82629 8.43741 7.51209 9.95968C3.71959 14.3526 1.10163 19.3561 0.131212 24.066C-0.0727773 25.0561 -0.0332296 27.1542 0.210307 28.2633C0.49832 29.5754 1.1419 30.8661 1.87528 31.603C3.66382 33.3997 8.06095 34.3989 11.5052 33.7913C14.861 33.1993 18.6324 31.3166 21.9779 28.5634L22.3528 28.255L22.2356 28.8966C22.0945 29.6695 22.1834 30.7916 22.4472 31.5651C22.6831 32.2573 23.6774 33.2544 24.5131 33.6368C25.2355 33.9675 26.8838 33.9942 27.9861 33.6935C29.43 33.2994 32.0118 31.9267 33.6485 30.6829C33.9928 30.4212 34.2903 30.2076 34.3097 30.2081C34.329 30.2086 34.3508 30.5515 34.3581 30.97C34.3801 32.2328 35.0632 33.2069 36.3222 33.7706C38.4142 34.7071 42.2961 32.7233 46.069 28.7895C46.957 27.8637 47.5973 27.243 47.4923 27.4102C46.6203 28.7966 43.6608 33.6446 43.6608 33.6866C43.6608 33.7159 44.5359 33.7247 45.6055 33.7064L47.5502 33.6729L48.3854 32.2137C53.0644 24.0387 54.6157 21.5082 55.6533 20.3579C56.5165 19.4012 57.8656 18.4374 58.8904 18.0452C59.4803 17.8193 59.7545 17.7874 60.6644 17.8377C61.6857 17.8941 61.7578 17.9166 62.0768 18.2778C62.4632 18.7152 62.5368 19.1939 62.2026 19.0952C61.4759 18.8808 60.8982 18.8957 60.5127 19.1387C59.7201 19.6381 59.3904 21.1083 59.9065 21.8417C60.2909 22.388 60.7662 22.5441 61.6252 22.4065C62.9452 22.1949 64.3407 21.2065 66.4529 18.987C67.2518 18.1477 67.7608 17.6847 67.621 17.9249C64.3575 23.5271 61.1495 29.3144 60.9137 30.0247C60.4523 31.4157 60.5615 32.3713 61.249 32.9578C61.9915 33.5912 62.2825 33.6467 64.0861 33.4984C65.6387 33.3709 65.7719 33.3384 66.8059 32.8367C67.5537 32.4738 68.3715 31.9191 69.4251 31.0602C71.1862 29.6247 74.2134 26.8131 74.7168 26.1454C74.905 25.8958 75.0769 25.7099 75.0989 25.7323C75.1208 25.7545 74.709 26.6414 74.1836 27.703C73.0249 30.0443 72.8213 30.6938 72.8996 31.7995C73.0048 33.2874 73.5002 33.7938 75.0027 33.9487C76.1882 34.0711 76.7951 33.941 78.1106 33.283C79.4984 32.5887 82.5585 29.8563 84.8239 27.2886C85.1484 26.9207 85.3708 26.7292 85.318 26.863C85.0616 27.5125 84.773 28.5544 84.7043 29.0782C84.5413 30.3216 85.0559 31.8384 85.9468 32.7402C86.7331 33.5361 87.2227 33.7032 89.0385 33.7959C90.4806 33.8695 90.694 33.8511 91.8032 33.5578C94.0102 32.9743 97.4178 31.0293 100.218 28.7549C101.836 27.4407 104.333 25.1087 105.955 23.3972C106.789 22.5176 107.294 22.0565 107.154 22.3027C106.865 22.8113 101.081 32.6479 100.735 33.2202L100.494 33.6188L102.27 33.585L104.045 33.5513L106.04 30.2072C109.392 24.5883 110.318 23.1335 111.204 22.0982C113.62 19.2763 117.551 16.984 118.97 17.5694L119.33 17.7183L118.804 17.8179C117.788 18.0101 117.313 18.6069 117.313 19.6882C117.313 20.8252 117.889 21.452 118.934 21.451C120.534 21.4497 121.576 19.2721 120.656 17.8514C120.414 17.4786 119.356 16.9548 118.841 16.9533C117.596 16.9493 115.039 18.2909 112.458 20.3032L111.476 21.0688L112.328 19.5881C112.797 18.7737 113.306 17.9031 113.461 17.6537C113.615 17.4042 113.741 17.1717 113.741 17.1369C113.741 17.1021 112.943 17.074 111.968 17.0746L110.195 17.0755L109.937 17.5307C109.449 18.3916 107.166 21.4077 105.905 22.8574C104.458 24.5213 102.312 26.6479 100.999 27.7207C98.0728 30.1105 94.7664 32.0772 92.825 32.5827C91.1394 33.0217 89.3241 32.5562 88.6417 31.5099C88.343 31.052 88.3182 30.9201 88.3299 29.8498C88.3395 28.9663 88.4118 28.4827 88.6304 27.8358L88.9183 26.9846L90.2406 26.9053C93.5991 26.704 97.4149 24.9822 99.766 22.607C100.999 21.362 101.411 20.5555 101.416 19.3811C101.422 18.1415 101.145 17.6479 100.171 17.1629C99.4321 16.7948 99.3006 16.7698 98.1167 16.7706C97.2897 16.7713 96.5814 16.8456 96.0705 16.9852C94.9715 17.2857 92.8495 18.3862 91.5027 19.354C90.0528 20.3959 87.5427 22.9211 86.6979 24.1876C85.8477 25.4623 84.4503 27.1288 82.7334 28.9153C80.3803 31.3639 78.7365 32.5173 77.5996 32.5176C77.1922 32.5177 77.0435 32.4506 76.7984 32.1558C76.3716 31.6426 76.3048 31.1809 76.5387 30.3612C76.6665 29.9135 78.0171 27.4108 80.2742 23.439C82.2186 20.0175 83.8096 17.1857 83.8096 17.1459C83.8096 17.1061 83.1469 17.0737 82.3368 17.0737H80.8642L79.6644 18.9193C77.2348 22.6569 75.2217 25.1605 72.4921 27.8391C69.0734 31.1939 66.2092 32.8481 64.787 32.2888C64.2825 32.0905 63.9496 31.466 64.0339 30.876C64.1433 30.1102 64.6973 29.0732 68.2888 22.9108L71.6554 17.1345L73.5094 17.101C75.1788 17.071 75.3847 17.0437 75.5781 16.8274C75.7912 16.5892 75.7778 16.5872 73.9713 16.5872C72.9694 16.5872 72.1496 16.5614 72.1496 16.53C72.1496 16.4985 72.9921 14.9599 74.0219 13.1109C75.0516 11.262 75.923 9.67342 75.9581 9.58075C76.0311 9.38849 75.1414 9.35505 73.5573 9.49052L72.645 9.56847L71.7163 11.1018C69.357 14.9965 67.6703 17.2452 65.6472 19.1929C64.6539 20.1491 62.8129 21.5319 62.6936 21.4112C62.6697 21.387 62.7321 21.169 62.8321 20.9269C63.0588 20.3779 63.0675 19.2603 62.8492 18.7419C62.4496 17.7931 61.5675 17.4033 60.1653 17.5555C58.8511 17.6981 57.8036 18.1161 56.6128 18.9731C56.2985 19.1992 56.0157 19.3842 55.9842 19.3842C55.9527 19.3842 56.2233 18.8897 56.5855 18.2855C56.9478 17.6812 57.2441 17.1613 57.2441 17.1302C57.2441 17.0991 56.4968 17.0737 55.5833 17.0737H53.9226L53.2219 18.2593C51.4243 21.3011 48.562 25.3484 46.7071 27.471C44.6253 29.8534 41.9087 31.9928 40.3018 32.5155C39.2386 32.8613 38.7373 32.789 38.3149 32.2289C37.463 31.0988 37.649 30.6328 41.7416 23.6404C43.6011 20.4634 45.2308 17.6862 45.3632 17.4689L45.6037 17.0737H43.9178H42.232L41.5719 18.2593C41.2089 18.9114 40.8415 19.6043 40.7556 19.7991C40.6026 20.146 40.5964 20.1352 40.4518 19.2614C40.276 18.1992 39.8358 17.4111 39.1431 16.9186C38.2341 16.2724 36.2177 16.1847 34.3184 16.7091C33.0512 17.0588 30.7319 18.2194 29.4217 19.1592C27.4652 20.5627 25.2076 23.0726 23.4222 25.8293C22.1485 27.7961 22.2209 27.7079 21.2032 28.5275C19.1252 30.2011 16.6773 31.6416 14.5539 32.4406C11.4509 33.6081 7.79721 33.4949 6.33683 32.1861C5.1254 31.1002 4.14789 28.769 4.02828 26.6806C3.87742 24.043 5.06301 19.5673 6.831 16.1008C7.42361 14.9389 9.46278 12.0063 11.3197 9.64544C14.9559 5.02245 20.4142 1.16157 24.1875 0.543443C25.2101 0.375869 27.254 0.378301 28.0583 0.547942C30.4704 1.05687 31.9538 2.93374 32.5622 6.24691L32.662 6.79049L33.2944 5.6818C33.9731 4.49188 35.3091 2.56685 36.1604 1.55205L36.6845 0.927233L35.7554 1.22578C33.7318 1.87576 32.0665 1.85205 30.6986 1.15342C28.9596 0.265329 26.5213 -0.154943 24.3077 0.0519097ZM83.9013 10.5756C83.1757 10.9739 82.9733 12.1511 83.5178 12.8058C84.4033 13.8703 86.1072 13.2974 86.0877 11.9419C86.0799 11.398 85.738 10.7294 85.3722 10.5424C84.9721 10.338 84.307 10.353 83.9013 10.5756ZM38.2432 16.9812C38.9089 17.1516 39.5872 17.8141 39.7871 18.4892C40.27 20.1195 39.6225 21.978 37.3998 25.3429C35.7541 27.8342 34.072 29.6889 32.2461 31.0253C30.3366 32.4229 28.8823 32.9613 27.3119 32.852C26.3095 32.7823 25.8221 32.5225 25.4809 31.8767C25.2476 31.4349 25.2097 31.1824 25.2125 30.0855C25.2155 28.892 25.2458 28.7333 25.6754 27.6534C26.3129 26.0513 26.7181 25.3287 28.2213 23.1138C29.595 21.0898 30.3846 20.2343 32.0392 18.9774C34.636 17.0048 36.2749 16.4775 38.2432 16.9812ZM98.1684 17.3673C98.7371 17.6077 98.8677 17.9256 98.8161 18.9436C98.7443 20.3586 97.7061 22.2706 96.2956 23.5858C94.6153 25.1525 92.0283 26.3645 90.0289 26.5219L89.096 26.5952L89.4072 25.8833C89.8101 24.9615 90.1664 24.3413 91.1579 22.8352C92.559 20.707 93.9599 19.1492 95.4217 18.0939C96.6733 17.1904 97.3354 17.0153 98.1684 17.3673Z" fill="#292929"/>
</svg>
