<svg width="70" height="27" viewBox="0 0 70 27" fill="none" xmlns="http://www.w3.org/2000/svg">
<path opacity="0.3" fill-rule="evenodd" clip-rule="evenodd" d="M0.914868 0.186925C1.01972 0.289707 1.89466 0.453732 2.85924 0.551721C3.82381 0.649444 4.79735 0.879506 5.02281 1.06297C5.37703 1.35135 5.43271 3.01237 5.43271 13.305C5.43271 24.3921 5.3993 25.2431 4.94838 25.6433C4.63247 25.9235 3.68772 26.1362 2.23203 26.2552C1.00451 26.3556 0 26.5492 0 26.6853C0 26.8354 4.09463 26.8932 10.3901 26.8323C20.2906 26.7364 20.8559 26.7042 22.3879 26.1458C25.7228 24.9308 27.8573 23.1063 29.3692 20.1783C30.5392 17.9123 30.9594 16.2289 30.9632 13.7928C30.9743 6.73676 26.9476 1.80508 20.0445 0.420182C18.3968 0.0894681 16.1164 0 9.33747 0C4.60042 0 0.810017 0.0841428 0.914868 0.186925ZM18.8325 1.5625C22.1266 2.71441 24.2236 4.97295 25.54 8.78707C27.5889 14.7229 25.1355 22.7838 20.5878 25.0581C19.2372 25.7336 15.9852 26.1429 12.7669 26.0425L10.1863 25.9618L10.1154 13.7132C10.0766 6.9764 10.1095 1.29889 10.1888 1.09652C10.4205 0.504058 16.7876 0.847287 18.8325 1.5625ZM35.5843 6.65687C34.4686 7.75046 35.1931 9.5859 36.7403 9.5859C37.4713 9.5859 38.5722 8.5168 38.5722 7.80718C38.5722 7.24294 37.3165 6.12432 36.683 6.12432C36.3774 6.12432 35.8831 6.36397 35.5843 6.65687ZM47.4583 14.2084C43.5255 15.2951 41.5089 19.8271 43.2897 23.5762C44.4276 25.9719 46.3082 27.0189 49.4377 26.9997C54.2505 26.9705 57.5528 23.2067 56.5089 18.9407C56.0218 16.9508 54.8755 15.3566 53.4429 14.6768C51.8987 13.9438 49.1848 13.7315 47.4583 14.2084ZM36.1213 15.1327C35.2963 15.5236 34.2573 15.9781 33.8124 16.1426C33.0241 16.4345 33.0347 16.4411 34.2261 16.4089L35.4484 16.3759L35.5229 21.0006C35.5742 24.1857 35.5003 25.74 35.286 25.9932C35.1146 26.1956 34.5616 26.3612 34.0571 26.3612C33.5524 26.3612 33.1395 26.481 33.1395 26.6275C33.1395 26.7923 34.5882 26.8938 36.9424 26.8938C39.2967 26.8938 40.7453 26.7923 40.7453 26.6275C40.7453 26.481 40.3324 26.3612 39.8277 26.3612C39.3233 26.3612 38.7757 26.2022 38.6111 26.0079C38.4199 25.7821 38.2854 23.6505 38.2384 20.1051C38.193 16.689 38.0605 14.5304 37.8932 14.4891C37.7438 14.4521 36.9465 14.7418 36.1213 15.1327ZM50.2939 14.6518C52.6316 15.2884 54.0299 18.2129 53.692 21.7592C53.4473 24.3282 52.3806 25.8284 50.5125 26.2307C47.781 26.8187 45.5188 23.8308 45.5449 19.6687C45.5601 17.2314 46.3845 15.5683 47.9149 14.8872C49.2375 14.2982 49.0595 14.3157 50.2939 14.6518ZM61.5254 15.3385C60.3303 15.829 59.2301 16.2862 59.0807 16.3549C58.9313 16.4236 59.3592 16.4563 60.0315 16.4278L61.2538 16.3759L61.3282 21.0006C61.3796 24.1857 61.3057 25.74 61.0914 25.9932C60.92 26.1956 60.3669 26.3612 59.8625 26.3612C59.3578 26.3612 58.9449 26.481 58.9449 26.6275C58.9449 26.7928 60.4389 26.8938 62.8836 26.8938C65.3283 26.8938 66.8223 26.7928 66.8223 26.6275C66.8223 26.481 66.4249 26.3594 65.9395 26.3572C64.3746 26.35 64.2611 26.1351 64.1508 22.9755C64.0269 19.4306 64.3689 18.0292 65.6462 16.8483C66.7319 15.8447 67.3504 15.7571 68.0447 16.509C68.7116 17.2314 69.4863 17.1793 69.8546 16.3868C70.3433 15.3356 69.5525 14.3788 68.1952 14.3788C66.9549 14.3788 65.8474 15.1681 65.0494 16.6209C64.7614 17.1452 64.4224 17.5741 64.2961 17.5741C64.1698 17.5741 64.0989 16.8927 64.138 16.0601C64.1774 15.2272 64.0946 14.5237 63.9541 14.4965C63.8134 14.4694 62.7206 14.8483 61.5254 15.3385Z" fill="#292929"/>
</svg>
