<svg width="140" height="49" viewBox="0 0 140 49" fill="none" xmlns="http://www.w3.org/2000/svg">
<path opacity="0.3" fill-rule="evenodd" clip-rule="evenodd" d="M19.7573 0.0115598C11.8172 0.465924 5.25307 3.15996 1.90648 7.3378C0.983434 8.49011 0.550861 9.29959 0.271357 10.3975C-0.311219 12.686 0.0560024 14.9944 1.25987 16.611C2.62884 18.4494 4.6928 19.7228 7.44438 20.4266C8.34548 20.6571 9.64223 20.8806 10.7691 20.9996C11.2651 21.052 11.7569 21.1074 11.862 21.1228L12.053 21.1508L11.8407 21.5217C10.8809 23.1986 9.9542 25.3649 9.43746 27.14C8.32305 30.9685 8.57291 33.9337 10.1515 35.6134C11.3664 36.9061 13.1605 37.4896 15.6807 37.4116C17.2789 37.3622 18.468 37.0735 20.1138 36.3353C22.0313 35.4754 23.7211 34.3474 27.5499 31.3717C29.433 29.9081 30.2912 29.2725 31.1944 28.6721C32.2878 27.9453 33.5251 27.2295 33.5251 27.3238C33.5251 27.3433 33.3673 27.5517 33.1745 27.787C32.4076 28.7224 26.6712 36.2583 26.6712 36.3302C26.6712 36.4442 29.9895 36.138 30.1019 36.0137C30.1244 35.9888 30.4338 35.5658 30.7895 35.0737C33.5528 31.2503 36.409 28.1735 39.2065 26.0066C40.7875 24.7821 42.2407 24.0129 43.0187 23.9889C43.3823 23.9777 43.5924 24.0886 43.7224 24.3605C43.8099 24.5433 43.8148 24.6217 43.7564 24.8982C43.6024 25.626 43.2025 26.2751 41.4927 28.5714C40.1735 30.3431 39.587 31.1818 39.0725 32.0319C37.8784 34.005 37.4998 35.3442 37.9306 36.0712C38.2189 36.5578 38.8926 36.8332 39.7948 36.8332C41.0136 36.8332 42.2563 36.1063 45.4565 33.5216C45.7196 33.3092 45.9827 33.1353 46.0413 33.1353C46.2274 33.1353 46.3199 33.3811 46.4679 34.2696C46.6961 35.6387 46.9884 36.1302 47.7398 36.4091C49.2218 36.9592 50.7539 36.7465 53.0345 35.674C53.7895 35.319 54.581 34.845 55.3022 34.3158C56.1757 33.675 57.9711 32.1928 58.1401 31.973C58.4316 31.594 58.6146 31.4618 59.3171 31.1231C60.9988 30.3125 63.7174 28.6417 65.1297 27.5508C65.6489 27.1498 65.8879 27.0776 66.0765 27.2647C66.2173 27.4044 66.1979 27.4728 65.881 27.9536C64.8089 29.5809 63.4126 31.419 60.5179 35.0141C57.6282 38.6029 57.0661 39.3208 54.2367 43.0361C51.9537 46.034 51.0914 47.1506 50.1973 48.2664C49.9558 48.5679 49.7803 48.8283 49.8074 48.8449C49.9245 48.9167 50.6746 48.9996 51.2105 49C51.8463 49.0005 52.5918 48.8821 52.8784 48.735C53.182 48.5793 53.0746 48.7173 58.1049 42.0222C63.2383 35.19 66.9643 30.82 69.7482 28.3665C71.8478 26.516 74.034 25.09 74.8117 25.0634C75.0914 25.0539 75.0995 25.0585 75.1172 25.2385C75.1599 25.6733 74.2679 27.0667 71.7421 30.511C70.4387 32.2883 70.1229 32.8219 69.8888 33.6423C69.6946 34.3229 69.6961 35.1887 69.8924 35.625C70.0498 35.9746 70.3825 36.3047 70.7238 36.4497C70.8485 36.5027 71.1678 36.5604 71.4333 36.5779C72.7338 36.6638 74.3629 35.8366 77.2575 33.6203C77.9486 33.0911 78.5338 32.6582 78.5578 32.6582C78.6869 32.6582 78.7545 32.9171 78.8331 33.7138C78.9813 35.2141 79.1455 35.5715 79.8422 35.9088C80.4185 36.1879 80.8846 36.2964 81.5069 36.2964C82.6262 36.2964 83.6591 35.8925 85.752 34.6361C86.414 34.2387 87.001 33.8962 87.0567 33.8751C87.2276 33.81 87.3892 34.0239 87.7853 34.8391C88.3737 36.05 88.8747 36.5182 89.6478 36.5798C90.1652 36.621 90.6249 36.5077 91.2919 36.1746C92.1843 35.729 93.0538 35.0403 94.3726 33.7343C96.4065 31.7202 98.0021 29.7517 101.281 25.2106C102.024 24.1815 102.667 23.3261 102.711 23.3096C102.825 23.2659 103.267 23.4473 103.551 23.6549C103.866 23.8841 104.108 24.3503 104.108 24.7265C104.108 25.5743 103.589 26.4617 101.546 29.1111C99.3119 32.0087 98.7257 33.0795 98.6529 34.3961C98.6278 34.8484 98.644 35.0431 98.7285 35.3097C98.8692 35.7534 99.2497 36.1759 99.6703 36.3554C99.9455 36.4729 100.056 36.4863 100.529 36.4594C101.639 36.3966 102.818 35.837 105.29 34.201L106.443 33.4381L106.484 33.8384C106.645 35.4282 107.26 36.2213 108.488 36.4225C109.255 36.5481 110.375 36.341 111.653 35.8375C112.685 35.4306 114.419 34.5122 115.423 33.8411L115.766 33.6118L115.8 33.8358C115.946 34.7777 116.24 35.566 116.611 36.0093C116.984 36.4544 117.768 36.6773 118.49 36.5436C120.135 36.2393 122.517 34.2429 125.19 30.9285C126.211 29.6626 127.735 27.5593 127.735 27.4161C127.735 27.3759 127.609 27.3499 127.413 27.3499H127.091L126.388 28.3044C124.039 31.4935 122.295 33.3481 120.581 34.4796C119.421 35.245 118.855 35.3971 118.462 35.0488C118.287 34.8929 118.266 34.8411 118.266 34.5523C118.266 34.185 118.318 34.0884 119.338 32.5687C120.171 31.3267 120.857 30.3712 122.525 28.1277C123.317 27.063 125.038 24.7279 126.35 22.9387C130.941 16.6753 132.392 14.7554 135.457 10.8883C138.185 7.44594 140 5.06449 140 4.92702C140 4.89439 139.844 4.8224 139.654 4.76699C139.348 4.6777 139.217 4.67424 138.497 4.73651C138.051 4.7751 137.509 4.80624 137.293 4.8057L136.9 4.80468L136.024 5.923C134.797 7.49067 133.409 9.3389 131.733 11.6339C126.095 19.3558 124.976 20.8535 123.22 23.0217C121.814 24.7582 121.698 24.8983 121.663 24.9014C121.646 24.9029 121.542 24.7295 121.431 24.516C120.933 23.5619 119.85 23.038 118.206 22.957C117.048 22.8999 116.086 23.1361 114.734 23.8087C113.32 24.5119 111.836 25.6354 110.299 27.1661C108.83 28.6278 107.622 30.1934 107.058 31.3668C106.872 31.7542 106.733 31.9437 106.429 32.2258C105.165 33.3984 103.617 34.3466 102.507 34.6283C101.957 34.7678 101.767 34.774 101.495 34.6613C101.231 34.5518 101.141 34.3767 101.175 34.0362C101.219 33.5946 101.486 33.1474 102.382 32.019C104.57 29.2627 105.566 27.797 106.071 26.59C106.216 26.2453 106.24 26.1047 106.241 25.6202C106.242 25.1685 106.216 24.9992 106.116 24.7852C105.894 24.314 105.506 23.9032 104.628 23.2113C103.707 22.485 103.446 22.2234 103.446 22.026C103.446 21.9568 103.503 21.6986 103.573 21.4522C103.743 20.8504 103.711 20.485 103.455 20.1164C102.989 19.4442 102.083 19.3295 101.389 19.8549C100.996 20.1524 100.852 20.4424 100.876 20.8883C100.895 21.232 100.924 21.2966 101.323 21.8819C101.937 22.7811 101.938 22.8024 101.402 23.5327C101.245 23.746 100.555 24.7256 99.8681 25.7097C96.1419 31.0491 94.1047 33.3479 91.6969 34.9299C91.2082 35.2511 91.1314 35.2825 90.8356 35.2825C90.5569 35.2825 90.486 35.2578 90.3351 35.1081C90.0875 34.8625 90.1034 34.6182 90.4128 33.9178C91.521 31.4083 92.7963 29.5482 96.2783 25.3632C97.6523 23.7117 97.7942 23.5192 97.7946 23.3072C97.7949 23.118 97.6662 23.0874 97.2029 23.1665C96.9829 23.204 96.3808 23.2379 95.865 23.2417L94.9271 23.2486L94.5724 23.6714C94.1258 24.2036 93.7802 24.4512 93.4839 24.4512C93.2947 24.4512 93.2324 24.4132 93.049 24.1858C92.4977 23.5025 91.855 23.0431 91.1213 22.8078C90.5641 22.6291 89.4998 22.5907 88.8299 22.7252C86.9644 23.0998 84.8444 24.4027 82.7608 26.4553C81.343 27.8519 80.234 29.2764 79.6148 30.4965C79.3783 30.9623 79.3061 31.0498 78.9384 31.3162C78.712 31.4802 78.0125 32.0187 77.384 32.5128C75.4346 34.0454 74.6427 34.567 73.8143 34.8641C73.1749 35.0935 72.817 35.1385 72.625 35.0137C72.4155 34.8776 72.3034 34.5762 72.3034 34.1495C72.3034 33.5415 72.6172 33.0203 74.6284 30.2884C77.5206 26.3596 78.0927 25.3294 78.0977 24.0397C78.101 23.2178 77.7757 22.8119 77.0783 22.7679C76.1825 22.7113 75.2293 23.2148 72.2432 25.3218C71.4598 25.8746 70.9535 26.157 70.7461 26.157C70.3818 26.157 70.5043 25.6 71.0397 24.8215C71.4404 24.239 71.8028 23.7918 73.0269 22.3697C74.1105 21.1107 74.6361 20.4536 74.8706 20.0646C75.219 19.4868 75.3118 19.5366 73.888 19.5373C73.1983 19.5376 72.5393 19.5542 72.4236 19.5741C72.2423 19.6053 72.1485 19.6953 71.7462 20.2243C70.1731 22.2925 67.9484 24.3961 65.0675 26.5392C63.9119 27.3989 61.5472 29.0126 61.1381 29.2206C60.8823 29.3508 60.48 29.3641 60.3614 29.2464C60.2592 29.1451 60.2779 29.0378 60.7285 27.1412C60.8454 26.6491 60.9684 26.0105 61.0017 25.722C61.1466 24.4696 60.7121 23.6021 59.6822 23.0875C59.0771 22.7853 58.5758 22.6802 57.754 22.6834C54.7842 22.695 52.0097 24.7263 47.8073 29.9655C46.2144 31.9516 44.2165 33.7486 42.231 34.9813C41.3352 35.5375 40.7345 35.7886 40.2989 35.7891C40.021 35.7894 39.9307 35.7655 39.863 35.6737C39.6018 35.3193 39.972 34.6241 41.6753 32.2705C44.5526 28.2945 44.8515 27.8534 45.3709 26.8169C45.9274 25.7065 46.1176 24.9142 46.0056 24.1731C45.8542 23.1715 44.3644 22.4891 42.9641 22.7799C42.1021 22.9589 41.4057 23.3694 39.4451 24.8543C38.738 25.3898 37.9831 25.8339 37.8567 25.7887C37.8269 25.7781 37.902 25.606 38.0235 25.4064C38.8128 24.1104 39.7362 23.2734 42.2727 21.555C45.7339 19.2102 47.2671 17.9582 49.7584 15.4426C51.0404 14.1481 51.7112 13.4 52.6121 12.2601C54.6044 9.73952 55.7353 7.24577 55.6335 5.598C55.5835 4.78888 55.2696 4.34436 54.6761 4.24231C54.3858 4.19238 53.7594 4.33857 53.3192 4.55901C52.5967 4.92081 50.9532 6.29732 49.362 7.87328C47.1345 10.0794 45.7412 11.7673 41.9987 16.793C38.9563 20.8785 37.6911 22.4635 36.4324 23.7662C35.2331 25.0072 33.9878 26.0225 32.3782 27.0716C31.4478 27.6781 28.4145 29.4962 28.4157 29.4468C28.4162 29.4253 28.525 29.1258 28.6575 28.7814C29.3723 26.9236 29.7272 25.1757 29.6566 23.8608C29.6151 23.089 29.5024 22.633 29.2214 22.1009C28.4258 20.5942 26.7752 20.2315 24.3586 21.0324C21.2718 22.0554 17.4828 25.0362 15.5318 27.9762C15.0132 28.7578 14.7363 29.3208 14.8374 29.3881C15.1159 29.5734 15.0933 29.5885 15.769 28.7663C16.723 27.6055 17.1557 27.1245 18.1614 26.1061C21.0587 23.1727 23.3899 21.7526 25.5768 21.5888C26.9302 21.4874 27.9323 21.9798 28.3015 22.9275C28.496 23.4269 28.4822 24.2729 28.2677 24.994C27.7505 26.7327 26.3013 28.8638 24.1161 31.099C21.9983 33.2652 19.657 34.9167 17.4792 35.7806C15.713 36.4813 13.8915 36.615 12.6059 36.1384C10.9102 35.5097 10.4966 33.6936 11.3672 30.6994C11.9944 28.5421 13.5458 25.367 15.6477 21.9386C16.2366 20.978 16.2921 20.9075 16.4994 20.8569C16.6214 20.8272 17.4246 20.6351 18.2843 20.4302C20.0676 20.005 22.1965 19.4344 23.5149 19.0285C24.0109 18.8757 24.5101 18.7235 24.6242 18.6902C25.5942 18.4074 28.3378 17.3529 29.6722 16.75C34.0828 14.7573 38.329 11.7319 40.2193 9.23542C42.0391 6.83202 43.0838 4.60661 43.0834 3.13467C43.083 2.05655 42.5557 1.56277 41.1304 1.30606C40.4862 1.18999 40.0927 1.23741 38.8164 1.58483C29.7091 4.06385 21.0748 10.0756 13.2967 19.3531L12.5777 20.2107L11.4911 20.1732C8.22752 20.0605 6.00537 19.3342 4.17095 17.7807C2.61801 16.4655 1.78684 14.8493 1.58807 12.7583C1.42515 11.0442 1.87046 9.39258 2.80788 8.23448C3.73765 7.08587 5.38384 5.56776 6.57953 4.75632C9.8069 2.56609 13.4605 1.34691 18.3144 0.840481C20.0219 0.662326 21.1439 0.613601 23.6952 0.606742L26.2805 0.599822L26.5199 0.452206L26.7593 0.304528L26.4976 0.260214C25.5916 0.106811 24.1314 0.0196111 22.2223 0.00505815C21.0815 -0.00370944 19.9722 -0.000786388 19.7573 0.0115598ZM41.5061 2.32912C41.5806 2.41501 41.6415 2.53495 41.6415 2.59573C41.6415 2.78438 41.2215 4.1523 40.9998 4.6854C40.1031 6.84276 37.9172 9.45109 34.9981 11.8472C30.2795 15.7202 23.3533 18.7641 18.0295 19.3043C17.6248 19.3454 17.2763 19.3617 17.255 19.3406C17.1538 19.2401 20.555 15.6887 22.5009 13.8631C26.9241 9.71334 29.4454 7.83803 34.2816 5.10075C36.9284 3.60275 39.3363 2.51074 40.7697 2.15836C41.0341 2.09335 41.369 2.17101 41.5061 2.32912ZM54.6137 5.39134C54.9571 5.60755 54.729 6.73719 54.0637 8.1149C53.0879 10.1355 49.8837 14.0368 47.0052 16.7092C45.1381 18.4426 43.0702 20.0572 41.7436 20.8175L41.455 20.983L42.2897 19.7976C42.7488 19.1456 43.7957 17.6593 44.616 16.4948C47.8058 11.9668 49.7497 9.54282 52.0656 7.20563C52.6912 6.57431 53.3409 5.95312 53.5095 5.8253C54.0636 5.40512 54.4158 5.26668 54.6137 5.39134ZM59.1969 23.594C59.3881 23.691 59.5923 23.8786 59.7866 24.1359C59.9312 24.3274 59.988 24.8773 59.9165 25.396C59.8517 25.8675 59.5118 27.0289 59.3428 27.3568C59.1879 27.657 58.9122 27.7271 57.7129 27.7711C56.6835 27.8087 56.6042 27.8201 56.3549 27.965C55.8726 28.2454 55.4269 28.9379 55.2252 29.7202C55.0527 30.389 55.0676 30.4911 55.4393 31.1943C55.6212 31.5383 55.77 31.8809 55.77 31.9556C55.77 32.2502 53.6532 34.0345 52.3405 34.8465C50.9502 35.7064 49.6404 36.102 48.7398 35.9339C48.0073 35.7971 47.7886 35.3826 47.9739 34.4815C48.1521 33.6147 48.715 32.4943 49.7292 30.9882C50.7307 29.5009 51.9175 28.1223 53.5544 26.5447C56.1509 24.0426 58.0861 23.0305 59.1969 23.594ZM91.7823 23.9131C92.7776 24.5665 92.355 27.0445 90.9053 29.0567C89.3285 31.2451 86.4804 33.6242 83.8767 34.9278C82.16 35.7874 81.1091 35.8539 80.659 35.1315C79.8444 33.8238 82.1991 29.9827 85.7878 26.7655C88.6963 24.158 90.7018 23.2037 91.7823 23.9131ZM120.011 23.8685C120.184 23.9576 120.297 24.081 120.421 24.3139C120.585 24.6225 120.591 24.6626 120.564 25.2624C120.531 25.9995 120.362 26.5859 119.92 27.499C118.613 30.1966 115.124 33.5178 111.926 35.1088C110.154 35.9899 108.962 36.0994 108.515 35.422C108.332 35.1454 108.373 34.4141 108.605 33.7995C109.785 30.6776 114.47 25.684 117.6 24.2134C118.657 23.7167 119.486 23.5981 120.011 23.8685Z" fill="#292929"/>
</svg>
