<svg width="273" height="33" viewBox="0 0 273 33" fill="none" xmlns="http://www.w3.org/2000/svg">
<path opacity="0.3" fill-rule="evenodd" clip-rule="evenodd" d="M74.9777 0.2443C69.1419 1.38542 64.8154 7.6139 65.6312 13.6998C66.0225 16.6178 67.0829 18.7107 69.2835 20.9082C73.0415 24.6606 77.757 25.1951 83.6524 22.5372L84.8535 21.9958V19.3722C84.8535 17.9292 84.8192 16.7487 84.7772 16.7487C84.7352 16.7487 84.5679 17.2023 84.4056 17.7568C83.9641 19.2641 83.3186 20.4095 82.3192 21.4586C81.0672 22.7726 79.8448 23.3314 78.0219 23.423C75.8777 23.5306 74.8382 23.0948 73.1 21.3588C70.8165 19.0783 69.5867 16.2059 69.4243 12.7742C69.2235 8.53104 70.5779 4.34174 72.7925 2.35467C74.2641 1.03443 75.0328 0.763282 77.2909 0.768228C78.9301 0.771761 79.4216 0.840829 80.3147 1.19359C81.6979 1.73995 83.1865 3.19832 83.793 4.60141C84.0337 5.15837 84.2907 5.61553 84.3642 5.61712C84.4376 5.61871 84.4976 5.08877 84.4976 4.43943V3.25874L83.6328 2.43133C82.5732 1.4174 80.9039 0.580984 79.2483 0.234408C77.7415 -0.0810787 76.6281 -0.0784291 74.9777 0.2443ZM137.025 0.769641C134.319 2.1132 133.076 4.39968 133.076 8.03114C133.076 9.2302 133.037 9.3618 132.498 9.97228L131.919 10.6271L132.498 10.5126L133.076 10.3983V17.123C133.076 23.699 133.068 23.8496 132.72 23.9399C131.823 24.1729 132.54 24.3444 134.411 24.3444C136.271 24.3444 136.899 24.1973 136.19 23.9272C135.959 23.8394 135.923 22.9359 135.923 17.2841V10.7428H137.525C139.114 10.7428 139.126 10.7394 139.126 10.3012C139.126 9.86259 139.115 9.85958 137.508 9.85958H135.889L135.955 6.63582C136.012 3.81676 136.067 3.31226 136.393 2.61716C137.113 1.0853 138.471 0.308599 139.805 0.665421C140.192 0.768757 140.588 0.952114 140.686 1.07276C140.784 1.19359 140.901 1.91288 140.946 2.67139C141.034 4.15273 141.227 4.51185 141.973 4.5765C142.867 4.65423 143.216 4.55124 143.496 4.12765C143.74 3.75793 143.751 3.55161 143.575 2.70619C143.201 0.919259 141.977 0.144143 139.53 0.144143C138.459 0.144143 138.107 0.232112 137.025 0.769641ZM88.7682 0.646873C88.7682 0.734665 89.006 0.853724 89.2965 0.911486C89.5871 0.969073 89.9875 1.17787 90.1863 1.37518C90.5418 1.72811 90.5477 1.91306 90.5477 12.7472V23.7604L90.1473 23.9523C89.8382 24.1001 90.2743 24.142 92.0602 24.1353C93.3325 24.1307 94.2288 24.0895 94.0519 24.0441C93.875 23.9986 93.6533 23.7597 93.5588 23.5135C93.4547 23.2416 93.3919 18.643 93.399 11.8256L93.4106 0.585754L91.0895 0.53647C89.7882 0.508914 88.7682 0.557314 88.7682 0.646873ZM253.365 0.654998C253.365 0.741554 253.585 0.866618 253.855 0.933037C254.124 0.999278 254.524 1.22044 254.744 1.42446L255.145 1.79559V12.7067V23.6179L254.749 23.8927C254.382 24.1482 254.509 24.1678 256.529 24.1678H258.704L258.348 23.8145C257.999 23.4684 257.992 23.2257 257.992 11.9793V0.497432H255.679C254.406 0.497432 253.365 0.568266 253.365 0.654998ZM191.3 1.15985C189.794 5.32742 182.974 22.9562 182.746 23.272C182.575 23.5082 182.16 23.8002 181.822 23.921C181.256 24.1241 181.338 24.1415 182.9 24.1473C184.464 24.1531 184.555 24.1347 184.122 23.901C183.865 23.7622 183.613 23.5435 183.564 23.4149C183.514 23.2865 184.138 21.436 184.951 19.3026L186.429 15.4239H190.393H194.358L195.747 19.0451C196.51 21.0368 197.135 22.8463 197.135 23.0664C197.135 23.3282 196.936 23.5873 196.557 23.8164L195.979 24.1665L199.449 24.1575L202.919 24.1485L202.123 23.8458C201.652 23.6668 201.179 23.3238 200.966 23.0069C200.768 22.7119 198.727 17.5664 196.432 11.5723C192.658 1.71434 192.222 0.674076 191.868 0.674076C191.602 0.674076 191.42 0.829876 191.3 1.15985ZM0.419671 1.15278C1.50744 1.4771 2.37117 2.09942 2.75428 2.83479C2.97724 3.2628 10.025 21.3791 10.8683 23.6917C11.0126 24.0878 11.1425 24.1764 11.5149 24.1333C11.9589 24.0819 12.1689 23.5864 15.9882 13.5691C18.1924 7.78843 20.1058 2.7984 20.2405 2.48009C20.5037 1.85759 21.0975 1.3667 21.9507 1.06658C22.3872 0.912899 22.1114 0.876157 20.4382 0.865029L18.3919 0.85125L19.0142 1.1602C19.3563 1.32996 19.6636 1.61365 19.6969 1.79029C19.7704 2.18138 13.0995 19.7775 12.9422 19.6072C12.7607 19.4109 6.20281 2.31899 6.20281 2.04219C6.20281 1.69808 6.76671 1.2162 7.38488 1.03231C7.70002 0.938513 6.30353 0.88234 3.71161 0.884283C-0.286405 0.887286 -0.430895 0.899121 0.419671 1.15278ZM192.293 10.0804L193.897 14.2757H190.445C188.546 14.2757 186.993 14.2098 186.993 14.1291C186.993 13.9652 190.169 5.6293 190.33 5.37087C190.386 5.28043 190.49 5.35904 190.561 5.54575C190.632 5.73246 191.411 7.77306 192.293 10.0804ZM158.552 6.7865C156.093 8.00287 155.459 11.0449 157.195 13.3015C157.872 14.1831 157.951 14.4523 157.532 14.4523C157.007 14.4523 155.373 15.3363 154.701 15.9837C153.78 16.8722 153.37 17.8416 153.365 19.1461C153.358 21.2634 154.331 22.865 156.166 23.7567C157.035 24.1782 157.452 24.2602 159.029 24.3181C161.204 24.3979 162.753 24.06 163.86 23.2648C164.25 22.9841 164.611 22.7546 164.663 22.7546C164.716 22.7546 165.158 23.0274 165.646 23.3609C167.298 24.4886 169.253 24.5831 170.956 23.6174C171.811 23.133 172.253 22.5612 171.556 22.8424C169.978 23.4792 168.921 23.1392 167.27 21.4628L166.499 20.6794L167.529 19.0232C169.063 16.5548 171.233 14.4523 172.248 14.4523C172.419 14.4523 172.608 14.3728 172.668 14.2757C172.739 14.1614 171.965 14.099 170.475 14.099H168.171L168.052 14.9381C167.804 16.6934 166.801 19.6512 166.248 20.2597C166.215 20.2961 165.964 20.064 165.691 19.7439C164.823 18.7266 161.191 14.0941 161.191 14.0042C161.191 13.9569 161.651 13.7161 162.214 13.4693C163.329 12.9807 164.268 12.1869 164.699 11.3697C165.275 10.2766 164.874 8.20867 163.92 7.35212C162.69 6.24738 160.177 5.98259 158.552 6.7865ZM161.349 6.96173C162.23 7.47771 162.687 8.36977 162.764 9.71703C162.858 11.3623 162.474 12.363 161.504 13.0001L160.786 13.4718L160.094 12.6815C158.159 10.4688 157.801 7.97832 159.272 6.95573C159.783 6.60049 160.738 6.60315 161.349 6.96173ZM26.6662 9.44005C24.0428 9.9442 22.3977 11.3397 22.3963 13.0618C22.3954 14.0438 22.6977 14.3561 23.6494 14.3561C24.7201 14.3561 25.0647 13.9189 25.0647 12.5614C25.0647 11.9161 25.1763 11.2178 25.3249 10.9325C25.8219 9.97829 28.0398 9.5388 29.4357 10.1178C30.4349 10.5322 30.7502 11.4462 30.755 13.9413L30.7589 15.9914L29.1756 16.1101C25.1736 16.4101 22.7451 17.7459 22.2152 19.9387C21.8319 21.5248 22.3823 22.9821 23.6417 23.7166C24.1387 24.0065 24.5685 24.0789 25.7765 24.0772C27.0568 24.075 27.4403 24.0014 28.2743 23.5963C28.8163 23.3331 29.5898 22.8373 29.9934 22.4944L30.7271 21.871L31.1244 22.6861C31.6148 23.6915 32.5166 24.16 33.9619 24.16C34.8124 24.16 36.4531 23.6583 36.4531 23.3983C36.4531 23.3542 35.9926 23.3533 35.4299 23.3964C33.6377 23.5336 33.7103 23.7539 33.6026 17.8455C33.5234 13.4958 33.4651 12.6737 33.1932 12.0676C32.4421 10.3936 30.9313 9.5289 28.5688 9.42115C27.767 9.38459 26.9109 9.39307 26.6662 9.44005ZM47.3619 9.52679C46.8535 9.5902 46.0771 9.81507 45.6367 10.0269C44.8559 10.4021 43.3928 11.6887 43.3928 12.0002C43.3928 12.0858 43.3128 12.156 43.2149 12.156C43.1145 12.156 43.037 11.6555 43.037 11.0078V9.85958L41.0351 9.87071C39.6553 9.87849 39.1576 9.93165 39.4336 10.0417L39.834 10.2016V16.9096V23.6179L39.4384 23.8927C39.0715 24.148 39.2019 24.1678 41.2515 24.1678H43.4599L43.0574 23.7954C42.6563 23.4246 42.6551 23.4056 42.7124 18.8935C42.769 14.4453 42.7782 14.3465 43.2309 13.3925C43.8733 12.0383 44.4975 11.3671 45.6226 10.8207C46.4647 10.4118 46.7622 10.3593 47.912 10.4169C50.2769 10.5354 50.3326 10.7131 50.3326 18.1417C50.3326 23.6004 50.3314 23.6188 49.937 23.8927C49.5699 24.1482 49.6973 24.1678 51.7165 24.1678H53.8915L53.5356 23.8145C53.1953 23.4767 53.1797 23.2257 53.1797 18.0999C53.1797 12.4723 53.1261 12.0081 52.3592 10.9816C51.5421 9.8882 49.4203 9.27047 47.3619 9.52679ZM213.005 9.53597C211.627 9.77374 210.826 10.4174 209.953 11.9901L209.42 12.9509L209.417 11.4052L209.413 9.85958H207.723C206.033 9.85958 206.033 9.85958 206.388 10.2129C206.731 10.5534 206.744 10.8016 206.744 17.0919V23.6179L206.349 23.8927C205.981 24.1482 206.104 24.1678 208.073 24.1678C209.839 24.1678 210.141 24.13 209.882 23.9419C209.596 23.7341 209.575 23.3084 209.625 18.6681L209.68 13.6203L210.303 12.4181C211.06 10.9562 211.993 10.1422 212.91 10.1422C213.811 10.1422 214.04 10.5365 214.04 12.0913C214.04 13.2149 214.089 13.4063 214.435 13.6474C215.001 14.0404 216.049 14.001 216.439 13.5719C216.699 13.2875 216.741 13.024 216.663 12.1724C216.468 10.0341 215.242 9.15036 213.005 9.53597ZM242.389 9.65768C240.472 10.3152 239.227 11.5086 238.213 13.6594C237.119 15.98 237.339 18.9389 238.767 21.1332C239.963 22.9703 241.697 23.9904 243.859 24.1293C246.158 24.2771 248.079 23.6108 249.495 22.1752C250.438 21.2183 250.526 20.9855 249.94 20.9938C249.66 20.9977 249.396 21.2341 249.063 21.7783C248.29 23.0441 246.555 23.6998 245.046 23.2964C242.843 22.7076 241.19 20.1977 240.819 16.8812L240.706 15.8655H245.814H250.923L250.833 14.7581C250.728 13.4569 250.103 12.1084 249.179 11.1915C247.574 9.59797 244.552 8.9156 242.389 9.65768ZM265.88 9.64549C264.584 10.106 263.796 10.7635 263.259 11.8323C262.27 13.8035 262.897 16.1455 264.658 17.0545C264.948 17.2043 266.054 17.6342 267.115 18.0101C270.404 19.1746 270.626 19.3706 270.626 21.1097C270.626 22.0881 270.564 22.2819 270.081 22.8286C269.432 23.5615 268.51 23.8021 267.079 23.6117C265.438 23.3932 263.877 21.977 263.204 20.097C263.032 19.6157 262.829 19.2217 262.754 19.2217C262.68 19.2217 262.618 19.8933 262.618 20.7142C262.618 22.2008 262.621 22.2084 263.217 22.6599C264.999 24.0092 268.039 24.5375 269.935 23.8274C271.818 23.1224 272.999 21.5178 273 19.6633C273.001 17.4772 271.99 16.5609 268.223 15.3354C264.99 14.2831 264.219 13.6979 264.22 12.2973C264.222 10.915 265.58 9.87089 267.385 9.86347C269.113 9.85641 270.259 10.7933 270.913 12.7458C271.072 13.2213 271.252 13.5292 271.314 13.4301C271.406 13.2833 271.426 11.8758 271.353 10.7776C271.344 10.6511 270.829 10.3114 270.208 10.0228C268.717 9.33036 267.152 9.19381 265.88 9.64549ZM102.871 9.88061C101.771 10.3007 100.157 11.7027 99.5067 12.8041C98.1624 15.0812 98.0102 18.0523 99.1179 20.3918C99.634 21.4815 101.009 22.9359 102.054 23.4972C104.711 24.9251 108.378 24.3462 110.411 22.1781C111.242 21.2922 111.26 21.2507 110.849 21.1931C110.587 21.1562 110.357 21.2459 110.256 21.4245C109.887 22.0784 108.935 22.9986 108.395 23.2226C107.708 23.5075 106.248 23.5343 105.551 23.2747C103.454 22.4939 102.004 20.1673 101.677 17.0578L101.552 15.8655H106.662H111.772L111.678 14.8298C111.449 12.3232 109.794 10.4349 107.232 9.75801C105.877 9.39978 103.993 9.45277 102.871 9.88061ZM119.242 9.8693C118.729 10.0714 117.888 10.6202 117.374 11.089C112.611 15.4297 114.675 23.3506 120.805 24.2517C121.778 24.3946 123.823 24.0856 124.83 23.6437C125.6 23.3054 127.095 22.0493 127.4 21.4851C127.543 21.2187 127.504 21.1659 127.166 21.1714C126.883 21.1758 126.609 21.4134 126.264 21.953C125.632 22.9436 124.602 23.4626 123.277 23.4573C121.521 23.4503 120 22.3778 119.018 20.4538C118.43 19.3025 118.202 18.4724 118.06 16.9695L117.956 15.8655H123.092H128.228L128.137 15.0264C127.9 12.8452 126.715 11.1344 124.786 10.1922C123.778 9.69954 123.416 9.62058 121.904 9.56529C120.469 9.51265 120.016 9.56441 119.242 9.8693ZM227.208 9.7967C226.202 9.98253 225.056 10.4397 224.383 10.9233L223.669 11.4374L223.614 10.6926L223.56 9.94791L221.914 9.89703C220.41 9.85075 219.833 10.0094 220.535 10.2768C220.768 10.3655 220.802 11.726 220.802 21.0401V31.7018L220.401 32.0705C220.181 32.2731 219.721 32.5587 219.378 32.7052C218.782 32.9599 218.859 32.9717 221.202 32.9855L223.649 33V27.869V22.738L224.316 23.2544C225.18 23.9231 225.954 24.1678 227.206 24.1678C230.014 24.1678 232.447 22.3658 233.407 19.575C234.674 15.8902 233.303 11.7281 230.358 10.3171C229.43 9.87248 228.04 9.64302 227.208 9.7967ZM245.83 10.1495C246.169 10.3088 246.649 10.7038 246.897 11.0272C247.442 11.7364 248.027 13.5175 248.027 14.4681V15.1589H244.746C242.941 15.1589 241.431 15.0992 241.391 15.0264C241.241 14.7579 241.776 12.3148 242.153 11.5419C242.852 10.1092 244.455 9.50188 245.83 10.1495ZM106.705 10.2844C107.827 10.864 108.626 12.3033 108.813 14.0826L108.926 15.1589H105.55H102.174L102.301 14.2315C102.601 12.0616 103.108 10.9975 104.141 10.3727C104.797 9.97511 106.024 9.93289 106.705 10.2844ZM123.724 10.7333C124.498 11.4784 125.082 12.8219 125.202 14.1338L125.296 15.1589H121.954H118.612L118.719 14.1414C118.835 13.0427 119.226 11.7882 119.658 11.1348C120.173 10.354 120.967 10.0104 122.09 10.082C122.964 10.1378 123.205 10.2337 123.724 10.7333ZM227.944 10.9232C228.815 11.1636 229.907 12.3741 230.422 13.6717C230.953 15.0098 231.015 17.8819 230.546 19.3984C229.779 21.8797 228.247 23.3462 226.405 23.3639C225.244 23.3748 224.621 22.9795 224.049 21.8679C223.669 21.1283 223.649 20.8912 223.649 17.0557C223.649 12.7557 223.697 12.4748 224.566 11.6917C225.565 10.7917 226.607 10.5547 227.944 10.9232ZM161.366 18.4268C162.863 20.2728 164.175 21.8919 164.28 22.0247C164.691 22.5418 162.573 23.6469 161.204 23.6301C159.265 23.6064 157.409 22.0903 156.505 19.7923C155.996 18.4977 156.234 16.7261 157.037 15.8286C157.486 15.3267 158.399 14.7858 158.533 14.9424C158.594 15.0128 159.868 16.5809 161.366 18.4268ZM30.7589 18.5222C30.7589 20.1092 30.6941 20.5985 30.4109 21.1496C29.6946 22.5434 28.4592 23.1388 27.0598 22.7647C25.1388 22.2512 24.2692 19.6575 25.5222 18.1792C26.2335 17.3401 28.2179 16.6512 30.0916 16.5929L30.7589 16.5721V18.5222Z" fill="#292929"/>
</svg>
