<svg width="143" height="21" viewBox="0 0 143 21" fill="none" xmlns="http://www.w3.org/2000/svg">
<g opacity="0.3">
<path d="M13.0196 9.51342H17.2738V9.80335H17.1271C16.5403 9.80335 16.1553 10.7819 16.1553 11.3255V19.208C14.7616 19.7336 12.3594 20.0235 10.5623 20.0235C3.39242 20.0235 0 14.8591 0 10.0208C0 5.14631 3.35575 0.0543623 10.709 0.0543623C12.1027 0.0543623 13.2946 0.344295 14.2115 0.561745C14.7249 0.67047 15.11 0.797315 15.3667 0.797315H15.6418V3.91409H15.3484C14.8533 1.46778 12.3411 1.08725 10.5807 1.08725C4.60269 1.08725 1.99878 5.63557 1.99878 9.73087C1.99878 14.2792 5.62958 18.9906 11.0941 18.9906C11.846 18.9906 13.0562 18.8819 14.1565 18.2658V11.3436C14.1565 10.7819 13.8081 9.82147 13.1846 9.82147H13.0196V9.51342Z" fill="#292929"/>
<path d="M38.7286 19.4436V19.7336H34.5294V19.4436H34.6761C35.2629 19.4436 35.6296 18.4107 35.6296 17.8309V2.1745C35.6296 1.61275 35.2812 0.652349 34.6761 0.652349H34.5294V0.362416H39.7005C43.6614 0.362416 45.9169 1.92081 45.9169 4.89262C45.9169 7.86443 43.8081 9.33222 41.2775 9.80336L43.423 13.0289C44.4682 14.5873 45.5318 16.055 46.577 17.6678C47.1455 18.4651 47.9157 19.4617 48.8142 19.4617V19.7517H47.5306C45.9536 19.7517 45 18.8638 44.3215 17.849C42.5428 15.2577 40.7824 12.5577 39.022 9.98456C38.5819 9.94832 38.0685 9.89396 37.6284 9.80336V17.849C37.6284 18.4289 37.9768 19.4617 38.5819 19.4617H38.7286V19.4436ZM37.6284 1.35906V8.82483H37.7751C38.1051 8.86107 38.7836 8.8792 39.8289 8.8792C41.4609 8.8792 43.8631 7.93691 43.8631 5.00134C43.8631 2.02953 41.4792 1.35906 38.0685 1.35906H37.6284Z" fill="#292929"/>
<path d="M76.2286 19.4436H76.3753C76.8521 19.4436 77.0905 19.2443 77.0905 18.7913C77.0905 18.6463 77.0538 18.4651 76.9988 18.2839L74.3215 11.1443H69.132L66.5465 18.157C66.4914 18.302 66.4548 18.447 66.4548 18.5919C66.4548 19.0993 66.7849 19.4074 67.1149 19.4074H67.2616V19.6973H63.9609V19.4074H64.1076C64.621 19.4074 65.1528 18.7007 65.4829 17.8852L72.2861 0L78.9426 17.7403C79.2176 18.5376 79.6944 19.4436 80.4829 19.4436H80.6296V19.7336H76.2286V19.4436ZM69.4254 10.1658H74.0098L71.7176 4.02282L69.4254 10.1658Z" fill="#292929"/>
<path d="M103.936 19.4436V19.7336H99.6821V19.4436H99.8288C100.452 19.4436 100.819 18.4832 100.819 17.8852V2.1745C100.819 1.61275 100.489 0.652349 99.8288 0.652349H99.6821V0.362416H111.803V3.08054H111.51C111.51 2.1745 110.923 1.37718 109.603 1.37718H102.8V8.80671H108.447C109.364 8.80671 110.061 8.15436 110.061 7.42953H110.355V11.1081H110.061C110.061 10.4013 109.401 9.82148 108.447 9.82148H102.8V17.9034C102.8 18.4832 103.148 19.4617 103.771 19.4617H103.936V19.4436Z" fill="#292929"/>
<path d="M134.89 19.4436V19.7336H130.636V19.4436H130.782C131.406 19.4436 131.773 18.4832 131.773 17.8852V2.1745C131.773 1.61275 131.443 0.652349 130.782 0.652349H130.636V0.362416H142.757V3.08054H142.463C142.463 2.1745 141.877 1.37718 140.556 1.37718H133.753V8.80671H139.401C140.318 8.80671 141.015 8.15436 141.015 7.42953H141.308V11.1081H141.015C141.015 10.4013 140.355 9.82148 139.401 9.82148H133.753V17.9034C133.753 18.4832 134.12 19.4617 134.743 19.4617H134.89V19.4436Z" fill="#292929"/>
</g>
</svg>
