<svg width="112" height="17" viewBox="0 0 112 17" fill="none" xmlns="http://www.w3.org/2000/svg">
<path opacity="0.3" d="M9.31448 0C4.62584 0 0.757812 3.53365 0.757812 8.5C0.757812 13.466 4.62584 17 9.31448 17C12.5262 17 15.3628 15.2918 16.8163 12.6581L13.9093 11.0182C13.0654 12.7272 11.354 13.7665 9.31448 13.7665C6.38408 13.7665 4.15719 11.6183 4.15719 8.5C4.15719 5.3817 6.38408 3.2335 9.31448 3.2335C11.354 3.2335 13.0654 4.27311 13.9093 5.98241L16.8163 4.34246C15.3628 1.70945 12.5262 0 9.31448 0ZM20.9181 0.415631V16.5838H24.2004V9.65473H32.4052V16.5844H35.6869V0.415631H32.4052V6.42123H24.2004V0.415631H20.9181ZM46.2362 0.415631L38.9686 16.5844H42.5556L44.1729 12.8888H52.7525L54.3704 16.5844H57.9569L50.6905 0.415631H46.2362ZM61.2392 0.415631V16.5844H64.2861V3.85726L73.0775 16.5844H76.008V0.415631H72.9605V11.1336L65.5764 0.415631H61.2392ZM82.3366 0.415631V16.5844L94.5274 16.585V13.5822H85.3842V9.88667H92.886V6.88326H85.3842V3.41845H94.0579V0.415646H82.3366V0.415631ZM99.8018 0.415631V16.5844V16.585H111.758V13.3515H103.084V0.415646H99.8018V0.415631ZM48.463 3.07177L51.4406 9.88605H45.4855L48.463 3.07177Z" fill="#292929"/>
</svg>
