<svg width="56" height="56" viewBox="0 0 56 56" fill="none" xmlns="http://www.w3.org/2000/svg">
<g opacity="0.8" clip-path="url(#clip0_419_4045)">
<path fill-rule="evenodd" clip-rule="evenodd" d="M10.2403 14L18.4806 28.838V29.097C18.4806 31.445 17.6334 33.7137 16.0998 35.4002C14.5634 37.0899 12.4581 38.0597 10.2403 38.0597C8.02249 38.0597 5.91717 37.0899 4.38076 35.4002C2.84724 33.7137 2 31.445 2 29.097V28.838L10.2403 14ZM45.7597 19L54 33.838V34.097C54 36.445 53.1528 38.7137 51.6192 40.4002C50.0828 42.0899 47.9775 43.0597 45.7597 43.0597C43.5419 43.0597 41.4366 42.0899 39.9002 40.4002C38.3666 38.7137 37.5194 36.445 37.5194 34.097V33.838L45.7597 19ZM39.5841 35.097C39.7795 36.5977 40.4102 37.9883 41.3799 39.0547C42.5591 40.3516 44.137 41.0597 45.7597 41.0597C47.3824 41.0597 48.9603 40.3516 50.1395 39.0547C51.1091 37.9883 51.7399 36.5977 51.9353 35.097H39.5841ZM51.3008 33.097H40.2186L45.7597 23.1194L51.3008 33.097ZM4.06473 30.097C4.26012 31.5977 4.89085 32.9883 5.86051 34.0547C7.03974 35.3516 8.61762 36.0597 10.2403 36.0597C11.863 36.0597 13.4409 35.3516 14.6201 34.0547C15.5898 32.9883 16.2205 31.5977 16.4159 30.097H4.06473ZM4.69921 28.097H15.7814L10.2403 18.1194L4.69921 28.097Z" fill="#292929"/>
<path fill-rule="evenodd" clip-rule="evenodd" d="M23.0661 13.5517L12.2113 11.7705L12.5352 9.79688L23.39 11.5781L23.0661 13.5517Z" fill="#292929"/>
<path fill-rule="evenodd" clip-rule="evenodd" d="M27 46L27 18L29 18L29 46L27 46Z" fill="#292929"/>
<path fill-rule="evenodd" clip-rule="evenodd" d="M43.7888 16.9521L32.934 15.1709L33.2578 13.1973L44.1126 14.9785L43.7888 16.9521Z" fill="#292929"/>
<path fill-rule="evenodd" clip-rule="evenodd" d="M35.3448 47.3789H20.8621C19.8568 47.3789 19.0375 48.1756 19.0013 49.172H37.2056C37.1694 48.1756 36.3501 47.3789 35.3448 47.3789ZM39.2063 49.172C39.1695 47.0709 37.4548 45.3789 35.3448 45.3789H20.8621C18.7521 45.3789 17.0374 47.0709 17.0006 49.172C17.0002 49.1949 17 49.2179 17 49.241V51.172H39.2069V49.241C39.2069 49.2179 39.2067 49.1949 39.2063 49.172Z" fill="#292929"/>
<path fill-rule="evenodd" clip-rule="evenodd" d="M10.3992 10.4594C9.85425 10.37 9.33995 10.7393 9.25052 11.2843C9.16109 11.8293 9.5304 12.3436 10.0754 12.433C10.6204 12.5224 11.1347 12.1531 11.2241 11.6081C11.3136 11.0631 10.9442 10.5488 10.3992 10.4594ZM7.27691 10.9604C7.5452 9.32542 9.08812 8.21749 10.7231 8.48578C12.3581 8.75407 13.466 10.297 13.1977 11.932C12.9294 13.567 11.3865 14.6749 9.75154 14.4066C8.11655 14.1383 7.00863 12.5954 7.27691 10.9604Z" fill="#292929"/>
<path fill-rule="evenodd" clip-rule="evenodd" d="M28 9C25.7909 9 24 10.7909 24 13C24 15.2091 25.7909 17 28 17C30.2091 17 32 15.2091 32 13C32 10.7909 30.2091 9 28 9ZM22 13C22 9.68629 24.6863 7 28 7C31.3137 7 34 9.68629 34 13C34 16.3137 31.3137 19 28 19C24.6863 19 22 16.3137 22 13Z" fill="#292929"/>
<path fill-rule="evenodd" clip-rule="evenodd" d="M45.9246 16.2885C45.3796 16.1991 44.8653 16.5684 44.7759 17.1134C44.6865 17.6584 45.0558 18.1727 45.6008 18.2621C46.1458 18.3515 46.6601 17.9822 46.7495 17.4372C46.8389 16.8922 46.4696 16.3779 45.9246 16.2885ZM42.8023 16.7895C43.0706 15.1545 44.6135 14.0466 46.2485 14.3149C47.8835 14.5832 48.9914 16.1261 48.7231 17.7611C48.4548 19.3961 46.9119 20.504 45.2769 20.2357C43.6419 19.9674 42.534 18.4245 42.8023 16.7895Z" fill="#292929"/>
<path d="M17.4451 4.45937C17.9656 2.7638 18.3157 0.447354 18.5 -1C18.6826 0.434139 19.0778 2.84609 19.5529 4.44336C21.6862 5.08537 23.5297 5.31282 25 5.5C23.5402 5.68585 21.4542 5.91141 19.5475 6.54306C19.0748 8.04844 18.6819 10.5713 18.5 12C18.3194 10.5813 17.9794 8.08375 17.4758 6.57486C15.5628 6.04333 13.4658 5.68661 12 5.5C13.458 5.31439 15.5404 5.08917 17.4451 4.45937Z" fill="#B4924F"/>
</g>
<defs>
<clipPath id="clip0_419_4045">
<rect width="56" height="56" fill="white"/>
</clipPath>
</defs>
</svg>
