<svg width="56" height="56" viewBox="0 0 56 56" fill="none" xmlns="http://www.w3.org/2000/svg">
<g opacity="0.8">
<path fill-rule="evenodd" clip-rule="evenodd" d="M18.5716 5.7583H37.4287L50.2415 18.8452V37.6194L37.4179 50.2411H18.5825L5.75879 37.6194V18.8452L18.5716 5.7583ZM16.1897 11.05L10.8871 16.466L14.6354 14.9177L16.1897 11.05ZM13.5928 17.5123L8.06078 19.7974L10.385 25.4948L13.5928 17.5123ZM9.31312 28.1622L7.75879 24.352V32.0301L9.31312 28.1622ZM10.9884 39.9604L16.2311 45.1205L14.7343 41.4514L10.9884 39.9604ZM13.6859 38.8815L10.3989 30.8239L8.06077 36.6424L13.6859 38.8815ZM17.3131 42.4778L19.5434 47.9453L25.2962 45.6554L17.3131 42.4778ZM28.0002 46.7318L24.2084 48.2411H31.792L28.0002 46.7318ZM39.7693 45.1205L45.0119 39.9604L41.266 41.4514L39.7693 45.1205ZM38.6873 42.4778L30.7042 45.6554L36.4569 47.9453L38.6873 42.4778ZM42.3144 38.8815L47.9396 36.6424L45.6014 30.8239L42.3144 38.8815ZM46.6872 28.1622L48.2415 32.0301V24.352L46.6872 28.1622ZM45.1132 16.466L39.8106 11.05L41.3649 14.9177L45.1132 16.466ZM42.4075 17.5123L45.6153 25.4948L47.9396 19.7974L42.4075 17.5123ZM38.7805 13.8502L36.4569 8.06802L30.6195 10.4792L38.7805 13.8502ZM25.3808 10.4792L17.2199 13.8502L19.5435 8.06802L25.3808 10.4792ZM28.0002 9.39727L24.0323 7.7583H31.968L28.0002 9.39727ZM26.976 11.9842L17.2756 15.9911L20.9631 19.2269L26.8996 16.7636L26.976 11.9842ZM27.9003 18.5138L21.5568 21.1459L18.9458 28.1624L21.5599 35.3091L27.9003 37.94L34.6662 35.2977L37.2769 28.1183L34.6714 21.1581L27.9003 18.5138ZM36.6246 20.6708L39.0379 27.1177L44.125 27.15L40.2044 17.3937L36.6246 20.6708ZM38.7591 16.0053L28.9766 11.9645L28.8999 16.7571L35.2353 19.2312L38.7591 16.0053ZM44.1242 29.15L39.0416 29.1177L36.6197 35.7777L40.1167 38.9738L44.1242 29.15ZM38.6479 40.3409L35.2358 37.2223L28.9005 39.6965L28.9758 44.1908L38.6479 40.3409ZM26.9752 44.1711L26.9001 39.6903L20.9624 37.2265L17.3883 40.3552L26.9752 44.1711ZM15.8958 39.0037L19.5967 35.7639L17.1809 29.1594H11.8799L15.8958 39.0037ZM11.8715 27.1594H17.1851L19.5939 20.6862L15.8078 17.364L11.8715 27.1594Z" fill="#292929"/>
<path d="M47.6074 46.6195C48.0478 45.1848 48.3441 43.2247 48.5 42C48.6545 43.2135 48.9889 45.2544 49.3909 46.6059C51.196 47.1492 52.7559 47.3416 54 47.5C52.7648 47.6573 50.9997 47.8481 49.3864 48.3826C48.9864 49.6564 48.6539 51.7911 48.5 53C48.3472 51.7995 48.0595 49.6863 47.6334 48.4095C46.0147 47.9597 44.2403 47.6579 43 47.5C44.2337 47.3429 45.9957 47.1524 47.6074 46.6195Z" fill="#B4924F"/>
</g>
</svg>
