<svg width="56" height="56" viewBox="0 0 56 56" fill="none" xmlns="http://www.w3.org/2000/svg">
<g opacity="0.8">
<path fill-rule="evenodd" clip-rule="evenodd" d="M16.2179 9H34.0014L44 17.7017V42.8537L34.016 52H16.2034L6 42.8604V17.695L16.2179 9ZM15.5858 12.164V17.1571H9.7182L15.5858 12.164ZM8 19.1571H15.5858V41.4136H8V19.1571ZM9.61517 43.4136L15.5858 48.7617V43.4136H9.61517ZM17.5858 43.4136V50H32.6272V43.4136H17.5858ZM34.6272 43.4136V48.7277L40.428 43.4136H34.6272ZM42 41.4136H34.6272V19.1571H42V41.4136ZM40.3277 17.1571H34.6272V12.196L40.3277 17.1571ZM32.6272 11H17.5858V17.1571H32.6272V11ZM32.6272 19.1571V41.4136H17.5858V19.1571H32.6272Z" fill="#292929"/>
<path d="M46.2828 6.29927C46.8834 4.34285 47.2874 1.67002 47.5 0C47.7107 1.65478 48.1667 4.4378 48.7149 6.2808C51.1764 7.02158 53.3035 7.28402 55 7.5C53.3156 7.71445 50.9087 7.9747 48.7087 8.70353C48.1633 10.4405 47.7099 13.3514 47.5 15C47.2916 13.363 46.8993 10.4813 46.3182 8.74022C44.1109 8.12692 41.6913 7.71532 40 7.5C41.6823 7.28583 44.0851 7.02597 46.2828 6.29927Z" fill="#B4924F"/>
<path d="M2 18V31" stroke="#292929" stroke-width="2"/>
<path d="M48 29V42" stroke="#292929" stroke-width="2"/>
</g>
</svg>
