<svg width="56" height="56" viewBox="0 0 56 56" fill="none" xmlns="http://www.w3.org/2000/svg">
<g opacity="0.8">
<path fill-rule="evenodd" clip-rule="evenodd" d="M19 8C11.8203 8 6 13.8203 6 21C6 28.1797 11.8203 34 19 34C26.1797 34 32 28.1797 32 21C32 13.8203 26.1797 8 19 8ZM4 21C4 12.7157 10.7157 6 19 6C27.2843 6 34 12.7157 34 21C34 29.2843 27.2843 36 19 36C10.7157 36 4 29.2843 4 21Z" fill="#292929"/>
<path fill-rule="evenodd" clip-rule="evenodd" d="M37 8C29.8203 8 24 13.8203 24 21C24 28.1797 29.8203 34 37 34C44.1797 34 50 28.1797 50 21C50 13.8203 44.1797 8 37 8ZM22 21C22 12.7157 28.7157 6 37 6C45.2843 6 52 12.7157 52 21C52 29.2843 45.2843 36 37 36C28.7157 36 22 29.2843 22 21Z" fill="#292929"/>
<path fill-rule="evenodd" clip-rule="evenodd" d="M28 23C20.8203 23 15 28.8203 15 36C15 43.1797 20.8203 49 28 49C35.1797 49 41 43.1797 41 36C41 28.8203 35.1797 23 28 23ZM13 36C13 27.7157 19.7157 21 28 21C36.2843 21 43 27.7157 43 36C43 44.2843 36.2843 51 28 51C19.7157 51 13 44.2843 13 36Z" fill="#292929"/>
<path d="M44.2828 39.2993C44.8834 37.3428 45.2874 34.67 45.5 33C45.7107 34.6548 46.1667 37.4378 46.7149 39.2808C49.1764 40.0216 51.3035 40.284 53 40.5C51.3156 40.7144 48.9087 40.9747 46.7087 41.7035C46.1633 43.4405 45.7099 46.3514 45.5 48C45.2916 46.363 44.8993 43.4813 44.3182 41.7402C42.1109 41.1269 39.6913 40.7153 38 40.5C39.6823 40.2858 42.0851 40.026 44.2828 39.2993Z" fill="#B4924F"/>
<path d="M7.60741 8.61947C8.04783 7.18475 8.34409 5.22468 8.5 4C8.65449 5.2135 8.98892 7.25439 9.39091 8.60592C11.196 9.14916 12.7559 9.34162 14 9.5C12.7648 9.65726 10.9997 9.84811 9.38638 10.3826C8.9864 11.6564 8.65391 13.7911 8.5 15C8.34717 13.7995 8.05949 11.6863 7.63337 10.4095C6.01469 9.95974 4.24029 9.6579 3 9.5C4.23367 9.34294 5.99574 9.15238 7.60741 8.61947Z" fill="#B4924F"/>
</g>
</svg>
