<svg width="56" height="56" viewBox="0 0 56 56" fill="none" xmlns="http://www.w3.org/2000/svg">
<g opacity="0.8">
<path fill-rule="evenodd" clip-rule="evenodd" d="M13.9472 10H42.6832L55.4376 21.1391L28.0003 50.4637L0.544922 21.1197L13.9472 10ZM14.6688 12L4.77169 20.2116H14.6609L25.3622 12H14.6688ZM28.2934 12.2717L17.9462 20.2116H38.1621L28.2934 12.2717ZM39.4285 22.2116H16.5722L23.5843 37.2005L25.109 36.7257C25.2313 37.1187 25.5084 37.7037 25.9026 38.1382C26.2879 38.5631 26.6693 38.7326 27.0799 38.6698L27.3823 40.6468C26.327 40.8082 25.4715 40.4169 24.8413 39.8875L28.0003 46.6401L39.4285 22.2116ZM24.4228 43.7128L14.3641 22.2116H4.30542L24.4228 43.7128ZM31.5778 43.7128L41.6365 22.2116H51.6952L31.5778 43.7128ZM51.3351 20.2116H41.3527L31.1462 12H41.9328L51.3351 20.2116ZM42.7778 16.745C42.2945 16.5759 41.7939 16.5659 41.5176 16.6028L41.2523 14.6205C41.7965 14.5477 42.619 14.5706 43.4382 14.8572C44.2774 15.1507 45.1657 15.7438 45.6756 16.8355L43.8635 17.6819C43.6349 17.1925 43.2412 16.9071 42.7778 16.745ZM43.4713 24.6886C43.4557 24.6516 43.3817 24.5456 43.1218 24.4263L43.9558 22.6085C44.4138 22.8186 45.0167 23.2067 45.3139 23.9109C45.6301 24.6599 45.4886 25.4876 45.0265 26.3121L43.2818 25.3343C43.4209 25.0862 43.4664 24.9197 43.479 24.8236C43.4904 24.7361 43.4762 24.7001 43.4713 24.6886ZM33.9416 26.4569C34.2339 27.0593 34.2901 27.8206 33.8492 28.5286C33.445 29.1777 32.896 29.6472 32.2117 29.7917C31.5303 29.9355 30.9127 29.7151 30.4579 29.3904C30.0074 29.0689 29.6587 28.6105 29.4452 28.1238C29.2333 27.641 29.1192 27.0465 29.2573 26.455L29.2655 26.4197L29.2763 26.3851C29.5265 25.5816 30.0908 25.0452 30.8245 24.8733C31.4893 24.7175 32.1543 24.8918 32.6641 25.1654C33.1789 25.4418 33.6649 25.8869 33.9416 26.4569ZM31.2 26.9385C31.2297 26.8592 31.2568 26.8326 31.2598 26.8297C31.2597 26.8298 31.26 26.8295 31.2598 26.8297C31.2617 26.8277 31.2651 26.8242 31.2808 26.8205C31.3366 26.8074 31.4977 26.8093 31.7182 26.9276C31.9336 27.0433 32.082 27.2059 32.1423 27.3301C32.185 27.4181 32.1714 27.4397 32.1538 27.4677C32.153 27.4689 32.1522 27.4701 32.1515 27.4714C32.0461 27.6406 31.9556 27.7326 31.8952 27.7804C31.8377 27.8258 31.8053 27.8334 31.7986 27.8348C31.7957 27.8355 31.7399 27.8483 31.6197 27.7625C31.4932 27.6722 31.3612 27.513 31.2766 27.3203C31.2011 27.1482 31.1908 27.0143 31.2 26.9385Z" fill="#292929"/>
<path d="M46.6074 42.6195C47.0478 41.1848 47.3441 39.2247 47.5 38C47.6545 39.2135 47.9889 41.2544 48.3909 42.6059C50.196 43.1492 51.7559 43.3416 53 43.5C51.7648 43.6573 49.9997 43.8481 48.3864 44.3826C47.9864 45.6564 47.6539 47.7911 47.5 49C47.3472 47.7995 47.0595 45.6863 46.6334 44.4095C45.0147 43.9597 43.2403 43.6579 42 43.5C43.2337 43.3429 44.9957 43.1524 46.6074 42.6195Z" fill="#B4924F"/>
</g>
</svg>
