<svg width="56" height="56" viewBox="0 0 56 56" fill="none" xmlns="http://www.w3.org/2000/svg">
<g opacity="0.8" clip-path="url(#clip0_372_6322)">
<path fill-rule="evenodd" clip-rule="evenodd" d="M30.9188 8.65527H42.4711L47.4052 19.7327L45.8698 21.0654L51.2172 21.3115L56.2509 32.4305L39.335 47.3449H0.501953L4.73462 35.749L11.8977 29.6285L14.4072 23.0823L30.9188 8.65527ZM10.398 33.5406L8.29365 35.3387H15.9693L16.7869 34.4797H10.038L10.398 33.5406ZM19.5481 34.4797L17.5667 36.5613L20.4318 43.6466L23.5138 35.8172L24.6529 34.4797H19.5481ZM27.28 34.4797L26.5484 35.3387H34.4221L48.0635 23.1684L43.6792 22.9667L30.4143 34.4797H27.28ZM50.2092 23.9344L35.9994 36.6117L39.3446 44.6701L53.819 31.9083L50.2092 23.9344ZM37.4593 45.3449L34.1357 37.3387H25.0642L21.9126 45.3449H37.4593ZM18.9613 45.3449H3.36105L6.28345 37.3387H15.7237L18.9613 45.3449ZM12.9466 32.4797H28.5766L25.5265 24.672H15.9397L12.9466 32.4797ZM17.9164 22.672H25.8264L39.211 10.6553H31.6695L17.9164 22.672ZM41.4674 11.3173L27.3929 23.9533L30.4563 31.795L44.9755 19.1933L41.4674 11.3173Z" fill="#292929"/>
<path d="M10.2828 10.2993C10.8834 8.34285 11.2874 5.67002 11.5 4C11.7107 5.65478 12.1667 8.4378 12.7149 10.2808C15.1764 11.0216 17.3035 11.284 19 11.5C17.3156 11.7144 14.9087 11.9747 12.7087 12.7035C12.1633 14.4405 11.7099 17.3514 11.5 19C11.2916 17.363 10.8993 14.4813 10.3182 12.7402C8.11094 12.1269 5.69131 11.7153 4 11.5C5.68227 11.2858 8.08511 11.026 10.2828 10.2993Z" fill="#B4924F"/>
</g>
<defs>
<clipPath id="clip0_372_6322">
<rect width="56" height="56" fill="white"/>
</clipPath>
</defs>
</svg>
