<?xml version="1.0" standalone="no"?>
<!DOCTYPE svg PUBLIC "-//W3C//DTD SVG 20010904//EN"
 "http://www.w3.org/TR/2001/REC-SVG-20010904/DTD/svg10.dtd">
<svg version="1.0" xmlns="http://www.w3.org/2000/svg"
 width="700.000000pt" height="700.000000pt" viewBox="0 0 700.000000 700.000000"
 preserveAspectRatio="xMidYMid meet">
<metadata>
Created by potrace 1.14, written by Peter Selinger 2001-2017
</metadata>
<g transform="translate(0.000000,700.000000) scale(0.100000,-0.100000)"
fill="#000000" stroke="none">
<path d="M1013 5986 l-1013 -1013 0 -1473 0 -1473 1013 -1013 1012 -1013 1474
-1 1475 0 1013 1013 1013 1012 0 1474 0 1475 -1012 1013 -1013 1013 -1475 0
-1475 -1 -1012 -1013z m3627 551 c0 -2 -255 -258 -567 -570 l-568 -567 -500
498 c-275 273 -531 530 -569 570 l-70 72 1137 0 c625 0 1137 -1 1137 -3z
m-2506 -347 c4 -140 8 -327 11 -415 4 -146 12 -438 20 -767 l3 -128 -807 0
-806 0 785 785 c431 431 785 783 786 782 1 -1 5 -117 8 -257z m3529 -528 c422
-422 767 -771 767 -775 0 -4 -348 -7 -773 -7 l-774 0 0 775 c0 426 3 775 6
775 3 0 351 -346 774 -768z m-1008 -130 l-1 -647 -314 -3 -315 -2 -180 180
-179 180 489 488 c387 386 491 485 495 470 3 -11 5 -310 5 -666z m-1797 193
l487 -485 -180 -180 -180 -180 -295 3 -295 2 -1 65 c-8 346 -21 880 -29 1133
-2 70 -1 127 2 127 2 0 223 -218 491 -485z m866 -864 l208 -208 347 -1 c190 0
353 -1 361 -1 13 -1 15 -48 15 -360 l0 -360 212 -213 213 -213 -213 -213 -212
-212 0 -358 -1 -357 -364 -5 -365 -5 -206 -208 c-114 -114 -210 -207 -213
-207 -3 0 -101 95 -217 210 l-211 210 -300 0 -299 0 6 97 c3 54 8 118 10 143
2 25 7 97 11 160 3 63 8 124 10 135 3 14 -67 90 -276 300 l-280 280 34 30 c35
32 268 251 367 347 l59 57 -5 208 c-3 114 -7 281 -10 371 -4 162 -4 162 18
163 12 0 165 1 339 1 l316 1 209 209 c114 114 212 208 218 208 6 0 104 -94
219 -209z m-1559 -210 c6 -1 11 -45 11 -109 1 -59 5 -204 8 -323 l6 -215 -146
-140 c-81 -76 -167 -158 -192 -182 -25 -23 -49 -41 -53 -40 -8 3 -1009 999
-1009 1004 0 8 1291 12 1375 5z m4060 0 c1 -1 -968 -968 -980 -979 -2 -2 -84
76 -183 175 l-179 178 0 312 0 312 31 3 c26 2 1310 1 1311 -1z m-5173 -592
l583 -580 -96 -92 c-155 -149 -427 -408 -457 -435 -15 -14 -103 -98 -197 -187
-93 -89 -186 -177 -205 -195 -19 -17 -74 -70 -122 -116 -47 -46 -89 -84 -92
-84 -3 0 -7 511 -8 1135 -2 624 0 1135 4 1135 4 0 270 -261 590 -581z m5486
-1114 l-3 -565 -562 561 c-310 308 -563 563 -563 567 0 3 253 258 563 567
l562 560 3 -563 c1 -309 1 -816 0 -1127z m-799 -95 l493 -490 -674 0 -675 0 1
315 1 315 175 175 c96 96 177 175 181 175 3 0 227 -220 498 -490z m-3695 221
l238 -238 -6 -89 c-13 -195 -19 -280 -21 -309 -2 -16 -3 -40 -4 -52 l-1 -23
-730 0 -731 0 78 74 c43 41 96 91 118 111 22 21 120 115 218 209 99 94 188
178 198 187 28 24 339 320 363 346 12 12 26 22 31 22 6 1 117 -106 249 -238z
m163 -941 c26 0 31 -4 28 -19 -2 -11 -6 -68 -10 -128 -3 -59 -8 -126 -9 -148
-2 -22 -7 -89 -11 -150 -3 -60 -8 -132 -10 -158 -3 -27 -7 -94 -10 -150 -3
-55 -8 -121 -10 -146 -2 -25 -7 -93 -10 -151 -4 -58 -8 -124 -10 -148 -2 -23
-7 -94 -10 -158 -4 -63 -8 -123 -10 -132 -2 -9 -4 -35 -4 -57 l-1 -39 -790
789 c-776 777 -789 790 -757 795 23 4 1353 4 1624 0z m728 1 l50 -1 172 -172
c95 -95 175 -176 179 -180 3 -4 -194 -206 -439 -450 -467 -465 -533 -529 -525
-513 3 6 9 64 13 130 4 66 9 136 10 155 1 19 6 87 9 150 4 63 9 135 11 159 2
24 7 92 10 150 4 58 8 124 10 146 2 22 7 92 11 155 4 63 8 126 10 140 1 14 2
48 3 77 l1 52 68 3 c58 3 123 2 407 -1z m1716 -6 c1 -5 2 -308 3 -672 1 -587
-1 -660 -14 -648 -8 8 -230 228 -494 490 l-479 477 59 60 c231 234 296 293
327 298 63 10 597 5 598 -5z m1795 3 c2 -2 -349 -356 -780 -787 l-783 -783 0
786 0 785 21 3 c29 4 1538 0 1542 -4z m-2310 -1145 l525 -523 -1156 0 -1156 0
578 575 577 575 54 -52 c29 -29 290 -288 578 -575z"/>
</g>
</svg>
