<svg width="50" height="50" viewBox="0 0 50 50" fill="none" xmlns="http://www.w3.org/2000/svg">
<path d="M14.9862 17.982L7.25517 14.7351M14.9862 17.982H27.6M14.9862 17.982V24.8816M7.25517 14.7351L14.1724 12.7058H28.8207L35.7379 14.7351M7.25517 14.7351L4 20.4171M35.7379 14.7351L27.6 17.982M35.7379 14.7351L38.5862 20.4171M27.6 17.982L28.4138 24.8816M4 20.4171L14.9862 24.8816M4 20.4171L21.4965 41.1159M14.9862 24.8816H28.4138M14.9862 24.8816L21.4965 41.1159M38.5862 20.4171L28.4138 24.8816M38.5862 20.4171L21.4965 41.1159M28.4138 24.8816L21.4965 41.1159" stroke="#B4924F" stroke-width="2"/>
<circle cx="32.4117" cy="22.5874" r="12.5874" stroke="#292929" stroke-width="2"/>
<path d="M39.8242 32.4692L46.6179 39.8806" stroke="#292929" stroke-width="2"/>
</svg>
