<svg width="50" height="50" viewBox="0 0 50 50" fill="none" xmlns="http://www.w3.org/2000/svg">
<path d="M14.2258 1C14.2258 4.28402 11.4686 7 8 7L8 9C12.5128 9 16.2258 5.44797 16.2258 1L14.2258 1ZM40 7C36.5314 7 33.7742 4.28402 33.7742 1L31.7742 1C31.7742 5.44797 35.4872 9 40 9L40 7ZM16.2258 49C16.2258 44.552 12.5128 41 8 41L8 43C11.4686 43 14.2258 45.716 14.2258 49L16.2258 49ZM40 41C35.4872 41 31.7742 44.552 31.7742 49L33.7742 49C33.7742 45.716 36.5314 43 40 43L40 41Z" fill="#B4924F"/>
<path d="M38 1L10 0.999999C9.44772 0.999999 9 1.44771 9 2L9 8.13513L9 41.8649L9 48C9 48.5523 9.44772 49 10 49L38 49C38.5523 49 39 48.5523 39 48L39 41.8649L39 8.13514L39 2C39 1.44772 38.5523 1 38 1Z" stroke="#292929" stroke-width="2"/>
<circle cx="24" cy="25" r="10" stroke="#B4924F" stroke-width="2"/>
</svg>
